<svg width="51" height="51" viewBox="0 0 51 51" fill="none" xmlns="http://www.w3.org/2000/svg">
<circle cx="25.2186" cy="25.0728" r="24.5" transform="rotate(0.167159 25.2186 25.0728)" fill="white" stroke="#F2F2F2"/>
<path fill-rule="evenodd" clip-rule="evenodd" d="M34.201 31.099L34.2418 17.0991C34.2451 15.9991 33.3477 15.0965 32.2477 15.0933L18.2477 15.0524C17.1478 15.0492 16.2451 15.9466 16.2419 17.0466L16.2011 31.0465C16.1979 32.1465 17.0952 33.0491 18.1952 33.0523L32.1952 33.0932C33.2952 33.0964 34.1978 32.199 34.201 31.099ZM20.2302 21.0583L20.2361 19.0583L30.236 19.0875L30.2302 21.0875L20.2302 21.0583ZM20.2186 25.0583L20.2244 23.0583L30.2244 23.0874L30.2185 25.0874L20.2186 25.0583ZM20.2069 29.0583L20.2127 27.0583L26.2127 27.0758L26.2069 29.0758L20.2069 29.0583Z" fill="#4285F4"/>
</svg>
