<svg width="44" height="44" viewBox="0 0 44 44" fill="none" xmlns="http://www.w3.org/2000/svg">
<circle cx="22" cy="22" r="21.5" fill="white" stroke="#F2F2F2"/>
<g clip-path="url(#clip0)">
<path d="M14.0342 16.2338H29.9658C30.5321 16.2338 31 15.7403 31 15.1169C31 14.4935 30.5321 14 29.9658 14H14.0342C13.4679 14 13 14.4935 13 15.1169C13 15.7403 13.4679 16.2338 14.0342 16.2338ZM29.9658 20.8831H14.0342C13.4679 20.8831 13 21.3766 13 22C13 22.6234 13.4679 23.1169 14.0342 23.1169H29.9658C30.5321 23.1169 31 22.6234 31 22C31.0246 21.3766 30.5568 20.8831 29.9658 20.8831ZM29.9658 27.7662H14.0342C13.4679 27.7662 13 28.2597 13 28.8831C13 29.5065 13.4679 30 14.0342 30H29.9658C30.5321 30 31 29.5065 31 28.8831C31.0246 28.2597 30.5568 27.7662 29.9658 27.7662Z" fill="#AEAEAE"/>
</g>
<defs>
<clipPath id="clip0">
<rect width="18" height="16" fill="white" transform="translate(13 14)"/>
</clipPath>
</defs>
</svg>
