<svg width="28" height="24" viewBox="0 0 28 24" fill="none" xmlns="http://www.w3.org/2000/svg">
<path d="M24.45 1.5C24.1499 0.6 23.25 0 22.35 0H5.84998C4.79998 0 4.04998 0.6 3.74998 1.5L0.599976 10.5V22.5C0.599976 23.4 1.19998 24 2.09998 24H3.59998C4.49998 24 5.09998 23.4 5.09998 22.5V21H23.1V22.5C23.1 23.4 23.7 24 24.6 24H26.1C27 24 27.6 23.4 27.6 22.5V10.5L24.45 1.5ZM5.84998 16.5C4.64998 16.5 3.59998 15.45 3.59998 14.25C3.59998 13.05 4.64998 12 5.84998 12C7.04998 12 8.09998 13.05 8.09998 14.25C8.09998 15.45 7.04998 16.5 5.84998 16.5ZM22.35 16.5C21.15 16.5 20.1 15.45 20.1 14.25C20.1 13.05 21.15 12 22.35 12C23.55 12 24.6 13.05 24.6 14.25C24.6 15.45 23.55 16.5 22.35 16.5ZM3.59998 9L5.84998 2.25H22.35L24.6 9H3.59998Z" fill="#AEAEAE"/>
</svg>
