<svg width="44" height="44" viewBox="0 0 44 44" fill="none" xmlns="http://www.w3.org/2000/svg">
<mask id="mask0" mask-type="alpha" maskUnits="userSpaceOnUse" x="0" y="0" width="44" height="44">
<path d="M22 44C34.1503 44 44 34.1503 44 22C44 9.84974 34.1503 0 22 0C9.84974 0 0 9.84974 0 22C0 34.1503 9.84974 44 22 44Z" fill="#C4C4C4"/>
</mask>
<g mask="url(#mask0)">
<path d="M22 44C34.1503 44 44 34.1503 44 22C44 9.84974 34.1503 0 22 0C9.84974 0 0 9.84974 0 22C0 34.1503 9.84974 44 22 44Z" fill="#FFC107"/>
<mask id="mask1" mask-type="alpha" maskUnits="userSpaceOnUse" x="0" y="0" width="44" height="44">
<path d="M22 44C34.1503 44 44 34.1503 44 22C44 9.84974 34.1503 0 22 0C9.84974 0 0 9.84974 0 22C0 34.1503 9.84974 44 22 44Z" fill="#C4C4C4"/>
</mask>
<g mask="url(#mask1)">
<path d="M22 44C34.1503 44 44 34.1503 44 22C44 9.84974 34.1503 0 22 0C9.84974 0 0 9.84974 0 22C0 34.1503 9.84974 44 22 44Z" fill="#F2F2F2"/>
<path d="M22 33.5C18 33.5 14.5 31.5 12.4 28.4C12.4 25.2 18.8 23.4 22 23.4C25.2 23.4 31.6 25.2 31.6 28.4C29.5 31.5 26 33.5 22 33.5ZM22 10.8C23.3 10.8 24.5 11.3 25.4 12.2C26.3 13.1 26.8 14.3 26.8 15.6C26.8 16.9 26.3 18.1 25.4 19C24.5 19.9 23.3 20.4 22 20.4C20.7 20.4 19.5 19.9 18.6 19C17.7 18.1 17.2 16.9 17.2 15.6C17.2 14.3 17.7 13.1 18.6 12.2C19.5 11.3 20.7 10.8 22 10.8ZM22 6C19.9 6 17.8 6.4 15.9 7.2C14 8 12.2 9.2 10.7 10.7C7.7 13.7 6 17.8 6 22C6 26.2 7.7 30.3 10.7 33.3C12.2 34.8 14 36 15.9 36.8C17.8 37.6 19.9 38 22 38C26.2 38 30.3 36.3 33.3 33.3C36.3 30.3 38 26.2 38 22C38 13.2 30.8 6 22 6Z" fill="#C6CACC"/>
</g>
<path d="M44 22C44 26.3 42.8 30.3 40.7 33.7C36.8 39.9 29.9 44 22 44C21.3 44 20.7 44 20.1 43.9C18.5 43.8 16.8 43.4 15.3 42.9C14.3 42.6 13.4 42.2 12.5 41.8C12.1 41.6 11.7 41.4 11.2 41.1C10.5 40.7 9.8 40.3 9.1 39.8C8.1 39.1 7.3 38.4 6.5 37.6C5 36.1 3.7 34.5 2.7 32.7C1 29.6 0 25.9 0 22C0 9.9 9.9 0 22 0C34.1 0 44 9.9 44 22Z" fill="#C6C9CB"/>
<path d="M40.7 33.6999C36.8 39.8999 29.9 43.9999 22 43.9999C21.3 43.9999 20.7 43.9999 20.1 43.8999C18.7 42.1999 17.9 38.9999 18.4 37.7999C18.9 36.6999 19.6 35.7999 20.4 34.9999C21.7 33.7999 23.3 33.0999 24.9 32.7999C27.8 32.1999 30.7 31.5999 33.7 31.2999C36.1 31.0999 39.7 30.6999 40.7 33.6999Z" fill="#DBD6CC"/>
<path d="M20.3 35L20 43.9C18.4 43.8 16.7 43.4 15.2 42.9C15.2 42.9 15.7 42.4 16.7 39.3C17.7 36 20.2 35.1 20.3 35Z" fill="#DBD6CC"/>
<path d="M38.4 25.1999C38.4 25.3999 38.3 25.4999 38.3 25.6999C36.9 29.9999 32.7 33.8999 27 35.6999C21.4 37.3999 15.9 36.5999 12.3 33.9999C10.7 32.7999 9.49995 31.1999 8.89995 29.2999C8.29995 27.3999 8.39995 25.3999 9.09995 23.4999C9.19995 23.0999 9.49995 22.5999 9.69995 22.1999C11 19.2999 15.1 16.3999 15.1 16.3999C16.2 15.5999 17.5 14.9999 18.9 14.4999C19.3 14.3999 19.7 14.1999 20.1 14.0999C20.1 14.0999 20.2 14.0999 20.3 14.0999H20.4H20.5L21.1 13.9999C21.1 13.9999 23.9 13.2999 24.9 13.2999C24.9 13.2999 26 13.1999 27.8 13.3999C29 13.4999 30.5 13.7999 32.2 14.3999C32.4 14.4999 32.6 14.4999 32.8 14.5999L34 14.9999L34.1 15.0999C34.5 15.2999 34.8 15.4999 35.1 15.7999C35.1 15.7999 35.4 15.9999 35.4 16.0999C35.4 16.0999 35.5 16.1999 35.6 16.2999L35.7 16.3999L36 16.6999L36.1 16.7999C36.1 16.7999 36.2 16.8999 36.3 16.9999L36.5 17.2999C36.5 17.2999 36.7 17.4999 36.8 17.5999C36.9 17.6999 37.1 17.9999 37.1 17.9999C37.1 17.9999 37.2 18.2999 37.3 18.2999L37.4 18.3999C37.4 18.3999 37.5 18.6999 37.6 18.6999C37.6 18.6999 37.6 18.7999 37.7 18.7999V18.8999C37.7 18.9999 38 19.4999 38 19.5999C38 19.6999 38.1 19.6999 38.1 19.7999V19.8999C38.1 19.8999 38.1 19.9999 38.2 19.9999C38.2 19.9999 38.6 22.4999 38.5 24.1999C38.5 24.5999 38.4 24.8999 38.4 25.1999Z" fill="#EEECE8"/>
<path d="M11.1999 23.0002C11.1999 23.0002 11.0999 22.6002 10.0999 21.2002C9.09995 19.8002 9.49995 18.9002 10.0999 18.4002C10.6999 17.9002 14.0999 19.1002 14.0999 19.1002C13.6999 20.7002 12.6999 22.1002 11.1999 23.0002Z" fill="#837973"/>
<path d="M38.5 24.2999C36.5 23.8999 33.1 24.4999 29.4 22.7999C29.1 22.6999 28.9 22.4999 28.7 22.3999C27.8 21.8999 26.9 21.1999 26 20.2999C25.8 20.0999 25.6 19.8999 25.4 19.6999C23.5 17.8999 21.5 15.6999 20.2 13.9999C20.2 13.9999 20.2 13.9999 20.1 13.8999C20.1 13.8999 20.2 13.8999 20.3 13.8999H20.4H20.5L21.1 13.7999C21.1 13.7999 23.9 13.0999 24.9 13.0999C24.9 13.0999 26 12.9999 27.8 13.1999C28.3 12.2999 29.2 10.4999 29.9 10.3999C30.1 10.3999 30.4 10.3999 30.6 10.3999C31.2 10.5999 31.7 11.0999 31.9 12.2999C32 13.1999 32.2 13.6999 32.3 13.9999C32.5 14.0999 32.7 14.0999 32.9 14.1999L34.1 14.8999L34.2 14.9999C34.6 15.1999 34.9 15.3999 35.2 15.6999C35.2 15.6999 35.5 15.8999 35.5 15.9999C35.5 15.9999 35.6 16.0999 35.7 16.1999L35.8 16.2999L36.1 16.5999L36.2 16.6999C36.2 16.6999 36.3 16.7999 36.4 16.8999L36.6 17.1999C36.6 17.1999 36.8 17.3999 36.9 17.4999C37 17.5999 37.2 17.8999 37.2 17.8999C37.2 17.8999 37.3 18.1999 37.4 18.1999L37.5 18.2999C37.5 18.2999 37.6 18.5999 37.7 18.5999C37.7 18.5999 37.7 18.6999 37.8 18.6999V18.7999C37.8 18.8999 38.1 19.3999 38.1 19.4999C38.1 19.5999 38.2 19.5999 38.2 19.6999V19.7999C38.2 19.7999 38.2 19.8999 38.3 19.8999C38.3 20.0999 38.6 22.4999 38.5 24.2999Z" fill="#E1B885"/>
<path d="M31.6 13.9001L29.7 13.4001L30.2 10.6001C30.7 10.7001 31.0999 11.2001 31.2999 12.3001C31.3999 13.2001 31.5 13.6001 31.6 13.9001Z" fill="#EEECE8"/>
<path d="M37.7 22.5001L33.4 22.1001L37.3 19.6001C37.3 19.7001 37.9 21.6001 37.7 22.5001Z" fill="#CDA273"/>
<path d="M32.7 20.8999L36.4 18.8999C36.4 18.8999 36.1 17.4999 35.2 16.8999L32.7 20.8999Z" fill="#CDA273"/>
<path d="M32.1 19.0999C32.1 18.8999 33.8 15.9999 33.8 15.9999C33.8 15.9999 33.2 15.0999 32.3 14.8999L32.1 19.0999Z" fill="#CDA273"/>
<path d="M31.9 20.6999C32.8 23.4999 29.2 25.6999 27 23.8999C26.8 23.6999 26.6 23.4999 26.3 23.4999C26.2 21.5999 26 19.4999 28.3 18.7999C29.7 18.2999 31.4 19.0999 31.9 20.6999Z" fill="#623B28"/>
<path d="M15.5 25.8C16.4 28.6 20.5 28.4 21.4 25.7C21.5 25.4 21.5 25.1 21.7 24.9C20.7 23.3 19.7 21.4 17.4 22.1C15.9 22.7 15 24.3 15.5 25.8Z" fill="#623B28"/>
<path d="M30.9999 22.5002C31.5999 21.2002 31.0999 19.7002 29.8999 19.1002C28.6999 18.5002 27.1999 19.1002 26.5999 20.4002C25.9999 21.7002 26.4999 23.2002 27.6999 23.8002C28.8999 24.4002 30.3999 23.8002 30.9999 22.5002Z" fill="#1C0F08"/>
<path d="M18.8999 27.0002C20.1999 26.5002 20.8999 25.1002 20.4999 23.9002C20.0999 22.7002 18.5999 22.0002 17.2999 22.5002C15.9999 23.0002 15.2999 24.4002 15.6999 25.6002C16.1999 26.8002 17.5999 27.5002 18.8999 27.0002Z" fill="#1C0F08"/>
<path d="M12.5 41.8999C12.1 41.6999 11.7 41.4999 11.2 41.1999C10.5 40.7999 9.8 40.3999 9.1 39.8999C8.1 39.1999 7.3 38.4999 6.5 37.6999C6.3 37.3999 6.1 37.0999 6 36.7999C6.3 36.4999 6.7 36.1999 7.2 35.9999C9.3 35.3999 11 36.5999 11.6 37.4999C12.3 38.3999 12.5 40.0999 12.5 41.8999Z" fill="#DCD7CC"/>
<path d="M20.1999 24.8001C20.5999 24.6001 20.7999 24.1001 20.5999 23.7001C20.3999 23.3001 19.8999 23.1001 19.4999 23.3001C19.0999 23.5001 18.8999 24.0001 19.0999 24.4001C19.2999 24.9001 19.7999 25.1001 20.1999 24.8001Z" fill="#F3F3F3"/>
<path d="M18.2 23.3001C18.4 23.2001 18.4 23.0001 18.4 22.8001C18.3 22.6001 18.1 22.6001 17.9 22.6001C17.7 22.7001 17.7 22.9001 17.7 23.1001C17.8 23.3001 18.1 23.4001 18.2 23.3001Z" fill="#F3F3F3"/>
<path d="M31.1 21.3001C31.5 21.1001 31.7 20.6001 31.5 20.2001C31.3 19.8001 30.8 19.6001 30.4 19.8001C30 20.0001 29.8 20.5001 30 20.9001C30.2 21.4001 30.7 21.5001 31.1 21.3001Z" fill="#F3F3F3"/>
<path d="M29.1 19.8001C29.3 19.7001 29.3 19.5001 29.3 19.3001C29.2 19.1001 29 19.1001 28.8 19.1001C28.6 19.2001 28.6 19.4001 28.6 19.6001C28.6 19.8001 28.9 19.9001 29.1 19.8001Z" fill="#F3F3F3"/>
<path d="M26.4 13.7002C26.4 13.7002 30 16.4002 26.9 18.5002C23.8 20.6002 18.8 20.6002 17.9 20.5002C17 20.4002 13.4 18.0002 13.4 18.0002L20.3 15.0002L26.4 13.7002Z" fill="#4C2C22"/>
<path d="M17.6 10.9998C18.3 10.3998 21.5 8.19982 23.9 9.49982C26.4 10.6998 26.9 13.2998 25.8 15.2998C24.7 17.0998 18.1 20.0998 13.3 18.0998C13 17.9998 12.1 17.1998 11.9 16.7998C10.1 12.7998 16.4 12.0998 17.6 10.9998Z" fill="#623B28"/>
<path d="M25.2 26.5001V26.4001C25.3 26.0001 25 25.7001 24.7 25.8001H24.6C24.2 25.9001 24.1 26.3001 24.4 26.6001L24.5 26.7001C24.6 26.9001 25 26.8001 25.2 26.5001Z" fill="#BD8376"/>
<path d="M25.2 26.7999C25.1 27.0999 25.1 27.7999 25.1 27.7999C25 28.3999 25 28.6999 24.6 29.2999C24.5 29.5999 24.2 29.7999 23.6 29.9999C23.1 30.1999 22.6 30.1999 22.1 30.0999C22.1 30.0999 21.5 29.9999 21 29.2999C21.7 29.5999 22 29.4999 22.4 29.0999C22.5 28.8999 22.5 28.4999 22.7 27.9999C22.8 27.2999 23.3 26.6999 24 26.6999C24.3 26.4999 24.6 26.4999 25.2 26.7999Z" fill="#623B28"/>
<path d="M24.8 26.9001C25 27.1001 25.5 27.6001 25.5 27.6001C25.9 28.0001 26.2 28.2001 26.8 28.4001C27.1 28.5001 27.4 28.5001 28 28.3001C28.5 28.1001 28.9001 27.8001 29.2001 27.3001C29.2001 27.3001 29.6 26.8001 29.5 25.9001C29.1 26.6001 28.9 26.7001 28.4 26.7001C28.1 26.7001 27.9 26.3001 27.5 26.0001C27 25.6001 26.2 25.4001 25.6 25.9001C25.4 26.1001 25.1 26.4001 24.8 26.9001Z" fill="#623B28"/>
</g>
</svg>
