<svg width="23" height="22" viewBox="0 0 23 22" fill="none" xmlns="http://www.w3.org/2000/svg">
<path d="M11.9956 22C18.0707 22 22.9956 17.0751 22.9956 11C22.9956 4.92487 18.0707 0 11.9956 0C5.92047 0 0.995605 4.92487 0.995605 11C0.995605 17.0751 5.92047 22 11.9956 22Z" fill="#DC4E41"/>
<path d="M4.82468 11.4939C4.78566 13.3865 6.08924 15.1927 7.88244 15.7817C9.57152 16.3492 11.6483 15.9247 12.7722 14.4781C13.5928 13.4646 13.7793 12.1133 13.6905 10.8509C12.244 10.838 10.7974 10.8423 9.35308 10.8445C9.35073 11.3598 9.35308 11.8731 9.35524 12.3884C10.2214 12.4124 11.0877 12.4014 11.9538 12.4188C11.7351 13.1681 11.2371 13.8654 10.4812 14.136C9.0217 14.7791 7.15947 13.9389 6.70024 12.4079C6.14591 10.9417 7.05339 9.17245 8.55168 8.74597C9.48073 8.41909 10.4378 8.78714 11.2328 9.2701C11.6355 8.89323 12.0124 8.49047 12.3826 8.08339C11.4794 7.32768 10.3188 6.86433 9.12562 6.9661C6.78456 6.99394 4.73586 9.1552 4.82468 11.4939Z" fill="#DC4E41"/>
<path d="M16.5053 9.54395C16.501 9.97494 16.4964 10.4081 16.4943 10.8389C16.0611 10.8432 15.6303 10.8454 15.1993 10.8475C15.1993 11.2785 15.1993 11.7072 15.1993 12.1382C15.6303 12.1403 16.0635 12.1425 16.4943 12.147C16.4986 12.578 16.4986 13.0088 16.5029 13.4419C16.9318 13.4419 17.3627 13.4398 17.7935 13.4419C17.7959 13.0088 17.7979 12.578 17.8024 12.1448C18.2332 12.1427 18.6663 12.1405 19.0973 12.1384C19.0973 11.7074 19.0973 11.2787 19.0973 10.8477C18.6665 10.8456 18.2334 10.8434 17.8024 10.8391C17.8 10.4081 17.7959 9.97494 17.7935 9.54414C17.3627 9.54395 16.9339 9.54395 16.5053 9.54395Z" fill="#DC4E41"/>
<path d="M4.82468 11.4931C4.73586 9.15442 6.78436 6.99316 9.12543 6.96512C10.3186 6.86335 11.4794 7.3267 12.3824 8.08242C12.012 8.48969 11.6351 8.89225 11.2326 9.26913C10.4376 8.78617 9.48054 8.41812 8.55148 8.74499C7.053 9.17167 6.14552 10.9409 6.70005 12.4069C7.15928 13.9379 9.0215 14.7781 10.481 14.135C11.2367 13.8644 11.7349 13.1671 11.9536 12.4179C11.0875 12.4006 10.2212 12.4114 9.35504 12.3875C9.35289 11.8722 9.35073 11.3588 9.35289 10.8435C10.7973 10.8413 12.2438 10.837 13.6903 10.85C13.7791 12.1126 13.5928 13.4638 12.772 14.4772C11.6481 15.9237 9.57152 16.3482 7.88225 15.7807C6.08944 15.1919 4.78566 13.3857 4.82468 11.4931Z" fill="white"/>
<path d="M16.5053 9.54395C16.9341 9.54395 17.3627 9.54395 17.7935 9.54395C17.7959 9.97494 17.8 10.4081 17.8024 10.8389C18.2332 10.8432 18.6663 10.8454 19.0973 10.8475C19.0973 11.2785 19.0973 11.7072 19.0973 12.1382C18.6665 12.1403 18.2334 12.1425 17.8024 12.1446C17.7981 12.5778 17.7959 13.0086 17.7935 13.4417C17.3627 13.4396 16.9316 13.4417 16.5029 13.4417C16.4988 13.0086 16.4988 12.5778 16.4943 12.1468C16.0635 12.1423 15.6303 12.1403 15.1993 12.138C15.1993 11.707 15.1993 11.2783 15.1993 10.8473C15.6303 10.8452 16.0613 10.843 16.4943 10.8387C16.4964 10.4081 16.5008 9.97494 16.5053 9.54395Z" fill="white"/>
</svg>
