<svg width="22" height="18" viewBox="0 0 22 18" fill="none" xmlns="http://www.w3.org/2000/svg">
<path d="M21.2352 13.1848C20.8871 13.1848 20.5389 12.7718 20.5389 12.4276V4.51172H22.001V12.4965C22.001 12.7718 21.5833 13.1848 21.2352 13.1848Z" fill="#363636"/>
<path d="M10.8611 11.1167L4.59497 8.50098V12.9752C4.59497 16.4857 7.51918 18.0001 11.07 18.0001C14.6208 18.0001 17.545 16.4857 17.545 12.9752V8.56981L11.7662 11.0478C11.4181 11.2543 11.07 11.2543 10.8611 11.1167Z" fill="#363636"/>
<path d="M21.7923 4.50863L11.1398 0.103251C10.8614 -0.034417 10.5829 -0.034417 10.3044 0.103251L0.208872 4.50863C-0.069624 4.6463 -0.069624 4.99047 0.208872 5.12814L1.4621 5.67881L4.52556 6.91782L10.7917 9.53351C11.0702 9.67118 11.3487 9.67118 11.6272 9.53351L17.406 7.05549L20.4695 5.74764L21.7227 5.19697C22.0708 4.99047 22.0708 4.57746 21.7923 4.50863Z" fill="#363636"/>
</svg>
