<svg width="50" height="50" viewBox="0 0 50 50" fill="none" xmlns="http://www.w3.org/2000/svg">
<circle cx="25" cy="25" r="24.5" fill="white" stroke="#F2F2F2"/>
<path d="M34.269 28.6803C33.9368 28.6803 33.6045 28.3144 33.6045 28.0095V20.9971H35.0001V28.0705C35.0001 28.3144 34.6013 28.6803 34.269 28.6803Z" fill="#363636"/>
<path d="M24.367 26.8479L18.386 24.5308V28.4943C18.386 31.6042 21.1771 32.9457 24.5664 32.9457C27.9556 32.9457 30.7467 31.6042 30.7467 28.4943V24.5917L25.2309 26.7869C24.8986 26.9699 24.5664 26.9699 24.367 26.8479Z" fill="#363636"/>
<path d="M34.8006 20.994L24.6329 17.0915C24.3671 16.9695 24.1013 16.9695 23.8354 17.0915L14.1994 20.994C13.9335 21.116 13.9335 21.4209 14.1994 21.5428L15.3956 22.0307L18.3196 23.1283L24.3006 25.4454C24.5665 25.5674 24.8323 25.5674 25.0981 25.4454L30.6139 23.2502L33.538 22.0916L34.7342 21.6038C35.0665 21.4209 35.0665 21.055 34.8006 20.994Z" fill="#363636"/>
</svg>
