<svg width="14" height="22" viewBox="0 0 14 22" fill="none" xmlns="http://www.w3.org/2000/svg">
<path d="M6.42992 15.4962C4.75158 15.3183 3.23831 14.8983 1.94271 13.8686C1.78195 13.7405 1.61598 13.617 1.46928 13.4739C0.902195 12.9204 0.845056 12.2866 1.29378 11.6334C1.67765 11.0744 2.32205 10.9249 2.99184 11.2458C3.12154 11.308 3.24511 11.3857 3.36347 11.4691C5.77804 13.155 9.09504 13.2015 11.5187 11.5449C11.7588 11.3578 12.0155 11.2053 12.313 11.1274C12.8914 10.9765 13.4308 11.1924 13.7412 11.7066C14.0958 12.294 14.0913 12.8672 13.6544 13.3232C12.9841 14.0222 12.178 14.528 11.2824 14.881C10.4355 15.2146 9.50794 15.3826 8.58986 15.4941C8.7284 15.6473 8.7937 15.7227 8.88032 15.8111C10.1269 17.0839 11.379 18.3514 12.6216 19.6281C13.0449 20.0631 13.1333 20.6025 12.9002 21.1085C12.6454 21.6615 12.0749 22.0253 11.5155 21.9863C11.1611 21.9614 10.8847 21.7822 10.6392 21.5308C9.6984 20.5689 8.73997 19.6246 7.81826 18.6445C7.55003 18.3595 7.42101 18.4134 7.18429 18.6608C6.23787 19.6509 5.27604 20.6258 4.30853 21.5951C3.8741 22.0303 3.35713 22.1087 2.85331 21.8601C2.31774 21.5962 1.97695 21.0407 2.00325 20.4824C2.02139 20.1048 2.20414 19.8163 2.45923 19.5576C3.69293 18.3058 4.92323 17.0507 6.15398 15.7969C6.23538 15.7134 6.31134 15.625 6.42992 15.4962Z" fill="#F7931E"/>
<path d="M7.45193 11.1354C4.45781 11.1251 2.00265 8.60279 2.02011 5.55541C2.03734 2.47438 4.49409 -0.00850324 7.51769 2.1888e-05C10.5474 0.0083166 12.9792 2.52692 12.964 5.63997C12.9486 8.68113 10.4764 11.146 7.45193 11.1354ZM10.1731 5.56278C10.1678 4.04969 8.98198 2.84511 7.49592 2.84373C5.99738 2.84211 4.80087 4.06858 4.81243 5.5955C4.82354 7.10283 6.0196 8.29889 7.50975 8.29335C8.99536 8.28806 10.178 7.07564 10.1731 5.56278Z" fill="#F7931E"/>
</svg>
