<svg width="15" height="18" viewBox="0 0 15 18" fill="none" xmlns="http://www.w3.org/2000/svg">
<path d="M14.9462 15.1823L13.6585 13.0358C13.0637 12.045 12.7495 10.9102 12.7495 9.75526V7.875C12.7495 5.50125 11.1655 3.49351 8.99946 2.84625V1.50001C8.99946 0.67275 8.32671 0 7.49945 0C6.67219 0 5.99944 0.67275 5.99944 1.50001V2.84625C3.83347 3.49351 2.24947 5.50125 2.24947 7.875V9.75526C2.24947 10.9102 1.9352 12.0442 1.3412 13.035L0.0534667 15.1815C-0.0162833 15.2978 -0.017795 15.4418 0.0489667 15.5595C0.115728 15.6773 0.239478 15.75 0.374478 15.75H14.6245C14.7595 15.75 14.884 15.6773 14.9507 15.5603C15.0175 15.4433 15.0152 15.2977 14.9462 15.1823Z" fill="#EF8B2E"/>
<path d="M5.13782 16.5C5.56082 17.3835 6.45632 18 7.49954 18C8.54277 18 9.43831 17.3835 9.86131 16.5H5.13782Z" fill="#EF8B2E"/>
</svg>
