<svg width="50" height="50" viewBox="0 0 50 50" fill="none" xmlns="http://www.w3.org/2000/svg">
<circle cx="25" cy="25" r="24.5" fill="white" stroke="#F2F2F2"/>
<path d="M27.2196 14H23.887H22.7761C18.4888 14 15 17.2977 15 21.35V24.5C15 27.3465 16.7357 29.9264 19.4435 31.1445V34.6514C19.4435 34.9549 19.847 35.1148 20.077 34.8975L20.5543 34.4463L23.3011 31.85H27.2196C31.5068 31.85 34.9957 28.5523 34.9957 24.5V21.35C35 17.2977 31.5112 14 27.2196 14ZM25.7399 19.25C25.6314 19.25 25.5185 19.2541 25.4101 19.2664C25.2061 19.2869 25.0239 19.1475 25.0022 18.9588C24.9805 18.766 25.128 18.5938 25.3276 18.5732C25.4621 18.5609 25.601 18.5527 25.7399 18.5527C27.7837 18.5527 29.4413 20.1236 29.4413 22.0514C29.4413 22.1826 29.4326 22.3098 29.4196 22.441C29.3979 22.6297 29.2113 22.7732 29.0117 22.7486C28.8121 22.7281 28.6602 22.5518 28.6863 22.3631C28.6993 22.2605 28.7036 22.1539 28.7036 22.0514C28.7036 20.5051 27.3714 19.25 25.7399 19.25ZM27.9616 22.0514C27.9616 22.24 27.7924 22.4 27.5928 22.4C27.3888 22.4 27.2239 22.24 27.2239 22.0514C27.2239 21.2803 26.56 20.6527 25.7442 20.6527C25.5402 20.6527 25.3754 20.4969 25.3754 20.3041C25.3754 20.1113 25.5402 19.9555 25.7442 19.9555C26.9635 19.9514 27.9616 20.8947 27.9616 22.0514ZM30.5869 27.1865C30.4784 27.6377 30.2397 28.0479 29.8926 28.376C29.4196 28.823 28.7774 29.0527 28.0093 29.0527C27.8054 29.0527 27.5884 29.0363 27.3671 29.0035C25.5967 28.741 23.1319 27.9207 21.5264 26.4072L21.5047 26.3867C19.9034 24.8691 19.0356 22.5395 18.7579 20.866C18.593 19.8693 18.823 19.0449 19.4218 18.4789C19.7689 18.1508 20.2029 17.9252 20.6802 17.8227C20.7279 17.8104 20.78 17.8104 20.8277 17.8186L22.6329 18.1344C22.7804 18.159 22.8976 18.2697 22.928 18.4092L23.453 20.8824C23.4791 20.9973 23.44 21.1162 23.3532 21.1982L22.2944 22.199C23.171 23.9668 24.1647 24.9102 25.9568 25.6689L27.02 24.6641C27.1067 24.582 27.2326 24.5451 27.3541 24.5697L29.9707 25.066C30.1182 25.0947 30.2354 25.2055 30.2614 25.3449L30.5956 27.0512C30.5999 27.0922 30.5999 27.1414 30.5869 27.1865ZM30.7865 23.1834C30.7388 23.3721 30.5261 23.491 30.3265 23.4418C30.1356 23.3926 30.0184 23.2039 30.0662 23.0234C30.1443 22.7076 30.1833 22.3795 30.1833 22.0555C30.1833 19.7381 28.1916 17.8555 25.7399 17.8555C25.627 17.8555 25.5099 17.8596 25.397 17.8678C25.1931 17.8842 25.0152 17.7365 24.9978 17.5438C24.9805 17.351 25.1367 17.1828 25.3406 17.1664C25.4708 17.1582 25.6053 17.1541 25.7399 17.1541C28.5995 17.1541 30.9254 19.3525 30.9254 22.0555C30.9254 22.4328 30.8776 22.8143 30.7865 23.1834Z" fill="#795098"/>
</svg>
