<svg width="21" height="22" viewBox="0 0 21 22" fill="none" xmlns="http://www.w3.org/2000/svg">
<path d="M12.8333 0H9.33333H8.16667C3.66406 0 0 3.45503 0 7.70077V11.0011C0 13.9834 1.82292 16.6864 4.66667 17.9627V21.6369C4.66667 21.9549 5.09049 22.1225 5.33203 21.8948L5.83333 21.4221L8.7181 18.7019H12.8333C17.3359 18.7019 21 15.2468 21 11.0011V7.70077C21.0046 3.45503 17.3405 0 12.8333 0ZM11.2793 5.50055C11.1654 5.50055 11.0469 5.50485 10.9329 5.51774C10.7187 5.53923 10.5273 5.39312 10.5046 5.19544C10.4818 4.99347 10.6367 4.81298 10.8464 4.7915C10.9876 4.7786 11.1335 4.77001 11.2793 4.77001C13.4258 4.77001 15.1667 6.41588 15.1667 8.43561C15.1667 8.57313 15.1575 8.70634 15.1439 8.84386C15.1211 9.04153 14.9251 9.19194 14.7155 9.16616C14.5059 9.14467 14.3464 8.95988 14.3737 8.76221C14.3874 8.65478 14.3919 8.54305 14.3919 8.43561C14.3919 6.81553 12.9928 5.50055 11.2793 5.50055ZM13.6126 8.43561C13.6126 8.63329 13.4349 8.80088 13.2253 8.80088C13.0111 8.80088 12.8379 8.63329 12.8379 8.43561C12.8379 7.62772 12.1406 6.97023 11.2839 6.97023C11.0697 6.97023 10.8965 6.80693 10.8965 6.60496C10.8965 6.40299 11.0697 6.23969 11.2839 6.23969C12.5645 6.23539 13.6126 7.22377 13.6126 8.43561ZM16.3698 13.8158C16.2559 14.2885 16.0052 14.7183 15.6406 15.0621C15.1439 15.5305 14.4694 15.7711 13.6628 15.7711C13.4486 15.7711 13.2207 15.7539 12.9883 15.7195C11.1289 15.4445 8.54036 14.5851 6.85417 12.9994L6.83138 12.9779C5.14974 11.3879 4.23828 8.94699 3.94661 7.19369C3.77344 6.14945 4.01497 5.28569 4.64388 4.69266C5.00846 4.34887 5.46419 4.11252 5.96549 4.00509C6.01562 3.9922 6.07031 3.9922 6.12044 4.00079L8.01627 4.33169C8.17122 4.35747 8.29427 4.4735 8.32617 4.6196L8.8776 7.21088C8.90495 7.33121 8.86393 7.45583 8.77279 7.54177L7.66081 8.59032C8.58138 10.4425 9.625 11.4308 11.5072 12.2258L12.6237 11.173C12.7148 11.0871 12.847 11.0484 12.9746 11.0742L15.7227 11.5941C15.8776 11.6242 16.0006 11.7402 16.028 11.8864L16.3789 13.674C16.3835 13.717 16.3835 13.7686 16.3698 13.8158ZM16.5794 9.62167C16.5293 9.81935 16.306 9.94397 16.0964 9.8924C15.8958 9.84083 15.7728 9.64316 15.8229 9.45407C15.9049 9.12318 15.946 8.7794 15.946 8.43991C15.946 6.01193 13.8542 4.03947 11.2793 4.03947C11.1608 4.03947 11.0378 4.04377 10.9193 4.05236C10.7051 4.06955 10.5182 3.91485 10.5 3.71287C10.4818 3.5109 10.6458 3.33471 10.86 3.31752C10.9967 3.30893 11.138 3.30463 11.2793 3.30463C14.2825 3.30463 16.7253 5.60799 16.7253 8.43991C16.7253 8.83526 16.6751 9.23491 16.5794 9.62167Z" fill="#795098"/>
</svg>
