<svg width="19" height="11" viewBox="0 0 19 11" fill="none" xmlns="http://www.w3.org/2000/svg">
<path d="M9.88806 0C13.3272 0 16.4459 1.92896 18.7472 5.06211C18.935 5.31881 18.935 5.67742 18.7472 5.93411C16.4459 9.07104 13.3272 11 9.88806 11C6.44897 11 3.33022 9.07104 1.0289 5.93789C0.841114 5.68119 0.841114 5.32258 1.0289 5.06589C3.33022 1.92896 6.44897 0 9.88806 0ZM9.64136 9.37303C11.9243 9.52025 13.8095 7.59128 13.6659 5.24708C13.5481 3.31434 12.02 1.74777 10.1348 1.62697C7.85185 1.47975 5.96661 3.40872 6.11022 5.75292C6.23172 7.68188 7.7598 9.24846 9.64136 9.37303ZM9.75551 7.58373C10.9853 7.66301 12.0016 6.62491 11.9206 5.3641C11.858 4.32224 11.0332 3.48044 10.0169 3.41249C8.78711 3.33322 7.77085 4.37131 7.85185 5.63212C7.91813 6.67776 8.74292 7.51956 9.75551 7.58373Z" fill="#008D96"/>
</svg>
