<svg width="50" height="50" viewBox="0 0 50 50" fill="none" xmlns="http://www.w3.org/2000/svg">
<circle cx="25" cy="25" r="24.5" fill="white" stroke="#F2F2F2"/>
<g clip-path="url(#clip0)">
<path d="M33.0231 23.7451H26.2558V16.9777C26.2558 16.6694 25.8372 16.001 25 16.001C24.1628 16.001 23.7441 16.6695 23.7441 16.9777V23.7452H16.9767C16.6685 23.7451 16 24.1637 16 25.0009C16 25.8381 16.6685 26.2567 16.9767 26.2567H23.7442V33.0242C23.7442 33.3324 24.1628 34.0009 25 34.0009C25.8372 34.0009 26.2558 33.3324 26.2558 33.0242V26.2567H33.0233C33.3315 26.2567 34 25.8381 34 25.0009C34 24.1637 33.3314 23.7451 33.0231 23.7451Z" fill="#AEAEAE"/>
</g>
<defs>
<clipPath id="clip0">
<rect width="18" height="18" fill="white" transform="translate(16 16)"/>
</clipPath>
</defs>
</svg>
