<svg width="44" height="44" viewBox="0 0 44 44" fill="none" xmlns="http://www.w3.org/2000/svg">
<circle cx="22" cy="22" r="21.5" fill="white" stroke="#F2F2F2"/>
<path d="M29.4465 28.1823L28.1587 26.0358C27.564 25.045 27.2497 23.9102 27.2497 22.7553V20.875C27.2497 18.5012 25.6657 16.4935 23.4997 15.8462V14.5C23.4997 13.6727 22.827 13 21.9997 13C21.1724 13 20.4997 13.6727 20.4997 14.5V15.8462C18.3337 16.4935 16.7497 18.5012 16.7497 20.875V22.7553C16.7497 23.9102 16.4354 25.0442 15.8414 26.035L14.5537 28.1815C14.484 28.2978 14.4824 28.4418 14.5492 28.5595C14.616 28.6773 14.7397 28.75 14.8747 28.75H29.1247C29.2597 28.75 29.3842 28.6773 29.451 28.5603C29.5177 28.4433 29.5155 28.2977 29.4465 28.1823Z" fill="#AEAEAE"/>
<path d="M19.6381 29.5C20.0611 30.3835 20.9566 31 21.9998 31C23.043 31 23.9386 30.3835 24.3616 29.5H19.6381Z" fill="#AEAEAE"/>
</svg>
