<svg width="89" height="66" viewBox="0 0 89 66" fill="none" xmlns="http://www.w3.org/2000/svg">
<path d="M1.81128 57.5638C1.10811 56.6132 0.574221 55.5324 0.235657 54.3995C-1.02745 50.2456 2.93115 39.5678 8.66068 43.878C9.19457 44.2817 9.63731 44.7895 10.0149 45.3365C10.2884 45.7141 10.5358 46.1177 10.679 46.5605C11.4213 48.8523 8.1919 51.1311 10.3144 52.7197C12.5281 54.3735 14.6507 54.9855 16.1221 57.6159C16.3305 57.9935 16.5258 58.4232 16.4086 58.8269C16.2653 59.3478 15.7054 59.6212 15.2106 59.8426C11.2911 61.4964 6.70743 62.0433 3.2046 59.0613C2.68373 58.6186 2.21495 58.1107 1.81128 57.5638Z" fill="#E0B885"/>
<path d="M21.8527 50.6623C21.8397 50.2717 21.7615 49.9201 21.6704 49.5425C21.2407 47.7585 20.7068 45.9745 19.9906 44.2817C19.5218 43.1749 18.3108 40.0236 16.5789 41.0523C15.0554 41.9638 13.7011 44.8937 13.1282 46.5084C12.0474 49.5164 11.6567 52.2249 12.5031 55.3241C12.8156 56.483 13.2193 57.5117 13.8313 58.5404C14.235 59.2176 14.4303 59.1394 13.9355 59.7775C13.5579 60.2463 12.9459 60.4416 12.6073 61.0015C12.1776 61.7047 12.1776 62.7464 12.8156 63.2413C13.1542 63.5017 13.61 63.5538 14.0397 63.5928C15.5111 63.71 17.0737 63.684 18.4671 63.1371C20.0948 62.499 20.9672 61.1578 21.7225 59.6473C21.9699 59.1525 22.1912 58.6576 22.3605 58.1368C22.8814 56.4439 22.6861 54.647 22.3215 52.9411C22.1392 52.1728 21.8918 51.4436 21.8527 50.6623Z" fill="#BFBAB0"/>
<path d="M44.0288 37.2371C43.534 38.3569 42.7397 40.1409 41.9974 41.2347C38.13 42.1462 34.8095 44.8157 32.5567 47.9799C29.9654 51.626 28.5851 55.8841 27.2439 60.0901C27.1657 60.3245 27.0876 60.5849 27.1787 60.8193C27.4001 61.4053 28.2986 61.2881 28.9237 61.0928C31.2285 60.3766 33.7026 60.1422 36.1116 60.4156C36.7627 60.4938 37.3357 60.7933 37.8826 61.1449C37.9477 61.1839 37.9607 61.197 37.9607 61.197C38.5597 61.4313 39.1066 61.8741 39.7186 62.1215C40.3306 62.3819 40.9036 62.5772 41.5547 62.6554C42.922 62.8247 44.3413 62.8637 45.6695 62.421C46.5159 62.1345 47.154 61.4704 46.8936 60.5068C46.7113 59.8167 45.8388 59.5041 46.6982 58.9442C47.3754 58.5145 47.9744 58.0066 48.4562 57.3556C48.7817 56.9258 49.1463 56.418 49.3547 55.9102C49.55 55.4284 49.6021 54.8293 49.6932 54.3085C50.6959 48.631 47.2061 43.2401 44.0288 37.2371Z" fill="#BFBAB0"/>
<path d="M47.5044 39.8805C47.9992 40.779 48.455 41.6775 48.8456 42.563C49.8743 44.8678 53.7418 54.4387 48.7154 54.8034C46.8142 54.9987 46.1111 52.7069 45.1995 51.4047C44.6656 50.6494 44.1318 49.8812 43.4416 49.2561C42.7515 48.6441 41.879 48.1753 40.9414 48.1623C40.2773 48.1493 39.6263 48.3576 39.0012 48.592C36.4359 49.5556 34.3525 50.9489 32.6206 53.0845C30.8757 55.2331 30.2116 58.0327 29.1699 60.5459C27.9588 63.4367 25.6931 65.3639 22.4637 64.5826C21.3308 64.3092 20.1328 63.8664 19.4687 62.8638C18.8046 61.8481 19.1952 60.5459 19.9505 59.6865C20.2891 59.3089 20.7709 59.0484 21.2787 59.0745C21.5001 59.0875 21.7866 59.1396 21.9037 58.9442C21.9689 58.8271 21.9428 58.6838 21.9037 58.5536C21.6433 57.577 21.3829 56.5873 21.1224 55.6107C20.8881 54.7382 20.6537 53.8788 20.4323 53.0064C18.9478 47.4591 16.5518 42.2765 14.4163 36.9637C14.1819 36.3907 13.9475 35.7396 14.1558 35.1406C14.5725 33.9687 15.8096 34.8672 16.5388 35.0234C17.9712 35.349 19.5468 35.0755 20.9792 34.776C24.2346 34.1119 27.3208 32.6795 30.1725 30.9346C32.3471 29.5934 34.3785 28.2391 35.7849 26.0515C36.4229 25.0618 36.6703 24.3196 37.673 23.5904C38.6106 22.9133 40.8763 22.7179 41.9832 22.6919C42.0743 22.6919 42.8035 29.971 42.9598 30.544C43.8453 33.6952 45.8376 36.8204 47.5044 39.8805Z" fill="#DBD6CC"/>
<path d="M17.9583 54.595L13.1924 53.4231C13.1924 53.4231 13.1924 55.767 14.182 57.1082L17.9583 54.595Z" fill="#827872"/>
<path d="M17.3332 49.7378C16.9686 49.0216 14.6377 45.7792 14.6377 45.7792C14.6377 45.7792 15.7185 43.8911 15.9008 43.4353L17.3332 49.7378Z" fill="#827872"/>
<path d="M17.6849 52.7978L13.1924 51.717C13.1924 51.717 13.8174 47.8496 14.182 47.3938L17.6849 52.7978Z" fill="#827872"/>
<path d="M45.3428 17.7305C45.3428 17.7435 45.3428 17.7435 45.3428 17.7565C45.3297 17.9779 45.3037 18.1862 45.2777 18.4076C44.5094 24.4236 39.8346 30.7001 32.6206 34.4503C25.6149 38.0964 18.0233 38.4219 12.6714 35.8306C10.1973 34.6457 8.20494 32.8356 6.96788 30.4527C5.73082 28.0697 5.39226 25.4003 5.83499 22.6918C5.93917 22.0537 6.0824 21.4156 6.27773 20.7776C6.2647 20.7515 6.23866 20.7385 6.23866 20.7125C7.26737 16.6106 12.0724 11.6624 12.0724 11.6624C13.4136 10.3732 14.9502 9.18827 16.656 8.13351C17.1639 7.82099 17.6717 7.53452 18.2056 7.24804C18.2707 7.20898 18.3488 7.16991 18.4139 7.13085L18.5311 7.07876L18.6353 7.03969L19.3775 6.75322C19.3775 6.75322 22.9715 5.11249 24.2476 4.86507C24.2737 4.81299 25.654 4.42234 28.1151 4.26608C29.7298 4.1619 31.8132 4.17492 34.2743 4.44838C34.5608 4.48744 34.8603 4.51349 35.1468 4.55255C35.1598 4.55255 36.9959 5.15155 36.9959 5.15155C37.074 5.17759 37.1391 5.20364 37.2042 5.22968C37.7381 5.43803 38.246 5.6594 38.7408 5.91983C38.7408 5.91983 38.7408 5.91983 38.7538 5.91983H38.7668H38.7798H38.7929C38.8319 5.94587 39.2096 6.15422 39.2616 6.18026L39.2877 6.19328C39.3267 6.21933 39.5221 6.33652 39.5872 6.37559C39.6002 6.38861 39.6132 6.38861 39.6262 6.40163C39.6914 6.4407 39.7695 6.49278 39.8346 6.53185C39.8867 6.57091 40.2383 6.8053 40.2513 6.8053C40.2904 6.83135 40.4596 6.94854 40.4596 6.94854C40.4987 6.97459 40.694 7.11782 40.7461 7.15689C40.7461 7.15689 41.0977 7.43034 41.0977 7.44337C41.0977 7.44337 41.3842 7.67776 41.4883 7.78193C41.6055 7.8861 41.9441 8.21164 41.9962 8.26373C42.0483 8.31582 42.2696 8.55021 42.3217 8.61532L42.4389 8.74553C42.452 8.75856 42.7124 9.07108 42.7645 9.12316C42.8035 9.17525 42.8556 9.22734 42.8947 9.27942C42.9207 9.31849 42.9468 9.35755 42.9858 9.39662C43.0509 9.47475 43.5328 10.1649 43.5588 10.217C43.6109 10.3081 43.676 10.3993 43.7281 10.4904C43.7281 10.4904 43.7281 10.5035 43.7411 10.5035C43.7671 10.5555 43.8062 10.6076 43.8322 10.6597C43.8713 10.7248 43.9104 10.7899 43.9494 10.8681C43.9755 10.9202 45.0693 14.0584 45.3037 16.4283C45.3558 16.9492 45.3688 17.3659 45.3428 17.7305Z" fill="#EEECE8"/>
<path d="M45.3169 16.5064C42.5563 16.5324 38.1549 18.1341 32.8812 16.7538C32.8681 16.7538 32.8551 16.7538 32.8551 16.7408C32.5035 16.6496 32.1389 16.5324 31.7613 16.3892C30.4852 15.9074 29.0658 15.1652 27.6204 14.2667C27.2949 14.0713 26.9693 13.863 26.6438 13.6416C23.6097 11.6623 20.5106 9.20123 18.3099 7.33913C18.2839 7.31308 18.2448 7.28704 18.2188 7.261C18.2839 7.22193 18.362 7.18287 18.4271 7.1438L18.5443 7.09171L18.6485 7.05265L19.3907 6.76617C19.3907 6.76617 22.9847 5.12544 24.2608 4.87803C24.2869 4.82594 25.6672 4.43529 28.1283 4.27903C28.5189 2.95082 29.3914 0.333462 30.1857 0.112094C30.4852 0.0209421 30.7977 -0.0181229 31.1102 0.00792044C31.9306 0.0860505 32.7509 0.659005 33.3369 2.24765C33.7666 3.43262 34.0792 4.09673 34.2875 4.46133C34.574 4.5004 34.8735 4.52644 35.16 4.56551C35.173 4.56551 37.009 5.16451 37.009 5.16451C37.0872 5.19055 37.1523 5.21659 37.2174 5.24264C37.7513 5.45098 38.2591 5.67235 38.7539 5.93278C38.7539 5.93278 38.7539 5.93278 38.767 5.93278H38.78H38.793H38.806C38.8451 5.95883 39.2227 6.16717 39.2748 6.19322L39.3009 6.20624C39.3399 6.23228 39.5352 6.34948 39.6003 6.38854C39.6134 6.40157 39.6264 6.40156 39.6394 6.41459C39.7045 6.45365 39.7827 6.50574 39.8478 6.5448C39.8999 6.58387 40.2514 6.81826 40.2645 6.81826C40.3035 6.8443 40.4728 6.9615 40.4728 6.9615C40.5119 6.98754 40.7072 7.13078 40.7593 7.16984C40.7593 7.16984 41.1109 7.4433 41.1109 7.45632C41.1109 7.45632 41.3973 7.69071 41.5015 7.79488C41.6187 7.89906 41.9573 8.2246 42.0094 8.27669C42.0614 8.32877 42.2828 8.56316 42.3349 8.62827L42.4521 8.75849C42.4651 8.77151 42.7256 9.08403 42.7776 9.13612C42.8167 9.1882 42.8688 9.24029 42.9079 9.29238C42.9339 9.33144 42.9599 9.37051 42.999 9.40957C43.0641 9.4877 43.5459 10.1779 43.572 10.2299C43.624 10.3211 43.6892 10.4122 43.7412 10.5034C43.7412 10.5034 43.7412 10.5164 43.7543 10.5164C43.7803 10.5685 43.8194 10.6206 43.8454 10.6727C43.8845 10.7378 43.9235 10.8029 43.9626 10.881C43.9887 10.9982 45.0695 14.1364 45.3169 16.5064Z" fill="#E0B885"/>
<path d="M34.0537 11.8058C35.9028 15.3607 31.6577 19.0849 28.233 17.2749C27.8944 17.0926 27.5689 16.8452 27.1913 16.8582C26.5923 14.3841 25.837 11.5845 28.6497 10.113C30.616 9.08429 33.025 9.83955 34.0537 11.8058Z" fill="#623A27"/>
<path d="M31.5528 10.4384C33.1545 10.9462 34.0139 12.7171 33.48 14.41C32.9461 16.0898 31.2273 17.0534 29.6256 16.5455C28.0239 16.0377 27.1645 14.2667 27.6984 12.5739C28.2193 10.8941 29.9511 9.93051 31.5528 10.4384Z" fill="url(#paint0_radial)"/>
<path d="M18.385 23.3721C19.2461 22.9238 19.3169 21.3554 18.5431 19.8691C17.7693 18.3828 16.4439 17.5414 15.5827 17.9897C14.7216 18.4381 14.6507 20.0064 15.4246 21.4927C16.1984 22.979 17.5238 23.8205 18.385 23.3721Z" fill="#1A0E14"/>
<path d="M30.4781 10.9614C30.6376 10.8783 30.6995 10.6817 30.6165 10.5223C30.5335 10.3628 30.3369 10.3008 30.1774 10.3838C30.018 10.4669 29.956 10.6635 30.039 10.8229C30.122 10.9824 30.3186 11.0444 30.4781 10.9614Z" fill="#E1E3EA"/>
<path d="M32.0371 12.4911C32.3943 12.3051 32.5332 11.8647 32.3472 11.5075C32.1612 11.1503 31.7208 11.0114 31.3636 11.1974C31.0064 11.3834 30.8676 11.8238 31.0535 12.181C31.2395 12.5382 31.6799 12.677 32.0371 12.4911Z" fill="#E1E3EA"/>
<path d="M13.505 22.7049C15.3541 26.2598 20.8362 24.9186 21.3181 21.0772C21.3701 20.6996 21.3441 20.2829 21.5655 19.9834C19.8857 18.0692 18.0236 15.8425 15.1979 17.314C13.2446 18.3296 12.4763 20.7387 13.505 22.7049Z" fill="#623A27"/>
<path d="M25.7065 19.3844L25.8367 18.3557C25.8758 18.0562 25.5632 17.8348 25.2898 17.978L24.2481 18.5249C23.9746 18.6682 23.9746 19.0458 24.2481 19.189L25.1596 19.6708C25.3809 19.788 25.6674 19.6448 25.7065 19.3844Z" fill="#BD8376"/>
<path d="M19.7156 19.5795C20.4578 21.0119 19.8458 22.7959 18.3353 23.5902C16.8248 24.3715 15.0018 23.8506 14.2595 22.4313C13.5173 21.0119 14.1293 19.2149 15.6398 18.4206C17.1503 17.6263 18.9734 18.1471 19.7156 19.5795Z" fill="url(#paint1_radial)"/>
<path d="M18.1045 19.6143C18.4617 19.4284 18.6005 18.988 18.4146 18.6308C18.2286 18.2736 17.7882 18.1347 17.431 18.3207C17.0738 18.5067 16.9349 18.9471 17.1209 19.3043C17.3069 19.6615 17.7473 19.8003 18.1045 19.6143Z" fill="#E1E3EA"/>
<path d="M16.4029 18.277C16.5624 18.194 16.6244 17.9974 16.5413 17.8379C16.4583 17.6785 16.2617 17.6165 16.1022 17.6995C15.9428 17.7825 15.8808 17.9791 15.9638 18.1386C16.0468 18.2981 16.2434 18.3601 16.4029 18.277Z" fill="#E1E3EA"/>
<path d="M21.4345 30.3616C21.2131 30.3616 21.0178 30.2053 20.9787 29.997C20.9266 29.7366 21.0829 29.4892 21.3433 29.4371C24.0518 28.8381 25.7577 27.7703 26.4348 26.2858C27.0989 24.8274 26.7994 22.9783 25.5233 20.6474C25.1457 19.9573 24.9373 19.6057 24.8201 19.4364C24.6769 19.3974 24.5727 19.3062 24.5206 19.1499C24.3774 18.6421 24.742 18.4728 24.7941 18.4468C25.2759 18.2514 25.4973 18.616 26.3567 20.1917C27.7891 22.796 28.0886 24.9185 27.2942 26.6765C26.4869 28.4474 24.5597 29.6845 21.5517 30.3616C21.4996 30.3486 21.4736 30.3616 21.4345 30.3616ZM25.4191 18.8635C25.4191 18.8895 25.4191 18.9155 25.4191 18.9416C25.4321 18.9155 25.4321 18.8895 25.4191 18.8635Z" fill="#BD8376"/>
<path d="M31.2662 25.0227C31.0709 25.0227 30.8755 25.0097 30.6932 24.9837C28.7921 24.7362 27.1383 23.369 25.6669 20.7907C24.7814 19.2281 24.5861 18.8504 25.0028 18.5509C25.0418 18.5249 25.3804 18.2905 25.732 18.6942C25.8492 18.8244 25.8752 18.9807 25.8361 19.1369C25.9403 19.3453 26.1226 19.6969 26.4872 20.3349C27.8024 22.6398 29.2218 23.8638 30.8104 24.0591C32.4251 24.2675 34.2351 23.3559 36.1623 21.3766C36.3446 21.1943 36.6441 21.1813 36.8264 21.3636C37.0087 21.5459 37.0218 21.8454 36.8395 22.0277C34.8992 24.007 33.0241 25.0227 31.2662 25.0227Z" fill="#BD8376"/>
<path d="M7.63161 20.3088C7.63161 20.3088 7.41024 19.7619 5.73044 18.1472C4.05065 16.5195 4.33712 15.2564 5.05332 14.397C5.78253 13.5376 10.4834 14.3189 10.4834 14.3189C10.4573 16.6628 9.44162 18.8113 7.63161 20.3088Z" fill="#827872"/>
<path d="M43.78 14.371L38.0244 14.9049L42.608 10.6729C42.6211 10.6859 43.8711 13.0298 43.78 14.371Z" fill="#CCA172"/>
<path d="M36.7617 13.3812L41.1761 9.78726C41.1761 9.78726 40.4599 7.99027 39.0145 7.44336L36.7617 13.3812Z" fill="#CCA172"/>
<path d="M35.5118 11.1285C35.5118 10.8551 37.0353 6.54491 37.0353 6.54491C37.0353 6.54491 35.9545 5.46411 34.6914 5.46411L35.5118 11.1285Z" fill="#CCA172"/>
<path d="M34.1304 4.57866L30.875 4.3052L30.9662 0.125244C31.7865 0.203374 32.6069 0.776328 33.1929 2.36497C33.6096 3.54995 33.9351 4.21405 34.1304 4.57866Z" fill="#EEECE8"/>
<path d="M31.3701 39.5029L33.0239 39.1643L38.1674 55.9102L36.4225 59.0484L33.3494 56.8217L31.3701 39.5029Z" fill="#027F82"/>
<path d="M31.1625 38.982L30.0947 37.5626L31.488 36L33.3892 36.8855L32.9986 38.6043L31.1625 38.982Z" fill="#027F82"/>
<path d="M88.1263 51.2517C88.5235 50.3416 88.7608 49.3698 88.8278 48.379C89.0839 44.7556 83.8856 36.7757 80.0061 41.3637C79.6543 41.7977 79.3704 42.2826 79.1643 42.8018C79.0013 43.1585 78.8948 43.5384 78.8486 43.9278C78.6697 45.9342 81.7248 47.2004 80.2902 48.8841C78.789 50.6379 77.1754 51.5323 76.4599 53.9456C76.3234 54.2831 76.3234 54.6604 76.4599 54.9979C76.6703 55.3978 77.1614 55.5205 77.6244 55.6012C81.1321 56.2291 84.9694 55.8257 87.2739 52.746C87.6138 52.2818 87.8997 51.7805 88.1263 51.2517Z" fill="#EEECE8"/>
<path d="M78.4788 58.2908C78.0579 57.6945 77.3599 57.5297 76.9109 57.0351C76.3076 56.3687 76.525 56.4388 76.9109 55.6531C77.4924 54.4968 77.907 53.2639 78.1421 51.9911C78.8436 48.4835 78.1982 45.509 76.7776 42.2574C76.0164 40.5036 74.2942 37.3467 72.5404 36.4663C70.5445 35.4561 69.4326 39.048 68.9977 40.3247C68.3482 42.2694 67.8578 44.2636 67.5315 46.2877C67.4512 46.7026 67.4113 47.1243 67.4122 47.547C67.3752 48.4058 67.2661 49.26 67.086 50.1005C67.0416 50.3952 67.0042 50.6921 66.9738 50.9915C65.7666 50.8068 64.547 50.7154 63.3258 50.7179C61.3915 50.6956 59.4628 50.9315 57.5908 51.4194C57.5167 50.7971 57.4114 50.179 57.2751 49.5674C57.0387 48.7409 56.8721 47.8961 56.7771 47.0419C56.7533 46.6192 56.6887 46.1998 56.5841 45.7896C56.1217 43.792 55.4976 41.8354 54.7181 39.9389C54.1989 38.7147 52.845 35.2036 50.9228 36.3471C49.2181 37.3713 47.7309 40.6264 47.089 42.4188C45.8929 45.7581 45.4474 48.7746 46.3874 52.2226C46.7082 53.4768 47.2054 54.679 47.8642 55.7934C48.3201 56.5476 48.5306 56.4634 47.9729 57.1684C47.559 57.691 46.875 57.905 46.4962 58.5294C46.0262 59.3046 46.0226 60.4726 46.7312 61.0163C47.1354 61.2745 47.6055 61.4109 48.0851 61.4091C49.7232 61.5459 51.456 61.5073 52.9958 60.9005C54.6374 60.2586 55.581 58.9748 56.3737 57.4946C58.6075 58.2775 60.9626 58.6576 63.3293 58.6171C65.1006 58.6281 66.8669 58.4279 68.5908 58.0208C69.4712 59.4028 70.4919 60.5813 72.137 61.1005C73.7224 61.5985 75.4552 61.5179 77.0828 61.2723C77.5621 61.2418 78.0224 61.0738 78.4086 60.7883C79.0856 60.1955 79.0049 59.031 78.4788 58.2908Z" fill="#CCA172"/>
<path d="M72.312 63.1738C71.2922 61.4633 70.5388 59.6075 70.0776 57.6703C69.0254 53.2436 62.9782 55.0781 60.0633 55.699C59.6957 55.7573 59.3402 55.8758 59.011 56.0497C58.5904 56.3426 58.2492 56.7356 58.0184 57.1932C57.3695 58.2981 56.9275 59.2978 56.4119 60.2238C54.381 63.8157 45.3172 65.5309 49.0704 59.7784C53.0446 53.6961 49.4212 46.4914 50.8874 39.8269C51.9747 34.8601 53.9811 35.6704 58.2008 35.3863C60.7228 35.2179 63.1115 34.334 65.6089 33.9341C68.9166 33.408 73.8834 32.8502 75.0971 36.621C76.7632 41.7982 75.9494 48.1155 75.9599 53.4576C75.9599 55.3237 76.0161 57.2529 76.8088 58.9436C77.2367 59.8555 77.8611 60.6623 78.282 61.5778C78.7029 62.4933 78.8783 63.6087 78.3837 64.4856C76.9807 66.9866 73.2976 64.8223 72.312 63.1738Z" fill="#E0B885"/>
<path d="M83.9439 28.764V28.7886C83.8387 28.9885 83.7299 29.1885 83.6142 29.3849C80.4328 34.8323 73.414 38.9467 64.9886 39.6132C56.7948 40.2621 49.3972 37.484 45.3213 32.8434C43.418 30.7976 42.2615 28.1689 42.0393 25.3835C41.8171 22.598 42.5422 19.8192 44.0972 17.4975C44.4614 16.9195 44.8621 16.3654 45.2968 15.8384C45.2968 15.8138 45.2757 15.7858 45.2968 15.7647C47.945 12.2571 54.5534 9.45099 54.5534 9.45099C56.4327 8.74157 58.3823 8.23476 60.3691 7.9392C60.9771 7.848 61.5921 7.77551 62.2141 7.72173L62.4561 7.70068H62.7017L63.5225 7.72524C63.5225 7.72524 67.6299 7.60598 68.9558 7.89711C68.9979 7.86204 70.4851 8.03742 72.9054 8.88977C74.9222 9.60929 76.8717 10.5049 78.7316 11.5661L79.5278 12.0291L81.0501 13.355L81.222 13.5199C81.6445 13.9262 82.0439 14.3559 82.4181 14.8072L82.7689 15.2456L82.7864 15.2702L83.0039 15.5683L83.0319 15.6069L83.1792 15.8174L83.4599 16.2453L83.6002 16.4698L83.7861 16.7855L84.0106 17.1994C84.0106 17.1994 84.1859 17.5501 84.2491 17.6799C84.3122 17.8097 84.5086 18.2692 84.5402 18.3464L84.7191 18.8129L84.7787 18.9883C84.7787 18.9883 84.912 19.4127 84.9366 19.4863L84.9962 19.6933L85.0348 19.8371C85.0628 19.9423 85.2417 20.7912 85.2523 20.8508C85.2628 20.9104 85.2873 21.0753 85.3049 21.2016V21.2226C85.3049 21.2858 85.3049 21.3454 85.3294 21.4085C85.3294 21.4892 85.347 21.5699 85.3575 21.6541C85.368 21.7382 85.133 25.1617 84.3999 27.5294C84.2848 27.9536 84.1322 28.3668 83.9439 28.764Z" fill="#EEECE8"/>
<path d="M47.2253 17.4233C47.2253 17.4233 47.2253 16.8165 46.2852 14.5751C45.3452 12.3337 46.1168 11.2429 47.1586 10.7167C48.2004 10.1906 52.3745 12.8458 52.3745 12.8458C51.9004 13.9372 51.1941 14.9121 50.3048 15.7026C49.4155 16.4932 48.3646 17.0804 47.2253 17.4233Z" fill="#827872"/>
<path d="M84.4181 27.5712C81.7629 26.4978 76.8943 26.2242 72.4045 22.7622L72.3799 22.7446C72.0677 22.5004 71.768 22.2405 71.482 21.966C70.3335 20.8264 69.2932 19.5829 68.3742 18.2514C68.1404 17.9287 67.9065 17.5978 67.6727 17.2587C65.6821 14.2309 63.8736 11.0871 62.2569 7.84421L62.1973 7.73547L62.4393 7.71443H62.6848L63.5056 7.73898C63.5056 7.73898 67.6131 7.61972 68.9389 7.91086C68.981 7.87578 70.4683 8.05116 72.8885 8.90352C73.804 7.7916 75.6946 5.64142 76.5575 5.74665C76.8826 5.78164 77.198 5.87806 77.487 6.03076C78.2412 6.43765 78.7954 7.32157 78.7042 9.0789C78.6425 9.91375 78.6425 10.752 78.7042 11.5869L79.5004 12.0499L81.0227 13.3758L81.1946 13.5406C81.6172 13.9469 82.0165 14.3767 82.3907 14.8279L82.7415 15.2664L82.759 15.2909L82.9765 15.5891L83.0046 15.6277L83.1519 15.8381L83.4325 16.266L83.5728 16.4905L83.7587 16.8062L83.9832 17.2201C83.9832 17.2201 84.1586 17.5709 84.2217 17.7007C84.2848 17.8304 84.4813 18.2899 84.5128 18.3671L84.6917 18.8336L84.7514 19.009C84.7514 19.009 84.8847 19.4334 84.9092 19.5071L84.9688 19.7141L85.0074 19.8579C85.0355 19.9631 85.2144 20.8119 85.2249 20.8716C85.2354 20.9312 85.26 21.0961 85.2775 21.2223V21.2434C85.2775 21.3065 85.2775 21.3661 85.3021 21.4293C85.3021 21.51 85.3196 21.5906 85.3301 21.6748C85.3406 21.759 85.1512 25.207 84.4181 27.5712Z" fill="#E0B885"/>
<path d="M83.8184 25.6247L78.0869 23.8042L84.1972 21.6155C84.1972 21.6155 84.4533 24.369 83.8184 25.6247Z" fill="#CCA172"/>
<path d="M77.502 21.1171L83.1843 19.4615C83.1843 19.4615 83.2264 17.4481 82.0654 16.3467L77.502 21.1171Z" fill="#CCA172"/>
<path d="M77.2061 18.4513C77.3148 18.1918 80.5313 14.6771 80.5313 14.6771C80.5313 14.6771 79.935 13.2039 78.7284 12.6953L77.2061 18.4513Z" fill="#CCA172"/>
<path d="M76.1997 23.0674C76.5294 27.2169 70.9558 29.0619 68.4093 25.9401C68.1602 25.635 67.9533 25.2386 67.585 25.1158C68.0164 22.5027 68.4268 19.5036 71.724 19.2511C72.2685 19.2074 72.8163 19.2716 73.336 19.4398C73.8558 19.608 74.3372 19.877 74.7529 20.2315C75.1686 20.5859 75.5103 21.0188 75.7586 21.5054C76.0068 21.992 76.1567 22.5228 76.1997 23.0674Z" fill="#623A27"/>
<path d="M73.8395 25.8775C75.0325 24.4787 74.9254 22.4286 73.6003 21.2985C72.2752 20.1684 70.2339 20.3861 69.0409 21.7849C67.848 23.1837 67.955 25.2338 69.2801 26.3639C70.6052 27.494 72.6465 27.2762 73.8395 25.8775Z" fill="url(#paint2_radial)"/>
<path d="M69.9887 21.2088C70.1761 21.1939 70.3159 21.03 70.301 20.8427C70.2861 20.6554 70.1222 20.5156 69.9349 20.5304C69.7476 20.5453 69.6078 20.7092 69.6226 20.8965C69.6375 21.0839 69.8014 21.2237 69.9887 21.2088Z" fill="#E1E3EA"/>
<path d="M70.8645 23.2965C71.2816 23.2634 71.5929 22.8984 71.5598 22.4813C71.5267 22.0642 71.1617 21.7529 70.7445 21.786C70.3274 21.8191 70.0161 22.1841 70.0492 22.6012C70.0824 23.0183 70.4473 23.3296 70.8645 23.2965Z" fill="#E1E3EA"/>
<path d="M52.1041 25.1683C52.4338 29.3179 58.2284 30.2614 60.2488 26.7783C60.4453 26.4276 60.5996 26.0312 60.9328 25.8348C60.0945 23.3198 59.2176 20.433 55.9204 20.6926C55.3758 20.7356 54.8451 20.8855 54.3584 21.1337C53.8718 21.382 53.4389 21.7237 53.0845 22.1394C52.7301 22.5551 52.461 23.0365 52.2928 23.5563C52.1246 24.076 52.0605 24.6238 52.1041 25.1683Z" fill="#623A27"/>
<path d="M55.8083 28.2714C57.5695 28.1315 58.8899 26.6656 58.7574 24.9971C58.6249 23.3286 57.0898 22.0894 55.3286 22.2292C53.5674 22.3691 52.247 23.835 52.3795 25.5035C52.512 27.172 54.0472 28.4112 55.8083 28.2714Z" fill="url(#paint3_radial)"/>
<path d="M55.0324 24.5878C55.4496 24.5547 55.7609 24.1897 55.7277 23.7725C55.6946 23.3554 55.3296 23.0441 54.9125 23.0772C54.4954 23.1104 54.1841 23.4754 54.2172 23.8925C54.2503 24.3096 54.6153 24.6209 55.0324 24.5878Z" fill="#E1E3EA"/>
<path d="M53.9389 22.6294C54.1263 22.6146 54.266 22.4507 54.2512 22.2633C54.2363 22.076 54.0724 21.9362 53.8851 21.9511C53.6978 21.966 53.558 22.1299 53.5728 22.3172C53.5877 22.5045 53.7516 22.6443 53.9389 22.6294Z" fill="#E1E3EA"/>
<path d="M73.6588 34.3374C73.6367 34.2785 73.5923 34.2307 73.5351 34.2044C73.478 34.1781 73.4127 34.1755 73.3537 34.1971C70.7054 35.1792 68.6359 35.2073 67.2083 34.2883C65.7807 33.3693 65.0265 31.6295 64.8266 28.9216C64.7845 28.3393 64.767 27.9605 64.76 27.7115C64.7765 27.6952 64.7918 27.6776 64.8056 27.6589L65.244 26.9573C65.2867 26.8902 65.3103 26.8126 65.3123 26.7331C65.3143 26.6535 65.2946 26.5749 65.2553 26.5057C65.216 26.4365 65.1586 26.3793 65.0892 26.3402C65.0199 26.3011 64.9412 26.2816 64.8617 26.2839L63.9357 26.3154C63.8542 26.3154 63.7744 26.3381 63.7051 26.3809C63.6359 26.4237 63.5799 26.485 63.5435 26.5578C63.5071 26.6306 63.4917 26.7122 63.499 26.7933C63.5063 26.8744 63.536 26.9518 63.5849 27.017L64.0689 27.6729C64.1049 27.7202 64.1503 27.7597 64.2022 27.7886C64.2233 28.0237 64.2443 28.3393 64.2689 28.7532C64.4162 31.4646 63.869 33.3132 62.5887 34.3655C61.3084 35.4177 59.2354 35.6913 56.4819 35.067C56.4226 35.0578 56.3619 35.0714 56.3122 35.105C56.2624 35.1386 56.2271 35.1897 56.2133 35.2482C56.1996 35.3067 56.2084 35.3681 56.2381 35.4204C56.2677 35.4726 56.316 35.5118 56.3732 35.53C57.3686 35.7715 58.39 35.8894 59.4143 35.8808C60.856 35.8492 62.0205 35.4669 62.8939 34.7338C63.7877 33.9323 64.3805 32.8494 64.574 31.6646C64.6091 31.4892 64.6407 31.3138 64.6652 31.1244C64.7284 31.3734 64.795 31.6085 64.8722 31.8259C65.2154 32.9768 65.9419 33.9757 66.9312 34.6566C67.8091 35.1933 68.829 35.4514 69.8565 35.3967C71.1063 35.3371 72.3377 35.0717 73.501 34.611C73.5561 34.5925 73.6026 34.5545 73.6317 34.5041C73.6608 34.4537 73.6704 34.3944 73.6588 34.3374Z" fill="#BD8376"/>
<path d="M62.3792 10.0856C62.3301 8.46508 68.1773 1.13412 71.0676 2.08469C73.9579 3.03526 72.7864 14.9016 70.4643 15.1612C68.1423 15.4207 62.4424 12.1902 62.3792 10.0856Z" fill="#BD8376"/>
<path d="M61.7352 10.1173C61.6264 8.50031 55.0952 1.77266 52.3102 2.99683C49.5251 4.22099 51.8472 15.9225 54.1797 15.954C56.5123 15.9856 61.879 12.2184 61.7352 10.1173Z" fill="#BD8376"/>
<path d="M59.461 9.77683C58.9629 8.69648 59.6083 7.45127 61.748 7.38813C63.8877 7.32499 64.4489 7.92129 64.4875 8.73506C64.5366 9.72772 63.6807 12.2427 62.0602 12.3269C61.0605 12.3725 59.917 10.7625 59.461 9.77683Z" fill="#AA766D"/>
<defs>
<radialGradient id="paint0_radial" cx="0" cy="0" r="1" gradientUnits="userSpaceOnUse" gradientTransform="translate(30.5864 13.49) scale(3.11954)">
<stop stop-color="#42210B"/>
<stop offset="0.627"/>
</radialGradient>
<radialGradient id="paint1_radial" cx="0" cy="0" r="1" gradientUnits="userSpaceOnUse" gradientTransform="translate(16.9915 20.9933) scale(2.99634)">
<stop stop-color="#42210B"/>
<stop offset="0.627"/>
</radialGradient>
<radialGradient id="paint2_radial" cx="0" cy="0" r="1" gradientUnits="userSpaceOnUse" gradientTransform="translate(71.4333 23.8631) rotate(22.96) scale(3.24456)">
<stop stop-color="#42210B"/>
<stop offset="0.63"/>
</radialGradient>
<radialGradient id="paint3_radial" cx="0" cy="0" r="1" gradientUnits="userSpaceOnUse" gradientTransform="translate(-15863.4 -3199.58) rotate(22.96) scale(56.8136 53.8234)">
<stop stop-color="#42210B"/>
<stop offset="0.63"/>
</radialGradient>
</defs>
</svg>
