<svg width="70" height="71" viewBox="0 0 70 71" fill="none" xmlns="http://www.w3.org/2000/svg">
<path d="M0.94282 54.8019C0.519243 53.8318 0.259632 52.7797 0.191313 51.7139C-0.0819627 47.8334 5.49286 39.2662 9.64665 44.1852C10.0292 44.6361 10.3162 45.169 10.5485 45.7292C10.7124 46.1118 10.8491 46.5217 10.89 46.9316C11.0813 49.0905 7.80204 50.4432 9.34604 52.2468C10.9584 54.1324 12.68 55.0889 13.4588 57.6713C13.5681 58.0402 13.6501 58.4502 13.4725 58.7917C13.2402 59.229 12.7073 59.352 12.2291 59.4339C8.47156 60.1035 4.3451 59.6799 1.87196 56.3733C1.50304 55.895 1.18877 55.3621 0.94282 54.8019Z" fill="#E0B885"/>
<path d="M45.6919 62.8498C45.241 62.2076 44.4895 62.03 44.0112 61.4971C43.369 60.7866 43.6013 60.8549 44.0249 60.0214C44.6808 58.7507 45.0633 57.4936 45.3503 56.0999C46.1018 52.3424 45.4049 49.145 43.8883 45.6608C43.0684 43.7888 41.2238 40.4002 39.3382 39.4438C37.193 38.3643 36.0043 42.2175 35.5397 43.5702C34.8292 45.6471 34.3373 47.806 33.9684 49.9649C33.8864 50.4158 33.8317 50.853 33.8454 51.3176C33.859 52.2467 33.3671 51.4679 33.2305 52.397C33.1895 52.7113 32.2331 52.8343 32.2057 53.1485C30.9896 52.9572 30.9213 51.0716 29.5413 51.0716C27.2458 51.0716 28.4755 51.2493 26.7402 51.7412C26.6582 51.0716 25.6744 50.853 25.5378 50.2108C25.3328 49.2953 25.0322 47.4644 24.9913 46.5353C24.9639 46.0707 24.2397 46.9862 24.1304 46.5353C23.6112 44.4037 24.9913 44.7316 24.1304 42.7094C23.5702 41.3977 18.214 38.091 16.1508 39.3208C14.3335 40.4002 12.7212 43.9118 12.038 45.8247C10.7536 49.4047 10.2754 52.643 11.2865 56.3459C11.6691 57.7259 12.1336 58.9556 12.8715 60.1717C13.3634 60.9779 13.582 60.8959 12.9945 61.6474C12.5572 62.2076 11.8194 62.4399 11.4095 63.1094C10.9039 63.9429 10.9039 65.1863 11.6554 65.7739C12.0653 66.0881 12.5982 66.1564 13.1038 66.1974C14.8664 66.3477 16.7247 66.3067 18.378 65.6509C20.1406 64.9677 21.1517 63.5877 21.9989 62.0027C23.9255 62.7405 26.5626 63.2051 29.4593 63.2051C31.5362 63.2051 33.4628 62.9728 35.1024 62.5629C36.0452 64.0522 37.1383 65.3093 38.901 65.8695C40.6089 66.4024 42.4672 66.3204 44.2025 66.0608C44.7081 65.9788 45.241 65.8832 45.6236 65.5416C46.3477 64.8994 46.2521 63.6423 45.6919 62.8498Z" fill="#BFBAB0"/>
<path d="M17.4629 54.9111L12.4756 53.6814C12.4756 53.6814 12.4756 56.1272 13.514 57.5346L17.4629 54.9111Z" fill="#827872"/>
<path d="M16.8069 49.8281C16.4243 49.0766 13.9785 45.6743 13.9785 45.6743C13.9785 45.6743 15.1126 43.6931 15.2902 43.2285L16.8069 49.8281Z" fill="#827872"/>
<path d="M17.1759 53.0255L12.4756 51.8914C12.4756 51.8914 13.1314 47.8469 13.514 47.3687L17.1759 53.0255Z" fill="#827872"/>
<path d="M66.1319 69.4905C63.0439 71.2942 58.3299 69.5725 54.4767 67.0857C51.4706 65.1181 47.5355 69.5725 47.5355 69.6545C47.2759 69.9961 46.6747 70.0781 46.3331 69.7365C45.9915 69.3949 45.9095 68.8757 46.2511 68.5341C46.4287 68.3565 51.1427 62.8773 55.4195 65.7057C56.1846 66.1293 61.6775 69.6409 65.0251 68.1105C64.4239 67.1677 64.0003 66.2249 63.7407 65.3641C63.1395 63.3965 63.4811 61.9345 64.6015 61.4289C65.9679 60.7457 67.5119 61.0873 68.4547 62.1121C68.9739 62.7133 70.0807 64.5169 68.0311 67.5913C67.8535 67.7689 67.6895 68.0149 67.5119 68.1925C68.0311 68.6161 68.5367 68.8757 69.0559 68.7937C69.4795 68.7937 69.9167 69.1353 69.9987 69.5589C69.9987 69.9824 69.6571 70.4197 69.2336 70.5017C69.0559 70.5017 68.9739 70.5017 68.81 70.5017C67.7579 70.529 66.8151 70.0918 66.1319 69.4905ZM65.2711 62.809C65.0934 62.8909 64.9295 63.4922 65.2711 64.6946C65.5307 65.4597 65.8723 66.1566 66.2958 66.8398C66.2958 66.7578 66.3778 66.6621 66.4735 66.5802C67.4983 65.1181 67.6759 63.8337 67.0747 63.1506C66.8151 62.8909 66.3915 62.727 65.9542 62.727C65.7083 62.727 65.4487 62.809 65.2711 62.809Z" fill="#02A6AA"/>
<path d="M50.8702 70.4333C45.5277 70.4333 41.1826 66.1019 41.1826 60.7457C41.1826 55.4032 45.514 51.0581 50.8702 51.0581C56.2128 51.0581 60.5578 55.3895 60.5578 60.7457C60.5578 66.1019 56.2264 70.4333 50.8702 70.4333Z" fill="#027F82"/>
<path d="M46.9346 69.9277C47.0166 69.9277 47.1122 69.9277 47.1942 69.8458C47.6178 69.6681 47.8774 69.2446 47.7135 68.7253C47.7135 68.6433 47.6315 68.5477 47.6315 68.4657C47.2079 66.7577 47.1122 64.9541 47.5495 63.0685C47.8091 61.7841 48.3147 60.4997 49.0115 59.1334C49.5307 58.1906 50.0363 57.2478 50.7195 56.305C52.2635 54.1597 53.3703 52.9573 53.8895 52.4518C54.2311 52.1102 54.2311 51.591 53.8895 51.2494C53.5479 50.9078 53.0287 50.9078 52.6871 51.2494C52.0859 51.8506 50.8015 53.135 49.2575 55.3622C48.5743 56.3869 47.9731 57.4254 47.4538 58.3545C46.6887 59.8165 46.1694 61.2649 45.9098 62.645C45.3906 64.8721 45.4863 67.0174 46.0875 69.0669C46.1694 69.4085 46.3471 69.5861 46.511 69.6681C46.593 69.8321 46.757 69.9277 46.9346 69.9277Z" fill="#02A6AA"/>
<path d="M55.9389 69.3264C56.3625 69.3264 56.7997 68.9848 56.7997 68.5612C56.7997 68.042 56.4581 67.7004 56.0345 67.6184C53.7254 67.4408 52.1814 66.7576 50.7193 65.6508C49.5169 64.79 48.4102 63.7652 47.3717 62.4808C46.6885 61.62 46.0873 60.6772 45.4861 59.6524C44.4613 57.8488 44.0241 56.824 43.6825 55.9632C43.5049 55.5396 42.9993 55.28 42.5621 55.444C42.1385 55.6216 41.8789 56.1272 42.0428 56.5644C42.3844 57.5072 42.808 58.6276 43.9284 60.4996C44.5296 61.62 45.2128 62.5628 45.9917 63.4919C47.1121 64.9539 48.3965 66.0607 49.6809 67.0035C51.7305 68.4655 53.5341 69.1487 55.9389 69.3264Z" fill="#02A6AA"/>
<path d="M55.0785 57.5892C56.3629 57.5892 57.6473 57.4116 59.0273 56.906C59.4509 56.7284 59.7105 56.3048 59.5465 55.7856C59.3689 55.362 58.9453 55.1024 58.4261 55.2663C55.6797 56.2091 53.1929 55.8675 50.1185 55.0067C47.8913 54.4055 46.4293 53.7223 45.2269 53.0391C44.8033 52.7795 44.2841 52.9572 44.0245 53.3807C43.7649 53.8043 43.9425 54.3235 44.3661 54.5832C45.6505 55.2663 47.1945 56.0452 49.5993 56.7284C51.3073 57.1519 53.1109 57.5892 55.0785 57.5892Z" fill="#02A6AA"/>
<path d="M41.2779 62.1256C42.3983 60.9232 43.1635 60.4176 44.3659 59.8164C45.4863 59.2152 46.6751 58.7917 48.0551 58.532C53.7939 57.2476 58.9451 58.7917 59.8879 59.1332L60.1475 59.2152C60.4891 59.2972 60.7487 59.6388 60.7487 60.076C60.7487 60.5953 60.3252 60.9369 59.8879 60.9369C59.7103 60.9369 59.6283 60.9369 59.5463 60.8549L59.3687 60.7729C58.8495 60.5953 53.8895 59.0649 48.3967 60.2537C47.1943 60.5133 46.0875 60.9369 45.1447 61.3741C43.9423 61.9753 43.4367 62.3169 42.4939 63.3417C42.3163 63.5193 42.0704 63.6013 41.8927 63.6013C41.7151 63.6013 41.4692 63.5193 41.2915 63.3417C41.0182 63.0684 40.9363 62.5492 41.2779 62.1256Z" fill="#02A6AA"/>
<path d="M44.9263 53.0117C41.4284 48.4617 41.1551 46.6171 39.3652 41.0696C38.0808 37.0934 33.1481 37.5853 29.3633 37.6263V53.9135C35.2797 54.1185 38.1491 54.4464 40.9092 59.2424C41.9749 61.087 47.6044 60.6635 47.7411 58.9965C47.8914 57.1109 46.8256 55.4849 44.9263 53.0117Z" fill="#DBD6CC"/>
<path d="M13.9235 53.0118C17.4214 48.4618 17.6947 46.6172 19.4846 41.0697C20.769 37.0935 24.6359 37.4761 29.4865 37.6264V53.9136C25.0458 53.8863 20.7007 54.4465 17.9406 59.2425C16.8749 61.0871 11.2454 60.6635 11.1088 58.9965C10.9584 57.1109 12.0242 55.485 13.9235 53.0118Z" fill="#DBD6CC"/>
<path d="M37.6738 1.549L14.4326 3.95093L15.7811 16.9986L39.0223 14.5967L37.6738 1.549Z" fill="#4F2B1D"/>
<path d="M42.4133 0.168843L8.65234 3.65796L8.85321 5.60152L42.6141 2.11241L42.4133 0.168843Z" fill="#623A27"/>
<path d="M48.5758 33.5273C48.5758 33.541 48.5621 33.541 48.5621 33.5547C48.4664 33.7459 48.3571 33.9372 48.2478 34.1285C45.2008 39.3618 38.4646 43.3106 30.3756 43.9391C22.5189 44.5677 15.4138 41.8896 11.5059 37.4352C9.70232 35.3856 8.56823 32.9398 8.36327 30.2753C8.15831 27.6109 8.88249 25.0285 10.3445 22.7056C10.6861 22.1591 11.0687 21.6262 11.4923 21.107C11.4923 21.0796 11.4786 21.0523 11.4923 21.0386C14.0337 17.6773 20.3737 14.9992 20.3737 14.9992C22.109 14.3434 23.981 13.8378 25.9622 13.5509C26.5498 13.4689 27.1373 13.3869 27.7385 13.3459C27.8205 13.3323 27.8888 13.3323 27.9708 13.3186H28.1074H28.2167L29.0092 13.3459C29.0092 13.3459 32.9444 13.2366 34.2288 13.5099C34.2698 13.4826 35.6908 13.6465 38.0137 14.4664C39.544 14.9992 41.4433 15.8191 43.6021 17.0352C43.8481 17.1718 44.1077 17.3221 44.3673 17.4724C44.381 17.4861 45.8293 18.7431 45.8293 18.7431C45.884 18.7978 45.9386 18.8524 45.9933 18.9071C46.4032 19.3033 46.7858 19.7133 47.1411 20.1505C47.1411 20.1505 47.1411 20.1505 47.1547 20.1642C47.1547 20.1642 47.1547 20.1642 47.1684 20.1778C47.1684 20.1778 47.1684 20.1778 47.1821 20.1915C47.2094 20.2188 47.4827 20.5741 47.51 20.6151C47.51 20.6151 47.5236 20.6287 47.5236 20.6424C47.551 20.6697 47.6876 20.861 47.7286 20.9293C47.7423 20.943 47.7423 20.9567 47.7559 20.9703C47.8106 21.0386 47.8516 21.107 47.8926 21.1753C47.9336 21.2299 48.1658 21.5852 48.1658 21.5852C48.1932 21.6262 48.3025 21.8038 48.3025 21.8038C48.3298 21.8448 48.4528 22.0498 48.4801 22.1044L48.6987 22.5007C48.6987 22.5007 48.8627 22.8286 48.931 22.9652C48.9993 23.1019 49.177 23.5254 49.2043 23.6074C49.2316 23.6757 49.3409 23.9763 49.3683 24.0583L49.4229 24.2223C49.4229 24.236 49.5459 24.6322 49.5732 24.7005C49.5869 24.7688 49.6142 24.8372 49.6279 24.9055C49.6415 24.9465 49.6552 25.0011 49.6689 25.0421C49.6962 25.1378 49.8602 25.9576 49.8738 26.0123C49.8875 26.1216 49.9011 26.2309 49.9285 26.3402C49.9285 26.3538 49.9285 26.3538 49.9285 26.3538C49.9421 26.4085 49.9421 26.4768 49.9558 26.5315C49.9695 26.6135 49.9695 26.6818 49.9831 26.7638C49.9968 26.8321 49.7645 30.125 49.0677 32.4069C48.89 32.8168 48.7397 33.1994 48.5758 33.5273Z" fill="#EEECE8"/>
<path d="M49.0128 32.3934C46.4713 31.3413 41.7983 31.0953 37.4805 27.775C37.4669 27.775 37.4669 27.7614 37.4532 27.7614C37.1663 27.5427 36.8793 27.2968 36.5924 27.0098C35.6086 26.067 34.5975 24.8373 33.6137 23.4436C33.3951 23.1293 33.1764 22.8151 32.9578 22.4871C30.9356 19.4948 29.0637 16.0105 27.7656 13.4554C27.7519 13.4144 27.7246 13.3871 27.7109 13.3461C27.7929 13.3324 27.8612 13.3324 27.9432 13.3187H28.0799H28.1892L28.9817 13.3461C28.9817 13.3461 32.9168 13.2368 34.2012 13.51C34.2422 13.4827 35.6633 13.6467 37.9861 14.4665C38.8606 13.4007 40.6779 11.3375 41.5113 11.4331C41.8256 11.4741 42.1262 11.5561 42.3995 11.7064C43.1237 12.1027 43.6566 12.9498 43.5746 14.6305C43.5063 15.8875 43.5473 16.6254 43.5882 17.0353C43.8342 17.1719 44.0938 17.3222 44.3534 17.4725C44.3671 17.4862 45.8154 18.7433 45.8154 18.7433C45.8701 18.7979 45.9248 18.8526 45.9794 18.9072C46.3893 19.3035 46.7719 19.7134 47.1272 20.1506C47.1272 20.1506 47.1272 20.1506 47.1408 20.1643C47.1408 20.1643 47.1408 20.1643 47.1545 20.178C47.1545 20.178 47.1545 20.178 47.1682 20.1916C47.1955 20.219 47.4688 20.5742 47.4961 20.6152C47.4961 20.6152 47.5097 20.6289 47.5097 20.6425C47.5371 20.6699 47.6737 20.8611 47.7147 20.9295C47.7284 20.9431 47.7284 20.9568 47.742 20.9705C47.7967 21.0388 47.8377 21.1071 47.8787 21.1754C47.9197 21.2301 48.1519 21.5853 48.1519 21.5853C48.1793 21.6263 48.2886 21.8039 48.2886 21.8039C48.3159 21.8449 48.4389 22.0499 48.4662 22.1046L48.6848 22.5008C48.6848 22.5008 48.8488 22.8287 48.9171 22.9654C48.9854 23.102 49.1631 23.5256 49.1904 23.6076C49.2177 23.6759 49.327 23.9765 49.3544 24.0585L49.409 24.2224C49.409 24.2361 49.532 24.6324 49.5593 24.7007C49.573 24.769 49.6003 24.8373 49.614 24.9056C49.6276 24.9466 49.6413 25.0013 49.655 25.0423C49.6823 25.1379 49.8463 25.9577 49.8599 26.0124C49.8736 26.1217 49.8872 26.231 49.9146 26.3403C49.9146 26.354 49.9146 26.354 49.9146 26.354C49.9282 26.4086 49.9282 26.477 49.9419 26.5316C49.9556 26.6136 49.9556 26.6819 49.9692 26.7639C49.9419 26.8186 49.7233 30.1115 49.0128 32.3934Z" fill="#E0B885"/>
<path d="M48.2467 30.5762L42.7676 28.8409L48.6157 26.7503C48.602 26.7366 48.848 29.3737 48.2467 30.5762Z" fill="#CCA172"/>
<path d="M42.1943 26.2585L47.6325 24.6735C47.6325 24.6735 47.6735 22.7469 46.5667 21.6948L42.1943 26.2585Z" fill="#CCA172"/>
<path d="M41.9209 23.717C42.0302 23.471 45.1046 20.1097 45.1046 20.1097C45.1046 20.1097 44.5307 18.7023 43.3829 18.2104L41.9209 23.717Z" fill="#CCA172"/>
<path d="M13.3366 22.651C13.3366 22.651 13.3503 22.0635 12.4348 19.9183C11.5194 17.7731 12.2709 16.721 13.2683 16.2154C14.2658 15.7098 18.2829 18.265 18.2829 18.265C17.3401 20.3965 15.5638 21.9678 13.3366 22.651Z" fill="#827872"/>
<path d="M41.1289 28.0618C41.4432 32.0379 36.1006 33.8142 33.6548 30.8219C33.4225 30.5349 33.2176 30.166 32.8623 30.0294C33.2722 27.5289 33.6685 24.6458 36.8385 24.3999C39.0383 24.2223 40.9649 25.8619 41.1289 28.0618Z" fill="#623A27"/>
<path d="M39.3796 26.0941C40.6504 27.1736 40.7597 29.1411 39.6119 30.4939C38.4642 31.8329 36.5102 32.0379 35.2395 30.9584C33.9688 29.879 33.8595 27.9114 35.0072 26.5587C36.155 25.206 38.1089 25.001 39.3796 26.0941Z" fill="url(#paint0_radial)"/>
<path d="M38.1913 25.916C38.3718 25.9017 38.5066 25.7437 38.4923 25.5631C38.4779 25.3826 38.32 25.2478 38.1394 25.2622C37.9589 25.2765 37.8241 25.4344 37.8384 25.615C37.8527 25.7955 38.0107 25.9303 38.1913 25.916Z" fill="#E1E3EA"/>
<path d="M39.0279 27.9098C39.4266 27.8782 39.7242 27.5293 39.6925 27.1306C39.6609 26.7319 39.3121 26.4343 38.9133 26.4659C38.5146 26.4976 38.217 26.8464 38.2487 27.2451C38.2803 27.6438 38.6291 27.9414 39.0279 27.9098Z" fill="#E1E3EA"/>
<path d="M18.0093 30.084C18.3235 34.0602 23.8847 34.9756 25.8249 31.628C26.0162 31.3001 26.1529 30.9038 26.4808 30.7262C25.6746 28.3214 24.8412 25.5476 21.6712 25.7936C19.4713 25.9575 17.8316 27.8841 18.0093 30.084Z" fill="#623A27"/>
<path d="M25.0191 29.4691C25.1421 31.0677 23.885 32.4751 22.1907 32.6118C20.4964 32.7484 19.0344 31.5596 18.8978 29.961C18.7611 28.3623 20.0319 26.9549 21.7262 26.8183C23.4205 26.6817 24.8962 27.8704 25.0191 29.4691Z" fill="url(#paint1_radial)"/>
<path d="M23.4507 29.0302C23.8494 28.9985 24.147 28.6497 24.1154 28.251C24.0838 27.8523 23.7349 27.5547 23.3362 27.5863C22.9375 27.6179 22.6399 27.9668 22.6715 28.3655C22.7031 28.7642 23.052 29.0618 23.4507 29.0302Z" fill="#E1E3EA"/>
<path d="M22.3944 27.1465C22.5749 27.1321 22.7097 26.9742 22.6954 26.7936C22.6811 26.6131 22.5231 26.4783 22.3425 26.4926C22.162 26.5069 22.0272 26.6649 22.0416 26.8455C22.0559 27.026 22.2138 27.1608 22.3944 27.1465Z" fill="#E1E3EA"/>
<path d="M39.1877 37.7631C39.133 37.6401 38.9964 37.5855 38.8734 37.6401C36.25 38.7469 34.1867 38.8699 32.6974 38.009C31.249 37.1619 30.3882 35.4403 30.0603 32.7212C29.992 32.1473 29.951 31.7647 29.9373 31.5188L29.951 31.5051L30.4292 30.6853C30.5932 30.3983 30.3746 30.0567 30.0466 30.0841L28.9808 30.166C28.6529 30.1934 28.489 30.576 28.6939 30.8219L29.2951 31.5597C29.3224 31.6007 29.3634 31.6281 29.4044 31.6554C29.4318 31.8877 29.4727 32.2019 29.5137 32.5982C29.787 35.3173 29.3224 37.1892 28.079 38.3233C26.822 39.4847 24.7724 39.8127 21.9713 39.2934C21.8347 39.2661 21.7117 39.3618 21.6981 39.4847C21.6707 39.6214 21.7664 39.7444 21.8893 39.758C22.7775 39.922 23.5837 40.004 24.3352 40.004C26.0841 40.004 27.4505 39.5531 28.407 38.6786C29.2268 37.9271 29.746 36.8613 29.951 35.5222C29.9783 35.3446 30.0056 35.167 30.0193 34.9757C30.0876 35.2216 30.1696 35.4539 30.2652 35.6862C30.7708 36.9569 31.5086 37.8724 32.4651 38.4326C33.1893 38.8562 34.0228 39.0612 34.9792 39.0612C36.168 39.0612 37.5344 38.7332 39.0647 38.091C39.1877 38.0364 39.2423 37.8861 39.1877 37.7631Z" fill="#BD8376"/>
<path d="M15.8102 57.1519L17.6958 56.332C17.6958 56.332 20.3329 60.9094 24.0221 61.1827L24.4183 62.0708L15.4412 65.9923L15.045 65.0768C15.0313 65.0768 17.3405 62.9863 15.8102 57.1519Z" fill="#4F2B1D"/>
<path d="M18.5283 41.1652L21.0698 40.0584C21.0698 40.0584 21.835 39.8535 22.1902 40.9602C22.5455 42.067 24.7863 48.8579 19.4301 52.2192C19.4301 52.2192 19.6761 51.0578 19.8264 50.1969C22.2175 47.5462 21.753 43.8296 21.0425 41.8347C21.0015 41.7254 20.8922 41.6708 20.7828 41.6981C20.4959 41.7801 19.8264 41.9987 19.0612 42.4359L18.5283 41.1652Z" fill="#4F2B1D"/>
<path d="M4.1 47.4644L1.55854 48.5711C1.55854 48.5711 0.889011 48.9947 1.46289 50.0058C2.03677 51.0169 5.4937 57.2749 11.6014 55.6353C11.6014 55.6353 10.5766 55.0204 9.83878 54.5559C6.27254 54.5149 3.85405 51.6455 2.88392 49.7599C2.82927 49.6642 2.87026 49.5412 2.9659 49.4729C3.22552 49.309 3.84039 48.981 4.67388 48.7078L4.1 47.4644Z" fill="#4F2B1D"/>
<path d="M3.11621 46.6034L18.5699 39.8535C18.5699 39.8535 23.9261 53.8316 16.9303 56.8922C9.92077 59.9393 3.11621 46.6034 3.11621 46.6034Z" fill="#4F2B1D"/>
<path d="M11.5342 59.5978C11.2336 59.1469 11.0833 58.6413 10.933 58.1221C10.0039 54.8291 12.3541 52.8342 15.688 53.9C16.2072 54.064 16.7128 54.3099 17.0954 54.7062C17.8196 55.4713 17.8879 56.7011 17.5326 57.6985C16.6445 60.1443 13.5975 62.6858 11.5342 59.5978Z" fill="#EEECE8"/>
<defs>
<radialGradient id="paint0_radial" cx="0" cy="0" r="1" gradientUnits="userSpaceOnUse" gradientTransform="translate(37.3111 28.5113) rotate(22.9676) scale(3.11311)">
<stop stop-color="#42210B"/>
<stop offset="0.627"/>
</radialGradient>
<radialGradient id="paint1_radial" cx="0" cy="0" r="1" gradientUnits="userSpaceOnUse" gradientTransform="translate(21.9709 29.7011) rotate(22.9676) scale(2.99017)">
<stop stop-color="#42210B"/>
<stop offset="0.627"/>
</radialGradient>
</defs>
</svg>
