<svg width="44" height="44" viewBox="0 0 44 44" fill="none" xmlns="http://www.w3.org/2000/svg">
<path d="M44 22C44 26.3 42.8 30.3 40.7 33.7C36.8 39.9 29.9 44 22 44C21.3 44 20.7 44 20.1 43.9C18.5 43.8 16.8 43.4 15.3 42.9C14.3 42.6 13.4 42.2 12.5 41.8C12.1 41.6 11.7 41.4 11.2 41.1C10.5 40.7 9.8 40.3 9.1 39.8C8.1 39.1 7.3 38.4 6.5 37.6C5 36.1 3.7 34.5 2.7 32.7C1 29.6 0 25.9 0 22C0 9.9 9.9 0 22 0C34.1 0 44 9.9 44 22Z" fill="#C6C9CB"/>
<path d="M40.7 33.6999C36.8 39.8999 29.9 43.9999 22 43.9999C21.3 43.9999 20.7 43.9999 20.1 43.8999C18.7 42.1999 17.9 38.9999 18.4 37.7999C18.9 36.6999 19.6 35.7999 20.4 34.9999C21.7 33.7999 23.3 33.0999 24.9 32.7999C27.8 32.1999 30.7 31.5999 33.7 31.2999C36.1 31.0999 39.7 30.6999 40.7 33.6999Z" fill="#DCD7CC"/>
<path d="M20.3 35L20 43.9C18.4 43.8 16.7 43.4 15.2 42.9C15.2 42.9 15.7 42.4 16.7 39.3C17.7 36 20.2 35.1 20.3 35Z" fill="#DCD7CC"/>
<path d="M38.4001 25.1999C38.4001 25.3999 38.3001 25.4999 38.3001 25.6999C36.9001 29.9999 32.7001 33.8999 27.0001 35.6999C21.4001 37.3999 15.9001 36.5999 12.3001 33.9999C10.7001 32.7999 9.50007 31.1999 8.90007 29.2999C8.30007 27.3999 8.40008 25.3999 9.10008 23.4999C9.20008 23.0999 9.50007 22.5999 9.70007 22.1999C11.0001 19.2999 15.1001 16.3999 15.1001 16.3999C16.2001 15.5999 17.5001 14.9999 18.9001 14.4999C19.3001 14.3999 19.7001 14.1999 20.1001 14.0999C20.1001 14.0999 20.2001 14.0999 20.3001 14.0999H20.4001H20.5001L21.1001 13.9999C21.1001 13.9999 23.9001 13.2999 24.9001 13.2999C24.9001 13.2999 26.0001 13.1999 27.8001 13.3999C29.0001 13.4999 30.5001 13.7999 32.2001 14.3999C32.4001 14.4999 32.6001 14.4999 32.8001 14.5999L34.0001 14.9999L34.1001 15.0999C34.5001 15.2999 34.8001 15.4999 35.1001 15.7999C35.1001 15.7999 35.4001 15.9999 35.4001 16.0999C35.4001 16.0999 35.5001 16.1999 35.6001 16.2999L35.7001 16.3999L36.0001 16.6999L36.1001 16.7999C36.1001 16.7999 36.2001 16.8999 36.3001 16.9999L36.5001 17.2999C36.5001 17.2999 36.7001 17.4999 36.8001 17.5999C36.9001 17.6999 37.1001 17.9999 37.1001 17.9999C37.1001 17.9999 37.2001 18.2999 37.3001 18.2999L37.4001 18.3999C37.4001 18.3999 37.5001 18.6999 37.6001 18.6999C37.6001 18.6999 37.6001 18.7999 37.7001 18.7999V18.8999C37.7001 18.9999 38.0001 19.4999 38.0001 19.5999C38.0001 19.6999 38.1001 19.6999 38.1001 19.7999V19.8999C38.1001 19.8999 38.1001 19.9999 38.2001 19.9999C38.2001 19.9999 38.6001 22.4999 38.5001 24.1999C38.5001 24.5999 38.4001 24.8999 38.4001 25.1999Z" fill="#EEECE8"/>
<path d="M11.2001 23.0002C11.2001 23.0002 11.1001 22.6002 10.1001 21.2002C9.10007 19.8002 9.50007 18.9002 10.1001 18.4002C10.7001 17.9002 14.1001 19.1002 14.1001 19.1002C13.7001 20.7002 12.7001 22.1002 11.2001 23.0002Z" fill="#837973"/>
<path d="M38.5 24.2999C36.5 23.8999 33.1 24.4999 29.4 22.7999C29.1 22.6999 28.9 22.4999 28.7 22.3999C27.8 21.8999 26.9 21.1999 26 20.2999C25.8 20.0999 25.6 19.8999 25.4 19.6999C23.5 17.8999 21.5 15.6999 20.2 13.9999C20.2 13.9999 20.2 13.9999 20.1 13.8999C20.1 13.8999 20.2 13.8999 20.3 13.8999H20.4H20.5L21.1 13.7999C21.1 13.7999 23.9 13.0999 24.9 13.0999C24.9 13.0999 26 12.9999 27.8 13.1999C28.3 12.2999 29.2 10.4999 29.9 10.3999C30.1 10.3999 30.4 10.3999 30.6 10.3999C31.2 10.5999 31.7 11.0999 31.9 12.2999C32 13.1999 32.2 13.6999 32.3 13.9999C32.5 14.0999 32.7 14.0999 32.9 14.1999L34.1 14.8999L34.2 14.9999C34.6 15.1999 34.9 15.3999 35.2 15.6999C35.2 15.6999 35.5 15.8999 35.5 15.9999C35.5 15.9999 35.6 16.0999 35.7 16.1999L35.8 16.2999L36.1 16.5999L36.2 16.6999C36.2 16.6999 36.3 16.7999 36.4 16.8999L36.6 17.1999C36.6 17.1999 36.8 17.3999 36.9 17.4999C37 17.5999 37.2 17.8999 37.2 17.8999C37.2 17.8999 37.3 18.1999 37.4 18.1999L37.5 18.2999C37.5 18.2999 37.6 18.5999 37.7 18.5999C37.7 18.5999 37.7 18.6999 37.8 18.6999V18.7999C37.8 18.8999 38.1 19.3999 38.1 19.4999C38.1 19.5999 38.2 19.5999 38.2 19.6999V19.7999C38.2 19.7999 38.2 19.8999 38.3 19.8999C38.3 20.0999 38.6 22.4999 38.5 24.2999Z" fill="#E1B885"/>
<path d="M32 14.3L30 13.8L30.5 11C31 11.1 31.4 11.6 31.6 12.7C31.8 13.6 31.9 14 32 14.3Z" fill="#EEECE8"/>
<path d="M37.7 22.5001L33.4 22.1001L37.3 19.6001C37.3 19.7001 37.9 21.6001 37.7 22.5001Z" fill="#CDA273"/>
<path d="M32.7 20.8999L36.4 18.8999C36.4 18.8999 36.1 17.4999 35.2 16.8999L32.7 20.8999Z" fill="#CDA273"/>
<path d="M32.1 19.0999C32.1 18.8999 33.8 15.9999 33.8 15.9999C33.8 15.9999 33.2 15.0999 32.3 14.8999L32.1 19.0999Z" fill="#CDA273"/>
<path d="M24.4999 24.6999V24.5999C24.5999 24.1999 24.2999 23.8999 23.8999 23.9999H23.7999C23.3999 24.0999 23.3999 24.5998 23.6999 24.7998L23.7999 24.8998C23.9999 25.1998 24.2999 24.9999 24.4999 24.6999Z" fill="#BD8376"/>
<path d="M22.1 31.8998C21.4 32.0998 20.7 32.1998 19.9 32.1998C19.8 32.1998 19.7 32.0998 19.7 31.9998C19.7 31.8998 19.8 31.7998 19.9 31.7998C21.9999 31.6998 23.4 31.1998 24.2 30.0998C24.9 29.0998 24.8999 27.5998 24.2999 25.6998C24.0999 25.0998 23.9999 24.7998 23.9 24.6998C23.8 24.6998 23.7999 24.5998 23.7999 24.5998C23.7999 24.3998 23.9 24.2998 23.9 24.2998C24.0999 24.2998 24.2 24.3998 24.2 24.5998C24.3 24.7998 24.4 25.1998 24.6 25.5998C24.9 26.3998 25 27.0998 25 27.7998C25.1 28.7998 24.9 29.6998 24.4 30.2998C23.9 31.0998 23.1 31.5998 22.1 31.8998Z" fill="#BD8376"/>
<path d="M29.5 29.6001C28.7 29.9001 27.9 29.9001 27.3 29.6001C26.5 29.3001 25.8 28.8001 25.3 28.0001C24.9 27.4001 24.6 26.8001 24.3 26.0001C24.2 25.5001 24 25.2001 24 25.0001C24 24.8001 23.9 24.6001 24.1 24.5001C24.1 24.5001 24.3 24.4001 24.4 24.6001C24.4 24.7001 24.4 24.7001 24.4 24.8001C24.4 24.9001 24.5 25.2001 24.7 25.8001C25.4 27.7001 26.3 28.8001 27.5 29.2001C28.7 29.6001 30.2 29.2001 31.9 28.0001C32 27.9001 32.1 28.0001 32.2 28.0001C32.3 28.1001 32.2 28.2001 32.2 28.3001C31.1 28.9001 30.3 29.3001 29.5 29.6001Z" fill="#BD8376"/>
<path d="M18.8999 27.0002C20.1999 26.5002 20.8999 25.1002 20.4999 23.9002C20.0999 22.7002 18.5999 22.0002 17.2999 22.5002C15.9999 23.0002 15.2999 24.4002 15.6999 25.6002C16.1999 26.8002 17.5999 27.5002 18.8999 27.0002Z" fill="#A7A9AC"/>
<path d="M12.5 41.8999C12.1 41.6999 11.7 41.4999 11.2 41.1999C10.5 40.7999 9.8 40.3999 9.1 39.8999C8.1 39.1999 7.3 38.4999 6.5 37.6999C6.3 37.3999 6.1 37.0999 6 36.7999C6.3 36.4999 6.7 36.1999 7.2 35.9999C9.3 35.3999 11 36.5999 11.6 37.4999C12.3 38.3999 12.5 40.0999 12.5 41.8999Z" fill="#DCD7CC"/>
<path d="M19.6 28.2999L19.1 28.4999C17.4 29.1999 15.5 28.2999 14.8 26.5999L14 24.4999L20.7 21.8999L21.5 23.9999C22.2 25.6999 21.3 27.5999 19.6 28.2999Z" fill="#3A3431"/>
<path d="M31 23.7999L30.6 23.9999C28.9 24.6999 27 23.7999 26.3 22.0999L25.5 19.9999L32.2 17.3999L33 19.4999C33.6 21.1999 32.8 23.0999 31 23.7999Z" fill="#3A3431"/>
<path d="M20 27.7998C19.8 27.8998 19.6 28.0998 19.3 28.1998C17.7 28.7998 15.9 27.8998 15.2 26.1998L14.5 24.3998L16 23.7998L16.7 25.5998C17.3 27.0998 18.6 27.8998 20 27.7998Z" fill="#514F4E"/>
<path d="M31.3 23.4C31.1 23.5 30.9 23.7 30.6 23.8C29 24.4 27.2 23.5 26.5 21.8L25.9 20L27.4 19.5L28.1 21.3C28.6 22.6 30 23.5 31.3 23.4Z" fill="#514F4E"/>
<path d="M21.1 23.8999L20.5 22.3999L20 22.5999L20.6 23.9999L21.1 23.8999Z" fill="#615A59"/>
<path d="M20.8 25.1999C20.8 25.9999 20.4 26.7999 19.7 27.2999C19.6 27.3999 19.7 27.2999 19.6 27.3999C20.6 26.9999 21.3 25.9999 21.3 24.8999L20.8 25.1999Z" fill="#615A59"/>
<path d="M32.5 19.6001L31.9 18.1001L31.4 18.3001L31.9 19.7001L32.5 19.6001Z" fill="#615A59"/>
<path d="M32.2 20.8C32.2 21.6 31.8 22.4 31.1 22.9C31 23 31.1 22.9 31 23C32 22.6 32.7 21.6 32.7 20.5L32.2 20.8Z" fill="#615A59"/>
<path d="M13.7 24.5002L32.2999 17.2002" stroke="#3A3431" stroke-miterlimit="10" stroke-linecap="round" stroke-linejoin="round"/>
</svg>
