<svg width="74" height="71" viewBox="0 0 74 71" fill="none" xmlns="http://www.w3.org/2000/svg">
<path d="M2.0845 62.5537C1.32038 61.5207 0.740208 60.3462 0.372296 59.1151C-1.0003 54.6011 3.30144 42.9978 9.52764 47.6816C10.1078 48.1202 10.5889 48.6721 10.9993 49.2664C11.2964 49.6768 11.5653 50.1154 11.721 50.5965C12.5275 53.087 9.01822 55.5634 11.3247 57.2897C13.7303 59.0868 16.0368 59.7519 17.6358 62.6103C17.8623 63.0206 18.0745 63.4876 17.9472 63.9263C17.7915 64.4923 17.183 64.7894 16.6453 65.03C12.386 66.8271 7.40507 67.4214 3.5986 64.181C3.03258 63.6999 2.53732 63.148 2.0845 62.5537Z" fill="#E0B885"/>
<path d="M23.8768 55.054C23.8626 54.6295 23.7777 54.2474 23.6787 53.8371C23.2117 51.8985 22.6315 49.9598 21.8533 48.1203C21.3439 46.9175 20.0279 43.4931 18.1458 44.611C16.4902 45.6015 15.0186 48.7854 14.396 50.54C13.2215 53.8088 12.797 56.7521 13.7168 60.1199C14.0564 61.3793 14.495 62.4971 15.1601 63.615C15.5988 64.3508 15.811 64.2659 15.2733 64.9593C14.8629 65.4687 14.1979 65.681 13.83 66.2895C13.363 67.0536 13.363 68.1856 14.0564 68.7233C14.4243 69.0063 14.9195 69.063 15.3865 69.1054C16.9855 69.2328 18.6836 69.2045 20.1977 68.6101C21.9665 67.9168 22.9145 66.4593 23.7353 64.8178C24.0041 64.2801 24.2447 63.7424 24.4286 63.1764C24.9947 61.3368 24.7824 59.384 24.3862 57.5303C24.1881 56.6955 23.9192 55.903 23.8768 55.054Z" fill="#BFBAB0"/>
<path d="M47.9608 40.4648C47.423 41.6818 46.5599 43.6204 45.7533 44.809C41.5506 45.7996 37.9422 48.7004 35.4942 52.139C32.6783 56.1011 31.1783 60.7283 29.7208 65.2989C29.6359 65.5536 29.551 65.8366 29.6501 66.0913C29.8906 66.7281 30.867 66.6007 31.5462 66.3885C34.0509 65.6102 36.7395 65.3555 39.3573 65.6526C40.0648 65.7375 40.6874 66.063 41.2817 66.4451C41.3525 66.4875 41.3666 66.5017 41.3666 66.5017C42.0176 66.7564 42.6119 67.2375 43.277 67.5064C43.942 67.7894 44.5647 68.0016 45.2722 68.0865C46.758 68.2705 48.3004 68.3129 49.7437 67.8318C50.6635 67.5205 51.3569 66.7988 51.0739 65.7517C50.8758 65.0017 49.9277 64.6621 50.8616 64.0536C51.5974 63.5867 52.2483 63.0348 52.7719 62.3273C53.1257 61.8603 53.5219 61.3085 53.7483 60.7566C53.9606 60.233 54.0172 59.5821 54.1162 59.0161C55.2199 52.8465 51.4276 46.9882 47.9608 40.4648Z" fill="#BFBAB0"/>
<path d="M51.7537 43.3373C52.2914 44.3137 52.7867 45.29 53.2112 46.2523C54.3291 48.7569 58.5318 59.1575 53.0697 59.5537C51.0037 59.766 50.2396 57.2755 49.2491 55.8604C48.6689 55.0397 48.0887 54.2048 47.3388 53.5256C46.5888 52.8605 45.6407 52.3511 44.6219 52.337C43.9002 52.3228 43.1927 52.5492 42.5135 52.8039C39.7258 53.8511 37.4618 55.3652 35.5797 57.6858C33.6836 60.0207 32.9619 63.063 31.8299 65.794C30.5139 68.9354 28.0517 71.0297 24.5424 70.1807C23.3113 69.8835 22.0095 69.4024 21.2878 68.3128C20.5661 67.2091 20.9906 65.794 21.8114 64.8601C22.1793 64.4498 22.7028 64.1667 23.2547 64.195C23.4953 64.2092 23.8066 64.2658 23.9339 64.0535C24.0047 63.9262 23.9764 63.7705 23.9339 63.629C23.6509 62.5677 23.3679 61.4923 23.0849 60.431C22.8302 59.4829 22.5755 58.549 22.3349 57.6009C20.7218 51.5728 18.1181 45.941 15.7974 40.1676C15.5427 39.545 15.288 38.8374 15.5144 38.1865C15.9672 36.913 17.3115 37.8894 18.1039 38.0592C19.6605 38.4129 21.3727 38.1158 22.9292 37.7903C26.4669 37.0686 29.8205 35.5121 32.9195 33.6159C35.2826 32.1584 37.4901 30.6868 39.0183 28.3095C39.7117 27.2341 39.9805 26.4275 41.0701 25.6351C42.0889 24.8992 44.5511 24.687 45.7539 24.6587C45.853 24.6587 46.6454 32.5688 46.8152 33.1914C47.7774 36.6158 49.9424 40.0119 51.7537 43.3373Z" fill="#DBD6CC"/>
<path d="M50.5649 58.2519C50.2536 57.785 50.0979 57.2614 49.9423 56.7237C48.98 53.3134 51.4139 51.2474 54.8666 52.3512C55.4043 52.521 55.9279 52.7757 56.3241 53.1861C57.0741 53.9785 57.1448 55.252 56.7769 56.285C55.8713 58.8179 52.7016 61.4641 50.5649 58.2519Z" fill="#EEECE8"/>
<path d="M19.6459 59.3275L14.4668 58.054C14.4668 58.054 14.4668 60.601 15.5422 62.0585L19.6459 59.3275Z" fill="#827872"/>
<path d="M18.9663 54.0493C18.57 53.271 16.0371 49.7475 16.0371 49.7475C16.0371 49.7475 17.2116 47.6957 17.4097 47.2004L18.9663 54.0493Z" fill="#827872"/>
<path d="M19.3487 57.3744L14.4668 56.1999C14.4668 56.1999 15.146 51.9972 15.5422 51.502L19.3487 57.3744Z" fill="#827872"/>
<path d="M49.4037 19.2674C49.4037 19.2815 49.4037 19.2815 49.4037 19.2957C49.3895 19.5362 49.3612 19.7626 49.3329 20.0032C48.498 26.5407 43.418 33.3612 35.5787 37.4365C27.9657 41.3987 19.716 41.7524 13.9002 38.9365C11.2116 37.6488 9.04658 35.6819 7.70229 33.0924C6.35799 30.5028 5.99008 27.602 6.4712 24.6587C6.5844 23.9653 6.74006 23.2719 6.95231 22.5786C6.93816 22.5503 6.90986 22.5361 6.90986 22.5078C8.02775 18.0504 13.2493 12.6733 13.2493 12.6733C14.7068 11.2724 16.3765 9.98467 18.2302 8.83848C18.7821 8.49887 19.334 8.18756 19.9141 7.87625C19.9849 7.8338 20.0698 7.79135 20.1405 7.7489L20.2679 7.6923L20.3811 7.64985L21.1877 7.33854C21.1877 7.33854 25.0932 5.55558 26.4799 5.28672C26.5082 5.23012 28.0082 4.80561 30.6826 4.6358C32.4373 4.5226 34.7013 4.53675 37.3758 4.83391C37.6871 4.87636 38.0126 4.90466 38.3239 4.94711C38.338 4.94711 40.3332 5.59803 40.3332 5.59803C40.4181 5.62633 40.4889 5.65463 40.5596 5.68294C41.1398 5.90934 41.6917 6.1499 42.2294 6.43291C42.2294 6.43291 42.2294 6.43291 42.2435 6.43291H42.2577H42.2718H42.286C42.3284 6.46121 42.7388 6.68762 42.7954 6.71592L42.8237 6.73007C42.8661 6.75837 43.0784 6.88572 43.1492 6.92817C43.1633 6.94232 43.1775 6.94233 43.1916 6.95648C43.2624 6.99893 43.3473 7.05553 43.418 7.09798C43.4746 7.14043 43.8567 7.39514 43.8708 7.39514C43.9133 7.42344 44.0972 7.55079 44.0972 7.55079C44.1397 7.5791 44.3519 7.73475 44.4086 7.7772C44.4086 7.7772 44.7906 8.07436 44.7906 8.08851C44.7906 8.08851 45.1019 8.34322 45.2151 8.45642C45.3425 8.56963 45.7104 8.92339 45.767 8.97999C45.8236 9.03659 46.0642 9.2913 46.1208 9.36205L46.2481 9.50356C46.2623 9.51771 46.5453 9.85732 46.6019 9.91392C46.6443 9.97052 46.7009 10.0271 46.7434 10.0837C46.7717 10.1262 46.8 10.1686 46.8424 10.2111C46.9132 10.296 47.4367 11.046 47.465 11.1026C47.5217 11.2016 47.5924 11.3007 47.649 11.3997C47.649 11.3997 47.649 11.4139 47.6632 11.4139C47.6915 11.4705 47.7339 11.5271 47.7622 11.5837C47.8047 11.6544 47.8471 11.7252 47.8896 11.8101C47.9179 11.8667 49.1065 15.2769 49.3612 17.8523C49.4178 18.4183 49.432 18.8712 49.4037 19.2674Z" fill="#EEECE8"/>
<path d="M49.3758 17.9372C46.3759 17.9655 41.593 19.706 35.8621 18.2061C35.848 18.2061 35.8338 18.2061 35.8338 18.1919C35.4518 18.0929 35.0555 17.9655 34.6452 17.8099C33.2584 17.2863 31.716 16.4797 30.1453 15.5034C29.7916 15.2911 29.4378 15.0647 29.0841 14.8241C25.787 12.6733 22.4192 9.99882 20.0278 7.97531C19.9995 7.94701 19.957 7.91871 19.9287 7.89041C19.9995 7.84796 20.0844 7.8055 20.1551 7.76305L20.2825 7.70645L20.3957 7.664L21.2023 7.35269C21.2023 7.35269 25.1078 5.56973 26.4945 5.30087C26.5228 5.24427 28.0228 4.81976 30.6972 4.64995C31.1217 3.20661 32.0698 0.362368 32.933 0.121811C33.2584 0.0227575 33.598 -0.0196939 33.9377 0.00860701C34.8291 0.0935097 35.7206 0.71613 36.3574 2.44248C36.8243 3.73018 37.164 4.45185 37.3904 4.84806C37.7017 4.89051 38.0271 4.91881 38.3384 4.96126C38.3526 4.96126 40.3478 5.61219 40.3478 5.61219C40.4327 5.64049 40.5035 5.66879 40.5742 5.69709C41.1544 5.92349 41.7063 6.16405 42.244 6.44706C42.244 6.44706 42.244 6.44706 42.2581 6.44706H42.2723H42.2864H42.3006C42.343 6.47536 42.7534 6.70177 42.81 6.73007L42.8383 6.74422C42.8807 6.77252 43.093 6.89988 43.1637 6.94233C43.1779 6.95648 43.192 6.95648 43.2062 6.97063C43.277 7.01308 43.3619 7.06968 43.4326 7.11213C43.4892 7.15458 43.8713 7.40929 43.8854 7.40929C43.9279 7.43759 44.1118 7.56495 44.1118 7.56495C44.1543 7.59325 44.3665 7.7489 44.4231 7.79135C44.4231 7.79135 44.8052 8.08851 44.8052 8.10266C44.8052 8.10266 45.1165 8.35737 45.2297 8.47058C45.3571 8.58378 45.725 8.93754 45.7816 8.99414C45.8382 9.05074 46.0787 9.30545 46.1353 9.3762L46.2627 9.51771C46.2768 9.53186 46.5599 9.87147 46.6165 9.92807C46.6589 9.98467 46.7155 10.0413 46.758 10.0979C46.7863 10.1403 46.8146 10.1828 46.857 10.2252C46.9278 10.3101 47.4513 11.0601 47.4796 11.1167C47.5362 11.2158 47.607 11.3148 47.6636 11.4139C47.6636 11.4139 47.6636 11.428 47.6777 11.428C47.706 11.4846 47.7485 11.5412 47.7768 11.5978C47.8192 11.6686 47.8617 11.7393 47.9041 11.8242C47.9324 11.9516 49.1069 15.3618 49.3758 17.9372Z" fill="#E0B885"/>
<path d="M37.1213 12.8288C39.1307 16.6919 34.5176 20.7389 30.796 18.772C30.4281 18.5739 30.0744 18.3051 29.664 18.3192C29.0131 15.6306 28.1924 12.5883 31.2489 10.9893C33.3997 9.87139 36.0176 10.6921 37.1213 12.8288Z" fill="#623A27"/>
<path d="M34.4046 11.3431C36.1451 11.895 37.079 13.8194 36.4988 15.659C35.9187 17.4844 34.0508 18.5315 32.3103 17.9797C30.5698 17.4278 29.6359 15.5033 30.216 13.6638C30.7962 11.8242 32.6782 10.7912 34.4046 11.3431Z" fill="url(#paint0_radial)"/>
<path d="M20.097 25.4053C21.0328 24.9181 21.1098 23.2138 20.2689 21.5986C19.428 19.9835 17.9877 19.0691 17.0519 19.5563C16.1161 20.0435 16.0391 21.7478 16.88 23.363C17.7209 24.9781 19.1612 25.8925 20.097 25.4053Z" fill="#1A0E14"/>
<path d="M33.2499 11.912C33.4232 11.8217 33.4905 11.6081 33.4003 11.4348C33.3101 11.2615 33.0965 11.1942 32.9232 11.2844C32.7499 11.3746 32.6825 11.5882 32.7727 11.7615C32.863 11.9348 33.0766 12.0022 33.2499 11.912Z" fill="#E1E3EA"/>
<path d="M34.9445 13.5742C35.3327 13.3721 35.4836 12.8936 35.2815 12.5054C35.0794 12.1172 34.6008 11.9664 34.2126 12.1685C33.8245 12.3706 33.6736 12.8491 33.8757 13.2373C34.0778 13.6255 34.5563 13.7763 34.9445 13.5742Z" fill="#E1E3EA"/>
<path d="M14.7914 24.6728C16.8007 28.5359 22.7581 27.0784 23.2816 22.904C23.3382 22.4937 23.3099 22.0409 23.5505 21.7154C21.7251 19.6353 19.7016 17.2156 16.6309 18.8146C14.5084 19.9183 13.6876 22.5361 14.7914 24.6728Z" fill="#623A27"/>
<path d="M28.0509 21.0646L28.1924 19.9467C28.2348 19.6212 27.8952 19.3807 27.5981 19.5363L26.466 20.1307C26.1689 20.2863 26.1689 20.6967 26.466 20.8523L27.4566 21.3759C27.7113 21.5033 28.0226 21.3476 28.0509 21.0646Z" fill="#BD8376"/>
<path d="M21.5548 21.2767C22.3613 22.8332 21.6963 24.7718 20.0548 25.635C18.4134 26.484 16.4323 25.918 15.6257 24.3756C14.8191 22.8332 15.4842 20.8805 17.1257 20.0173C18.7671 19.1541 20.7482 19.7201 21.5548 21.2767Z" fill="url(#paint1_radial)"/>
<path d="M19.8029 21.315C20.1911 21.1129 20.342 20.6343 20.1399 20.2461C19.9378 19.858 19.4592 19.7071 19.071 19.9092C18.6829 20.1113 18.532 20.5898 18.7341 20.978C18.9362 21.3662 19.4147 21.5171 19.8029 21.315Z" fill="#E1E3EA"/>
<path d="M17.955 19.8619C18.1283 19.7717 18.1956 19.5581 18.1054 19.3848C18.0152 19.2115 17.8015 19.1441 17.6282 19.2343C17.4549 19.3246 17.3876 19.5382 17.4778 19.7115C17.568 19.8848 17.7817 19.9521 17.955 19.8619Z" fill="#E1E3EA"/>
<path d="M23.4241 32.9933C23.1835 32.9933 22.9713 32.8235 22.9288 32.5971C22.8722 32.3141 23.042 32.0452 23.325 31.9886C26.2683 31.3377 28.122 30.1774 28.8579 28.5642C29.5795 26.9794 29.2541 24.97 27.8673 22.4371C27.457 21.6871 27.2306 21.3051 27.1032 21.1211C26.9475 21.0786 26.8343 20.9796 26.7777 20.8098C26.6221 20.2579 27.0183 20.074 27.0749 20.0457C27.5985 19.8334 27.839 20.2296 28.773 21.9418C30.3295 24.7719 30.655 27.0784 29.7918 28.9887C28.9145 30.9132 26.8202 32.2575 23.5514 32.9933C23.4948 32.9792 23.4524 32.9933 23.4241 32.9933ZM27.7541 20.4985C27.7541 20.5268 27.7541 20.5551 27.7541 20.5834C27.7683 20.5551 27.7683 20.5268 27.7541 20.4985Z" fill="#BD8376"/>
<path d="M34.1076 27.1917C33.8953 27.1917 33.6831 27.1776 33.485 27.1493C31.419 26.8804 29.6219 25.3946 28.0229 22.5928C27.0607 20.8948 26.8484 20.4844 27.3012 20.159C27.3437 20.1306 27.7116 19.8759 28.0936 20.3146C28.221 20.4561 28.2493 20.6259 28.2068 20.7957C28.3201 21.0221 28.5182 21.4042 28.9144 22.0976C30.3436 24.6022 31.886 25.9323 33.6123 26.1446C35.367 26.371 37.3339 25.3805 39.4282 23.2296C39.6263 23.0315 39.9517 23.0173 40.1498 23.2154C40.3479 23.4136 40.3621 23.739 40.164 23.9371C38.0556 26.088 36.0179 27.1917 34.1076 27.1917Z" fill="#BD8376"/>
<path d="M8.4237 22.0691C8.4237 22.0691 8.18314 21.4748 6.35773 19.7202C4.53233 17.9514 4.84364 16.5788 5.62191 15.6448C6.41434 14.7109 11.5226 15.5599 11.5226 15.5599C11.4802 18.107 10.3765 20.4418 8.4237 22.0691Z" fill="#827872"/>
<path d="M47.7057 15.6164L41.4512 16.1966L46.4321 11.5977C46.4321 11.6118 47.8047 14.1589 47.7057 15.6164Z" fill="#CCA172"/>
<path d="M40.0781 14.5412L44.8751 10.6357C44.8751 10.6357 44.0969 8.68294 42.5262 8.08862L40.0781 14.5412Z" fill="#CCA172"/>
<path d="M38.7059 12.0932C38.7059 11.796 40.3615 7.11223 40.3615 7.11223C40.3615 7.11223 39.187 5.93774 37.8145 5.93774L38.7059 12.0932Z" fill="#CCA172"/>
<path d="M37.2202 4.97544L33.6826 4.67828L33.7817 0.135986C34.6731 0.220889 35.5646 0.843509 36.2014 2.56986C36.6542 3.85755 37.008 4.57923 37.2202 4.97544Z" fill="#EEECE8"/>
<path d="M47.9745 51.9551L50.9744 53.1296C50.9744 53.1296 48.8377 61.1104 52.5875 65.4688L52.0357 66.8838L37.8145 61.2944L38.3805 59.851C38.3805 59.851 43.2341 60.0774 47.9745 51.9551Z" fill="#4F2B1D"/>
<path d="M68.6339 37.3093L72.6668 38.8942C72.6668 38.8942 73.7422 39.5168 72.9074 41.1158C72.0725 42.7148 67.0491 52.705 57.4268 50.4975C57.4268 50.4975 58.9833 49.4929 60.1012 48.7146C65.6623 48.4457 69.2565 43.8185 70.6716 40.8186C70.7423 40.663 70.6857 40.479 70.5301 40.38C70.1197 40.1394 69.1433 39.6583 67.8132 39.2904L68.6339 37.3093Z" fill="#4F2B1D"/>
<path d="M45.7519 28.3379L41.719 26.753C41.719 26.753 40.502 26.4842 40.0351 28.2247C39.5681 29.9652 36.455 40.7054 45.016 45.6297C45.016 45.6297 44.5632 43.8326 44.2661 42.5025C40.3747 38.512 40.8841 32.6821 41.8746 29.5265C41.9312 29.3567 42.101 29.2576 42.2709 29.3001C42.7378 29.3991 43.785 29.7105 45.0019 30.3472L45.7519 28.3379Z" fill="#4F2B1D"/>
<path d="M45.6248 26.2861L70.1334 35.8943C70.1334 35.8943 60.6102 57.2332 49.5162 52.889C38.4222 48.5448 45.6248 26.2861 45.6248 26.2861Z" fill="#4F2B1D"/>
<path d="M50.0834 57.8415C49.7721 57.3746 49.6165 56.851 49.4608 56.3133C48.4986 52.903 50.9325 50.837 54.3852 51.9408C54.9229 52.1106 55.4465 52.3653 55.8427 52.7757C56.5926 53.5681 56.6634 54.8416 56.2955 55.8746C55.3899 58.4217 52.2202 61.0537 50.0834 57.8415Z" fill="#EEECE8"/>
<defs>
<radialGradient id="paint0_radial" cx="0" cy="0" r="1" gradientUnits="userSpaceOnUse" gradientTransform="translate(33.3655 14.6593) scale(3.38995)">
<stop stop-color="#42210B"/>
<stop offset="0.627"/>
</radialGradient>
<radialGradient id="paint1_radial" cx="0" cy="0" r="1" gradientUnits="userSpaceOnUse" gradientTransform="translate(18.5915 22.813) scale(3.25608)">
<stop stop-color="#42210B"/>
<stop offset="0.627"/>
</radialGradient>
</defs>
</svg>
