<svg width="30" height="30" viewBox="0 0 30 30" fill="none" xmlns="http://www.w3.org/2000/svg">
<circle cx="15" cy="15" r="15" fill="#AEAEAE"/>
<g clip-path="url(#clip0)">
<path d="M8.85391 11.3213C9.20171 10.9952 9.62005 10.8333 10.1114 10.8333H11.668L12.0231 9.94862C12.1106 9.73656 12.2711 9.55186 12.5046 9.39909C12.7381 9.24403 12.9765 9.1665 13.2221 9.1665H16.778C17.0237 9.1665 17.262 9.24403 17.498 9.39681C17.7314 9.55186 17.892 9.73428 17.9795 9.94634L18.3346 10.8333H19.8912C20.3825 10.8333 20.8009 10.9952 21.1487 11.3213C21.4941 11.6474 21.6667 12.0396 21.6667 12.5002V18.333C21.6667 18.7936 21.4941 19.1858 21.1463 19.5119C20.7985 19.8379 20.3801 19.9998 19.8888 19.9998H10.1114C9.62005 19.9998 9.20171 19.8379 8.85391 19.5119C8.5061 19.1858 8.33341 18.7936 8.33341 18.333V12.5002C8.33341 12.0396 8.50853 11.6474 8.85391 11.3213ZM12.8038 17.4779C13.4119 18.048 14.1439 18.333 15.0025 18.333C15.8611 18.333 16.5907 18.048 17.2012 17.4779C17.8093 16.9079 18.1133 16.2192 18.1133 15.4166C18.1133 14.614 17.8093 13.9276 17.2012 13.3553C16.5932 12.7852 15.8611 12.5002 15.0025 12.5002C14.1439 12.5002 13.4143 12.7852 12.8038 13.3553C12.1958 13.9253 11.8917 14.6117 11.8917 15.4166C11.8893 16.2192 12.1933 16.9056 12.8038 17.4779Z" fill="white"/>
<path d="M15.0001 13.5425C15.5522 13.5425 16.0216 13.7249 16.4132 14.092C16.8048 14.4591 16.9994 14.8992 16.9994 15.4168C16.9994 15.9322 16.8048 16.3745 16.4132 16.7416C16.0216 17.1087 15.5522 17.2912 15.0001 17.2912C14.4504 17.2912 13.9786 17.1087 13.587 16.7416C13.1954 16.3745 13.0008 15.9322 13.0008 15.4168C13.0008 14.8992 13.1954 14.4591 13.587 14.092C13.9786 13.7249 14.4504 13.5425 15.0001 13.5425Z" fill="white"/>
</g>
<defs>
<clipPath id="clip0">
<rect width="13.3333" height="10.8333" fill="white" transform="matrix(-1 0 0 1 21.6667 9.1665)"/>
</clipPath>
</defs>
</svg>
