<svg width="38" height="24" viewBox="0 0 38 24" fill="none" xmlns="http://www.w3.org/2000/svg">
<g clip-path="url(#clip0)">
<path d="M31.1251 17.1431C29.3909 17.1431 27.9801 18.5543 27.9801 20.2881C27.9801 22.0222 29.3909 23.4331 31.1251 23.4331C32.8589 23.4331 34.2701 22.0222 34.2701 20.2881C34.2701 18.5543 32.8589 17.1431 31.1251 17.1431ZM31.1251 21.2131C30.6149 21.2131 30.2001 20.7983 30.2001 20.2881C30.2001 19.7779 30.6149 19.3631 31.1251 19.3631C31.6353 19.3631 32.0501 19.7779 32.0501 20.2881C32.0501 20.7983 31.6353 21.2131 31.1251 21.2131Z" fill="#AEAEAE"/>
<path d="M30.8227 4.06982H25.3889C24.9801 4.06982 24.6489 4.40137 24.6489 4.80982V19.2398C24.6489 19.6483 24.9801 19.9799 25.3889 19.9799H26.1737C26.54 19.9799 26.8645 19.716 26.9119 19.3527C27.2023 17.1275 28.9772 15.7475 31.1243 15.7475C33.2714 15.7475 35.0463 17.1276 35.3367 19.3527C35.3841 19.7161 35.7082 19.9799 36.0749 19.9799H36.8589C37.2673 19.9799 37.5989 19.6483 37.5989 19.2398V12.0248C37.5989 11.851 37.5378 11.6829 37.4265 11.5501L31.3903 4.33511C31.2498 4.16716 31.0418 4.06982 30.8227 4.06982ZM26.1289 9.98983V6.28983C26.1289 5.88138 26.4601 5.54983 26.8689 5.54983H30.1286C30.348 5.54983 30.5564 5.64753 30.6969 5.8162L33.7801 9.51621C34.1816 9.9983 33.839 10.7298 33.2115 10.7298H26.8689C26.4601 10.7298 26.1289 10.3987 26.1289 9.98983Z" fill="#AEAEAE"/>
<path d="M1.33998 19.98H3.23478C3.60109 19.98 3.92557 19.7162 3.97291 19.3529C4.26334 17.1277 6.03826 15.7476 8.18535 15.7476C10.3324 15.7476 12.1074 17.1278 12.3978 19.3529C12.4451 19.7163 12.7692 19.98 13.1359 19.98H22.43C22.8385 19.98 23.17 19.6485 23.17 19.24V0.740001C23.17 0.331549 22.8385 0 22.43 0H1.33998C0.931102 0 0.599976 0.331549 0.599976 0.740001V19.24C0.599976 19.6485 0.931102 19.98 1.33998 19.98Z" fill="#AEAEAE"/>
<path d="M8.18615 17.1431C6.45198 17.1431 5.04114 18.5543 5.04114 20.2881C5.04114 22.0222 6.45198 23.4331 8.18615 23.4331C9.91995 23.4331 11.3312 22.0222 11.3312 20.2881C11.3312 18.5543 9.91995 17.1431 8.18615 17.1431ZM8.18615 21.2131C7.67594 21.2131 7.26114 20.7983 7.26114 20.2881C7.26114 19.7779 7.67594 19.3631 8.18615 19.3631C8.69635 19.3631 9.11115 19.7779 9.11115 20.2881C9.11115 20.7983 8.69635 21.2131 8.18615 21.2131Z" fill="#AEAEAE"/>
</g>
<defs>
<clipPath id="clip0">
<rect width="37" height="23.4329" fill="white" transform="translate(0.599976)"/>
</clipPath>
</defs>
</svg>
