<svg width="44" height="44" viewBox="0 0 44 44" fill="none" xmlns="http://www.w3.org/2000/svg">
<circle cx="22" cy="22" r="21.5" fill="white" stroke="#F2F2F2"/>
<path d="M30.5305 15.998L15.076 29.5709C14.5663 30.0267 13.8163 30.0354 13.4008 29.5707C12.9852 29.1061 13.0772 28.3617 13.5869 27.9059L29.0414 14.333C29.5511 13.8772 30.3011 13.8685 30.7167 14.3332C31.1323 14.7978 31.0402 15.5422 30.5305 15.998Z" fill="#AEAEAE"/>
<path d="M13.5893 15.998L29.0439 29.5709C29.5535 30.0267 30.3035 30.0354 30.7191 29.5708C31.1347 29.1061 31.0426 28.3617 30.533 27.9059L15.0784 14.333C14.5688 13.8772 13.8188 13.8685 13.4032 14.3332C12.9876 14.7978 13.0797 15.5422 13.5893 15.998Z" fill="#AEAEAE"/>
</svg>
