<svg width="15" height="20" viewBox="0 0 15 20" fill="none" xmlns="http://www.w3.org/2000/svg">
<path d="M0.229264 15.3393C0.101685 15.0553 0.0234906 14.7473 0.00291323 14.4354C-0.0793962 13.2995 1.59972 10.7917 2.85082 12.2315C2.96605 12.3635 3.05248 12.5195 3.12244 12.6835C3.17183 12.7955 3.21298 12.9155 3.22533 13.0355C3.28295 13.6674 2.29523 14.0634 2.76028 14.5914C3.24591 15.1433 3.76446 15.4233 3.99904 16.1792C4.03196 16.2872 4.05665 16.4072 4.00315 16.5072C3.93319 16.6352 3.77269 16.6712 3.62865 16.6952C2.49689 16.8912 1.25402 16.7672 0.509116 15.7993C0.397999 15.6593 0.303343 15.5033 0.229264 15.3393Z" fill="#E0B885"/>
<path d="M13.7075 17.6958C13.5717 17.5078 13.3453 17.4558 13.2013 17.2998C13.0079 17.0918 13.0778 17.1118 13.2054 16.8679C13.403 16.4959 13.5182 16.1279 13.6046 15.72C13.831 14.62 13.6211 13.6841 13.1643 12.6642C12.9173 12.1162 12.3617 11.1243 11.7938 10.8443C11.1477 10.5284 10.7896 11.6563 10.6497 12.0522C10.4357 12.6602 10.2875 13.2921 10.1764 13.9241C10.1517 14.0561 10.1353 14.1841 10.1394 14.3201C10.1435 14.592 10.0735 14.852 10.0324 15.124C10.02 15.216 10.0077 15.308 9.99535 15.404C9.62907 15.348 9.23398 15.316 8.81832 15.316C8.12692 15.316 7.48902 15.4 6.96636 15.54C6.94167 15.344 6.90874 15.148 6.86347 14.96C6.80174 14.692 6.71531 14.4361 6.70297 14.1681C6.69474 14.0321 6.67004 13.9081 6.63712 13.7761C6.48073 13.1522 6.29142 12.5282 6.03215 11.9403C5.86341 11.5563 5.42717 10.4524 4.80574 10.8123C4.25838 11.1283 3.77275 12.1562 3.56698 12.7162C3.18012 13.7641 3.03608 14.712 3.34063 15.7959C3.45586 16.1999 3.59579 16.5599 3.81802 16.9159C3.96618 17.1518 4.03203 17.1278 3.85506 17.3478C3.72337 17.5118 3.50113 17.5798 3.37767 17.7758C3.22539 18.0198 3.22539 18.3837 3.45174 18.5557C3.57521 18.6477 3.73571 18.6677 3.88798 18.6797C4.41888 18.7237 4.97859 18.7117 5.47656 18.5197C6.00745 18.3197 6.312 17.9158 6.56716 17.4518C7.14744 17.6678 7.94173 17.8038 8.81421 17.8038C9.43976 17.8038 10.02 17.7358 10.5139 17.6158C10.7979 18.0518 11.1271 18.4197 11.658 18.5837C12.1724 18.7397 12.7321 18.7157 13.2548 18.6397C13.4071 18.6157 13.5676 18.5877 13.6828 18.4877C13.905 18.2957 13.8762 17.9278 13.7075 17.6958Z" fill="#BFBAB0"/>
<path d="M5.20503 15.3712L3.70288 15.0112C3.70288 15.0112 3.70288 15.7272 4.01566 16.1391L5.20503 15.3712Z" fill="#827872"/>
<path d="M5.0073 13.8834C4.89207 13.6634 4.1554 12.6715 4.1554 12.6715C4.1554 12.6715 4.49698 12.0916 4.55048 11.9556L5.0073 13.8834Z" fill="#827872"/>
<path d="M5.1186 14.819L3.70288 14.487C3.70288 14.487 3.90042 13.3031 4.01566 13.1631L5.1186 14.819Z" fill="#827872"/>
<path d="M11.7155 19.2272C11.3863 18.6913 11.1435 18.1073 10.9912 17.4994C10.6496 16.1075 8.6989 16.6834 7.75646 16.8794C7.63711 16.9034 7.51776 16.9314 7.41488 16.9914C7.27495 17.0754 7.17618 17.2114 7.09387 17.3514C6.88398 17.6994 6.73994 18.0153 6.57532 18.3033C5.91684 19.4312 2.99074 19.9712 4.20481 18.1633C5.48883 16.2515 4.32004 13.9917 4.79332 11.8998C5.14313 10.34 5.79338 10.5959 7.1556 10.5039C7.97046 10.4519 8.74829 10.172 9.55081 10.048C10.6208 9.884 12.2259 9.70801 12.6168 10.8919C13.156 12.5158 12.8926 14.4996 12.8967 16.1795C12.8967 16.7634 12.9173 17.3714 13.1724 17.9033C13.3123 18.1913 13.514 18.4433 13.6498 18.7313C13.7856 19.0193 13.8432 19.3672 13.6827 19.6432C13.2259 20.4271 12.0366 19.7472 11.7155 19.2272Z" fill="#DBD6CC"/>
<path d="M11.5391 0.40335L4.53894 1.10645L4.94509 4.92578L11.9452 4.22269L11.5391 0.40335Z" fill="#4F2B1D"/>
<path d="M12.9626 0.000146454L2.79395 1.02148L2.85444 1.59041L13.0231 0.569069L12.9626 0.000146454Z" fill="#623A27"/>
<path d="M14.576 9.1123C14.576 9.1163 14.5719 9.1163 14.5719 9.1203C14.5431 9.17629 14.5101 9.23229 14.4772 9.28828C13.5595 10.8202 11.5305 11.9761 9.09418 12.1601C6.72778 12.344 4.58773 11.5601 3.41071 10.2562C2.86747 9.65625 2.52588 8.94031 2.46415 8.16038C2.40242 7.38044 2.62054 6.6245 3.06089 5.94455C3.16378 5.78457 3.27901 5.62858 3.40659 5.47659C3.40659 5.46859 3.40248 5.46059 3.40659 5.45659C4.17207 4.47267 6.08165 3.68874 6.08165 3.68874C6.60432 3.49675 7.16814 3.34876 7.76488 3.26477C7.94184 3.24077 8.11881 3.21678 8.29989 3.20478C8.32458 3.20078 8.34516 3.20078 8.36985 3.19678H8.41101H8.44393L8.68263 3.20478C8.68263 3.20478 9.86789 3.17278 10.2547 3.25277C10.2671 3.24477 10.6951 3.29277 11.3947 3.53275C11.8557 3.68874 12.4277 3.92872 13.078 4.28469C13.152 4.32469 13.2302 4.36868 13.3084 4.41268C13.3125 4.41668 13.7488 4.78465 13.7488 4.78465C13.7652 4.80065 13.7817 4.81665 13.7982 4.83264C13.9216 4.94864 14.0369 5.06863 14.1439 5.19661C14.1439 5.19661 14.1439 5.19662 14.148 5.20061C14.148 5.20061 14.148 5.20062 14.1521 5.20461C14.1521 5.20461 14.1521 5.20461 14.1562 5.20861C14.1644 5.21661 14.2467 5.32061 14.255 5.3326C14.255 5.3326 14.2591 5.3366 14.2591 5.3406C14.2673 5.3486 14.3085 5.4046 14.3208 5.4246C14.3249 5.4286 14.3249 5.4326 14.3291 5.4366C14.3455 5.45659 14.3579 5.47659 14.3702 5.49659C14.3826 5.51259 14.4525 5.61658 14.4525 5.61658C14.4608 5.62858 14.4937 5.68058 14.4937 5.68058C14.5019 5.69257 14.5389 5.75257 14.5472 5.76857L14.613 5.88456C14.613 5.88456 14.6624 5.98055 14.683 6.02055C14.7036 6.06055 14.7571 6.18454 14.7653 6.20853C14.7735 6.22853 14.8065 6.31652 14.8147 6.34052L14.8311 6.38852C14.8311 6.39252 14.8682 6.50851 14.8764 6.52851C14.8805 6.54851 14.8888 6.5685 14.8929 6.5885C14.897 6.6005 14.9011 6.6165 14.9052 6.6285C14.9135 6.6565 14.9628 6.89648 14.967 6.91248C14.9711 6.94447 14.9752 6.97647 14.9834 7.00847C14.9834 7.01247 14.9834 7.01247 14.9834 7.01247C14.9875 7.02847 14.9875 7.04847 14.9916 7.06446C14.9958 7.08846 14.9958 7.10846 14.9999 7.13246C15.004 7.15246 14.934 8.11638 14.7241 8.78433C14.6706 8.90431 14.6254 9.01631 14.576 9.1123Z" fill="#EEECE8"/>
<path d="M14.7078 8.78049C13.9423 8.47251 12.5348 8.40052 11.2343 7.4286C11.2302 7.4286 11.2302 7.4246 11.2261 7.4246C11.1397 7.3606 11.0532 7.28861 10.9668 7.20461C10.6705 6.92864 10.3659 6.56867 10.0696 6.1607C10.0038 6.06871 9.93794 5.97671 9.87209 5.88072C9.263 5.00479 8.69918 3.98487 8.30821 3.23694C8.30409 3.22494 8.29586 3.21694 8.29175 3.20494C8.31644 3.20094 8.33702 3.20094 8.36171 3.19694H8.40287H8.43579L8.67449 3.20494C8.67449 3.20494 9.85974 3.17294 10.2466 3.25293C10.2589 3.24494 10.687 3.29293 11.3866 3.53291C11.65 3.22094 12.1973 2.61699 12.4484 2.64498C12.543 2.65698 12.6336 2.68098 12.7159 2.72498C12.934 2.84097 13.0945 3.08895 13.0698 3.58091C13.0492 3.94888 13.0616 4.16486 13.0739 4.28485C13.148 4.32485 13.2262 4.36884 13.3044 4.41284C13.3085 4.41684 13.7448 4.78481 13.7448 4.78481C13.7612 4.80081 13.7777 4.81681 13.7941 4.83281C13.9176 4.9488 14.0328 5.06879 14.1398 5.19678C14.1398 5.19678 14.1398 5.19678 14.144 5.20078C14.144 5.20078 14.144 5.20078 14.1481 5.20478C14.1481 5.20478 14.1481 5.20478 14.1522 5.20878C14.1604 5.21677 14.2427 5.32077 14.251 5.33277C14.251 5.33277 14.2551 5.33677 14.2551 5.34076C14.2633 5.34876 14.3045 5.40476 14.3168 5.42476C14.3209 5.42876 14.3209 5.43276 14.325 5.43676C14.3415 5.45676 14.3538 5.47675 14.3662 5.49675C14.3785 5.51275 14.4485 5.61674 14.4485 5.61674C14.4567 5.62874 14.4897 5.68074 14.4897 5.68074C14.4979 5.69274 14.5349 5.75273 14.5432 5.76873L14.609 5.88472C14.609 5.88472 14.6584 5.98071 14.679 6.02071C14.6995 6.06071 14.753 6.1847 14.7613 6.20869C14.7695 6.22869 14.8024 6.31669 14.8107 6.34068L14.8271 6.38868C14.8271 6.39268 14.8642 6.50867 14.8724 6.52867C14.8765 6.54867 14.8847 6.56867 14.8889 6.58866C14.893 6.60066 14.8971 6.61666 14.9012 6.62866C14.9094 6.65666 14.9588 6.89664 14.9629 6.91264C14.967 6.94463 14.9712 6.97663 14.9794 7.00863C14.9794 7.01263 14.9794 7.01263 14.9794 7.01263C14.9835 7.02863 14.9835 7.04863 14.9876 7.06463C14.9917 7.08862 14.9917 7.10862 14.9959 7.13262C14.9876 7.14862 14.9218 8.11254 14.7078 8.78049Z" fill="#E0B885"/>
<path d="M14.4772 8.24834L12.8269 7.74038L14.5883 7.12843C14.5842 7.12443 14.6583 7.89637 14.4772 8.24834Z" fill="#CCA172"/>
<path d="M12.6541 6.98482L14.292 6.52086C14.292 6.52086 14.3044 5.9569 13.971 5.64893L12.6541 6.98482Z" fill="#CCA172"/>
<path d="M12.5719 6.24078C12.6048 6.16878 13.5308 5.18486 13.5308 5.18486C13.5308 5.18486 13.358 4.77289 13.0123 4.62891L12.5719 6.24078Z" fill="#CCA172"/>
<path d="M3.96228 5.92862C3.96228 5.92862 3.9664 5.75664 3.69066 5.12869C3.41492 4.50074 3.64127 4.19276 3.9417 4.04477C4.24213 3.89679 5.45208 4.64473 5.45208 4.64473C5.16811 5.26868 4.6331 5.72864 3.96228 5.92862Z" fill="#827872"/>
<path d="M12.3331 7.51272C12.4278 8.68063 10.8186 9.19658 10.082 8.32066C10.012 8.23666 9.95026 8.12867 9.84326 8.08867C9.96673 7.35673 10.0861 6.5128 11.0409 6.44081C11.7035 6.39281 12.2837 6.87277 12.3331 7.51272Z" fill="#623A27"/>
<path d="M11.8064 6.93694C12.1891 7.25292 12.222 7.82887 11.8763 8.22484C11.5306 8.62081 10.9421 8.6768 10.5594 8.36083C10.1766 8.04485 10.1437 7.4689 10.4894 7.07293C10.8351 6.67697 11.4236 6.61697 11.8064 6.93694Z" fill="url(#paint0_radial)"/>
<path d="M11.4483 6.88448C11.5027 6.88029 11.5433 6.83405 11.539 6.7812C11.5347 6.72835 11.4871 6.6889 11.4327 6.69309C11.3783 6.69729 11.3377 6.74353 11.342 6.79638C11.3464 6.84923 11.3939 6.88867 11.4483 6.88448Z" fill="#E1E3EA"/>
<path d="M11.7005 7.46839C11.8206 7.45913 11.9103 7.35701 11.9007 7.2403C11.8912 7.12359 11.7861 7.03648 11.6661 7.04574C11.546 7.055 11.4563 7.15711 11.4659 7.27383C11.4754 7.39054 11.5805 7.47765 11.7005 7.46839Z" fill="#E1E3EA"/>
<path d="M5.36969 8.1046C5.46435 9.26851 7.13934 9.53649 7.72374 8.55657C7.78136 8.46057 7.82251 8.34458 7.92128 8.29259C7.67847 7.58865 7.42743 6.77671 6.47264 6.84871C5.81005 6.8967 5.31619 7.46066 5.36969 8.1046Z" fill="#623A27"/>
<path d="M7.48092 7.92506C7.51796 8.39303 7.13934 8.80499 6.62902 8.84499C6.1187 8.88499 5.67834 8.53701 5.63719 8.06905C5.59603 7.60109 5.97877 7.18912 6.48909 7.14913C6.99941 7.10913 7.44388 7.4571 7.48092 7.92506Z" fill="url(#paint1_radial)"/>
<path d="M7.00853 7.79603C7.12862 7.78677 7.21825 7.68465 7.20873 7.56794C7.1992 7.45123 7.09413 7.36412 6.97404 7.37338C6.85394 7.38263 6.76431 7.48475 6.77384 7.60146C6.78336 7.71817 6.88844 7.80528 7.00853 7.79603Z" fill="#E1E3EA"/>
<path d="M6.6905 7.24483C6.74488 7.24064 6.78547 7.1944 6.78116 7.14155C6.77684 7.0887 6.72926 7.04925 6.67488 7.05345C6.6205 7.05764 6.57991 7.10388 6.58423 7.15673C6.58854 7.20958 6.63612 7.24903 6.6905 7.24483Z" fill="#E1E3EA"/>
<path d="M11.7487 10.3523C11.7323 10.3163 11.6911 10.3003 11.6541 10.3163C10.8639 10.6402 10.2424 10.6762 9.79386 10.4243C9.35762 10.1763 9.09835 9.67233 8.99958 8.87639C8.979 8.70841 8.96665 8.59641 8.96254 8.52442L8.96665 8.52042L9.11069 8.28044C9.16008 8.19645 9.09423 8.09646 8.99546 8.10445L8.67445 8.12845C8.57568 8.13645 8.5263 8.24844 8.58803 8.32044L8.76911 8.53642C8.77734 8.54842 8.78969 8.55642 8.80203 8.56442C8.81026 8.63241 8.82261 8.7244 8.83496 8.84039C8.91727 9.63633 8.77734 10.1843 8.40283 10.5163C8.02421 10.8562 7.40689 10.9522 6.56322 10.8002C6.52206 10.7922 6.48502 10.8202 6.48091 10.8562C6.47268 10.8962 6.50148 10.9322 6.53852 10.9362C6.80603 10.9842 7.04884 11.0082 7.27519 11.0082C7.80197 11.0082 8.21352 10.8762 8.5016 10.6203C8.74853 10.4003 8.90492 10.0883 8.96665 9.69633C8.97488 9.64433 8.98311 9.59233 8.98723 9.53634C9.00781 9.60833 9.0325 9.67633 9.06131 9.74432C9.21358 10.1163 9.43582 10.3843 9.7239 10.5483C9.94202 10.6722 10.1931 10.7322 10.4811 10.7322C10.8392 10.7322 11.2507 10.6362 11.7117 10.4483C11.7487 10.4323 11.7652 10.3883 11.7487 10.3523Z" fill="#BD8376"/>
<path d="M14.8519 6.72114C14.8313 6.66514 14.7654 6.63714 14.7078 6.65714L13.3003 7.1851C13.1357 6.21318 12.2673 5.46924 11.2261 5.46924C10.0656 5.46924 9.12313 6.38516 9.12313 7.51307C9.12313 7.51707 9.12313 7.52107 9.12313 7.52107L8.53461 7.54907C8.3988 6.54515 7.51809 5.76921 6.44807 5.76921C5.47682 5.76921 4.65784 6.41316 4.41503 7.28509L2.82645 6.68914C2.76884 6.66914 2.70299 6.69714 2.68241 6.75313C2.66183 6.80913 2.69064 6.87312 2.74826 6.89312L4.36976 7.50107C4.35329 7.60506 4.34506 7.70906 4.34506 7.81705C4.34506 8.94496 5.28751 9.86088 6.44807 9.86088C7.60863 9.86088 8.55108 8.94496 8.55108 7.81705C8.55108 7.80105 8.55108 7.78505 8.55108 7.76905L9.13547 7.74105C9.25071 8.76097 10.1438 9.56091 11.2261 9.56091C12.3867 9.56091 13.3291 8.64498 13.3291 7.51707C13.3291 7.48107 13.3291 7.44508 13.325 7.40908L14.7901 6.86113C14.8478 6.83713 14.8766 6.77713 14.8519 6.72114ZM6.44395 9.6449C5.40685 9.6449 4.56318 8.82497 4.56318 7.81705C4.56318 6.80913 5.40685 5.9892 6.44395 5.9892C7.48105 5.9892 8.32473 6.80913 8.32473 7.81705C8.32473 8.82497 7.48105 9.6449 6.44395 9.6449ZM11.2261 9.34092C10.189 9.34092 9.34536 8.52099 9.34536 7.51307C9.34536 6.50515 10.189 5.68522 11.2261 5.68522C12.2632 5.68522 13.1069 6.50515 13.1069 7.51307C13.1069 8.52099 12.2632 9.34092 11.2261 9.34092Z" fill="#623A27"/>
<defs>
<radialGradient id="paint0_radial" cx="0" cy="0" r="1" gradientUnits="userSpaceOnUse" gradientTransform="translate(11.1843 7.64586) rotate(22.3859) scale(0.933687 0.915147)">
<stop stop-color="#42210B"/>
<stop offset="0.627"/>
</radialGradient>
<radialGradient id="paint1_radial" cx="0" cy="0" r="1" gradientUnits="userSpaceOnUse" gradientTransform="translate(6.56372 7.99432) rotate(22.3859) scale(0.896814 0.879006)">
<stop stop-color="#42210B"/>
<stop offset="0.627"/>
</radialGradient>
</defs>
</svg>
