<svg width="50" height="50" viewBox="0 0 50 50" fill="none" xmlns="http://www.w3.org/2000/svg">
<circle cx="25" cy="25" r="24.5" fill="white" stroke="#F2F2F2"/>
<path d="M14.9119 29.9627C14.7595 29.6135 14.666 29.2347 14.6414 28.8511C14.543 27.4542 16.5499 24.3702 18.0452 26.1409C18.1829 26.3032 18.2862 26.495 18.3698 26.6967C18.4288 26.8344 18.478 26.982 18.4928 27.1295C18.5616 27.9067 17.3811 28.3936 17.9369 29.0429C18.5173 29.7217 19.1371 30.066 19.4175 30.9956C19.4568 31.1284 19.4863 31.276 19.4224 31.399C19.3388 31.5564 19.1469 31.6006 18.9748 31.6301C17.6221 31.8712 16.1367 31.7187 15.2464 30.5284C15.1136 30.3562 15.0005 30.1644 14.9119 29.9627Z" fill="#E0B885"/>
<path d="M31.0208 32.8602C30.8585 32.629 30.588 32.565 30.4158 32.3732C30.1846 32.1174 30.2682 32.142 30.4207 31.842C30.6568 31.3846 30.7945 30.932 30.8978 30.4303C31.1684 29.0777 30.9175 27.9267 30.3715 26.6725C30.0764 25.9986 29.4124 24.7788 28.7336 24.4344C27.9614 24.0459 27.5334 25.4329 27.3662 25.9199C27.1104 26.6675 26.9334 27.4447 26.8006 28.2218C26.771 28.3842 26.7514 28.5416 26.7563 28.7088C26.7612 29.0433 26.6776 29.363 26.6284 29.6974C26.6136 29.8106 26.5989 29.9237 26.5841 30.0418C26.1464 29.9729 25.6742 29.9335 25.1774 29.9335C24.3511 29.9335 23.5887 30.0368 22.964 30.209C22.9345 29.968 22.8951 29.727 22.841 29.4958C22.7672 29.1662 22.6639 28.8514 22.6492 28.5219C22.6393 28.3546 22.6098 28.2022 22.5705 28.0398C22.3836 27.2725 22.1573 26.5052 21.8474 25.7822C21.6458 25.31 21.1244 23.9524 20.3817 24.3951C19.7275 24.7837 19.1471 26.0478 18.9011 26.7364C18.4388 28.0251 18.2666 29.1908 18.6306 30.5238C18.7683 31.0206 18.9356 31.4633 19.2012 31.901C19.3783 32.1912 19.457 32.1617 19.2455 32.4322C19.0881 32.6339 18.8224 32.7175 18.6749 32.9585C18.4929 33.2586 18.4929 33.7062 18.7634 33.9177C18.911 34.0308 19.1028 34.0554 19.2848 34.0702C19.9193 34.1243 20.5883 34.1095 21.1834 33.8734C21.8179 33.6275 22.1819 33.1307 22.4869 32.5601C23.1804 32.8257 24.1297 32.993 25.1725 32.993C25.9201 32.993 26.6136 32.9094 27.2039 32.7618C27.5433 33.2979 27.9368 33.7504 28.5713 33.9521C29.1861 34.1439 29.8551 34.1144 30.4797 34.021C30.6617 33.9915 30.8536 33.957 30.9913 33.8341C31.2569 33.598 31.2225 33.1454 31.0208 32.8602Z" fill="#BFBAB0"/>
<path d="M20.8588 30.0023L19.0635 29.5596C19.0635 29.5596 19.0635 30.44 19.4373 30.9466L20.8588 30.0023Z" fill="#827872"/>
<path d="M20.6225 28.1726C20.4848 27.902 19.6044 26.6822 19.6044 26.6822C19.6044 26.6822 20.0126 25.969 20.0766 25.8018L20.6225 28.1726Z" fill="#827872"/>
<path d="M20.7555 29.3234L19.0635 28.9152C19.0635 28.9152 19.2996 27.4593 19.4373 27.2871L20.7555 29.3234Z" fill="#827872"/>
<path d="M28.6401 34.7438C28.2466 34.0847 27.9564 33.3666 27.7744 32.6189C27.3661 30.9072 25.0347 31.6155 23.9083 31.8565C23.7657 31.8861 23.623 31.9205 23.5001 31.9943C23.3328 32.0976 23.2148 32.2648 23.1164 32.4369C22.8655 32.8649 22.6934 33.2535 22.4966 33.6076C21.7096 34.9947 18.2125 35.6587 19.6635 33.4354C21.1981 31.0843 19.8012 28.3053 20.3668 25.7328C20.7849 23.8145 21.5621 24.1293 23.1902 24.0162C24.1641 23.9522 25.0937 23.6079 26.0529 23.4554C27.3317 23.2538 29.25 23.0373 29.7173 24.4933C30.3616 26.4903 30.0468 28.9299 30.0517 30.9958C30.0517 31.7139 30.0763 32.4615 30.3813 33.1157C30.5485 33.4699 30.7896 33.7798 30.9519 34.1339C31.1142 34.488 31.183 34.916 30.9912 35.2554C30.4452 36.2194 29.0237 35.3832 28.6401 34.7438Z" fill="#DBD6CC"/>
<path d="M28.4292 11.5943L20.0629 12.459L20.5483 17.1559L28.9147 16.2913L28.4292 11.5943Z" fill="#4F2B1D"/>
<path d="M30.1304 11.098L17.9772 12.354L18.0495 13.0536L30.2028 11.7976L30.1304 11.098Z" fill="#623A27"/>
<path d="M32.0586 22.3045C32.0586 22.3094 32.0536 22.3094 32.0536 22.3144C32.0192 22.3832 31.9799 22.4521 31.9405 22.5209C30.8436 24.4048 28.4187 25.8263 25.5069 26.0526C22.6786 26.2788 20.1209 25.3148 18.7142 23.7113C18.0649 22.9735 17.6566 22.093 17.5829 21.1339C17.5091 20.1747 17.7698 19.2451 18.2961 18.4089C18.419 18.2122 18.5568 18.0203 18.7092 17.8334C18.7092 17.8236 18.7043 17.8138 18.7092 17.8088C19.6241 16.5988 21.9064 15.6348 21.9064 15.6348C22.5311 15.3987 23.2049 15.2167 23.9181 15.1134C24.1296 15.0839 24.3411 15.0544 24.5576 15.0396C24.5871 15.0347 24.6117 15.0347 24.6412 15.0298H24.6904H24.7297L25.015 15.0396C25.015 15.0396 26.4316 15.0003 26.8939 15.0986C26.9087 15.0888 27.4202 15.1478 28.2564 15.443C28.8073 15.6348 29.491 15.9299 30.2682 16.3677C30.3567 16.4169 30.4502 16.471 30.5436 16.5251C30.5485 16.53 31.0699 16.9825 31.0699 16.9825C31.0896 17.0022 31.1093 17.0219 31.1289 17.0415C31.2765 17.1842 31.4142 17.3317 31.5421 17.4891C31.5421 17.4891 31.5421 17.4891 31.547 17.494C31.547 17.494 31.547 17.494 31.5519 17.499C31.5519 17.499 31.5519 17.499 31.5569 17.5039C31.5667 17.5137 31.6651 17.6416 31.6749 17.6564C31.6749 17.6564 31.6798 17.6613 31.6798 17.6662C31.6897 17.676 31.7388 17.7449 31.7536 17.7695C31.7585 17.7744 31.7585 17.7793 31.7634 17.7843C31.7831 17.8088 31.7979 17.8334 31.8126 17.858C31.8274 17.8777 31.911 18.0056 31.911 18.0056C31.9208 18.0203 31.9602 18.0843 31.9602 18.0843C31.97 18.099 32.0143 18.1728 32.0241 18.1925L32.1028 18.3351C32.1028 18.3351 32.1619 18.4532 32.1864 18.5024C32.211 18.5516 32.275 18.704 32.2848 18.7336C32.2947 18.7582 32.334 18.8664 32.3438 18.8959L32.3635 18.9549C32.3635 18.9598 32.4078 19.1025 32.4176 19.1271C32.4225 19.1516 32.4324 19.1762 32.4373 19.2008C32.4422 19.2156 32.4471 19.2353 32.4521 19.25C32.4619 19.2845 32.5209 19.5796 32.5258 19.5992C32.5308 19.6386 32.5357 19.6779 32.5455 19.7173C32.5455 19.7222 32.5455 19.7222 32.5455 19.7222C32.5504 19.7419 32.5504 19.7665 32.5553 19.7862C32.5603 19.8157 32.5603 19.8403 32.5652 19.8698C32.5701 19.8944 32.4865 21.0798 32.2356 21.9012C32.1717 22.0488 32.1176 22.1865 32.0586 22.3045Z" fill="#EEECE8"/>
<path d="M32.2161 21.8965C31.3012 21.5178 29.619 21.4292 28.0647 20.234C28.0598 20.234 28.0598 20.2291 28.0549 20.2291C27.9516 20.1504 27.8483 20.0619 27.745 19.9586C27.3909 19.6192 27.0269 19.1765 26.6727 18.6748C26.594 18.5617 26.5153 18.4485 26.4366 18.3305C25.7087 17.2533 25.0348 15.999 24.5675 15.0792C24.5626 15.0645 24.5528 15.0546 24.5479 15.0399C24.5774 15.035 24.602 15.035 24.6315 15.03H24.6807H24.72L25.0053 15.0399C25.0053 15.0399 26.4219 15.0005 26.8842 15.0989C26.899 15.0891 27.4105 15.1481 28.2467 15.4432C28.5615 15.0595 29.2157 14.3168 29.5157 14.3513C29.6289 14.366 29.7371 14.3955 29.8354 14.4496C30.0961 14.5923 30.288 14.8972 30.2585 15.5022C30.2339 15.9547 30.2486 16.2204 30.2634 16.3679C30.3519 16.4171 30.4454 16.4712 30.5388 16.5253C30.5437 16.5302 31.0651 16.9828 31.0651 16.9828C31.0848 17.0024 31.1045 17.0221 31.1241 17.0418C31.2717 17.1844 31.4094 17.332 31.5373 17.4894C31.5373 17.4894 31.5373 17.4894 31.5422 17.4943C31.5422 17.4943 31.5422 17.4943 31.5471 17.4992C31.5471 17.4992 31.5471 17.4992 31.5521 17.5041C31.5619 17.514 31.6603 17.6419 31.6701 17.6566C31.6701 17.6566 31.675 17.6615 31.675 17.6665C31.6849 17.6763 31.7341 17.7452 31.7488 17.7697C31.7537 17.7747 31.7537 17.7796 31.7587 17.7845C31.7783 17.8091 31.7931 17.8337 31.8078 17.8583C31.8226 17.878 31.9062 18.0058 31.9062 18.0058C31.916 18.0206 31.9554 18.0845 31.9554 18.0845C31.9652 18.0993 32.0095 18.1731 32.0193 18.1928L32.098 18.3354C32.098 18.3354 32.1571 18.4534 32.1817 18.5026C32.2063 18.5518 32.2702 18.7043 32.28 18.7338C32.2899 18.7584 32.3292 18.8666 32.3391 18.8961L32.3587 18.9551C32.3587 18.9601 32.403 19.1027 32.4128 19.1273C32.4178 19.1519 32.4276 19.1765 32.4325 19.2011C32.4374 19.2158 32.4423 19.2355 32.4473 19.2503C32.4571 19.2847 32.5161 19.5798 32.521 19.5995C32.526 19.6388 32.5309 19.6782 32.5407 19.7175C32.5407 19.7225 32.5407 19.7225 32.5407 19.7225C32.5456 19.7421 32.5456 19.7667 32.5506 19.7864C32.5555 19.8159 32.5555 19.8405 32.5604 19.87C32.5506 19.8897 32.4719 21.0751 32.2161 21.8965Z" fill="#E0B885"/>
<path d="M31.9404 21.2425L29.968 20.6178L32.0732 19.8653C32.0683 19.8603 32.1568 20.8096 31.9404 21.2425Z" fill="#CCA172"/>
<path d="M29.7615 19.6883L31.7191 19.1177C31.7191 19.1177 31.7339 18.4241 31.3355 18.0454L29.7615 19.6883Z" fill="#CCA172"/>
<path d="M29.6632 18.7732C29.7026 18.6847 30.8093 17.4747 30.8093 17.4747C30.8093 17.4747 30.6027 16.9681 30.1895 16.791L29.6632 18.7732Z" fill="#CCA172"/>
<path d="M19.3733 18.3894C19.3733 18.3894 19.3783 18.1779 19.0487 17.4056C18.7191 16.6334 18.9897 16.2547 19.3487 16.0727C19.7078 15.8907 21.1539 16.8105 21.1539 16.8105C20.8145 17.5778 20.1751 18.1434 19.3733 18.3894Z" fill="#827872"/>
<path d="M29.3782 20.3369C29.4913 21.7732 27.5681 22.4077 26.6876 21.3305C26.604 21.2272 26.5302 21.0944 26.4023 21.0452C26.5499 20.1451 26.6925 19.1073 27.8337 19.0187C28.6256 18.9597 29.3191 19.5499 29.3782 20.3369Z" fill="#623A27"/>
<path d="M28.7486 19.6287C29.206 20.0173 29.2454 20.7256 28.8322 21.2125C28.419 21.6995 27.7157 21.7683 27.2582 21.3797C26.8008 20.9912 26.7614 20.2829 27.1746 19.7959C27.5878 19.309 28.2911 19.2352 28.7486 19.6287Z" fill="url(#paint0_radial)"/>
<path d="M28.3206 19.5644C28.3855 19.5593 28.4341 19.5024 28.4289 19.4374C28.4237 19.3724 28.3669 19.3239 28.3019 19.329C28.2369 19.3342 28.1884 19.3911 28.1935 19.4561C28.1987 19.5211 28.2556 19.5696 28.3206 19.5644Z" fill="#E1E3EA"/>
<path d="M28.622 20.2824C28.7656 20.271 28.8727 20.1454 28.8613 20.0019C28.8499 19.8583 28.7243 19.7512 28.5808 19.7626C28.4373 19.774 28.3302 19.8996 28.3415 20.0431C28.3529 20.1866 28.4785 20.2937 28.622 20.2824Z" fill="#E1E3EA"/>
<path d="M21.0556 21.0651C21.1688 22.4964 23.1707 22.826 23.8691 21.6209C23.938 21.5029 23.9872 21.3602 24.1052 21.2963C23.815 20.4306 23.515 19.4321 22.3739 19.5206C21.5819 19.5797 20.9917 20.2732 21.0556 21.0651Z" fill="#623A27"/>
<path d="M23.5789 20.8438C23.6232 21.4193 23.1706 21.9259 22.5607 21.9751C21.9508 22.0243 21.4245 21.5964 21.3753 21.0209C21.3261 20.4454 21.7836 19.9388 22.3935 19.8896C23.0034 19.8404 23.5346 20.2683 23.5789 20.8438Z" fill="url(#paint1_radial)"/>
<path d="M23.0145 20.6857C23.158 20.6743 23.2651 20.5487 23.2538 20.4052C23.2424 20.2617 23.1168 20.1545 22.9733 20.1659C22.8297 20.1773 22.7226 20.3029 22.734 20.4464C22.7454 20.5899 22.871 20.6971 23.0145 20.6857Z" fill="#E1E3EA"/>
<path d="M22.6342 20.0073C22.6991 20.0021 22.7477 19.9453 22.7425 19.8803C22.7373 19.8153 22.6805 19.7668 22.6155 19.7719C22.5505 19.7771 22.502 19.8339 22.5071 19.8989C22.5123 19.9639 22.5692 20.0124 22.6342 20.0073Z" fill="#E1E3EA"/>
<path d="M28.6796 23.8293C28.6599 23.785 28.6107 23.7654 28.5664 23.785C27.6221 24.1835 26.8793 24.2277 26.3432 23.9178C25.8218 23.6129 25.5119 22.9931 25.3939 22.0143C25.3693 21.8077 25.3545 21.67 25.3496 21.5815L25.3545 21.5766L25.5267 21.2814C25.5857 21.1781 25.507 21.0552 25.389 21.065L25.0053 21.0945C24.8873 21.1044 24.8282 21.2421 24.902 21.3306L25.1184 21.5962C25.1283 21.611 25.143 21.6208 25.1578 21.6307C25.1676 21.7143 25.1824 21.8274 25.1971 21.97C25.2955 22.9489 25.1283 23.6227 24.6807 24.031C24.2282 24.4491 23.4904 24.5671 22.482 24.3802C22.4328 24.3704 22.3886 24.4048 22.3836 24.4491C22.3738 24.4983 22.4082 24.5425 22.4525 24.5474C22.7722 24.6065 23.0624 24.636 23.333 24.636C23.9625 24.636 24.4544 24.4737 24.7987 24.1589C25.0938 23.8883 25.2808 23.5047 25.3545 23.0226C25.3644 22.9587 25.3742 22.8948 25.3791 22.8259C25.4037 22.9144 25.4332 22.9981 25.4677 23.0817C25.6497 23.5391 25.9153 23.8687 26.2596 24.0703C26.5203 24.2228 26.8203 24.2966 27.1646 24.2966C27.5925 24.2966 28.0844 24.1785 28.6353 23.9474C28.6796 23.9277 28.6992 23.8736 28.6796 23.8293Z" fill="#BD8376"/>
<path d="M32.3882 19.3633C32.3636 19.2944 32.2849 19.26 32.216 19.2846L30.5338 19.9338C30.3371 18.7386 29.2992 17.8237 28.0548 17.8237C26.6677 17.8237 25.5414 18.9501 25.5414 20.3372C25.5414 20.3421 25.5414 20.347 25.5414 20.347L24.838 20.3814C24.6757 19.1469 23.6231 18.1926 22.3442 18.1926C21.1834 18.1926 20.2046 18.9845 19.9144 20.0568L18.0158 19.3239C17.9469 19.2993 17.8682 19.3338 17.8436 19.4026C17.819 19.4715 17.8535 19.5502 17.9223 19.5748L19.8603 20.3224C19.8406 20.4503 19.8308 20.5782 19.8308 20.711C19.8308 22.0981 20.9571 23.2245 22.3442 23.2245C23.7313 23.2245 24.8577 22.0981 24.8577 20.711C24.8577 20.6913 24.8577 20.6717 24.8577 20.652L25.5561 20.6175C25.6938 21.8718 26.7612 22.8556 28.0548 22.8556C29.4419 22.8556 30.5683 21.7292 30.5683 20.3421C30.5683 20.2978 30.5683 20.2536 30.5633 20.2093L32.3144 19.5354C32.3833 19.5059 32.4177 19.4321 32.3882 19.3633ZM22.3393 22.9588C21.0998 22.9588 20.0915 21.9505 20.0915 20.711C20.0915 19.4715 21.0998 18.4632 22.3393 18.4632C23.5788 18.4632 24.5871 19.4715 24.5871 20.711C24.5871 21.9505 23.5788 22.9588 22.3393 22.9588ZM28.0548 22.585C26.8153 22.585 25.807 21.5767 25.807 20.3372C25.807 19.0977 26.8153 18.0893 28.0548 18.0893C29.2943 18.0893 30.3027 19.0977 30.3027 20.3372C30.3027 21.5767 29.2943 22.585 28.0548 22.585Z" fill="#623A27"/>
<defs>
<radialGradient id="paint0_radial" cx="0" cy="0" r="1" gradientUnits="userSpaceOnUse" gradientTransform="translate(28.0051 20.5005) rotate(22.9676) scale(1.12066)">
<stop stop-color="#42210B"/>
<stop offset="0.627"/>
</radialGradient>
<radialGradient id="paint1_radial" cx="0" cy="0" r="1" gradientUnits="userSpaceOnUse" gradientTransform="translate(22.4827 20.929) rotate(22.9676) scale(1.0764)">
<stop stop-color="#42210B"/>
<stop offset="0.627"/>
</radialGradient>
</defs>
</svg>
