<svg width="23" height="23" viewBox="0 0 23 23" fill="none" xmlns="http://www.w3.org/2000/svg">
<path d="M22.3842 19.4287C22.6248 19.1003 22.8053 18.7273 22.9201 18.3376C23.3467 16.9012 22.0069 13.2102 20.0601 14.7022C19.8796 14.8414 19.7319 15.0195 19.6007 15.2032C19.5077 15.3369 19.4257 15.4705 19.3765 15.6263C19.1249 16.4169 20.2241 17.2074 19.5023 17.753C18.7531 18.3264 18.0312 18.538 17.5336 19.4454C17.4625 19.5735 17.3968 19.7238 17.4351 19.863C17.4843 20.0467 17.6703 20.1413 17.8398 20.2137C19.1687 20.7871 20.7272 20.9764 21.9194 19.9465C22.0889 19.7906 22.2475 19.618 22.3842 19.4287Z" fill="#E0B885"/>
<path d="M15.3042 18.103C15.3096 17.9694 15.337 17.8469 15.3643 17.7133C15.512 17.0954 15.6924 16.4774 15.9331 15.8928C16.0917 15.5143 16.5073 14.4231 17.0924 14.7738C17.6119 15.0856 18.0658 16.1044 18.2627 16.6611C18.6291 17.7022 18.7658 18.6375 18.476 19.7064C18.3666 20.1072 18.2353 20.4635 18.0275 20.8142C17.8908 21.0481 17.8252 21.0202 17.9947 21.2429C18.1205 21.4044 18.3283 21.4712 18.4486 21.666C18.5908 21.9054 18.5908 22.2673 18.3775 22.4399C18.2627 22.5289 18.1096 22.5512 17.9619 22.5623C17.4643 22.6069 16.9338 22.5902 16.4581 22.4065C15.9057 22.1838 15.6104 21.7217 15.3534 21.2039C15.2714 21.0369 15.1948 20.8643 15.1401 20.6806C14.9651 20.0961 15.0253 19.4725 15.1511 18.888C15.2112 18.6208 15.2932 18.3702 15.3042 18.103Z" fill="#BFBAB0"/>
<path d="M7.77788 13.4607C7.9474 13.8448 8.21536 14.4628 8.46692 14.8414C9.77939 15.1587 10.9059 16.0773 11.6715 17.174C12.552 18.4322 13.0168 19.9075 13.4762 21.355C13.5035 21.4385 13.5254 21.5276 13.498 21.6055C13.4215 21.8059 13.1152 21.7669 12.9074 21.7001C12.1254 21.4496 11.2833 21.3717 10.4684 21.4663C10.2497 21.4942 10.0528 21.5999 9.86688 21.7168C9.84501 21.7335 9.83954 21.7335 9.83954 21.7335C9.6372 21.817 9.45127 21.9674 9.24346 22.0564C9.03566 22.1455 8.84425 22.2123 8.62004 22.2402C8.15521 22.2958 7.67397 22.3125 7.22008 22.1566C6.93024 22.0564 6.71697 21.8282 6.80446 21.4942C6.87009 21.2548 7.16539 21.149 6.87009 20.9541C6.6404 20.8038 6.43807 20.6312 6.27401 20.4086C6.16464 20.2582 6.03886 20.0857 5.96777 19.9075C5.90214 19.7405 5.88027 19.5345 5.85293 19.3564C5.51387 17.3967 6.70056 15.5317 7.77788 13.4607Z" fill="#BFBAB0"/>
<path d="M3.86323 9.02376C3.89058 8.92912 3.92339 8.82335 4.00542 8.77324C4.0601 8.73984 4.12573 8.7287 4.18588 8.72314C5.24132 8.6452 6.16552 9.30212 7.1444 9.58605C7.49986 9.69183 8.11782 9.90338 8.33109 9.52481C8.38031 9.4413 8.41312 8.43921 8.47328 8.43921C8.85061 8.45034 9.62169 8.51158 9.93887 8.7454C10.2779 9.0015 10.3654 9.25202 10.5787 9.59719C11.0545 10.3543 11.7435 10.822 12.4818 11.284C13.4497 11.8853 14.4997 12.3864 15.6044 12.6146C16.0911 12.7148 16.6215 12.8095 17.1082 12.6981C17.3543 12.6424 17.7754 12.3307 17.9176 12.7371C17.9887 12.9431 17.9066 13.1658 17.8301 13.3662C17.1028 15.2034 16.2879 16.9904 15.7848 18.9111C15.7083 19.2117 15.6262 19.5124 15.5497 19.8074C15.4622 20.147 15.3692 20.4866 15.2817 20.8262C15.2708 20.8708 15.2598 20.9209 15.2817 20.9598C15.32 21.0266 15.4184 21.0099 15.4895 21.0044C15.659 20.9932 15.8286 21.0823 15.9379 21.2159C16.195 21.511 16.3262 21.9675 16.102 22.3127C15.8778 22.6578 15.4731 22.8137 15.0848 22.9083C13.9911 23.1811 13.22 22.5131 12.8099 21.5165C12.3943 20.5033 12.088 19.4456 11.4537 18.5492C10.8138 17.6418 9.8459 17.0572 9.00373 16.3725C7.80611 15.4038 6.79988 14.2013 5.60772 13.227C5.2632 12.9486 4.90227 12.6814 4.62884 12.3307C4.42103 12.0635 4.27338 11.7573 4.12026 11.4511C3.72105 10.616 3.62261 9.92565 3.86323 9.02376Z" fill="#DBD6CC"/>
<path d="M16.6279 19.4618L18.2466 19.0557C18.2466 19.0557 18.2466 19.8624 17.9131 20.3297L16.6279 19.4618Z" fill="#827872"/>
<path d="M16.8398 17.7808C16.9602 17.5303 17.7586 16.4112 17.7586 16.4112C17.7586 16.4112 17.3922 15.7599 17.332 15.604L16.8398 17.7808Z" fill="#827872"/>
<path d="M16.7197 18.8386L18.2455 18.4656C18.2455 18.4656 18.0322 17.1295 17.9119 16.9736L16.7197 18.8386Z" fill="#827872"/>
<path d="M7.33053 6.71892C7.33053 6.72449 7.33053 6.72449 7.33053 6.73005C7.336 6.80243 7.34694 6.88037 7.35241 6.95274C7.6149 9.03487 9.2008 11.2005 11.6453 12.4977C14.0241 13.7614 16.6053 13.8672 18.4209 12.9764C19.2576 12.5645 19.9357 11.9409 20.3568 11.117C20.7779 10.2931 20.8927 9.37447 20.7396 8.43918C20.7068 8.21649 20.6521 7.99937 20.5919 7.77669C20.5974 7.77112 20.6029 7.76555 20.6029 7.75442C20.2529 6.33478 18.6232 4.62566 18.6232 4.62566C18.1639 4.18028 17.6443 3.76831 17.0701 3.40644C16.9006 3.30067 16.7256 3.19489 16.5452 3.10025C16.5233 3.08911 16.4959 3.07241 16.4741 3.06128L16.4303 3.04458L16.3975 3.03344L16.1459 2.93323C16.1459 2.93323 14.9264 2.36538 14.489 2.28187C14.4835 2.26517 14.0132 2.12599 13.1765 2.07589C12.6296 2.04248 11.9242 2.04248 11.082 2.14269C10.9836 2.15383 10.8851 2.16496 10.7867 2.18166C10.7812 2.18166 10.1578 2.38765 10.1578 2.38765C10.1359 2.39878 10.1086 2.40435 10.0867 2.41548C9.90625 2.48786 9.73126 2.5658 9.56173 2.65487C9.56173 2.65487 9.56173 2.65487 9.55626 2.65487C9.55626 2.65487 9.55626 2.65487 9.55079 2.65487C9.55079 2.65487 9.55079 2.65487 9.54532 2.65487C9.54532 2.65487 9.54532 2.65487 9.53985 2.65487C9.52892 2.66044 9.39767 2.73281 9.38126 2.74395C9.38126 2.74395 9.3758 2.74952 9.37033 2.74952C9.35939 2.75508 9.2883 2.79962 9.26642 2.81075C9.26095 2.81075 9.25549 2.81632 9.25549 2.81632C9.23361 2.83302 9.20627 2.84416 9.18439 2.86086C9.16252 2.87199 9.04768 2.9555 9.04768 2.9555C9.03674 2.96664 8.97659 3.00561 8.97659 3.00561C8.96018 3.01674 8.90003 3.06684 8.87815 3.07798L8.75784 3.17262C8.75784 3.17262 8.65941 3.25613 8.6266 3.28953C8.58832 3.32294 8.47347 3.43428 8.45707 3.45655C8.44066 3.47325 8.3641 3.55676 8.34223 3.57903L8.30395 3.62356C8.29848 3.62913 8.21098 3.73491 8.19457 3.75718C8.17817 3.77388 8.16723 3.79615 8.15083 3.81285C8.13989 3.82398 8.12895 3.84068 8.12348 3.85182C8.10161 3.87965 7.93755 4.11904 7.92661 4.13574C7.90474 4.16915 7.88833 4.19698 7.86646 4.23039C7.86646 4.23039 7.86646 4.23595 7.86099 4.23595C7.85005 4.25266 7.83911 4.26936 7.82818 4.29163C7.81724 4.31389 7.80083 4.33616 7.7899 4.364C7.77896 4.38627 7.41256 5.4663 7.33053 6.28468C7.32506 6.45169 7.3196 6.59644 7.33053 6.71892Z" fill="#F7F6F5"/>
<path d="M7.34082 6.29571C8.27595 6.30684 9.77436 6.858 11.5626 6.37922C11.5681 6.37922 11.5681 6.37922 11.5735 6.37922C11.6938 6.34581 11.8142 6.30684 11.9454 6.25674C12.3774 6.08972 12.8587 5.83363 13.3508 5.52187C13.4602 5.45506 13.5696 5.38269 13.6844 5.31032C14.718 4.62555 15.7625 3.77377 16.5117 3.13354C16.5226 3.1224 16.5336 3.11684 16.5445 3.1057C16.5226 3.09457 16.4953 3.07787 16.4734 3.06673L16.4297 3.05003L16.3969 3.0389L16.1453 2.93869C16.1453 2.93869 14.9258 2.37083 14.4883 2.28732C14.4828 2.27062 14.0125 2.13144 13.1758 2.08134C13.0446 1.62483 12.7493 0.717371 12.4759 0.63943C12.372 0.611594 12.268 0.594892 12.1587 0.606027C11.8798 0.633863 11.6009 0.828715 11.404 1.37987C11.2564 1.78627 11.1524 2.0201 11.0814 2.14814C10.9829 2.15928 10.8845 2.17041 10.7861 2.18711C10.7806 2.18711 10.1572 2.3931 10.1572 2.3931C10.1353 2.40423 10.1079 2.4098 10.0861 2.42094C9.9056 2.49331 9.73061 2.57125 9.56108 2.66033C9.56108 2.66033 9.56108 2.66033 9.55561 2.66033C9.55561 2.66033 9.55561 2.66033 9.55014 2.66033C9.55014 2.66033 9.55014 2.66033 9.54467 2.66033C9.54467 2.66033 9.54467 2.66033 9.53921 2.66033C9.52827 2.66589 9.39702 2.73827 9.38062 2.7494C9.38062 2.7494 9.37515 2.75497 9.36968 2.75497C9.35874 2.76054 9.28765 2.80507 9.26577 2.81621C9.26031 2.81621 9.25484 2.82177 9.25484 2.82177C9.23296 2.83848 9.20562 2.84961 9.18375 2.86631C9.16187 2.87745 9.04703 2.96095 9.04703 2.96095C9.03609 2.97209 8.97594 3.01106 8.97594 3.01106C8.95953 3.02219 8.89938 3.0723 8.8775 3.08343L8.75719 3.17808C8.75719 3.17808 8.65876 3.26158 8.62595 3.29499C8.58767 3.32839 8.47282 3.43973 8.45642 3.462C8.44001 3.4787 8.36345 3.56221 8.34158 3.58448L8.3033 3.62902C8.29783 3.63459 8.21033 3.74036 8.19393 3.76263C8.17752 3.77933 8.16658 3.8016 8.15018 3.8183C8.13924 3.82944 8.1283 3.84614 8.12283 3.85727C8.10096 3.88511 7.9369 4.1245 7.92596 4.1412C7.90409 4.1746 7.88768 4.20244 7.86581 4.23584C7.86581 4.23584 7.86581 4.24141 7.86034 4.24141C7.8494 4.25811 7.83846 4.27481 7.82753 4.29708C7.81659 4.31935 7.80018 4.34162 7.78925 4.36946C7.78925 4.39173 7.42285 5.47733 7.34082 6.29571Z" fill="#E0B885"/>
<path d="M11.1634 4.66994C10.5345 5.89472 11.9782 7.18631 13.1376 6.55722C13.2524 6.49598 13.3618 6.40691 13.4876 6.41247C13.6899 5.55512 13.9469 4.58643 12.9899 4.07982C12.3337 3.72908 11.5134 3.99631 11.1634 4.66994Z" fill="#623A27"/>
<path d="M17.4883 8.01955C17.7505 7.50683 17.7263 6.96572 17.4343 6.81096C17.1423 6.65619 16.693 6.94637 16.4308 7.45909C16.1686 7.97181 16.1928 8.51291 16.4848 8.66768C16.7768 8.82245 17.2261 8.53227 17.4883 8.01955Z" fill="#1A0E14"/>
<path d="M18.1421 8.43899C17.5132 9.66377 15.6539 9.20169 15.4898 7.8767C15.4734 7.74866 15.4844 7.60391 15.4023 7.49814C15.9766 6.83564 16.6054 6.06737 17.5625 6.57399C18.2296 6.92472 18.4867 7.75979 18.1421 8.43899Z" fill="#623A27"/>
<path d="M13.9899 7.22526L13.9681 7.02498C13.9516 6.88589 14.0993 6.78019 14.2196 6.84695L14.4165 6.95265C14.5422 7.01941 14.5422 7.19744 14.4165 7.2642L14.2415 7.35878C14.1376 7.41442 14.0063 7.34766 13.9899 7.22526Z" fill="#BD8376"/>
<path d="M15.4448 11.0335C15.4941 11.0335 15.5378 11.0001 15.5542 10.9444C15.5652 10.8832 15.5323 10.8275 15.4722 10.8108C14.5371 10.5993 13.9464 10.2207 13.7058 9.6918C13.4761 9.16849 13.5746 8.51712 14.0175 7.69875C14.2418 7.28121 14.2964 7.2144 14.3074 7.20327C14.291 7.21997 14.2418 7.23667 14.198 7.2144C14.1543 7.19213 14.1433 7.1476 14.1433 7.12533L14.3511 7.18657C14.3894 7.05852 14.3128 7.01955 14.291 7.00842C14.1871 6.96388 14.1378 7.00842 13.8261 7.5874C13.3504 8.47259 13.2465 9.19075 13.509 9.78088C13.7769 10.3766 14.4222 10.7941 15.423 11.0224C15.4284 11.0279 15.4394 11.0335 15.4448 11.0335Z" fill="#BD8376"/>
<path d="M12.1091 9.18565C12.1748 9.18565 12.2349 9.18009 12.3005 9.17452C12.9294 9.09101 13.4763 8.62894 13.9685 7.74932C14.2911 7.1759 14.302 7.10909 14.2091 7.04229C14.1872 7.02559 14.1161 6.98662 14.0286 7.08126C14.0013 7.11466 13.9903 7.16477 14.0122 7.20374C13.9794 7.27054 13.9138 7.40416 13.7825 7.63798C13.3286 8.45079 12.8365 8.87946 12.2787 8.95183C11.7099 9.02421 11.0865 8.70688 10.4193 8.01098C10.3756 7.96644 10.31 7.96644 10.2662 8.01098C10.2225 8.05552 10.2225 8.12232 10.2662 8.16686C10.9006 8.84606 11.524 9.18565 12.1091 9.18565Z" fill="#BD8376"/>
<path d="M20.133 7.60962C20.133 7.60962 20.2096 7.42033 20.7783 6.85805C21.347 6.29576 21.2541 5.86151 21.008 5.56089C20.7619 5.26582 19.165 5.53305 19.165 5.53305C19.176 6.35143 19.5205 7.09187 20.133 7.60962Z" fill="#827872"/>
<path d="M7.86118 5.55993L9.81348 5.74908L8.25492 4.28589C8.25492 4.28589 7.82836 5.09259 7.86118 5.55993Z" fill="#CCA172"/>
<path d="M10.2455 5.21573L8.74707 3.97424C8.74707 3.97424 8.99316 3.35071 9.47986 3.16699L10.2455 5.21573Z" fill="#CCA172"/>
<path d="M10.6709 4.44182C10.6709 4.34718 10.1514 2.85518 10.1514 2.85518C10.1514 2.85518 10.5178 2.48218 10.9443 2.48218L10.6709 4.44182Z" fill="#CCA172"/>
<path d="M11.1367 2.1759L12.2414 2.08126L12.2086 0.633789C11.9297 0.661625 11.6508 0.856477 11.4539 1.40763C11.3117 1.8196 11.2023 2.04786 11.1367 2.1759Z" fill="#EEECE8"/>
<path d="M1.83011 13.7273L0.796542 5.28183C0.76373 5.00347 0.960601 4.74737 1.23403 4.71397L5.60345 4.16282C5.87688 4.12941 6.12844 4.32983 6.16125 4.60819L7.19482 13.0536C7.22763 13.332 7.03076 13.5881 6.75733 13.6215L2.38791 14.1726C2.11448 14.206 1.86292 14.0056 1.83011 13.7273Z" fill="#EEECE8"/>
<path d="M5.66703 4.15775C5.91312 4.15775 6.13186 4.34703 6.16468 4.60312L7.19824 13.0486C7.23106 13.3269 7.03418 13.583 6.76075 13.6164L2.38586 14.1731C2.36399 14.1731 2.34211 14.1787 2.32571 14.1787C2.07962 14.1787 1.86087 13.9894 1.82806 13.7333L0.794493 5.28232C0.761681 5.00396 0.958551 4.74787 1.23198 4.71447L5.60141 4.16331C5.62328 4.15775 5.64516 4.15775 5.66703 4.15775ZM5.66703 3.93506C5.63969 3.93506 5.60688 3.93506 5.57953 3.94063L1.21011 4.49178C0.816367 4.54188 0.537468 4.90932 0.586685 5.31016L1.62025 13.7556C1.664 14.123 1.97025 14.3958 2.33664 14.3958C2.36399 14.3958 2.3968 14.3958 2.42414 14.3903L6.79357 13.8391C6.98497 13.8168 7.1545 13.7166 7.2748 13.5607C7.39511 13.4049 7.44433 13.2156 7.42246 13.0207L6.38889 4.57529C6.3342 4.20785 6.02796 3.93506 5.66703 3.93506Z" fill="#623A27"/>
<path d="M0.0514689 9.21278C0.0952177 9.3798 0.188184 9.53568 0.286619 9.68043C0.893633 10.6213 1.88345 10.4598 2.32641 9.40207C2.3975 9.23505 2.44672 9.0569 2.42484 8.87875C2.39203 8.53358 2.10766 8.25522 1.78501 8.12718C0.997537 7.82098 -0.271178 8.03254 0.0514689 9.21278Z" fill="#DBD6CC"/>
<path d="M5.19611 6.40139C5.19611 6.39583 5.19611 6.39583 5.19064 6.39026C5.19064 6.38469 5.18517 6.37913 5.18517 6.36799C5.18517 6.36242 5.16876 6.31232 5.16329 6.30675C5.16329 6.30119 5.16329 6.30119 5.15783 6.29562C5.15783 6.29005 5.15236 6.28448 5.15236 6.28448C5.15236 6.27892 5.14142 6.25665 5.14142 6.25665L5.13595 6.24551C5.13595 6.23995 5.12501 6.22325 5.11955 6.21768C5.11955 6.21211 5.10314 6.18427 5.09767 6.17871C5.0922 6.17314 5.08127 6.15087 5.08127 6.15087L5.06486 6.1286C5.06486 6.12304 5.05392 6.1119 5.04845 6.1119L5.03752 6.10077C5.03752 6.10077 5.02111 6.0785 5.01564 6.0785C5.01017 6.07293 5.01017 6.07293 5.0047 6.06736C4.99924 6.0618 4.9883 6.05066 4.9883 6.05066L4.96642 6.02839C4.93908 6.00056 4.91174 5.97829 4.8844 5.95602C4.87893 5.95045 4.87893 5.95045 4.87346 5.94489L4.76956 5.87251C4.75315 5.86695 4.73674 5.85581 4.71487 5.85024C4.7094 5.82241 4.69846 5.77787 4.693 5.69436C4.68753 5.58302 4.64378 5.53291 4.59456 5.51065C4.57815 5.50508 4.55628 5.49951 4.53441 5.49951C4.47972 5.49951 4.38128 5.64983 4.33207 5.72777C4.17895 5.69436 4.08598 5.69436 4.08051 5.69436C3.99848 5.6888 3.74693 5.7222 3.74693 5.7222L3.69771 5.72777H3.69224H3.6813C3.67584 5.72777 3.67037 5.72777 3.6649 5.73333C3.62662 5.7389 3.58834 5.75003 3.55553 5.76117C3.42975 5.79457 3.31491 5.84468 3.211 5.90035C3.211 5.90035 3.09616 5.96715 2.96492 6.06736C2.88289 6.03953 2.79539 6.01169 2.76258 6.03396C2.70242 6.07293 2.66414 6.15087 2.73524 6.28448C2.73524 6.28448 2.73524 6.28448 2.73524 6.29005C2.71336 6.31789 2.69696 6.34016 2.68055 6.36799V6.37356C2.65868 6.41253 2.6368 6.44593 2.6204 6.4849C2.54383 6.64635 2.51649 6.8245 2.55477 6.99708C2.58758 7.16967 2.68055 7.31998 2.8118 7.43689C2.90476 7.5204 3.0196 7.59277 3.15085 7.64288C3.06882 7.73752 3.01413 7.91567 2.99226 8.02144C2.95398 8.18846 2.94304 8.33877 2.97585 8.49465C2.94304 8.47239 2.9157 8.44455 2.88289 8.41671C2.78445 8.32207 2.95945 8.22186 2.93211 8.09382C2.92664 8.07155 2.9157 8.04928 2.90476 8.02701C2.88836 7.99361 2.86648 7.96577 2.84461 7.9435C2.57118 7.68741 2.31415 8.22743 2.35243 8.45012C2.36337 8.51136 2.38525 8.5726 2.41806 8.6227C2.43446 8.6561 2.45634 8.68394 2.48368 8.70621C2.64774 8.88436 2.88836 8.87879 3.09616 8.81198C3.10163 8.81198 3.10163 8.81198 3.1071 8.80642C3.11804 8.82312 3.12351 8.83425 3.13444 8.84539C3.16726 8.88992 3.17819 8.88436 3.15085 8.92889C3.12898 8.9623 3.0907 8.98457 3.06882 9.02354C3.04695 9.07364 3.05241 9.14601 3.10163 9.17942C3.12898 9.19612 3.15632 9.19612 3.18913 9.19612C3.1946 9.19612 3.1946 9.19612 3.20007 9.19612C3.16726 9.43551 3.60474 9.27406 3.69224 9.05694C3.71412 9.00684 3.73052 8.95673 3.74693 8.90106C3.85083 8.91776 3.97114 8.91776 4.10239 8.90106C4.2227 8.88436 4.33207 8.85652 4.41956 8.82312C4.46878 8.88436 4.518 8.93446 4.58909 8.96786C4.61643 9.02354 4.64925 9.07364 4.68753 9.11818C4.75862 9.21282 5.0047 9.32416 5.07033 9.15715C5.0922 9.09591 5.0758 9.0291 5.04299 8.97343C5.03752 8.9623 5.02658 8.95116 5.02111 8.94003C5.03205 8.93446 5.03752 8.92889 5.04299 8.92333C5.08127 8.87879 5.06486 8.80642 5.02658 8.76745C4.99377 8.73404 4.95002 8.72848 4.92268 8.70064C4.87893 8.66167 4.89533 8.66724 4.91174 8.61157C4.93908 8.53362 4.95549 8.45568 4.96096 8.37218C4.97736 8.14949 4.91721 7.96577 4.80237 7.77092C4.78596 7.74309 4.76409 7.70412 4.73674 7.66514C4.72034 7.5872 4.693 7.51483 4.66565 7.44246C4.87893 7.29771 5.04299 7.11399 5.13048 6.90801C5.13595 6.89687 5.14142 6.88017 5.14689 6.86904C5.15783 6.84677 5.16329 6.81893 5.16876 6.7911C5.19611 6.63522 5.18517 6.4181 5.18517 6.4181C5.19611 6.41253 5.19611 6.40696 5.19611 6.40139Z" fill="#DBD6CC"/>
<path d="M6.02271 13.0877L3.02591 13.4662C2.76888 13.4996 2.53373 13.3159 2.50092 13.0542L2.44623 12.6144C2.41342 12.3528 2.59389 12.1134 2.85091 12.08L5.84771 11.7014C6.10474 11.668 6.33989 11.8517 6.3727 12.1134L6.42739 12.5532C6.46567 12.8149 6.27973 13.0542 6.02271 13.0877Z" fill="#E0B885"/>
<path d="M5.8924 10.4154L2.44718 10.8495C2.31593 10.8662 2.19016 10.7716 2.17375 10.6325C2.15734 10.4989 2.25031 10.3709 2.38703 10.3542L5.83225 9.92012C5.96349 9.90342 6.08927 9.99803 6.10568 10.1372C6.12208 10.2763 6.02365 10.3987 5.8924 10.4154Z" fill="#DBD6CC"/>
<path d="M5.98029 11.1278L2.53507 11.5619C2.40382 11.5786 2.27805 11.484 2.26164 11.3449C2.24523 11.2113 2.3382 11.0833 2.47492 11.0666L5.92014 10.6325C6.05139 10.6158 6.17716 10.7104 6.19357 10.8496C6.20998 10.9887 6.11154 11.1111 5.98029 11.1278Z" fill="#DBD6CC"/>
<path d="M16.0794 7.27565C15.8278 7.77112 16.0356 8.38908 16.5497 8.66187C17.0637 8.93466 17.6817 8.75095 17.9332 8.26104C18.1848 7.77112 17.977 7.1476 17.4629 6.87481C16.9543 6.60202 16.3309 6.78017 16.0794 7.27565Z" fill="url(#paint0_radial)"/>
<path d="M11.4856 4.80934C11.234 5.30482 11.4419 5.92277 11.9559 6.19556C12.47 6.46836 13.0879 6.28464 13.3395 5.79473C13.591 5.29925 13.3832 4.68129 12.8692 4.4085C12.3551 4.13571 11.7372 4.31386 11.4856 4.80934Z" fill="url(#paint1_radial)"/>
<path d="M16.9124 7.26166C16.9752 7.13896 16.9283 6.9877 16.8078 6.92381C16.6872 6.85992 16.5387 6.90758 16.4759 7.03028C16.4132 7.15298 16.46 7.30424 16.5806 7.36813C16.7011 7.43202 16.8497 7.38435 16.9124 7.26166Z" fill="#E1E3EA"/>
<path d="M17.3011 6.86127C17.329 6.80674 17.3082 6.73952 17.2546 6.71113C17.2011 6.68273 17.135 6.70392 17.1071 6.75845C17.0792 6.81297 17.1001 6.8802 17.1536 6.90859C17.2072 6.93699 17.2733 6.9158 17.3011 6.86127Z" fill="#E1E3EA"/>
<path d="M12.2738 4.77825C12.3365 4.65555 12.2897 4.50429 12.1691 4.4404C12.0486 4.37651 11.9 4.42418 11.8372 4.54688C11.7745 4.66958 11.8214 4.82084 11.9419 4.88473C12.0624 4.94862 12.211 4.90095 12.2738 4.77825Z" fill="#E1E3EA"/>
<path d="M12.5228 4.33246C12.5507 4.27794 12.5299 4.21071 12.4763 4.18232C12.4227 4.15392 12.3567 4.17511 12.3288 4.22964C12.3009 4.28417 12.3218 4.35139 12.3753 4.37978C12.4289 4.40818 12.4949 4.38699 12.5228 4.33246Z" fill="#E1E3EA"/>
<defs>
<radialGradient id="paint0_radial" cx="0" cy="0" r="1" gradientUnits="userSpaceOnUse" gradientTransform="translate(17.0071 7.76564) rotate(180) scale(1.01722 1.03556)">
<stop stop-color="#42210B"/>
<stop offset="0.627"/>
</radialGradient>
<radialGradient id="paint1_radial" cx="0" cy="0" r="1" gradientUnits="userSpaceOnUse" gradientTransform="translate(12.4133 5.29747) rotate(180) scale(1.01722 1.03556)">
<stop stop-color="#42210B"/>
<stop offset="0.627"/>
</radialGradient>
</defs>
</svg>
