<svg width="44" height="44" viewBox="0 0 44 44" fill="none" xmlns="http://www.w3.org/2000/svg">
<circle cx="22" cy="22" r="21.5" fill="white" stroke="#F2F2F2"/>
<path d="M28.9741 17.0732C28.9741 17.0528 28.9676 17.0323 28.9676 17.0119V17.0051C28.9611 16.9711 28.9546 16.9302 28.9546 16.8962C28.9546 16.8758 28.8963 16.6034 28.8898 16.5694C28.8833 16.5558 28.8833 16.5353 28.8768 16.5217C28.8703 16.5013 28.8638 16.4741 28.8573 16.4537C28.8509 16.4332 28.812 16.2971 28.812 16.2903L28.7925 16.2358C28.786 16.2086 28.7471 16.1064 28.7406 16.086C28.7341 16.0588 28.6693 15.9158 28.6499 15.8682C28.6304 15.8205 28.5785 15.7116 28.5785 15.7116L28.5072 15.5754C28.4942 15.555 28.4553 15.4869 28.4488 15.4733C28.4488 15.4733 28.4164 15.412 28.4035 15.3984C28.4035 15.3984 28.3321 15.2759 28.3192 15.2622C28.3062 15.2418 28.2867 15.2146 28.2738 15.1942C28.2738 15.1874 28.2673 15.1874 28.2673 15.1806C28.2543 15.1601 28.2089 15.092 28.2024 15.0852L28.196 15.0784C28.183 15.0648 28.0987 14.9491 28.0922 14.9355C27.9755 14.7925 27.8523 14.6495 27.7226 14.5202C27.7031 14.4998 27.6902 14.4861 27.6707 14.4657L27.2039 14.0368C27.1196 13.9823 27.0417 13.9347 26.9575 13.887C26.9445 13.7509 26.9315 13.499 26.9575 13.0769C26.9834 12.505 26.8148 12.2191 26.5814 12.0897C26.4906 12.0421 26.3933 12.008 26.2961 12.0012C26.0302 11.9672 25.4466 12.6616 25.1613 13.0224C24.4156 12.7433 23.9552 12.6888 23.9423 12.7024C23.5338 12.6071 22.2628 12.648 22.2628 12.648L22.01 12.6412H21.9775H21.9321C21.9062 12.6412 21.8803 12.648 21.8543 12.648C21.6598 12.6684 21.4718 12.6888 21.2837 12.716C20.6483 12.8182 20.0452 12.9816 19.4876 13.2062C19.4876 13.2062 18.8716 13.4785 18.1778 13.9143C17.8017 13.71 17.3737 13.5194 17.2051 13.6079C16.8809 13.7781 16.641 14.1321 16.9328 14.8606C16.9328 14.8674 16.9393 14.8742 16.9393 14.8742C16.8225 14.9967 16.7188 15.1193 16.628 15.2418C16.6215 15.2486 16.628 15.2554 16.628 15.2622C16.4918 15.4393 16.3686 15.6163 16.2584 15.8001C15.7915 16.583 15.5516 17.4544 15.623 18.3531C15.6878 19.2517 16.0509 20.0755 16.6345 20.7699C16.9457 21.1376 17.3153 21.478 17.7433 21.7639C17.3283 22.2813 16.9782 23.0983 16.8096 23.5953C16.4983 24.5144 16.3297 25.3722 16.414 26.2776C16.2584 26.121 16.1028 25.9577 15.9472 25.767C15.4544 25.1543 16.5048 24.6982 16.4465 23.9697C16.4335 23.8267 16.3881 23.6906 16.3362 23.5612C16.2584 23.3774 16.1676 23.1936 16.0444 23.037C14.7087 21.3759 12.9125 24.2693 13.0033 25.5832C13.0292 25.944 13.1071 26.2981 13.2432 26.6248C13.321 26.8155 13.4248 26.9925 13.5415 27.1627C14.3391 28.2792 15.6619 28.4222 16.8679 28.1975C16.8939 28.1907 16.9133 28.1907 16.9393 28.1839C16.9846 28.2724 17.0236 28.3541 17.0754 28.4426C17.2311 28.7149 17.3089 28.6877 17.1143 28.9396C16.9717 29.1302 16.7318 29.2051 16.6021 29.4297C16.44 29.7089 16.44 30.131 16.6799 30.3284C16.8096 30.4373 16.9846 30.4578 17.1468 30.4714C17.1662 30.4714 17.1857 30.4714 17.2116 30.4782C16.855 31.8194 19.3968 31.1998 20.0193 30.0425C20.1555 29.7838 20.2851 29.5046 20.4343 29.2051C20.9919 29.3685 21.6728 29.4638 22.4055 29.4638C23.0734 29.4638 23.6959 29.3821 24.2211 29.2459C24.448 29.6204 24.7009 29.954 25.0576 30.1786C25.1808 30.4986 25.3299 30.8118 25.505 31.1113C25.8422 31.7104 27.1131 32.4934 27.5994 31.5879C27.768 31.2679 27.7096 30.8662 27.567 30.5326C27.541 30.4646 27.5086 30.4033 27.4697 30.3352C27.5216 30.3148 27.567 30.2807 27.6124 30.2467C27.8458 30.0288 27.8134 29.6136 27.6318 29.3412C27.4892 29.1234 27.2428 29.0621 27.0936 28.8851C26.8861 28.64 26.9575 28.6672 27.1001 28.3881C27.3076 27.9592 27.4308 27.5371 27.5216 27.0606C27.768 25.7943 27.541 24.7118 27.0482 23.534C26.9704 23.3502 26.8667 23.1255 26.7435 22.8872C26.6981 22.4719 26.6203 22.0635 26.5165 21.6686C27.3465 21.1171 28.0144 20.4227 28.4488 19.6398C28.4813 19.5785 28.5202 19.5105 28.5526 19.4492C28.5526 19.4492 28.5526 19.4424 28.5591 19.4424C28.6109 19.3334 28.6628 19.1973 28.7017 19.0543C28.9287 18.285 29 17.1753 29 17.1481C28.9805 17.1276 28.9805 17.1004 28.9741 17.0732Z" fill="#AEAEAE"/>
</svg>
