<svg width="17" height="17" viewBox="0 0 17 17" fill="none" xmlns="http://www.w3.org/2000/svg">
<path d="M10.3728 6.62583C10.1714 6.42326 9.9481 6.2437 9.70702 6.09043C9.06848 5.68161 8.32615 5.46436 7.56791 5.46436C6.5155 5.4624 5.50585 5.88049 4.76299 6.62583L1.15909 10.232C0.417485 10.9749 0.000664865 11.9815 8.2123e-07 13.0311C-0.00139367 15.2215 1.77333 16.9982 3.96401 16.9996C5.01479 17.0033 6.02351 16.5872 6.76611 15.8438L9.74102 12.8694C9.79508 12.8158 9.82526 12.7427 9.82483 12.6666C9.82393 12.5101 9.69633 12.3841 9.53985 12.3849H9.42653C8.80499 12.3871 8.18899 12.2678 7.61326 12.0337C7.50718 11.99 7.38526 12.0147 7.30445 12.096L5.16533 14.2376C4.50109 14.9018 3.42414 14.9018 2.7599 14.2376C2.09566 13.5735 2.09566 12.4967 2.7599 11.8325L6.37797 8.21787C7.04169 7.55509 8.11687 7.55509 8.78058 8.21787C9.22788 8.63878 9.92559 8.63878 10.3729 8.21787C10.5653 8.02529 10.682 7.76987 10.7015 7.49832C10.7222 7.17382 10.6025 6.85602 10.3728 6.62583Z" fill="#43B05C"/>
<path d="M15.8382 1.16166C14.2891 -0.38722 11.7775 -0.38722 10.2284 1.16166L7.25632 4.13045C7.1747 4.21245 7.15116 4.33578 7.19682 4.44207C7.24194 4.54867 7.34739 4.61709 7.46313 4.61487H7.56795C8.18877 4.61374 8.80377 4.73401 9.3784 4.96898C9.48448 5.01263 9.6064 4.988 9.68721 4.90667L11.8207 2.77637C12.4849 2.11223 13.5618 2.11223 14.2261 2.77637C14.8903 3.44052 14.8903 4.5173 14.2261 5.18144L11.5685 7.83579L11.5458 7.86129L10.6165 8.7848C9.9528 9.44758 8.87761 9.44758 8.2139 8.7848C7.7666 8.36389 7.06889 8.36389 6.62162 8.7848C6.42795 8.97884 6.31118 9.23648 6.29295 9.50999C6.27224 9.83449 6.39193 10.1523 6.62162 10.3825C6.94956 10.7118 7.33325 10.9803 7.75491 11.1757C7.81441 11.204 7.87391 11.2267 7.93341 11.2522C7.99291 11.2777 8.05523 11.2975 8.11472 11.3202C8.17422 11.3428 8.23654 11.3627 8.29604 11.3797L8.46322 11.425C8.57653 11.4533 8.68989 11.476 8.80603 11.4958C8.94594 11.5166 9.08685 11.5298 9.22819 11.5355H9.42651H9.44351L9.6135 11.5156C9.67582 11.5128 9.741 11.4986 9.81468 11.4986H9.911L10.1065 11.4703L10.1972 11.4533L10.3615 11.4193H10.3927C11.0886 11.2445 11.7241 10.8843 12.2314 10.3768L15.8381 6.77066C17.3874 5.22178 17.3874 2.71054 15.8382 1.16166Z" fill="#43B05C"/>
</svg>
