<svg width="11" height="12" viewBox="0 0 11 12" fill="none" xmlns="http://www.w3.org/2000/svg">
<path d="M9.59416 12.0001H1.40584C0.628647 12.0001 0 11.4446 0 10.758V9.22991C0 8.54323 0.628647 7.98779 1.40584 7.98779H9.59416C10.3714 7.98779 11 8.54323 11 9.22991V10.758C11 11.4446 10.3714 12.0001 9.59416 12.0001Z" fill="#E3E3E3"/>
<path d="M8.72158 8.98388H2.27861C1.66322 8.98388 1.16455 8.54327 1.16455 7.99955V6.07075C1.16455 5.52703 1.66322 5.08643 2.27861 5.08643H8.72158C9.33696 5.08643 9.83564 5.52703 9.83564 6.07075V7.99955C9.83564 8.54327 9.33696 8.98388 8.72158 8.98388Z" fill="#E3E3E3"/>
<path d="M5.94173 7.05509H5.06109C5.04253 7.05509 5.02661 7.04103 5.02661 7.02463V3.67793C5.02661 3.66152 5.04253 3.64746 5.06109 3.64746H5.94173C5.9603 3.64746 5.97621 3.66152 5.97621 3.67793V7.02463C5.97621 7.04103 5.9603 7.05509 5.94173 7.05509Z" fill="#E3E3E3"/>
<path d="M6.94411 2.59498C6.94411 3.30041 6.29689 3.87226 5.49848 3.87226C4.70007 3.87226 4.05286 3.30041 4.05286 2.59498C4.05286 2.06298 4.87779 0.731797 5.28098 0.110736C5.37647 -0.0369121 5.61785 -0.0369121 5.71599 0.110736C6.11917 0.731797 6.94411 2.06298 6.94411 2.59498Z" fill="#E3E3E3"/>
</svg>
