<svg width="22" height="6" viewBox="0 0 22 6" fill="none" xmlns="http://www.w3.org/2000/svg">
<path d="M2.49837 -3.09944e-05C3.87818 -3.09944e-05 4.99673 1.13566 4.99673 2.53661C4.99673 3.93755 3.87818 5.07324 2.49837 5.07324C1.11856 5.07324 0 3.93755 0 2.53661C0 1.13566 1.11856 -3.09944e-05 2.49837 -3.09944e-05Z" fill="#AEAEAE"/>
<path d="M11.0001 -3.09944e-05C12.3799 -3.09944e-05 13.4984 1.13566 13.4984 2.53661C13.4984 3.93755 12.3799 5.07324 11.0001 5.07324C9.62027 5.07324 8.50171 3.93755 8.50171 2.53661C8.50171 1.13566 9.62027 -3.09944e-05 11.0001 -3.09944e-05Z" fill="#AEAEAE"/>
<path d="M19.5015 -3.09944e-05C20.8814 -3.09944e-05 21.9999 1.13566 21.9999 2.53661C21.9999 3.93755 20.8814 5.07324 19.5015 5.07324C18.1217 5.07324 17.0032 3.93755 17.0032 2.53661C17.0032 1.13566 18.1217 -3.09944e-05 19.5015 -3.09944e-05Z" fill="#AEAEAE"/>
</svg>
