<svg width="18" height="13" viewBox="0 0 18 13" fill="none" xmlns="http://www.w3.org/2000/svg">
<g clip-path="url(#clip0)">
<path d="M1.72752 4.00671C1.95622 4.15546 2.6423 4.59203 3.78577 5.32287C4.92924 6.05372 5.80884 6.61317 6.41751 7.0077C6.48436 7.04974 6.6251 7.14352 6.84324 7.28904C7.06138 7.43456 7.24081 7.55098 7.38507 7.64153C7.52932 7.73207 7.70172 7.83232 7.90579 7.94227C8.10985 8.05222 8.30336 8.1363 8.4828 8.19128C8.66224 8.24625 8.83112 8.27535 8.98593 8.27535H8.99648H9.00704C9.16185 8.27535 9.32721 8.24625 9.51016 8.19128C9.6896 8.1363 9.88311 8.05222 10.0872 7.94227C10.2912 7.83232 10.4672 7.73207 10.6079 7.64153C10.7522 7.55098 10.9316 7.43456 11.1497 7.28904C11.3679 7.14352 11.5086 7.04974 11.5754 7.0077C12.1912 6.61317 13.7604 5.61392 16.276 4.00671C16.7651 3.69303 17.1732 3.31467 17.5004 2.87164C17.8276 2.4286 17.993 1.96293 17.993 1.47786C17.993 1.0704 17.8346 0.724376 17.5145 0.433332C17.2048 0.145522 16.8284 0 16.3921 0H1.6079C1.0907 0 0.69312 0.158457 0.415168 0.478606C0.137217 0.798754 0 1.19975 0 1.68159C0 2.06965 0.182955 2.49004 0.552385 2.94278C0.921814 3.39228 1.31235 3.748 1.72752 4.00671Z" fill="#008D96"/>
<path d="M16.9973 4.99614C14.8018 6.36405 13.1341 7.42475 11.9941 8.18147C11.6142 8.44017 11.3045 8.64067 11.0653 8.78619C10.826 8.93172 10.5129 9.07724 10.1153 9.22923C9.72127 9.38122 9.35184 9.4556 9.01056 9.4556H9H8.98945C8.64816 9.4556 8.27873 9.38122 7.88468 9.22923C7.49062 9.07724 7.17396 8.93172 6.93472 8.78619C6.69547 8.64067 6.38585 8.44017 6.00586 8.18147C5.10164 7.57351 3.43745 6.50957 1.01329 4.99614C0.633307 4.76007 0.295543 4.49166 0 4.19092V11.522C0 11.9295 0.158327 12.2755 0.471462 12.5665C0.784597 12.8544 1.16458 12.9999 1.6079 12.9999H16.3956C16.8389 12.9999 17.2154 12.8544 17.5321 12.5665C17.8452 12.2787 18.0035 11.9295 18.0035 11.522V4.19092C17.7115 4.4852 17.3772 4.7536 16.9973 4.99614Z" fill="#008D96"/>
</g>
<defs>
<clipPath id="clip0">
<rect width="18" height="13" fill="white"/>
</clipPath>
</defs>
</svg>
