<svg width="50" height="50" viewBox="0 0 50 50" fill="none" xmlns="http://www.w3.org/2000/svg">
<circle cx="25" cy="25" r="24.5" fill="white" stroke="#F2F2F2"/>
<g clip-path="url(#clip0)">
<path d="M17.7276 22.1608C17.9563 22.3153 18.6424 22.7686 19.7859 23.5276C20.9294 24.2866 21.809 24.8675 22.4176 25.2772C22.4845 25.3209 22.6252 25.4183 22.8434 25.5694C23.0615 25.7205 23.2409 25.8414 23.3852 25.9354C23.5294 26.0295 23.7018 26.1336 23.9059 26.2477C24.11 26.3619 24.3035 26.4492 24.4829 26.5063C24.6624 26.5634 24.8312 26.5936 24.986 26.5936H24.9966H25.0072C25.162 26.5936 25.3273 26.5634 25.5103 26.5063C25.6897 26.4492 25.8832 26.3619 26.0873 26.2477C26.2914 26.1336 26.4673 26.0295 26.608 25.9354C26.7523 25.8414 26.9317 25.7205 27.1498 25.5694C27.368 25.4183 27.5087 25.3209 27.5756 25.2772C28.1913 24.8675 29.7605 23.8298 32.2761 22.1608C32.7652 21.8351 33.1733 21.4422 33.5005 20.9821C33.8277 20.522 33.9931 20.0384 33.9931 19.5347C33.9931 19.1116 33.8348 18.7522 33.5146 18.45C33.205 18.1511 32.8285 18 32.3922 18H17.608C17.0908 18 16.6932 18.1646 16.4153 18.497C16.1373 18.8295 16.0001 19.2459 16.0001 19.7463C16.0001 20.1492 16.1831 20.5858 16.5525 21.056C16.9219 21.5228 17.3125 21.8922 17.7276 22.1608Z" fill="#008D96"/>
<path d="M32.9974 23.1882C30.8019 24.6088 29.1342 25.7103 27.9943 26.4961C27.6143 26.7647 27.3047 26.9729 27.0654 27.1241C26.8262 27.2752 26.513 27.4263 26.1154 27.5841C25.7214 27.742 25.352 27.8192 25.0107 27.8192H25.0001H24.9896C24.6483 27.8192 24.2789 27.742 23.8848 27.5841C23.4907 27.4263 23.1741 27.2752 22.9348 27.1241C22.6956 26.9729 22.386 26.7647 22.006 26.4961C21.1018 25.8647 19.4376 24.7599 17.0134 23.1882C16.6334 22.9431 16.2957 22.6644 16.0001 22.3521V29.9651C16.0001 30.3882 16.1584 30.7476 16.4716 31.0498C16.7847 31.3487 17.1647 31.4998 17.608 31.4998H32.3957C32.8391 31.4998 33.2155 31.3487 33.5322 31.0498C33.8453 30.7509 34.0036 30.3882 34.0036 29.9651V22.3521C33.7116 22.6576 33.3774 22.9364 32.9974 23.1882Z" fill="#008D96"/>
</g>
<defs>
<clipPath id="clip0">
<rect width="18" height="13.5" fill="white" transform="translate(16.0001 18)"/>
</clipPath>
</defs>
</svg>
