<svg width="44" height="44" viewBox="0 0 44 44" fill="none" xmlns="http://www.w3.org/2000/svg">
<mask id="mask0" mask-type="alpha" maskUnits="userSpaceOnUse" x="0" y="0" width="44" height="44">
<circle cx="22" cy="22" r="22" fill="#C4C4C4"/>
</mask>
<g mask="url(#mask0)">
<circle cx="22" cy="22" r="22" fill="#F2F2F2"/>
<path d="M22 33.52C18 33.52 14.464 31.472 12.4 28.4C12.448 25.2 18.8 23.44 22 23.44C25.2 23.44 31.552 25.2 31.6 28.4C29.536 31.472 26 33.52 22 33.52ZM22 10.8C23.273 10.8 24.494 11.306 25.394 12.206C26.294 13.106 26.8 14.327 26.8 15.6C26.8 16.873 26.294 18.094 25.394 18.994C24.494 19.894 23.273 20.4 22 20.4C20.727 20.4 19.506 19.894 18.606 18.994C17.706 18.094 17.2 16.873 17.2 15.6C17.2 14.327 17.706 13.106 18.606 12.206C19.506 11.306 20.727 10.8 22 10.8ZM22 6C19.899 6 17.818 6.41399 15.877 7.21799C13.936 8.02199 12.172 9.201 10.686 10.686C7.686 13.687 6 17.757 6 22C6 26.243 7.686 30.313 10.686 33.314C12.172 34.799 13.936 35.978 15.877 36.782C17.818 37.586 19.899 38 22 38C26.243 38 30.313 36.314 33.314 33.314C36.314 30.313 38 26.243 38 22C38 13.152 30.8 6 22 6Z" fill="#AEAEAE"/>
</g>
</svg>
