<svg width="20" height="18" viewBox="0 0 20 18" fill="none" xmlns="http://www.w3.org/2000/svg">
<path d="M13.3443 4.00408V0.899793C13.3443 0.404907 12.9254 0 12.4133 0H0.930999C0.41895 0 0 0.404907 0 0.899793V1.48466V13.212V13.6169C0 13.9468 0.201717 14.2617 0.496533 14.4117L7.57213 17.9509C7.88246 18.1008 8.25486 17.8909 8.25486 17.546V14.0968H12.4133C12.9254 14.0968 13.3443 13.6919 13.3443 13.197V8.2781H11.4823V11.8473C11.4823 12.1022 11.2806 12.2972 11.0168 12.2972H8.27038V7.67824V4.75391V4.66393C8.27038 4.334 8.06866 4.01908 7.77384 3.86911L3.59986 1.79959H11.0168C11.2806 1.79959 11.4823 1.99454 11.4823 2.24948V4.01908H13.3443V4.00408Z" fill="#6D6363"/>
<path d="M15.7339 2.53447L18.7597 5.4588C19.1476 5.83371 19.1476 6.38858 18.7597 6.7635L15.7339 9.68782C15.346 10.0627 14.7564 10.0777 14.3684 9.70282C13.996 9.3429 14.0426 8.74304 14.3995 8.38312L15.7649 7.07842H10.4738C10.21 7.07842 9.9462 6.97345 9.77551 6.77849C9.34105 6.3286 9.44966 5.53378 10.0083 5.23385C10.1479 5.15887 10.3186 5.11388 10.4738 5.11388H15.7649C15.7649 5.11388 14.415 3.80918 14.3995 3.80918C14.0426 3.46425 13.996 2.8494 14.3684 2.50448C14.7408 2.14456 15.346 2.15955 15.7339 2.53447Z" fill="#6D6363"/>
</svg>
