<svg width="7" height="14" viewBox="0 0 7 14" fill="none" xmlns="http://www.w3.org/2000/svg">
<path d="M1.41217 2.71135C1.41217 3.06416 1.41217 4.63888 1.41217 4.63888H0V6.99587H1.41217V14H4.31306V6.99606H6.25969C6.25969 6.99606 6.442 5.8659 6.53037 4.63019C6.27701 4.63019 4.32403 4.63019 4.32403 4.63019C4.32403 4.63019 4.32403 3.25897 4.32403 3.01862C4.32403 2.77776 4.64031 2.45376 4.95292 2.45376C5.26494 2.45376 5.92348 2.45376 6.53343 2.45376C6.53343 2.13285 6.53343 1.02404 6.53343 8.41947e-09C5.71917 8.41947e-09 4.79281 8.41947e-09 4.38447 8.41947e-09C1.34046 -0.00016274 1.41217 2.35917 1.41217 2.71135Z" fill="#008D96"/>
</svg>
