<svg width="50" height="50" viewBox="0 0 50 50" fill="none" xmlns="http://www.w3.org/2000/svg">
<circle cx="25" cy="25" r="24.5" fill="white" stroke="#F2F2F2"/>
<g clip-path="url(#clip0)">
<path d="M29.8711 16C28.0201 16 26.4043 17.0157 25.5019 18.5333C24.5957 17.0157 22.9799 16 21.1289 16C18.2984 16 16 18.3739 16 21.3015C16 22.8948 16.6826 24.3208 17.7623 25.2926L25.0315 32.8048C25.1549 32.9323 25.3245 33.004 25.4981 33.004C25.6716 33.004 25.8413 32.9323 25.9647 32.8048L33.2377 25.2887C34.3136 24.3168 35 22.8908 35 21.2976C35 18.3739 32.7016 16 29.8711 16ZM21.5801 19.2263C20.0877 19.3817 18.9963 20.7638 19.1467 22.3053C19.1814 22.6518 18.9346 22.9625 18.5991 22.9984C18.5799 23.0023 18.5567 23.0023 18.5374 23.0023C18.2289 23.0023 17.959 22.7594 17.9282 22.4328C17.7083 20.1982 19.2894 18.1907 21.4528 17.9637C21.7883 17.9278 22.0891 18.1828 22.1238 18.5293C22.1624 18.8798 21.9194 19.1905 21.5801 19.2263Z" fill="#F45F5F"/>
</g>
<defs>
<clipPath id="clip0">
<rect width="19" height="17" fill="white" transform="translate(16 16)"/>
</clipPath>
</defs>
</svg>
