<svg width="55" height="70" viewBox="0 0 55 70" fill="none" xmlns="http://www.w3.org/2000/svg">
<path d="M1.55102 53.2463C1.11748 52.2529 0.858455 51.1922 0.785328 50.1108C0.505853 46.1561 6.17959 37.4464 10.4138 42.454C10.7979 42.9276 11.1077 43.4569 11.3327 44.0236C11.5105 44.4129 11.6267 44.8275 11.6772 45.2526C11.8725 47.4424 8.53791 48.8245 10.1037 50.6621C11.7423 52.5764 13.5034 53.5526 14.2844 56.1866C14.4334 56.5549 14.4334 56.9667 14.2844 57.3351C14.0547 57.7715 13.5187 57.9055 13.0133 57.9936C9.18491 58.6789 4.99661 58.2386 2.48133 54.8772C2.11039 54.3706 1.79828 53.8235 1.55102 53.2463Z" fill="#EEECE8"/>
<path d="M47.0861 61.4393C46.6267 60.7884 45.8648 60.6085 45.3748 60.0687C44.7163 59.3413 44.9537 59.4178 45.3748 58.5603C46.0095 57.2983 46.462 55.9525 46.7186 54.5634C47.4843 50.735 46.7798 47.4884 45.2293 43.9395C44.3985 42.0253 42.5188 38.5797 40.6046 37.6187C38.4262 36.5161 37.2126 40.4365 36.7378 41.83C36.029 43.9525 35.4938 46.1291 35.1376 48.3384C35.05 48.7912 35.0064 49.2515 35.0074 49.7128C34.967 50.6501 34.8479 51.5824 34.6513 52.4999C34.6028 52.8214 34.562 53.1456 34.5288 53.4723C33.2113 53.2708 31.8801 53.1709 30.5473 53.1737C28.436 53.1494 26.3309 53.4069 24.2878 53.9394C24.2069 53.2602 24.0919 52.5855 23.9432 51.9179C23.6852 51.016 23.5033 50.0939 23.3996 49.1615C23.3736 48.7002 23.3031 48.2424 23.189 47.7947C22.6842 45.6144 22.0031 43.4788 21.1523 41.4089C20.5857 40.0728 19.1079 36.2405 17.0099 37.4886C15.1493 38.6065 13.526 42.1593 12.8254 44.1156C11.5199 47.7603 11.0337 51.0527 12.0597 54.8161C12.4099 56.1849 12.9526 57.4971 13.6715 58.7134C14.1692 59.5365 14.3989 59.4446 13.7902 60.2142C13.3384 60.7846 12.5919 61.0181 12.1784 61.6996C11.6654 62.5457 11.6616 63.8205 12.4349 64.414C12.8761 64.6958 13.3892 64.8447 13.9127 64.8427C15.7006 64.992 17.5918 64.9499 19.2725 64.2876C21.0642 63.587 22.0941 62.1858 22.9593 60.5702C25.3974 61.4247 27.9679 61.8396 30.5511 61.7953C32.4844 61.8073 34.4122 61.5888 36.2937 61.1445C37.2547 62.6529 38.3687 63.9392 40.1643 64.5058C41.8947 65.0495 43.786 64.9614 45.5624 64.6934C46.0855 64.6601 46.588 64.4767 47.0095 64.1651C47.7484 63.5181 47.6604 62.2471 47.0861 61.4393Z" fill="#CCA172"/>
<path d="M40.3549 66.7684C39.2419 64.9015 38.4195 62.876 37.9162 60.7616C36.7677 55.9301 30.1675 57.9324 26.986 58.61C26.5848 58.6737 26.1967 58.803 25.8375 58.9929C25.3783 59.3125 25.006 59.7414 24.7541 60.2409C24.0458 61.4469 23.5634 62.538 23.0006 63.5487C20.784 67.469 10.8913 69.3411 14.9877 63.0625C19.3253 56.424 15.3706 48.5604 16.9709 41.2864C18.1577 35.8653 20.3475 36.7497 24.9531 36.4396C27.7058 36.2558 30.313 35.291 33.0388 34.8546C36.649 34.2803 42.0701 33.6716 43.3947 37.7872C45.2132 43.4379 44.325 50.333 44.3365 56.1637C44.3365 58.2004 44.3978 60.306 45.263 62.1513C45.7301 63.1467 46.4115 64.0273 46.8709 65.0265C47.3303 66.0257 47.5218 67.2432 46.982 68.2003C45.4506 70.9299 41.4307 68.5678 40.3549 66.7684Z" fill="#E0B885"/>
<path d="M53.0505 29.2117V29.2385C52.9356 29.4567 52.817 29.6749 52.6906 29.8893C49.2182 35.8349 41.5575 40.3256 32.3616 41.053C23.4184 41.7613 15.3442 38.7292 10.8956 33.6641C8.81819 31.4312 7.5559 28.5621 7.31338 25.5219C7.07086 22.4817 7.86234 19.4488 9.55948 16.9147C9.957 16.2839 10.3943 15.6791 10.8688 15.1039C10.8688 15.0771 10.8458 15.0465 10.8688 15.0235C13.7593 11.1951 20.972 8.13231 20.972 8.13231C23.0232 7.358 25.1511 6.80485 27.3196 6.48226C27.9832 6.38272 28.6544 6.3036 29.3333 6.24489L29.5975 6.22192H29.8655L30.7613 6.24872C30.7613 6.24872 35.2444 6.11856 36.6916 6.43632C36.7375 6.39803 38.3608 6.58945 41.0024 7.51976C43.2037 8.30509 45.3315 9.28255 47.3614 10.4409L48.2305 10.9462L49.892 12.3934L50.0796 12.5733C50.5408 13.0168 50.9767 13.4859 51.3851 13.9783L51.768 14.4569L51.7871 14.4837L52.0245 14.8091L52.0551 14.8512L52.2159 15.0809L52.5222 15.548L52.6753 15.793L52.8782 16.1376L53.1232 16.5893C53.1232 16.5893 53.3147 16.9722 53.3836 17.1138C53.4525 17.2555 53.6669 17.757 53.7013 17.8412L53.8966 18.3504L53.9617 18.5418C53.9617 18.5418 54.1071 19.0051 54.1339 19.0855L54.199 19.3113L54.2411 19.4683C54.2718 19.5832 54.467 20.5096 54.4785 20.5747C54.49 20.6398 54.5168 20.8197 54.5359 20.9576V20.9805C54.5359 21.0495 54.5359 21.1145 54.5627 21.1834C54.5627 21.2715 54.5819 21.3596 54.5934 21.4514C54.6048 21.5433 54.3483 25.2799 53.5482 27.8641C53.4226 28.3271 53.256 28.7781 53.0505 29.2117Z" fill="#EEECE8"/>
<path d="M12.974 16.834C12.974 16.834 12.974 16.1717 11.948 13.7253C10.922 11.2789 11.7642 10.0883 12.9013 9.51404C14.0383 8.93977 18.5942 11.8379 18.5942 11.8379C18.0767 13.0291 17.3058 14.0931 16.3352 14.9559C15.3646 15.8188 14.2176 16.4597 12.974 16.834Z" fill="#827872"/>
<path d="M53.5676 27.9098C50.6695 26.7383 45.3556 26.4397 40.4552 22.661L40.4284 22.6419C40.0876 22.3753 39.7605 22.0916 39.4483 21.792C38.1948 20.5482 37.0593 19.191 36.0563 17.7376C35.8011 17.3854 35.5459 17.0243 35.2906 16.6542C33.118 13.3494 31.1441 9.91818 29.3795 6.37867L29.3145 6.25999L29.5786 6.23702H29.8466L30.7425 6.26382C30.7425 6.26382 35.2256 6.13365 36.6727 6.45141C36.7186 6.41313 38.3419 6.60455 40.9835 7.53486C41.9827 6.32125 44.0463 3.97442 44.9881 4.08927C45.3428 4.12747 45.6871 4.2327 46.0026 4.39937C46.8257 4.84347 47.4306 5.80824 47.3311 7.72628C47.2637 8.63748 47.2637 9.55241 47.3311 10.4636L48.2001 10.969L49.8617 12.4161L50.0493 12.5961C50.5104 13.0395 50.9463 13.5086 51.3548 14.0011L51.7376 14.4796L51.7567 14.5064L51.9941 14.8319L52.0247 14.874L52.1855 15.1037L52.4918 15.5707L52.6449 15.8158L52.8478 16.1603L53.0929 16.6121C53.0929 16.6121 53.2843 16.9949 53.3532 17.1366C53.4221 17.2782 53.6365 17.7798 53.6709 17.864L53.8662 18.3732L53.9313 18.5646C53.9313 18.5646 54.0768 19.0278 54.1036 19.1082L54.1686 19.3341L54.2108 19.4911C54.2414 19.6059 54.4366 20.5324 54.4481 20.5975C54.4596 20.6626 54.4864 20.8425 54.5056 20.9803V21.0033C54.5056 21.0722 54.5055 21.1373 54.5323 21.2062C54.5323 21.2943 54.5515 21.3823 54.563 21.4742C54.5745 21.5661 54.3677 25.3294 53.5676 27.9098Z" fill="#E0B885"/>
<path d="M52.9139 25.7851L46.6582 23.7981L53.3273 21.4092C53.3273 21.4092 53.6068 24.4145 52.9139 25.7851Z" fill="#CCA172"/>
<path d="M46.0195 20.8654L52.2216 19.0583C52.2216 19.0583 52.2675 16.8608 51.0003 15.6587L46.0195 20.8654Z" fill="#CCA172"/>
<path d="M45.6963 17.9558C45.815 17.6725 49.3256 13.8364 49.3256 13.8364C49.3256 13.8364 48.6748 12.2285 47.3578 11.6733L45.6963 17.9558Z" fill="#CCA172"/>
<path d="M44.5979 22.9943C44.9578 27.5233 38.8744 29.5371 36.095 26.1298C35.8232 25.7967 35.5973 25.3641 35.1953 25.2301C35.6662 22.3779 36.1141 19.1046 39.7129 18.829C40.3072 18.7813 40.9051 18.8513 41.4724 19.0349C42.0396 19.2185 42.5651 19.5122 43.0188 19.899C43.4725 20.2859 43.8455 20.7584 44.1165 21.2895C44.3874 21.8206 44.551 22.3999 44.5979 22.9943Z" fill="#623A27"/>
<path d="M42.0208 26.0611C43.3229 24.5344 43.206 22.2969 41.7597 21.0634C40.3135 19.8299 38.0855 20.0676 36.7834 21.5943C35.4813 23.121 35.5982 25.3586 37.0445 26.5921C38.4907 27.8255 40.7187 27.5878 42.0208 26.0611Z" fill="url(#paint0_radial)"/>
<path d="M37.8186 20.9659C38.0231 20.9496 38.1757 20.7707 38.1594 20.5663C38.1432 20.3618 37.9643 20.2093 37.7598 20.2255C37.5554 20.2417 37.4028 20.4206 37.419 20.6251C37.4353 20.8295 37.6142 20.9821 37.8186 20.9659Z" fill="#E1E3EA"/>
<path d="M38.7746 23.2441C39.2299 23.208 39.5696 22.8096 39.5335 22.3543C39.4973 21.899 39.099 21.5593 38.6437 21.5954C38.1884 21.6316 37.8486 22.03 37.8848 22.4852C37.9209 22.9405 38.3193 23.2803 38.7746 23.2441Z" fill="#E1E3EA"/>
<path d="M18.2977 25.2874C18.6576 29.8165 24.9822 30.8463 27.1873 27.0447C27.4017 26.6618 27.5702 26.2292 27.9339 26.0148C27.0189 23.2698 26.0618 20.119 22.463 20.4023C21.8686 20.4492 21.2893 20.6128 20.7582 20.8838C20.2271 21.1548 19.7546 21.5277 19.3678 21.9814C18.9809 22.4351 18.6873 22.9607 18.5037 23.5279C18.3201 24.0952 18.2501 24.6931 18.2977 25.2874Z" fill="#623A27"/>
<path d="M22.3421 28.6741C24.2644 28.5215 25.7055 26.9215 25.5609 25.1004C25.4163 23.2793 23.7407 21.9267 21.8185 22.0793C19.8962 22.232 18.4551 23.832 18.5997 25.6531C18.7443 27.4742 20.4198 28.8268 22.3421 28.6741Z" fill="url(#paint1_radial)"/>
<path d="M21.4943 24.6536C21.9496 24.6174 22.2894 24.219 22.2532 23.7637C22.2171 23.3085 21.8187 22.9687 21.3634 23.0049C20.9081 23.041 20.5684 23.4394 20.6045 23.8947C20.6407 24.3499 21.039 24.6897 21.4943 24.6536Z" fill="#E1E3EA"/>
<path d="M20.302 22.5162C20.5065 22.4999 20.6591 22.321 20.6428 22.1166C20.6266 21.9121 20.4477 21.7595 20.2432 21.7758C20.0388 21.792 19.8862 21.9709 19.9024 22.1754C19.9187 22.3798 20.0976 22.5324 20.302 22.5162Z" fill="#E1E3EA"/>
<path d="M41.8252 35.2949C41.8011 35.2306 41.7526 35.1785 41.6902 35.1498C41.6278 35.1211 41.5566 35.1182 41.4922 35.1418C38.6017 36.2137 36.3429 36.2444 34.7847 35.2413C33.2266 34.2383 32.4035 32.3394 32.1852 29.3838C32.1393 28.7483 32.1201 28.3348 32.1125 28.063C32.1306 28.0452 32.1472 28.026 32.1623 28.0056L32.6408 27.2399C32.6874 27.1666 32.7132 27.082 32.7153 26.9951C32.7175 26.9083 32.696 26.8225 32.6531 26.7469C32.6102 26.6714 32.5476 26.6089 32.4719 26.5663C32.3962 26.5236 32.3104 26.5024 32.2235 26.5048L31.2128 26.5393C31.1239 26.5393 31.0368 26.564 30.9612 26.6108C30.8856 26.6575 30.8245 26.7243 30.7848 26.8038C30.745 26.8833 30.7282 26.9723 30.7362 27.0608C30.7442 27.1493 30.7766 27.2339 30.83 27.305L31.3583 28.0209C31.3976 28.0726 31.4471 28.1156 31.5038 28.1472C31.5267 28.4037 31.5497 28.7483 31.5765 29.2C31.7373 32.1594 31.1401 34.177 29.7427 35.3255C28.3453 36.4741 26.0827 36.7727 23.0774 36.0912C23.0126 36.0812 22.9464 36.096 22.8921 36.1327C22.8377 36.1694 22.7992 36.2252 22.7842 36.289C22.7693 36.3528 22.7789 36.4199 22.8112 36.477C22.8436 36.534 22.8962 36.5767 22.9587 36.5966C24.0452 36.8602 25.16 36.9888 26.278 36.9794C27.8514 36.945 29.1225 36.5277 30.0758 35.7275C31.0513 34.8528 31.6984 33.6708 31.9096 32.3776C31.9479 32.1862 31.9823 31.9948 32.0091 31.7881C32.078 32.0599 32.1508 32.3164 32.235 32.5538C32.6095 33.8099 33.4025 34.9001 34.4823 35.6433C35.4405 36.2291 36.5537 36.5108 37.6752 36.4511C39.0393 36.3861 40.3833 36.0963 41.6529 35.5935C41.7131 35.5733 41.7639 35.5318 41.7956 35.4768C41.8273 35.4218 41.8379 35.3571 41.8252 35.2949Z" fill="#BD8376"/>
<path d="M29.513 8.82509C29.4594 7.05636 35.8414 -0.945071 38.9961 0.0924349C42.1507 1.12994 40.872 14.0815 38.3376 14.3648C35.8031 14.6481 29.5819 11.1222 29.513 8.82509Z" fill="#BD8376"/>
<path d="M28.8092 8.85972C28.6905 7.09481 21.562 -0.248129 18.5222 1.08799C15.4824 2.42412 18.0169 15.1958 20.5628 15.2302C23.1087 15.2647 28.9662 11.1529 28.8092 8.85972Z" fill="#BD8376"/>
<path d="M26.3291 8.48814C25.7855 7.30899 26.4899 5.94989 28.8252 5.88098C31.1606 5.81207 31.7731 6.4629 31.8153 7.3511C31.8688 8.43455 30.9347 11.1795 29.166 11.2714C28.0749 11.3212 26.8268 9.56393 26.3291 8.48814Z" fill="#AA766D"/>
<defs>
<radialGradient id="paint0_radial" cx="0" cy="0" r="1" gradientUnits="userSpaceOnUse" gradientTransform="translate(39.3945 23.8626) rotate(22.96) scale(3.5413)">
<stop stop-color="#42210B"/>
<stop offset="0.63"/>
</radialGradient>
<radialGradient id="paint1_radial" cx="0" cy="0" r="1" gradientUnits="userSpaceOnUse" gradientTransform="translate(-17352.8 -3494.39) rotate(22.96) scale(62.0096 58.7459)">
<stop stop-color="#42210B"/>
<stop offset="0.63"/>
</radialGradient>
</defs>
</svg>
