<svg width="14" height="14" viewBox="0 0 14 14" fill="none" xmlns="http://www.w3.org/2000/svg">
<path d="M13.9402 0.387827C13.8275 0.12938 13.6324 0.000139306 13.3541 0H0.645581C0.367617 0 0.172281 0.12938 0.0597464 0.387827C-0.0527189 0.659507 -0.00643216 0.89166 0.198815 1.08383L5.09377 5.98575V10.8181C5.09377 10.9907 5.15668 11.1396 5.28239 11.2657L7.82399 13.811C7.94324 13.9368 8.09211 14 8.27089 14C8.35025 14 8.43295 13.9833 8.51902 13.9502C8.77727 13.8374 8.90642 13.642 8.90642 13.3635V5.98579L13.8012 1.08387C14.0065 0.891695 14.0527 0.659612 13.9402 0.387827Z" fill="#2B2323"/>
</svg>
