<svg width="17" height="17" viewBox="0 0 17 17" fill="none" xmlns="http://www.w3.org/2000/svg">
<path d="M16.3166 0H0.6834C0.306567 0 0 0.306567 0 0.6834V3.96667H17V0.6834C17 0.306567 16.6934 0 16.3166 0Z" fill="#43B05C"/>
<path d="M0.850098 15.7504C0.850098 16.4392 1.41081 16.9999 2.0996 16.9999H14.9006C15.5897 16.9999 16.1501 16.4392 16.1501 15.7504V4.5332H0.850098V15.7504ZM15.5834 13.5999V15.467C15.5834 16.0006 15.1508 16.4332 14.6173 16.4332H12.7501C12.7501 14.8684 14.0186 13.5999 15.5834 13.5999ZM5.9501 7.9332C5.9501 7.77652 6.07675 7.64987 6.23343 7.64987C6.39011 7.64987 6.51676 7.77652 6.51676 7.9332V8.35679C6.51676 8.59195 6.70801 8.7832 6.94318 8.7832H10.057C10.2922 8.7832 10.4834 8.59195 10.4834 8.35679V7.9332C10.4834 7.77652 10.6101 7.64987 10.7668 7.64987C10.9234 7.64987 11.0501 7.77652 11.0501 7.9332V8.35679C11.0501 8.90447 10.6047 9.34987 10.057 9.34987H6.94318C6.3955 9.34987 5.9501 8.90447 5.9501 8.35679V7.9332ZM1.41676 13.5999C2.98161 13.5999 4.2501 14.8684 4.2501 16.4332H2.38293C1.84941 16.4332 1.41676 16.0006 1.41676 15.467V13.5999Z" fill="#43B05C"/>
</svg>
