<svg width="81" height="70" viewBox="0 0 81 70" fill="none" xmlns="http://www.w3.org/2000/svg">
<path d="M0.911098 51.1306C0.419855 50.0055 0.11877 48.7854 0.0395376 47.5493C-0.277393 43.0489 6.188 33.1131 11.0053 38.8179C11.4491 39.3408 11.7818 39.9588 12.0512 40.6085C12.2414 41.0522 12.3998 41.5276 12.4474 42.003C12.6692 44.5068 8.86606 46.0756 10.6567 48.1673C12.5266 50.3542 14.5233 51.4634 15.4265 54.4584C15.5533 54.8863 15.6484 55.3617 15.4424 55.7578C15.173 56.2649 14.555 56.4075 14.0003 56.5026C9.64254 57.2791 4.85689 56.7879 1.98866 52.953C1.56081 52.3984 1.19634 51.7803 0.911098 51.1306Z" fill="#E0B885"/>
<path d="M52.8086 60.4644C52.2857 59.7196 51.4141 59.5136 50.8595 58.8956C50.1147 58.0716 50.3841 58.1508 50.8753 57.1842C51.636 55.7104 52.0797 54.2525 52.4125 52.6362C53.284 48.2784 52.4758 44.5703 50.7169 40.5294C49.7661 38.3585 47.6268 34.4285 45.44 33.3193C42.9521 32.0674 41.5734 36.5361 41.0346 38.1049C40.2106 40.5136 39.6401 43.0173 39.2123 45.5211C39.1172 46.044 39.0538 46.5511 39.0697 47.0899C39.0855 48.1675 38.515 47.2642 38.3566 48.3418C38.309 48.7063 37.1998 48.8489 37.1681 49.2133C35.7577 48.9915 35.5993 51.0357 33.9829 51.0357C31.3207 51.0357 28.8645 51.3685 26.852 51.9231C26.7569 51.1466 26.6301 50.3701 26.4558 49.6253C26.2181 48.5636 25.8853 47.5495 25.8378 46.4877C25.8061 45.949 25.711 45.4577 25.5843 44.9348C24.9821 42.4627 24.2531 39.9907 23.2548 37.6612C22.6051 36.1399 20.9254 31.7663 18.5325 33.1925C16.425 34.4444 14.5551 38.5169 13.7627 40.7354C12.2732 44.8872 11.7185 48.6429 12.8912 52.9373C13.3349 54.5378 13.8737 55.964 14.7294 57.3743C15.2998 58.3093 15.5534 58.2142 14.872 59.0857C14.3649 59.7354 13.5092 60.0048 13.0338 60.7813C12.4475 61.748 12.4475 63.19 13.319 63.8714C13.7944 64.2359 14.4124 64.3151 14.9988 64.3626C17.043 64.5369 19.1981 64.4894 21.1155 63.7288C23.1597 62.9364 24.3324 61.3359 25.3149 59.4977C27.5492 60.3535 30.6076 60.8922 33.9671 60.8922C36.3757 60.8922 38.6101 60.6229 40.5117 60.1475C41.6051 61.8747 42.8728 63.3326 44.917 63.9823C46.8979 64.6003 49.053 64.5053 51.0655 64.2042C51.6518 64.1091 52.2698 63.9982 52.7135 63.602C53.5693 62.8414 53.4583 61.3835 52.8086 60.4644Z" fill="#BFBAB0"/>
<path d="M20.0701 51.2575L14.2861 49.8313C14.2861 49.8313 14.2861 52.6678 15.4905 54.3L20.0701 51.2575Z" fill="#827872"/>
<path d="M19.3095 45.3626C18.8658 44.4911 16.0293 40.5611 16.0293 40.5611C16.0293 40.5611 17.3446 38.2634 17.5506 37.7246L19.3095 45.3626Z" fill="#827872"/>
<path d="M19.7373 49.0707L14.2861 47.7555C14.2861 47.7555 15.0468 43.0649 15.4905 42.5103L19.7373 49.0707Z" fill="#827872"/>
<path d="M76.5137 68.1657C72.9324 70.2575 67.4653 68.2608 62.9966 65.3767C59.5103 63.0948 54.9465 68.2608 54.9465 68.3559C54.6454 68.7521 53.9482 68.8471 53.552 68.451C53.1559 68.0548 53.0608 67.4526 53.4569 67.0565C53.663 66.8505 59.13 60.496 64.09 63.7762C64.9774 64.2675 71.3477 68.34 75.2301 66.5652C74.5329 65.4718 74.0416 64.3784 73.7405 63.3801C73.0433 61.0982 73.4394 59.4026 74.7389 58.8163C76.3235 58.0239 78.1142 58.4201 79.2076 59.6086C79.8098 60.3058 81.0933 62.3976 78.7163 65.9631C78.5103 66.1691 78.3202 66.4543 78.1142 66.6603C78.7163 67.1516 79.3027 67.4526 79.9048 67.3576C80.3961 67.3576 80.9032 67.7537 80.9982 68.245C80.9982 68.7362 80.6021 69.2433 80.1108 69.3384C79.9048 69.3384 79.8098 69.3384 79.6196 69.3384C78.3994 69.3701 77.306 68.863 76.5137 68.1657ZM75.5153 60.4168C75.3093 60.5118 75.1192 61.2091 75.5153 62.6036C75.8164 63.491 76.2126 64.2992 76.7038 65.0915C76.7038 64.9964 76.7989 64.8855 76.9098 64.7904C78.0983 63.0948 78.3043 61.6053 77.6071 60.8129C77.306 60.5118 76.8148 60.3217 76.3077 60.3217C76.0224 60.3217 75.7213 60.4168 75.5153 60.4168Z" fill="#02A6AA"/>
<path d="M58.8133 69.259C52.6173 69.259 47.5781 64.2356 47.5781 58.0238C47.5781 51.8278 52.6015 46.7886 58.8133 46.7886C65.0093 46.7886 70.0485 51.8119 70.0485 58.0238C70.0485 64.2356 65.0252 69.259 58.8133 69.259Z" fill="#027F82"/>
<path d="M54.2489 68.6727C54.344 68.6727 54.4549 68.6727 54.55 68.5777C55.0413 68.3716 55.3423 67.8804 55.1522 67.2782C55.1522 67.1832 55.0571 67.0722 55.0571 66.9771C54.5659 64.9963 54.4549 62.9046 54.962 60.7178C55.2631 59.2282 55.8494 57.7386 56.6576 56.154C57.2598 55.0605 57.8461 53.9671 58.6384 52.8737C60.4291 50.3858 61.7127 48.9913 62.3148 48.405C62.711 48.0088 62.711 47.4067 62.3148 47.0105C61.9187 46.6143 61.3165 46.6143 60.9203 47.0105C60.2231 47.7077 58.7335 49.1973 56.9428 51.7803C56.1505 52.9688 55.4533 54.1731 54.8511 55.2507C53.9637 56.9463 53.3615 58.626 53.0604 60.2265C52.4583 62.8095 52.5692 65.2974 53.2664 67.6744C53.3615 68.0706 53.5675 68.2766 53.7577 68.3716C53.8528 68.5777 54.0429 68.6727 54.2489 68.6727Z" fill="#02A6AA"/>
<path d="M64.6921 67.9756C65.1833 67.9756 65.6904 67.5794 65.6904 67.0882C65.6904 66.486 65.2943 66.0898 64.803 65.9948C62.125 65.7887 60.3343 64.9964 58.6387 63.7129C57.2442 62.7145 55.9607 61.526 54.7563 60.0365C53.964 59.0381 53.2667 57.9447 52.5695 56.7562C51.381 54.6645 50.8739 53.476 50.4778 52.4776C50.2717 51.9864 49.6854 51.6853 49.1783 51.8755C48.6871 52.0815 48.386 52.6678 48.5762 53.1749C48.9723 54.2683 49.4636 55.5677 50.763 57.7387C51.4602 59.0381 52.2526 60.1315 53.1558 61.2091C54.4552 62.9047 55.9448 64.1882 57.4344 65.2817C59.8114 66.9772 61.9031 67.7696 64.6921 67.9756Z" fill="#02A6AA"/>
<path d="M63.6938 54.3632C65.1834 54.3632 66.6729 54.1572 68.2734 53.5709C68.7647 53.3649 69.0658 52.8737 68.8756 52.2715C68.6696 51.7802 68.1784 51.4792 67.5762 51.6693C64.391 52.7627 61.507 52.3666 57.9415 51.3682C55.3585 50.671 53.6629 49.8787 52.2684 49.0863C51.7772 48.7853 51.175 48.9913 50.8739 49.4825C50.5728 49.9737 50.7789 50.5759 51.2701 50.877C52.7597 51.6693 54.5503 52.5726 57.3393 53.3649C59.3201 53.8561 61.4119 54.3632 63.6938 54.3632Z" fill="#02A6AA"/>
<path d="M47.6888 59.6244C48.9882 58.2299 49.8756 57.6436 51.2701 56.9463C52.5696 56.2491 53.9482 55.7578 55.5487 55.4568C62.2043 53.9672 68.1784 55.7578 69.2718 56.154L69.5729 56.2491C69.9691 56.3442 70.2701 56.7403 70.2701 57.2474C70.2701 57.8496 69.7789 58.2458 69.2718 58.2458C69.0658 58.2458 68.9707 58.2458 68.8757 58.1507L68.6697 58.0556C68.0675 57.8496 62.3152 56.0748 55.9449 57.4534C54.5504 57.7545 53.2668 58.2457 52.1734 58.7528C50.7789 59.4501 50.1926 59.8462 49.0992 61.0347C48.8932 61.2407 48.6079 61.3358 48.4019 61.3358C48.1959 61.3358 47.9107 61.2407 47.7047 61.0347C47.3877 60.7178 47.2927 60.1156 47.6888 59.6244Z" fill="#02A6AA"/>
<path d="M50.3997 54.5852C44.4573 44.2691 31.1462 51.9072 27.3589 59.0856C26.6141 60.496 25.9961 61.7162 25.3622 62.8571C22.8267 67.3258 11.5599 69.4651 16.2346 62.3025C21.1787 54.7278 16.6783 45.7745 18.5006 37.4868C19.8476 31.3066 22.3514 32.3208 27.5966 31.9564C30.7342 31.7503 33.7292 30.6411 36.8193 30.1498C40.9394 29.5001 47.1195 28.8029 48.6249 33.4935C50.7008 39.9272 51.0178 42.0664 55.0745 47.3433C57.2771 50.2116 58.5132 52.0973 58.323 54.3C58.1487 56.2333 51.6358 56.7404 50.3997 54.5852Z" fill="#DBD6CC"/>
<path d="M56.1526 26.4575C56.1526 26.4734 56.1367 26.4734 56.1367 26.4892C56.0258 26.7111 55.899 26.9329 55.7723 27.1548C52.2385 33.224 44.4261 37.8037 35.045 38.5326C25.9332 39.2616 17.693 36.1556 13.1609 30.9897C11.0692 28.6127 9.75389 25.7761 9.51619 22.6861C9.27849 19.596 10.1184 16.601 11.8139 13.9071C12.2101 13.2732 12.6538 12.6552 13.145 12.053C13.145 12.0213 13.1292 11.9897 13.145 11.9738C16.0925 8.07555 23.4453 4.96963 23.4453 4.96963C25.4578 4.209 27.6288 3.62268 29.9265 3.2899C30.6079 3.19482 31.2893 3.09974 31.9866 3.0522C32.0817 3.03635 32.1609 3.03635 32.256 3.02051H32.4144H32.5412L33.4603 3.0522C33.4603 3.0522 38.0241 2.92543 39.5137 3.24236C39.5612 3.21067 41.2093 3.40082 43.9032 4.35162C45.678 4.96963 47.8807 5.92043 50.3844 7.33077C50.6697 7.48923 50.9707 7.66355 51.2718 7.83786C51.2877 7.8537 52.9674 9.31159 52.9674 9.31159C53.0308 9.37497 53.0942 9.43836 53.1576 9.50174C53.633 9.96129 54.0767 10.4367 54.4887 10.9438C54.4887 10.9438 54.4887 10.9438 54.5045 10.9596C54.5045 10.9596 54.5045 10.9596 54.5204 10.9755C54.5204 10.9755 54.5204 10.9755 54.5362 10.9913C54.5679 11.023 54.8848 11.435 54.9165 11.4826C54.9165 11.4826 54.9324 11.4984 54.9324 11.5143C54.9641 11.5459 55.1225 11.7678 55.1701 11.847C55.1859 11.8629 55.1859 11.8787 55.2018 11.8946C55.2652 11.9738 55.3127 12.053 55.3602 12.1323C55.4078 12.1957 55.6772 12.6077 55.6772 12.6077C55.7089 12.6552 55.8356 12.8612 55.8356 12.8612C55.8673 12.9088 56.01 13.1465 56.0416 13.2098L56.2952 13.6694C56.2952 13.6694 56.4853 14.0497 56.5646 14.2082C56.6438 14.3666 56.8498 14.8579 56.8815 14.953C56.9132 15.0322 57.04 15.3808 57.0717 15.4759L57.1351 15.6661C57.1351 15.6819 57.2777 16.1414 57.3094 16.2207C57.3252 16.2999 57.3569 16.3791 57.3728 16.4584C57.3886 16.5059 57.4044 16.5693 57.4203 16.6168C57.452 16.7278 57.6421 17.6786 57.658 17.7419C57.6738 17.8687 57.6897 17.9955 57.7214 18.1223C57.7214 18.1381 57.7214 18.1381 57.7214 18.1381C57.7372 18.2015 57.7372 18.2807 57.7531 18.3441C57.7689 18.4392 57.7689 18.5184 57.7848 18.6135C57.8006 18.6927 57.5312 22.5118 56.723 25.1581C56.517 25.6335 56.3427 26.0931 56.1526 26.4575Z" fill="#EEECE8"/>
<path d="M56.6598 25.1422C53.7124 23.922 48.2929 23.6368 43.2854 19.7861C43.2695 19.7861 43.2695 19.7702 43.2537 19.7702C42.9209 19.5167 42.5881 19.2314 42.2553 18.8986C41.1144 17.8052 39.9417 16.379 38.8008 14.7627C38.5472 14.3982 38.2937 14.0338 38.0402 13.6534C35.6949 10.183 33.5239 6.14218 32.0185 3.17887C32.0026 3.13133 31.9709 3.09964 31.9551 3.0521C32.0502 3.03625 32.1294 3.03625 32.2245 3.02041H32.3829H32.5097L33.4288 3.0521C33.4288 3.0521 37.9926 2.92533 39.4822 3.24226C39.5297 3.21057 41.1778 3.40072 43.8717 4.35152C44.87 3.13133 46.9776 0.738504 47.9442 0.84943C48.3087 0.89697 48.6573 0.992049 48.9743 1.16636C49.8141 1.62591 50.4321 2.6084 50.3371 4.55752C50.2578 6.0154 50.3054 6.87112 50.3529 7.34651C50.6382 7.50498 50.9392 7.67929 51.2403 7.8536C51.2562 7.86945 52.9359 9.32733 52.9359 9.32733C52.9993 9.39072 53.0627 9.4541 53.1261 9.51749C53.6015 9.97704 54.0452 10.4524 54.4572 10.9595C54.4572 10.9595 54.4572 10.9595 54.473 10.9754C54.473 10.9754 54.473 10.9754 54.4889 10.9912C54.4889 10.9912 54.4889 10.9912 54.5047 11.0071C54.5364 11.0388 54.8533 11.4508 54.885 11.4983C54.885 11.4983 54.9009 11.5142 54.9009 11.53C54.9326 11.5617 55.091 11.7835 55.1386 11.8628C55.1544 11.8786 55.1544 11.8945 55.1703 11.9103C55.2337 11.9896 55.2812 12.0688 55.3287 12.148C55.3763 12.2114 55.6457 12.6234 55.6457 12.6234C55.6774 12.671 55.8041 12.877 55.8041 12.877C55.8358 12.9245 55.9784 13.1622 56.0101 13.2256L56.2637 13.6851C56.2637 13.6851 56.4538 14.0654 56.5331 14.2239C56.6123 14.3824 56.8183 14.8736 56.85 14.9687C56.8817 15.0479 57.0085 15.3966 57.0402 15.4916L57.1035 15.6818C57.1035 15.6976 57.2462 16.1572 57.2779 16.2364C57.2937 16.3157 57.3254 16.3949 57.3412 16.4741C57.3571 16.5217 57.3729 16.585 57.3888 16.6326C57.4205 16.7435 57.6106 17.6943 57.6265 17.7577C57.6423 17.8845 57.6582 18.0112 57.6899 18.138C57.6899 18.1539 57.6899 18.1539 57.6899 18.1539C57.7057 18.2172 57.7057 18.2965 57.7216 18.3599C57.7374 18.4549 57.7374 18.5342 57.7533 18.6293C57.7374 18.6768 57.4839 22.4958 56.6598 25.1422Z" fill="#E0B885"/>
<path d="M55.7724 23.0347L49.418 21.0222L56.2003 18.5977C56.1844 18.5819 56.4697 21.6403 55.7724 23.0347Z" fill="#CCA172"/>
<path d="M48.752 18.0271L55.0589 16.1889C55.0589 16.1889 55.1064 13.9546 53.8228 12.7344L48.752 18.0271Z" fill="#CCA172"/>
<path d="M48.4355 15.0798C48.5623 14.7945 52.1278 10.8963 52.1278 10.8963C52.1278 10.8963 51.4622 9.26408 50.1311 8.6936L48.4355 15.0798Z" fill="#CCA172"/>
<path d="M15.285 13.8435C15.285 13.8435 15.3009 13.1621 14.2391 10.6742C13.1774 8.18628 14.049 6.9661 15.2058 6.37978C16.3626 5.79346 21.0215 8.75676 21.0215 8.75676C19.9281 11.2288 17.868 13.067 15.285 13.8435Z" fill="#827872"/>
<path d="M47.5159 20.1189C47.8803 24.7302 41.6843 26.7903 38.8478 23.3199C38.5784 22.9871 38.3407 22.5592 37.9287 22.4008C38.4041 19.5009 38.8637 16.1572 42.5401 15.872C45.0913 15.6818 47.3257 17.5834 47.5159 20.1189Z" fill="#623A27"/>
<path d="M45.4874 17.8369C46.9611 19.0888 47.0879 21.3707 45.7568 22.9395C44.4257 24.5083 42.1596 24.7301 40.6859 23.4783C39.2122 22.2264 39.0854 19.9445 40.4165 18.3757C41.7476 16.8069 44.0137 16.5692 45.4874 17.8369Z" fill="url(#paint0_radial)"/>
<path d="M44.1092 17.6298C44.3186 17.6132 44.4749 17.43 44.4583 17.2206C44.4417 17.0112 44.2585 16.8549 44.0491 16.8715C43.8397 16.8881 43.6834 17.0714 43.7 17.2807C43.7166 17.4901 43.8998 17.6464 44.1092 17.6298Z" fill="#E1E3EA"/>
<path d="M45.0804 19.9421C45.5428 19.9054 45.888 19.5008 45.8513 19.0384C45.8146 18.576 45.41 18.2309 44.9476 18.2676C44.4852 18.3043 44.1401 18.7088 44.1768 19.1712C44.2134 19.6337 44.618 19.9788 45.0804 19.9421Z" fill="#E1E3EA"/>
<path d="M20.7038 22.4642C21.0682 27.0756 27.5178 28.1373 29.768 24.2549C29.9898 23.8746 30.1483 23.415 30.5286 23.209C29.5937 20.42 28.627 17.2032 24.9506 17.4884C22.3993 17.6786 20.4977 19.9129 20.7038 22.4642Z" fill="#623A27"/>
<path d="M28.8336 21.7509C28.9762 23.605 27.5183 25.2372 25.5533 25.3956C23.5884 25.5541 21.8928 24.1755 21.7343 22.3214C21.5759 20.4674 23.0496 18.8352 25.0146 18.6767C26.9795 18.5182 28.691 19.8969 28.8336 21.7509Z" fill="url(#paint1_radial)"/>
<path d="M27.015 21.2417C27.4774 21.205 27.8225 20.8004 27.7859 20.338C27.7492 19.8756 27.3446 19.5305 26.8822 19.5671C26.4198 19.6038 26.0747 20.0084 26.1113 20.4708C26.148 20.9332 26.5526 21.2783 27.015 21.2417Z" fill="#E1E3EA"/>
<path d="M25.7889 19.0568C25.9983 19.0402 26.1546 18.857 26.138 18.6476C26.1213 18.4382 25.9381 18.2819 25.7287 18.2985C25.5194 18.3151 25.3631 18.4984 25.3797 18.7078C25.3963 18.9171 25.5795 19.0734 25.7889 19.0568Z" fill="#E1E3EA"/>
<path d="M45.2666 31.3858C45.2032 31.2432 45.0447 31.1798 44.9021 31.2432C41.8596 32.5268 39.4667 32.6694 37.7395 31.6711C36.0597 30.6886 35.0614 28.6919 34.6811 25.5384C34.6018 24.8729 34.5543 24.4292 34.5385 24.1439L34.5543 24.1281L35.1089 23.1773C35.2991 22.8445 35.0455 22.4484 34.6652 22.4801L33.4292 22.5751C33.0489 22.6068 32.8587 23.0505 33.0964 23.3358L33.7937 24.1915C33.8254 24.239 33.8729 24.2707 33.9204 24.3024C33.9521 24.5718 33.9997 24.9363 34.0472 25.3958C34.3641 28.5493 33.8254 30.7203 32.3833 32.0355C30.9254 33.3825 28.5485 33.7628 25.2999 33.1606C25.1414 33.1289 24.9988 33.2399 24.983 33.3825C24.9513 33.5409 25.0622 33.6836 25.2048 33.6994C26.2349 33.8896 27.1698 33.9847 28.0414 33.9847C30.0697 33.9847 31.6544 33.4617 32.7636 32.4475C33.7144 31.576 34.3166 30.3399 34.5543 28.787C34.586 28.581 34.6177 28.375 34.6335 28.1531C34.7128 28.4384 34.8078 28.7077 34.9188 28.9771C35.5051 30.4509 36.3608 31.5126 37.4701 32.1623C38.3099 32.6535 39.2766 32.8912 40.3858 32.8912C41.7645 32.8912 43.3491 32.5109 45.1239 31.7661C45.2666 31.6869 45.33 31.5126 45.2666 31.3858Z" fill="#BD8376"/>
<defs>
<radialGradient id="paint0_radial" cx="0" cy="0" r="1" gradientUnits="userSpaceOnUse" gradientTransform="translate(43.0896 20.6415) rotate(22.9676) scale(3.61042)">
<stop stop-color="#42210B"/>
<stop offset="0.627"/>
</radialGradient>
<radialGradient id="paint1_radial" cx="0" cy="0" r="1" gradientUnits="userSpaceOnUse" gradientTransform="translate(25.2996 22.0213) rotate(22.9676) scale(3.46784)">
<stop stop-color="#42210B"/>
<stop offset="0.627"/>
</radialGradient>
</defs>
</svg>
