<svg width="21" height="14" viewBox="0 0 21 14" fill="none" xmlns="http://www.w3.org/2000/svg">
<path d="M0.929969 0.00415039C0.417143 0.00415039 0 0.421314 0 0.93412C0 1.44695 0.417143 1.86415 0.929969 1.86415C1.44275 1.86415 1.85994 1.44695 1.85994 0.93412C1.85994 0.421335 1.44275 0.00415039 0.929969 0.00415039Z" fill="black"/>
<path d="M4.38716 1.86416H19.6497C20.1646 1.86416 20.5818 1.44674 20.5818 0.932078C20.5818 0.417313 20.1646 0 19.6497 0H4.38716C3.87255 0 3.45508 0.417313 3.45508 0.932078C3.45513 1.44674 3.87255 1.86416 4.38716 1.86416Z" fill="black"/>
<path d="M0.929969 6.0708C0.417143 6.0708 0 6.48796 0 7.00077C0 7.5136 0.417143 7.9308 0.929969 7.9308C1.44275 7.9308 1.85994 7.5136 1.85994 7.00077C1.85994 6.48799 1.44275 6.0708 0.929969 6.0708Z" fill="black"/>
<path d="M19.6497 6.06665H4.38716C3.87255 6.06665 3.45508 6.48402 3.45508 6.99873C3.45508 7.51344 3.87255 7.93086 4.38716 7.93086H19.6497C20.1646 7.93086 20.5818 7.51344 20.5818 6.99873C20.5818 6.48402 20.1646 6.06665 19.6497 6.06665Z" fill="black"/>
<path d="M0.929969 12.1377C0.417143 12.1377 0 12.5549 0 13.0677C0 13.5805 0.417143 13.9977 0.929969 13.9977C1.44275 13.9977 1.85994 13.5805 1.85994 13.0677C1.85994 12.5549 1.44275 12.1377 0.929969 12.1377Z" fill="black"/>
<path d="M19.6497 12.1335H4.38716C3.87255 12.1335 3.45508 12.551 3.45508 13.0657C3.45508 13.5804 3.87255 13.9978 4.38716 13.9978H19.6497C20.1646 13.9978 20.5818 13.5804 20.5818 13.0657C20.5818 12.551 20.1646 12.1335 19.6497 12.1335Z" fill="black"/>
</svg>
