<svg width="14" height="12" viewBox="0 0 14 12" fill="none" xmlns="http://www.w3.org/2000/svg">
<path d="M13.8734 3.61964L11.9807 0.413079C11.8704 0.216358 11.6867 0.0786533 11.4662 0.0196369C11.2457 -0.0197073 11.0252 0.0196369 10.8414 0.13767L7.86459 2.1639C7.4787 2.41964 7.36845 2.97046 7.60733 3.38357C7.71759 3.58029 7.90134 3.718 8.12185 3.77701C8.34235 3.83603 8.56286 3.79669 8.74661 3.65898L10.0696 2.77374L9.61026 4.93767C8.10347 4.97701 6.81719 6.118 6.48643 7.69177C6.08217 9.59996 7.20307 11.4885 8.98549 11.9213C9.22438 11.9803 9.46326 12 9.72051 12C10.3453 12 10.9517 11.8032 11.4846 11.4491C12.238 10.9377 12.7525 10.1508 12.9362 9.24586C13.267 7.65242 12.5503 6.03931 11.2089 5.31144L11.6683 3.14751L12.4952 4.5639C12.6055 4.76062 12.7892 4.89832 13.0097 4.95734C13.2302 5.01636 13.4507 4.97701 13.6345 4.83931C14.002 4.5639 14.1123 4.03275 13.8734 3.61964ZM9.70214 6.66882C9.83077 6.66882 9.94102 6.68849 10.0696 6.70816C10.5107 6.80652 10.8782 7.08193 11.1171 7.49505C11.3559 7.88849 11.4294 8.38029 11.3376 8.83275C11.2457 9.30488 10.9884 9.69832 10.6025 9.95406C10.235 10.2098 9.77564 10.2885 9.353 10.1901C8.45261 9.97373 7.90134 9.0098 8.10347 8.06554C8.25047 7.23931 8.93037 6.66882 9.70214 6.66882Z" fill="#E3E3E3"/>
<path d="M5.31051 8.10492H4.55712V7.6918C6.15579 7.25902 7.29507 5.70492 7.29507 3.91475C7.29507 1.75082 5.65965 0 3.65672 0C1.65379 0 0 1.75082 0 3.91475C0 5.70492 1.13928 7.25902 2.73795 7.6918V8.10492H1.98455C1.48841 8.10492 1.06578 8.53771 1.06578 9.08852C1.06578 9.63934 1.47004 10.0721 1.98455 10.0721H2.73795V11.0164C2.73795 11.5475 3.14221 12 3.65672 12C4.17124 12 4.5755 11.5672 4.5755 11.0164V10.0525H5.32889C5.82503 10.0525 6.24766 9.61967 6.24766 9.06885C6.24766 8.51803 5.82503 8.10492 5.31051 8.10492ZM5.47589 3.91475C5.47589 4.99672 4.66737 5.8623 3.65672 5.8623C2.64607 5.8623 1.83755 4.97705 1.83755 3.91475C1.83755 2.85246 2.64607 1.96721 3.65672 1.96721C4.66737 1.96721 5.47589 2.83279 5.47589 3.91475Z" fill="#E3E3E3"/>
</svg>
