<svg width="17" height="17" viewBox="0 0 17 17" fill="none" xmlns="http://www.w3.org/2000/svg">
<path d="M0.00012207 16.9998H7.72737V9.27246H0.00012207V16.9998ZM1.54545 10.818H6.18187V15.4425H1.54545V10.818Z" fill="#BD7CDC"/>
<path d="M4.63648 12.3633H3.09106V13.9089H4.63648V12.3633Z" fill="#BD7CDC"/>
<path d="M13.9094 15.4546H12.3636V17H13.9094V15.4546Z" fill="#BD7CDC"/>
<path d="M17.0005 15.4546H15.4547V17H17.0005V15.4546Z" fill="#BD7CDC"/>
<path d="M15.4546 10.818H13.9092V9.27246H9.27271V16.9998H10.8183V12.3634H12.3635V13.909H17V9.27246H15.4546V10.818Z" fill="#BD7CDC"/>
<path d="M0 7.72742H7.72725V0H0V7.72742ZM1.54533 1.54533H6.18175V6.18175H1.54533V1.54533Z" fill="#BD7CDC"/>
<path d="M4.63648 3.09131H3.09106V4.63685H4.63648V3.09131Z" fill="#BD7CDC"/>
<path d="M9.27271 0V7.72742H17.0002V0H9.27271ZM15.4546 6.18175H10.8183V1.54533H15.4546V6.18175Z" fill="#BD7CDC"/>
<path d="M13.9094 3.09131H12.3636V4.63685H13.9094V3.09131Z" fill="#BD7CDC"/>
</svg>
