<svg width="20" height="20" viewBox="0 0 20 20" fill="none" xmlns="http://www.w3.org/2000/svg">
<path d="M0.296993 15.3461C0.13 14.9741 0.0322482 14.5742 0.00373722 14.1703C-0.102161 12.6866 2.06467 9.4232 3.68165 11.2948C3.83235 11.4668 3.94232 11.6708 4.03193 11.8827C4.09303 12.0307 4.15005 12.1827 4.16227 12.3426C4.23558 13.1625 2.96481 13.6824 3.56354 14.3703C4.19078 15.0901 4.86282 15.4541 5.16015 16.4419C5.20088 16.5818 5.23346 16.7378 5.16422 16.8698C5.07462 17.0338 4.86282 17.0857 4.67954 17.1177C3.2214 17.3737 1.61664 17.2097 0.655417 15.95C0.512862 15.762 0.394745 15.558 0.296993 15.3461Z" fill="#E0B885"/>
<path d="M16.8985 16.9098C16.8415 16.146 16.7886 15.3781 16.7315 14.6142C16.6867 14.0104 16.7926 13.1385 16.4668 12.6306C15.8843 11.7148 14.3896 10.9629 13.3184 10.9349C12.4345 10.9149 11.5873 11.2949 10.8583 11.7908C10.0966 12.3067 9.24129 13.1585 8.57332 14.1423C8.57332 14.1263 8.56925 14.1103 8.56925 14.0983C8.5611 13.9224 8.52444 13.7584 8.48371 13.5864C8.28414 12.7746 8.03568 11.9627 7.70577 11.1909C7.4899 10.691 6.92376 9.25126 6.12545 9.71917C5.42082 10.1311 4.79358 11.4708 4.52476 12.2027C4.03193 13.5704 3.84864 14.8022 4.23965 16.2139C4.38628 16.7378 4.56956 17.2098 4.85467 17.6737C5.0461 17.9816 5.13164 17.9456 4.89948 18.2376C4.72841 18.4535 4.43923 18.5375 4.28445 18.7935C4.08895 19.1094 4.08895 19.5893 4.38221 19.8133C4.54105 19.9332 4.74878 19.9572 4.94835 19.9732C5.63262 20.0292 6.35354 20.0132 7.00114 19.7653C7.46546 19.5893 7.79538 19.2894 8.06012 18.9254C8.81362 19.6093 10.1536 19.6933 11.0945 19.6653C12.2105 19.6453 13.0781 19.4973 14.0759 19.0174C14.1574 18.9774 14.2429 18.9374 14.3325 18.9334C14.4425 18.9254 14.5484 18.9614 14.6502 18.9934C14.6543 18.9934 14.6624 18.9974 14.6665 18.9974C15.473 19.2374 16.6786 19.1334 17.2814 18.4895C17.7335 18.0096 17.6439 17.0938 16.8985 16.9098Z" fill="#BFBAB0"/>
<path d="M8.81362 17.4295C8.48778 17.4055 8.17416 17.3215 7.92978 17.1136C7.4451 16.7017 7.4451 16.1338 7.33105 15.5579C7.21294 14.946 7.07038 14.3421 6.83822 13.7622C6.49609 12.9064 6.12952 12.0385 6.05621 11.1107C5.9666 10.0349 5.99511 8.41923 7.35549 8.91913C7.8361 9.0951 8.3941 9.0711 8.89916 9.03911C10.0355 8.96312 11.0578 8.39923 12.129 8.08729C12.6667 7.93132 13.1717 7.85134 13.7338 7.84734C13.966 7.84334 14.2022 7.97531 14.4262 7.93532C14.6054 7.90333 14.691 7.70336 14.9231 7.71536C15.139 7.72736 15.3386 7.84734 15.4933 7.99531C15.8273 8.31125 16.0065 8.75117 16.1654 9.18308C16.7234 10.7028 16.9474 12.2985 17.2407 13.8822C17.481 15.1779 18.0675 16.5577 18.1001 17.8614C18.1082 18.2414 18.043 18.6693 17.7376 18.9052C17.4647 19.1132 17.0696 19.1052 16.756 18.9612C16.4423 18.8173 16.202 18.5613 15.9862 18.2934C15.53 17.7255 15.1634 17.0936 14.9028 16.4177C14.304 14.878 11.2248 15.6739 10.4917 16.6977C10.3491 16.8976 10.2392 17.1416 10.0233 17.2695C9.88889 17.3495 9.72597 17.3775 9.56713 17.3975C9.32682 17.4255 9.06615 17.4455 8.81362 17.4295Z" fill="#DBD6CC"/>
<path d="M6.25598 15.4258L4.50867 15.0059C4.50867 15.0059 4.50867 15.8497 4.87116 16.3336L6.25598 15.4258Z" fill="#827872"/>
<path d="M6.02343 13.6782C5.89309 13.4183 5.03369 12.2545 5.03369 12.2545C5.03369 12.2545 5.42877 11.5746 5.49394 11.4106L6.02343 13.6782Z" fill="#827872"/>
<path d="M6.15408 14.7781L4.50452 14.3902C4.50452 14.3902 4.73668 12.9984 4.86701 12.8345L6.15408 14.7781Z" fill="#827872"/>
<path d="M18.092 7.57987C18.092 7.58387 18.0879 7.58387 18.0879 7.58787C18.0513 7.65186 18.0146 7.71985 17.978 7.78384C16.9108 9.5755 14.5607 10.9312 11.7341 11.1512C8.98887 11.3632 6.50841 10.4513 5.13989 8.92362C4.50857 8.21975 4.11349 7.38391 4.04018 6.46809C3.96686 5.55226 4.21939 4.66843 4.73259 3.87258C4.8507 3.68461 4.98918 3.50465 5.13581 3.32468C5.13581 3.31668 5.12767 3.30869 5.13174 3.30069C6.01965 2.14491 8.23536 1.22908 8.23536 1.22908C8.84224 1.00112 9.49799 0.833155 10.1863 0.729175C10.39 0.697181 10.5977 0.673186 10.8054 0.657189C10.8339 0.653189 10.8584 0.653189 10.8869 0.64919H10.9317H10.9683L11.2453 0.657189C11.2453 0.657189 12.622 0.617196 13.0659 0.713178C13.0782 0.70118 13.5791 0.761169 14.3897 1.04112C14.9232 1.22508 15.5871 1.50503 16.3406 1.92095C16.4302 1.96894 16.5158 2.02093 16.6054 2.07292C16.6094 2.07692 17.1145 2.50884 17.1145 2.50884C17.1349 2.52883 17.1512 2.54483 17.1715 2.56483C17.3141 2.7008 17.4485 2.84077 17.5707 2.98875C17.5707 2.98875 17.5707 2.98875 17.5747 2.99275C17.5747 2.99275 17.5747 2.99674 17.5788 2.99674C17.5788 2.99674 17.5788 3.00074 17.5829 3.00074C17.5829 3.00074 17.5829 3.00474 17.587 3.00474C17.5951 3.01674 17.6929 3.13272 17.701 3.14872C17.701 3.14872 17.7051 3.15671 17.7092 3.15671C17.7173 3.16871 17.7662 3.2327 17.7825 3.2527C17.7865 3.2567 17.7865 3.26069 17.7906 3.26469C17.8069 3.28869 17.8232 3.31268 17.8395 3.33268C17.8517 3.35268 17.9332 3.47265 17.9332 3.47265C17.9413 3.48465 17.978 3.54464 17.978 3.54464C17.9861 3.56064 18.0309 3.62862 18.0391 3.64862L18.1124 3.7846C18.1124 3.7846 18.1694 3.89657 18.1938 3.94456C18.2183 3.99256 18.2794 4.14053 18.2916 4.16452C18.2997 4.18852 18.3405 4.2925 18.3527 4.31649L18.3731 4.37248C18.3731 4.37648 18.4179 4.51246 18.426 4.53645C18.4341 4.56045 18.4382 4.58044 18.4464 4.60444C18.4504 4.62044 18.4545 4.63643 18.4586 4.65243C18.4667 4.68842 18.5278 4.96837 18.5319 4.98437C18.536 5.02036 18.5441 5.05635 18.5482 5.09635C18.5482 5.10035 18.5482 5.10035 18.5482 5.10434C18.5523 5.12434 18.5523 5.14434 18.5563 5.16433C18.5604 5.19233 18.5645 5.21632 18.5645 5.24432C18.5686 5.26831 18.4912 6.4001 18.2427 7.17595C18.202 7.33192 18.149 7.4679 18.092 7.57987Z" fill="#EEECE8"/>
<path d="M5.7835 3.84804C5.7835 3.84804 5.78757 3.64807 5.46988 2.91221C5.15218 2.17635 5.41285 1.81642 5.76313 1.64046C6.11341 1.46449 7.51452 2.34432 7.51452 2.34432C7.18461 3.07218 6.56551 3.61608 5.7835 3.84804Z" fill="#827872"/>
<path d="M18.2509 7.18769C17.3589 6.82775 15.7297 6.74377 14.2227 5.60399C14.2186 5.60399 14.2186 5.59999 14.2145 5.59599C14.1168 5.52 14.0149 5.43602 13.9131 5.34004C13.5669 5.0201 13.2166 4.59218 12.8704 4.11627C12.793 4.00829 12.7157 3.90031 12.6383 3.78833C11.9336 2.76452 11.2779 1.57275 10.8258 0.692918C10.8176 0.68092 10.8136 0.668922 10.8054 0.656924C10.8339 0.652925 10.8584 0.652925 10.8869 0.648926H10.9317H10.9683L11.2453 0.656924C11.2453 0.656924 12.622 0.616932 13.0659 0.712914C13.0782 0.700916 13.5791 0.760905 14.3897 1.04085C14.6951 0.676921 15.3305 -0.0309451 15.6197 0.00104886C15.7256 0.0130466 15.8356 0.0410413 15.9292 0.0930314C16.1818 0.229006 16.3691 0.516951 16.3365 1.09684C16.3121 1.52876 16.3243 1.78071 16.3406 1.92068C16.4302 1.96868 16.5158 2.02067 16.6054 2.07266C16.6094 2.07666 17.1145 2.50857 17.1145 2.50857C17.1349 2.52857 17.1511 2.54457 17.1715 2.56456C17.3141 2.70054 17.4485 2.84051 17.5707 2.98848C17.5707 2.98848 17.5707 2.98848 17.5747 2.99248C17.5747 2.99248 17.5747 2.99648 17.5788 2.99648C17.5788 2.99648 17.5788 3.00048 17.5829 3.00048C17.5829 3.00048 17.5829 3.00448 17.587 3.00448C17.5951 3.01648 17.6929 3.13245 17.701 3.14845C17.701 3.14845 17.7051 3.15645 17.7091 3.15645C17.7173 3.16845 17.7662 3.23244 17.7825 3.25243C17.7865 3.25643 17.7865 3.26043 17.7906 3.26443C17.8069 3.28843 17.8232 3.31242 17.8395 3.33242C17.8517 3.35241 17.9332 3.47239 17.9332 3.47239C17.9413 3.48439 17.978 3.54438 17.978 3.54438C17.9861 3.56037 18.0309 3.62836 18.0391 3.64836L18.1124 3.78433C18.1124 3.78433 18.1694 3.89631 18.1938 3.9443C18.2183 3.99229 18.2794 4.14026 18.2916 4.16426C18.2997 4.18825 18.3405 4.29223 18.3527 4.31623L18.373 4.37222C18.373 4.37622 18.4179 4.51219 18.426 4.53619C18.4341 4.56018 18.4382 4.58018 18.4464 4.60418C18.4504 4.62017 18.4545 4.63617 18.4586 4.65217C18.4667 4.68816 18.5278 4.96811 18.5319 4.9841C18.536 5.0201 18.5441 5.05609 18.5482 5.09608C18.5482 5.10008 18.5482 5.10008 18.5482 5.10408C18.5523 5.12408 18.5523 5.14407 18.5563 5.16407C18.5604 5.19206 18.5645 5.21606 18.5645 5.24405C18.5726 5.27605 18.4952 6.40783 18.2509 7.18769Z" fill="#E0B885"/>
<path d="M18.0473 6.54778L16.1249 5.94789L18.1736 5.22803C18.1736 5.22803 18.2591 6.13186 18.0473 6.54778Z" fill="#CCA172"/>
<path d="M15.9293 5.0638L17.8355 4.5199C17.8355 4.5199 17.8477 3.85603 17.4608 3.49609L15.9293 5.0638Z" fill="#CCA172"/>
<path d="M15.8317 4.18421C15.8683 4.10023 16.9477 2.94045 16.9477 2.94045C16.9477 2.94045 16.7481 2.45654 16.3449 2.28857L15.8317 4.18421Z" fill="#CCA172"/>
<path d="M15.4936 5.70402C15.6036 7.07176 13.7341 7.67565 12.8828 6.64785C12.8013 6.54786 12.7321 6.42389 12.6058 6.3759C12.7484 5.51606 12.8869 4.53225 13.9947 4.44426C14.7605 4.38827 15.4325 4.95217 15.4936 5.70402Z" fill="#623A27"/>
<path d="M14.8786 4.94015C15.3225 5.31208 15.3592 5.98795 14.96 6.44786C14.5609 6.90778 13.8766 6.97976 13.4327 6.60783C12.9887 6.2359 12.9521 5.56003 13.3512 5.10012C13.7504 4.64021 14.4346 4.56822 14.8786 4.94015Z" fill="url(#paint0_radial)"/>
<path d="M14.4641 4.96392C14.5269 4.95903 14.5738 4.90509 14.5688 4.84344C14.5638 4.78178 14.5089 4.73577 14.4461 4.74066C14.3833 4.74555 14.3364 4.79949 14.3414 4.86114C14.3464 4.9228 14.4013 4.96881 14.4641 4.96392Z" fill="#E1E3EA"/>
<path d="M14.7563 5.65152C14.8953 5.64069 14.9991 5.52125 14.9881 5.38473C14.977 5.24821 14.8554 5.14632 14.7163 5.15715C14.5773 5.16798 14.4735 5.28743 14.4846 5.42394C14.4956 5.56046 14.6172 5.66235 14.7563 5.65152Z" fill="#E1E3EA"/>
<path d="M7.41669 6.39548C7.52666 7.76322 9.46948 8.07116 10.1456 6.92338C10.2108 6.8114 10.2596 6.67542 10.3737 6.61144C10.0926 5.78359 9.79939 4.83577 8.69561 4.91976C7.92989 4.98375 7.35559 5.64362 7.41669 6.39548Z" fill="#623A27"/>
<path d="M9.84017 6.23978C9.88497 6.78768 9.44101 7.27159 8.85043 7.31558C8.25984 7.35957 7.74665 6.95165 7.70184 6.40375C7.65704 5.85586 8.101 5.37195 8.69158 5.32796C9.28217 5.28396 9.79536 5.69189 9.84017 6.23978Z" fill="url(#paint1_radial)"/>
<path d="M9.31878 6.03531C9.45781 6.02448 9.56158 5.90504 9.55055 5.76852C9.53953 5.63201 9.41788 5.53011 9.27884 5.54094C9.13981 5.55177 9.03604 5.67122 9.04707 5.80773C9.0581 5.94425 9.17974 6.04614 9.31878 6.03531Z" fill="#E1E3EA"/>
<path d="M8.94947 5.39214C9.01226 5.38725 9.05913 5.33331 9.05415 5.27166C9.04917 5.21 8.99423 5.16399 8.93144 5.16888C8.86865 5.17377 8.82179 5.22771 8.82677 5.28937C8.83175 5.35102 8.88668 5.39703 8.94947 5.39214Z" fill="#E1E3EA"/>
<path d="M14.8174 9.03117C14.8011 8.99118 14.7522 8.97118 14.7074 8.98718C13.7951 9.36711 13.0701 9.4071 12.5528 9.11516C12.0477 8.82721 11.7463 8.23132 11.6323 7.3035C11.6038 7.07154 11.5916 6.93557 11.5875 6.85158C11.616 6.83159 11.6404 6.80759 11.6567 6.7796L11.6771 6.74761C11.7708 6.59163 11.6445 6.39967 11.4612 6.41167L11.4205 6.41567C11.2372 6.43166 11.1476 6.63963 11.2617 6.7796L11.2861 6.80759C11.3146 6.84359 11.3553 6.86758 11.3961 6.87958C11.4083 6.96356 11.4246 7.08354 11.4409 7.25951C11.5345 8.19133 11.3716 8.83121 10.9399 9.22313C10.5 9.61906 9.78316 9.73104 8.80971 9.55507C8.76491 9.54707 8.7201 9.57507 8.71196 9.61906C8.70381 9.66305 8.73232 9.70704 8.77713 9.71504C9.08667 9.77103 9.37178 9.79903 9.63246 9.79903C10.2434 9.79903 10.7199 9.64705 11.0539 9.34311C11.339 9.08716 11.5223 8.72323 11.5956 8.25932C11.6038 8.19933 11.6119 8.13534 11.6201 8.07135C11.6445 8.15534 11.673 8.23532 11.7056 8.31531C11.8807 8.75122 12.1373 9.06716 12.4713 9.25913C12.7239 9.4031 13.0171 9.47509 13.347 9.47509C13.7625 9.47509 14.239 9.36311 14.7726 9.14315C14.8133 9.12315 14.8337 9.07516 14.8174 9.03117Z" fill="#BD8376"/>
<path d="M18.6417 11.6709C18.2548 11.047 17.6438 10.6071 16.9188 10.4311C16.1938 10.2591 15.4485 10.3711 14.8131 10.751C14.1777 11.131 13.7297 11.7309 13.5545 12.4427C13.4242 12.9746 13.4568 13.5185 13.6401 14.0184C13.6075 14.0264 13.579 14.0424 13.5423 14.0624L8.51623 17.0658C8.23112 17.2378 8.13744 17.6057 8.31258 17.8897L8.34517 17.9417C8.52031 18.2216 8.89502 18.3136 9.1842 18.1416L14.2103 15.1382C14.2551 15.1102 14.2917 15.0822 14.3162 15.0502C14.6705 15.3902 15.1104 15.6341 15.6032 15.7501C16.0187 15.8501 16.4423 15.8541 16.8455 15.7701C17.1469 15.7061 17.4361 15.5941 17.709 15.4302C18.3444 15.0502 18.7924 14.4503 18.9675 13.7385C19.1427 13.0306 19.0286 12.2947 18.6417 11.6709ZM17.5542 15.1742C16.3853 15.8741 14.8538 15.5061 14.141 14.3544C13.7948 13.7985 13.693 13.1426 13.8478 12.5107C14.0026 11.8788 14.4017 11.3429 14.9679 11.003C15.2122 10.859 15.4688 10.759 15.7336 10.703C16.7396 10.4911 17.8149 10.911 18.381 11.8228C19.0938 12.9746 18.7232 14.4783 17.5542 15.1742Z" fill="#623A27"/>
<path d="M9.10284 17.9621C8.67925 18.074 8.22715 18.0181 7.90538 17.6861C7.64471 17.4142 7.55103 17.0302 7.47364 16.6623C7.42884 16.4584 7.38811 16.2424 7.44106 16.0424C7.53474 15.6945 7.88502 15.4705 8.23529 15.3626C8.81773 15.1866 9.56716 15.2906 10.0722 15.6345C10.6017 15.9984 10.4388 16.8063 10.1089 17.2782C9.88486 17.5981 9.50607 17.8541 9.10284 17.9621Z" fill="#DBD6CC"/>
<defs>
<radialGradient id="paint0_radial" cx="0" cy="0" r="1" gradientUnits="userSpaceOnUse" gradientTransform="translate(14.157 5.77346) rotate(22.5938) scale(1.08432 1.07053)">
<stop stop-color="#42210B"/>
<stop offset="0.627"/>
</radialGradient>
<radialGradient id="paint1_radial" cx="0" cy="0" r="1" gradientUnits="userSpaceOnUse" gradientTransform="translate(8.77376 6.32224) rotate(22.5938) scale(1.04149 1.02825)">
<stop stop-color="#42210B"/>
<stop offset="0.627"/>
</radialGradient>
</defs>
</svg>
