<svg width="19" height="19" viewBox="0 0 19 19" fill="none" xmlns="http://www.w3.org/2000/svg">
<path d="M9.00177 0C4.02832 0 0 4.02832 0 9.00177C0 13.9752 4.02832 18.0035 9.00177 18.0035C13.9752 18.0035 18.0035 13.9752 18.0035 9.00177C18.0035 4.02832 13.9717 0 9.00177 0ZM10.1239 13.5009C10.1239 14.1204 9.62124 14.6265 8.99823 14.6265C8.37522 14.6265 7.87257 14.1239 7.87257 13.5009V7.87611C7.87257 7.25664 8.37522 6.75044 8.99823 6.75044C9.62124 6.75044 10.1239 7.2531 10.1239 7.87611V13.5009ZM9.00177 5.64248C8.3823 5.64248 7.87611 5.13982 7.87611 4.51681C7.87611 3.89381 8.37876 3.39115 9.00177 3.39115C9.62478 3.39115 10.1274 3.89381 10.1274 4.51681C10.1274 5.13982 9.62124 5.64248 9.00177 5.64248Z" fill="#87CA9A"/>
</svg>
