<svg width="20" height="21" viewBox="0 0 20 21" fill="none" xmlns="http://www.w3.org/2000/svg">
<path d="M0.311843 16.1135C0.1365 15.7229 0.0338606 15.303 0.00392408 14.8789C-0.107269 13.321 2.16791 9.89444 3.86574 11.8597C4.02397 12.0402 4.13944 12.2544 4.23353 12.4769C4.29768 12.6323 4.35755 12.7919 4.37038 12.9599C4.44736 13.8207 3.11305 14.3666 3.74171 15.0889C4.40032 15.8447 5.10596 16.2268 5.41816 17.264C5.46092 17.411 5.49514 17.5748 5.42243 17.7134C5.32835 17.8855 5.10596 17.9401 4.91351 17.9737C3.38247 18.2425 1.69748 18.0703 0.688188 16.7475C0.538505 16.5502 0.414482 16.336 0.311843 16.1135Z" fill="#E0B885"/>
<path d="M17.7435 17.7554C17.6836 16.9534 17.628 16.1471 17.5681 15.3451C17.5211 14.711 17.6323 13.7955 17.2901 13.2623C16.6786 12.3006 15.109 11.5112 13.9843 11.4818C13.0563 11.4608 12.1667 11.8597 11.4012 12.3804C10.6015 12.9221 9.70337 13.8165 9.002 14.8495C9.002 14.8328 8.99772 14.816 8.99772 14.8034C8.98917 14.6186 8.95068 14.4464 8.90791 14.2659C8.69836 13.4134 8.43748 12.561 8.09107 11.7505C7.86441 11.2256 7.26996 9.71392 6.43173 10.2052C5.69187 10.6377 5.03327 12.0445 4.75101 12.8129C4.23354 14.2491 4.04109 15.5424 4.45165 17.0247C4.60561 17.5748 4.79805 18.0703 5.09742 18.5574C5.29842 18.8808 5.38823 18.843 5.14446 19.1495C4.96484 19.3763 4.6612 19.4645 4.49869 19.7332C4.29341 20.065 4.29341 20.5689 4.60133 20.804C4.76812 20.93 4.98623 20.9552 5.19578 20.972C5.91426 21.0308 6.67122 21.014 7.35121 20.7536C7.83875 20.5689 8.18516 20.2539 8.46314 19.8718C9.25432 20.5899 10.6613 20.678 11.6492 20.6486C12.821 20.6277 13.732 20.4723 14.7797 19.9684C14.8653 19.9264 14.9551 19.8844 15.0492 19.8802C15.1646 19.8718 15.2758 19.9096 15.3828 19.9432C15.387 19.9432 15.3956 19.9474 15.3999 19.9474C16.2466 20.1993 17.5125 20.0902 18.1455 19.4141C18.6202 18.9102 18.5261 17.9486 17.7435 17.7554Z" fill="#BFBAB0"/>
<path d="M9.2539 18.3012C8.91176 18.276 8.58246 18.1879 8.32586 17.9695C7.81694 17.537 7.81694 16.9407 7.6972 16.336C7.57317 15.6935 7.42349 15.0595 7.17972 14.4506C6.82048 13.5519 6.43559 12.6407 6.35861 11.6665C6.26452 10.5369 6.29446 8.84043 7.72286 9.36533C8.2275 9.5501 8.8134 9.5249 9.34371 9.49131C10.5369 9.41153 11.6103 8.81944 12.7351 8.4919C13.2996 8.32813 13.8299 8.24415 14.4201 8.23995C14.6639 8.23575 14.9119 8.37432 15.1471 8.33233C15.3353 8.29874 15.4251 8.08878 15.6689 8.10137C15.8955 8.11397 16.1051 8.23995 16.2676 8.39532C16.6183 8.72706 16.8065 9.18897 16.9732 9.64248C17.5591 11.2382 17.7944 12.9137 18.1023 14.5765C18.3546 15.9371 18.9704 17.3858 19.0046 18.7548C19.0132 19.1537 18.9448 19.603 18.624 19.8507C18.3375 20.0691 17.9227 20.0607 17.5934 19.9095C17.2641 19.7584 17.0117 19.4896 16.7851 19.2083C16.3061 18.612 15.9212 17.9485 15.6475 17.2388C15.0188 15.6221 11.7857 16.4578 11.0159 17.5328C10.8662 17.7427 10.7507 17.9989 10.5241 18.1333C10.3829 18.2173 10.2119 18.2466 10.0451 18.2676C9.79275 18.297 9.51905 18.318 9.2539 18.3012Z" fill="#DBD6CC"/>
<path d="M6.56906 16.1975L4.73438 15.7566C4.73438 15.7566 4.73438 16.6426 5.115 17.1507L6.56906 16.1975Z" fill="#827872"/>
<path d="M6.32438 14.3624C6.18753 14.0894 5.28516 12.8675 5.28516 12.8675C5.28516 12.8675 5.69999 12.1536 5.76842 11.9814L6.32438 14.3624Z" fill="#827872"/>
<path d="M6.46153 15.5171L4.72949 15.1098C4.72949 15.1098 4.97326 13.6485 5.11011 13.4763L6.46153 15.5171Z" fill="#827872"/>
<path d="M18.997 7.95865C18.997 7.96285 18.9927 7.96285 18.9927 7.96705C18.9542 8.03424 18.9158 8.10562 18.8773 8.17281C17.7568 10.0541 15.2892 11.4776 12.3212 11.7085C9.43871 11.9311 6.83423 10.9737 5.39728 9.36958C4.7344 8.63052 4.31956 7.75289 4.24258 6.79127C4.1656 5.82965 4.43075 4.90163 4.96961 4.06599C5.09363 3.86862 5.23904 3.67966 5.393 3.4907C5.393 3.4823 5.38445 3.4739 5.38872 3.4655C6.32103 2.25193 8.64753 1.29031 8.64753 1.29031C9.28475 1.05096 9.97329 0.874593 10.696 0.765414C10.9099 0.73182 11.128 0.706625 11.3461 0.689828C11.376 0.685629 11.4017 0.685629 11.4316 0.68143H11.4787H11.5172L11.808 0.689828C11.808 0.689828 13.2535 0.647836 13.7196 0.748617C13.7325 0.73602 14.2585 0.799008 15.1095 1.09295C15.6698 1.28612 16.3669 1.58006 17.1581 2.01678C17.2521 2.06717 17.3419 2.12176 17.436 2.17635C17.4403 2.18055 17.9706 2.63406 17.9706 2.63406C17.992 2.65506 18.0091 2.67185 18.0305 2.69285C18.1802 2.83562 18.3213 2.98259 18.4496 3.13796C18.4496 3.13796 18.4496 3.13796 18.4539 3.14216C18.4539 3.14216 18.4539 3.14636 18.4582 3.14636C18.4582 3.14636 18.4582 3.15056 18.4624 3.15056C18.4624 3.15056 18.4624 3.15476 18.4667 3.15476C18.4753 3.16736 18.5779 3.28913 18.5865 3.30593C18.5865 3.30593 18.5907 3.31433 18.595 3.31433C18.6036 3.32693 18.6549 3.39411 18.672 3.41511C18.6763 3.41931 18.6763 3.42351 18.6805 3.42771C18.6976 3.4529 18.7148 3.4781 18.7319 3.49909C18.7447 3.52009 18.8302 3.64607 18.8302 3.64607C18.8388 3.65866 18.8773 3.72165 18.8773 3.72165C18.8858 3.73845 18.9329 3.80984 18.9414 3.83083L19.0184 3.97361C19.0184 3.97361 19.0783 4.09118 19.1039 4.14157C19.1296 4.19196 19.1937 4.34733 19.2066 4.37253C19.2151 4.39772 19.2579 4.5069 19.2707 4.5321L19.2921 4.59089C19.2921 4.59509 19.3391 4.73786 19.3477 4.76306C19.3562 4.78825 19.3605 4.80925 19.3691 4.83444C19.3734 4.85124 19.3776 4.86804 19.3819 4.88483C19.3905 4.92263 19.4546 5.21657 19.4589 5.23337C19.4632 5.27116 19.4717 5.30895 19.476 5.35094C19.476 5.35514 19.476 5.35514 19.476 5.35934C19.4803 5.38034 19.4803 5.40133 19.4845 5.42233C19.4888 5.45172 19.4931 5.47692 19.4931 5.50631C19.4974 5.53151 19.4161 6.71988 19.1552 7.53453C19.1125 7.6983 19.0569 7.84107 18.997 7.95865Z" fill="#EEECE8"/>
<path d="M6.07356 4.04088C6.07356 4.04088 6.07783 3.83092 5.74426 3.05826C5.41068 2.28561 5.68438 1.90768 6.05217 1.72292C6.41996 1.53815 7.89113 2.46198 7.89113 2.46198C7.54472 3.22623 6.89467 3.79732 6.07356 4.04088Z" fill="#827872"/>
<path d="M19.1634 7.54707C18.2268 7.16914 16.5162 7.08096 14.9338 5.88418C14.9295 5.88418 14.9295 5.87999 14.9253 5.87579C14.8226 5.796 14.7157 5.70782 14.6088 5.60704C14.2453 5.2711 13.8775 4.82179 13.514 4.32208C13.4327 4.2087 13.3514 4.09532 13.2702 3.97775C12.5303 2.90275 11.8418 1.65139 11.3671 0.727563C11.3585 0.714966 11.3543 0.702368 11.3457 0.689771C11.3756 0.685571 11.4013 0.685571 11.4312 0.681372H11.4783H11.5168L11.8076 0.689771C11.8076 0.689771 13.2531 0.647779 13.7192 0.748559C13.7321 0.735962 14.2581 0.79895 15.1092 1.09289C15.4299 0.710767 16.0971 -0.0324923 16.4007 0.00110131C16.5119 0.0136989 16.6274 0.0430933 16.7257 0.097683C16.9909 0.240456 17.1876 0.542798 17.1534 1.15168C17.1277 1.6052 17.1406 1.86975 17.1577 2.01672C17.2518 2.06711 17.3416 2.1217 17.4356 2.17629C17.4399 2.18049 17.9702 2.634 17.9702 2.634C17.9916 2.655 18.0087 2.67179 18.0301 2.69279C18.1798 2.83556 18.3209 2.98254 18.4492 3.13791C18.4492 3.13791 18.4492 3.13791 18.4535 3.14211C18.4535 3.14211 18.4535 3.1463 18.4578 3.1463C18.4578 3.1463 18.4578 3.1505 18.462 3.1505C18.462 3.1505 18.462 3.1547 18.4663 3.1547C18.4749 3.1673 18.5775 3.28908 18.5861 3.30587C18.5861 3.30587 18.5903 3.31427 18.5946 3.31427C18.6032 3.32687 18.6545 3.39406 18.6716 3.41505C18.6759 3.41925 18.6759 3.42345 18.6802 3.42765C18.6973 3.45285 18.7144 3.47804 18.7315 3.49904C18.7443 3.52003 18.8298 3.64601 18.8298 3.64601C18.8384 3.65861 18.8769 3.7216 18.8769 3.7216C18.8854 3.73839 18.9325 3.80978 18.941 3.83077L19.018 3.97355C19.018 3.97355 19.0779 4.09113 19.1035 4.14152C19.1292 4.19191 19.1933 4.34728 19.2062 4.37247C19.2147 4.39767 19.2575 4.50685 19.2703 4.53204L19.2917 4.59083C19.2917 4.59503 19.3388 4.7378 19.3473 4.763C19.3559 4.78819 19.3601 4.80919 19.3687 4.83438C19.373 4.85118 19.3772 4.86798 19.3815 4.88477C19.3901 4.92257 19.4542 5.21651 19.4585 5.23331C19.4628 5.2711 19.4713 5.30889 19.4756 5.35089C19.4756 5.35509 19.4756 5.35509 19.4756 5.35928C19.4799 5.38028 19.4799 5.40128 19.4842 5.42227C19.4884 5.45167 19.4927 5.47686 19.4927 5.50626C19.5013 5.53985 19.42 6.72822 19.1634 7.54707Z" fill="#E0B885"/>
<path d="M18.9492 6.87524L16.9307 6.24536L19.0818 5.4895C19.0818 5.4895 19.1716 6.43852 18.9492 6.87524Z" fill="#CCA172"/>
<path d="M16.7256 5.31723L18.7271 4.74614C18.7271 4.74614 18.7399 4.04907 18.3336 3.67114L16.7256 5.31723Z" fill="#CCA172"/>
<path d="M16.623 4.3935C16.6615 4.30532 17.7948 3.08755 17.7948 3.08755C17.7948 3.08755 17.5853 2.57944 17.1619 2.40308L16.623 4.3935Z" fill="#CCA172"/>
<path d="M16.2685 5.98913C16.3839 7.42526 14.421 8.05933 13.5271 6.98014C13.4416 6.87516 13.3689 6.74498 13.2363 6.69459C13.386 5.79177 13.5314 4.75876 14.6947 4.66638C15.4987 4.60759 16.2043 5.19968 16.2685 5.98913Z" fill="#623A27"/>
<path d="M15.6231 5.18716C16.0892 5.57768 16.1277 6.28735 15.7086 6.77026C15.2895 7.25317 14.571 7.32875 14.1049 6.93822C13.6387 6.5477 13.6002 5.83803 14.0194 5.35512C14.4385 4.87222 15.1569 4.79663 15.6231 5.18716Z" fill="url(#paint0_radial)"/>
<path d="M15.1871 5.21219C15.2531 5.20706 15.3023 5.15042 15.297 5.08568C15.2918 5.02095 15.2341 4.97263 15.1682 4.97776C15.1023 4.9829 15.0531 5.03954 15.0583 5.10427C15.0635 5.16901 15.1212 5.21732 15.1871 5.21219Z" fill="#E1E3EA"/>
<path d="M15.4947 5.93405C15.6407 5.92268 15.7497 5.79726 15.7381 5.65392C15.7265 5.51058 15.5988 5.40359 15.4528 5.41496C15.3068 5.42633 15.1979 5.55175 15.2094 5.69509C15.221 5.83843 15.3488 5.94542 15.4947 5.93405Z" fill="#E1E3EA"/>
<path d="M7.78788 6.71562C7.90335 8.15175 9.94331 8.47508 10.6532 7.26991C10.7217 7.15234 10.773 7.00956 10.8927 6.94237C10.5976 6.07314 10.2897 5.07793 9.13075 5.16611C8.32674 5.2333 7.72373 5.92617 7.78788 6.71562Z" fill="#623A27"/>
<path d="M10.3325 6.55189C10.3795 7.12718 9.91338 7.63529 9.29327 7.68148C8.67315 7.72767 8.1343 7.29935 8.08725 6.72406C8.04021 6.14877 8.50636 5.64067 9.12648 5.59448C9.74659 5.54828 10.2854 5.9766 10.3325 6.55189Z" fill="url(#paint1_radial)"/>
<path d="M9.78478 6.33688C9.93076 6.32551 10.0397 6.20009 10.0281 6.05675C10.0166 5.91341 9.88883 5.80642 9.74285 5.81779C9.59686 5.82916 9.4879 5.95458 9.49948 6.09792C9.51106 6.24126 9.63879 6.34825 9.78478 6.33688Z" fill="#E1E3EA"/>
<path d="M9.3971 5.66165C9.46303 5.65652 9.51224 5.59988 9.50701 5.53514C9.50178 5.47041 9.44409 5.42209 9.37816 5.42723C9.31224 5.43236 9.26303 5.489 9.26826 5.55374C9.27349 5.61847 9.33117 5.66679 9.3971 5.66165Z" fill="#E1E3EA"/>
<path d="M15.5586 9.48297C15.5415 9.44098 15.4902 9.41999 15.4432 9.43678C14.4852 9.83571 13.724 9.8777 13.1808 9.57116C12.6505 9.26881 12.334 8.64313 12.2143 7.66892C12.1844 7.42536 12.1715 7.28259 12.1673 7.19441C12.1972 7.17341 12.2228 7.14822 12.24 7.11882L12.2613 7.08523C12.3597 6.92146 12.2271 6.7199 12.0347 6.7325L11.9919 6.7367C11.7995 6.75349 11.7054 6.97185 11.8251 7.11882L11.8508 7.14822C11.8807 7.18601 11.9235 7.21121 11.9662 7.2238C11.9791 7.31199 11.9962 7.43796 12.0133 7.62273C12.1117 8.60114 11.9406 9.27301 11.4873 9.68454C11.0254 10.1003 10.2727 10.2178 9.25058 10.0331C9.20354 10.0247 9.15649 10.0541 9.14794 10.1003C9.13939 10.1464 9.16932 10.1926 9.21637 10.201C9.54139 10.2598 9.84076 10.2892 10.1145 10.2892C10.756 10.2892 11.2563 10.1297 11.607 9.81051C11.9064 9.54176 12.0988 9.15964 12.1758 8.67253C12.1844 8.60954 12.1929 8.54235 12.2015 8.47517C12.2271 8.56335 12.2571 8.64733 12.2913 8.73132C12.4752 9.18903 12.7446 9.52077 13.0953 9.72233C13.3604 9.8735 13.6684 9.94909 14.0148 9.94909C14.451 9.94909 14.9514 9.83151 15.5116 9.60055C15.5544 9.57956 15.5757 9.52917 15.5586 9.48297Z" fill="#BD8376"/>
<path d="M19.5742 12.2544C19.1679 11.5993 18.5264 11.1374 17.7652 10.9526C17.0039 10.772 16.2213 10.8896 15.5542 11.2885C14.887 11.6875 14.4166 12.3173 14.2327 13.0648C14.0958 13.6233 14.13 14.1944 14.3225 14.7193C14.2883 14.7277 14.2583 14.7445 14.2198 14.7655L8.94246 17.9191C8.64309 18.0997 8.54473 18.486 8.72863 18.7841L8.76284 18.8387C8.94674 19.1327 9.34019 19.2292 9.64383 19.0487L14.9212 15.8951C14.9683 15.8657 15.0067 15.8363 15.0324 15.8027C15.4045 16.1596 15.8664 16.4158 16.3838 16.5375C16.82 16.6425 17.2648 16.6467 17.6882 16.5585C18.0047 16.4914 18.3083 16.3738 18.5948 16.2016C19.262 15.8027 19.7324 15.1728 19.9163 14.4253C20.1002 13.6821 19.9805 12.9094 19.5742 12.2544ZM18.4323 15.9329C17.2049 16.6677 15.5969 16.2814 14.8485 15.072C14.485 14.4883 14.3781 13.7997 14.5406 13.1362C14.7031 12.4727 15.1222 11.91 15.7167 11.5531C15.9733 11.4019 16.2427 11.2969 16.5207 11.2382C17.577 11.0156 18.706 11.4565 19.3005 12.4139C20.0489 13.6233 19.6597 15.2022 18.4323 15.9329Z" fill="#623A27"/>
<path d="M9.55828 18.8597C9.11351 18.9773 8.6388 18.9185 8.30094 18.5699C8.02724 18.2844 7.92887 17.8813 7.84762 17.4949C7.80058 17.2808 7.75781 17.054 7.81341 16.8441C7.91177 16.4787 8.27956 16.2436 8.64735 16.1302C9.25891 15.9454 10.0458 16.0546 10.5761 16.4157C11.1321 16.7979 10.961 17.6461 10.6146 18.1416C10.3794 18.4776 9.98166 18.7463 9.55828 18.8597Z" fill="#DBD6CC"/>
<defs>
<radialGradient id="paint0_radial" cx="0" cy="0" r="1" gradientUnits="userSpaceOnUse" gradientTransform="translate(14.8654 6.06214) rotate(22.5938) scale(1.13853 1.12406)">
<stop stop-color="#42210B"/>
<stop offset="0.627"/>
</radialGradient>
<radialGradient id="paint1_radial" cx="0" cy="0" r="1" gradientUnits="userSpaceOnUse" gradientTransform="translate(9.21276 6.63847) rotate(22.5938) scale(1.09357 1.07967)">
<stop stop-color="#42210B"/>
<stop offset="0.627"/>
</radialGradient>
</defs>
</svg>
