<svg width="23" height="22" viewBox="0 0 23 22" fill="none" xmlns="http://www.w3.org/2000/svg">
<path d="M16.4417 0H7.54952C3.93568 0 0.995605 2.94007 0.995605 6.55392V15.4461C0.995605 19.0599 3.93568 22 7.54952 22H16.4417C20.0555 22 22.9956 19.0599 22.9956 15.4461V6.55392C22.9956 2.94007 20.0555 0 16.4417 0ZM20.7824 15.4461C20.7824 17.8434 18.839 19.7868 16.4417 19.7868H7.54952C5.15223 19.7868 3.2088 17.8434 3.2088 15.4461V6.55392C3.2088 4.15659 5.15223 2.2132 7.54952 2.2132H16.4417C18.839 2.2132 20.7824 4.15659 20.7824 6.55392V15.4461Z" fill="url(#paint0_linear)"/>
<path d="M11.9956 5.31006C8.85819 5.31006 6.30566 7.86258 6.30566 11C6.30566 14.1374 8.85819 16.69 11.9956 16.69C15.1331 16.69 17.6856 14.1375 17.6856 11C17.6856 7.86254 15.1331 5.31006 11.9956 5.31006ZM11.9956 14.4768C10.0755 14.4768 8.51886 12.9202 8.51886 11C8.51886 9.07985 10.0755 7.52326 11.9956 7.52326C13.9158 7.52326 15.4724 9.07985 15.4724 11C15.4724 12.9202 13.9158 14.4768 11.9956 14.4768Z" fill="url(#paint1_linear)"/>
<path d="M17.6966 6.71613C18.4496 6.71613 19.06 6.1057 19.06 5.35269C19.06 4.59969 18.4496 3.98926 17.6966 3.98926C16.9436 3.98926 16.3331 4.59969 16.3331 5.35269C16.3331 6.1057 16.9436 6.71613 17.6966 6.71613Z" fill="url(#paint2_linear)"/>
<defs>
<linearGradient id="paint0_linear" x1="11.9956" y1="21.936" x2="11.9956" y2="0.170878" gradientUnits="userSpaceOnUse">
<stop stop-color="#E09B3D"/>
<stop offset="0.3" stop-color="#C74C4D"/>
<stop offset="0.6" stop-color="#C21975"/>
<stop offset="1" stop-color="#7024C4"/>
</linearGradient>
<linearGradient id="paint1_linear" x1="11.9956" y1="21.936" x2="11.9956" y2="0.170921" gradientUnits="userSpaceOnUse">
<stop stop-color="#E09B3D"/>
<stop offset="0.3" stop-color="#C74C4D"/>
<stop offset="0.6" stop-color="#C21975"/>
<stop offset="1" stop-color="#7024C4"/>
</linearGradient>
<linearGradient id="paint2_linear" x1="17.6966" y1="21.9359" x2="17.6966" y2="0.170837" gradientUnits="userSpaceOnUse">
<stop stop-color="#E09B3D"/>
<stop offset="0.3" stop-color="#C74C4D"/>
<stop offset="0.6" stop-color="#C21975"/>
<stop offset="1" stop-color="#7024C4"/>
</linearGradient>
</defs>
</svg>
