<svg width="14" height="14" viewBox="0 0 14 14" fill="none" xmlns="http://www.w3.org/2000/svg">
<path d="M6.96884 13.6355C5.85269 13.6355 4.74221 13.6355 3.62606 13.6355C1.51841 13.6299 0 12.15 0 10.088C0 7.90969 0 5.72579 0 3.54744C0 1.48549 1.51841 0 3.62606 0C5.87535 0 8.11898 0 10.3683 0C12.4759 0 13.9943 1.48549 13.9943 3.54744C13.9943 5.72579 13.9943 7.90969 13.9943 10.088C13.9943 12.15 12.4759 13.6299 10.3683 13.6355C9.23513 13.641 8.10198 13.6355 6.96884 13.6355ZM6.96884 9.65569C8.56657 9.67232 9.89235 8.41963 9.90935 6.86208C9.92635 5.28236 8.64023 4.00196 7.0255 3.98533C5.4221 3.9687 4.10765 5.22139 4.08499 6.77894C4.06799 8.35312 5.34844 9.63352 6.96884 9.65569ZM11.6601 3.13173C11.6657 2.66612 11.2805 2.28367 10.8045 2.27812C10.3173 2.27258 9.91501 2.65504 9.92068 3.13173C9.92635 3.59179 10.3229 3.97979 10.7875 3.97979C11.2635 3.97979 11.6544 3.59733 11.6601 3.13173Z" fill="#008D96"/>
</svg>
