<svg width="50" height="50" viewBox="0 0 50 50" fill="none" xmlns="http://www.w3.org/2000/svg">
<circle cx="25" cy="25" r="24.5" fill="white" stroke="#F2F2F2"/>
<path d="M25.5 23.0063C22.6084 23.0063 20.2705 25.2837 20.2705 28.0875V28.4903C20.2705 30.2332 21.7307 31.6531 23.523 31.6531H27.477C29.2693 31.6531 30.7295 30.2332 30.7295 28.4903V28.0875C30.7295 25.2837 28.3916 23.0063 25.5 23.0063Z" fill="#623A27"/>
<path d="M33.4079 21.2476C31.9764 21.2476 30.8157 22.3802 30.8157 23.7682C30.8157 25.1561 31.9805 26.2888 33.4079 26.2888C34.8352 26.2888 36 25.1561 36 23.7682C36 22.3802 34.8352 21.2476 33.4079 21.2476Z" fill="#623A27"/>
<path d="M28.7074 22.0413C30.1389 22.0413 31.2996 20.9086 31.2996 19.5206C31.2996 18.1327 30.1348 17 28.7074 17C27.2801 17 26.1152 18.1327 26.1152 19.5206C26.1152 20.9126 27.2801 22.0413 28.7074 22.0413Z" fill="#623A27"/>
<path d="M22.2926 22.0413C23.72 22.0413 24.8848 20.9086 24.8848 19.5206C24.8848 18.1327 23.72 17 22.2926 17C20.8653 17 19.7004 18.1327 19.7004 19.5206C19.7004 20.9086 20.8612 22.0413 22.2926 22.0413Z" fill="#623A27"/>
<path d="M17.5922 21.2476C16.1648 21.2476 15 22.3763 15 23.7682C15 25.1601 16.1648 26.2888 17.5922 26.2888C19.0195 26.2888 20.1844 25.1561 20.1844 23.7682C20.1844 22.3802 19.0236 21.2476 17.5922 21.2476Z" fill="#623A27"/>
</svg>
