<svg width="50" height="50" viewBox="0 0 50 50" fill="none" xmlns="http://www.w3.org/2000/svg">
<circle cx="25" cy="25" r="24.5" fill="white" stroke="#F2F2F2"/>
<g clip-path="url(#clip0)">
<path d="M22.8627 25.4808C22.8627 25.2434 22.6637 25.0488 22.4209 25.0488H20.8803C20.6375 25.0488 20.4385 25.2434 20.4385 25.4808V26.987C20.4385 27.2244 20.6375 27.419 20.8803 27.419H22.4209C22.6637 27.419 22.8627 27.2244 22.8627 26.987V25.4808Z" fill="#BD7CDC"/>
<path d="M26.7121 25.4808C26.7121 25.2434 26.5131 25.0488 26.2703 25.0488H24.7297C24.4869 25.0488 24.2878 25.2434 24.2878 25.4808V26.987C24.2878 27.2244 24.4869 27.419 24.7297 27.419H26.2703C26.5131 27.419 26.7121 27.2244 26.7121 26.987V25.4808Z" fill="#BD7CDC"/>
<path d="M30.5575 25.4808C30.5575 25.2434 30.3585 25.0488 30.1156 25.0488H28.5791C28.3362 25.0488 28.1372 25.2434 28.1372 25.4808V26.987C28.1372 27.2244 28.3362 27.419 28.5791 27.419H30.1196C30.3624 27.419 30.5615 27.2244 30.5615 26.987V25.4808H30.5575Z" fill="#BD7CDC"/>
<path d="M22.8627 29.244C22.8627 29.0066 22.6637 28.812 22.4209 28.812H20.8803C20.6375 28.812 20.4385 29.0066 20.4385 29.244V30.7501C20.4385 30.9876 20.6375 31.1821 20.8803 31.1821H22.4209C22.6637 31.1821 22.8627 30.9876 22.8627 30.7501V29.244Z" fill="#BD7CDC"/>
<path d="M26.7121 29.244C26.7121 29.0066 26.5131 28.812 26.2703 28.812H24.7297C24.4869 28.812 24.2878 29.0066 24.2878 29.244V30.7501C24.2878 30.9876 24.4869 31.1821 24.7297 31.1821H26.2703C26.5131 31.1821 26.7121 30.9876 26.7121 30.7501V29.244Z" fill="#BD7CDC"/>
<path d="M30.5575 29.244C30.5575 29.0066 30.3585 28.812 30.1156 28.812H28.5791C28.3362 28.812 28.1372 29.0066 28.1372 29.244V30.7501C28.1372 30.9876 28.3362 31.1821 28.5791 31.1821H30.1196C30.3624 31.1821 30.5615 30.9876 30.5615 30.7501L30.5575 29.244Z" fill="#BD7CDC"/>
<path d="M33.3082 17.1171V19.4133C33.3082 20.4525 32.4443 21.2892 31.3855 21.2892H30.1714C29.1085 21.2892 28.2367 20.4525 28.2367 19.4133V17.1055H22.7632V19.4133C22.7632 20.4525 21.8915 21.2892 20.8286 21.2892H19.6145C18.5516 21.2892 17.6918 20.4525 17.6918 19.4133V17.1171C16.7643 17.1444 16 17.8955 16 18.8179V32.2876C16 33.2294 16.7802 34 17.7436 34H33.2604C34.2197 34 35.0039 33.2255 35.0039 32.2876V18.8179C35 17.8955 34.2396 17.1444 33.3082 17.1171ZM32.7469 31.4469C32.7469 31.8517 32.4085 32.1825 31.9945 32.1825H18.9776C18.5636 32.1825 18.2252 31.8517 18.2252 31.4469V24.4883C18.2252 24.0836 18.5636 23.7527 18.9776 23.7527H31.9945C32.4085 23.7527 32.7469 24.0836 32.7469 24.4883V31.4469Z" fill="#BD7CDC"/>
<path d="M19.6105 20.0555H20.8127C21.1789 20.0555 21.4735 19.7675 21.4735 19.4095V15.646C21.4735 15.288 21.1749 15 20.8127 15H19.6105C19.2443 15 18.9497 15.288 18.9497 15.646V19.4134C18.9497 19.7675 19.2483 20.0555 19.6105 20.0555Z" fill="#BD7CDC"/>
<path d="M30.1554 20.0555H31.3576C31.7199 20.0555 32.0184 19.7675 32.0184 19.4095V15.646C32.0184 15.288 31.7238 15 31.3576 15H30.1554C29.7932 15 29.4946 15.288 29.4946 15.646V19.4134C29.4946 19.7675 29.7932 20.0555 30.1554 20.0555Z" fill="#BD7CDC"/>
</g>
<defs>
<clipPath id="clip0">
<rect width="19" height="19" fill="white" transform="translate(16 15)"/>
</clipPath>
</defs>
</svg>
