<svg width="21" height="14" viewBox="0 0 21 14" fill="none" xmlns="http://www.w3.org/2000/svg">
<path d="M0.929969 0.00439453C0.417143 0.00439453 0 0.421558 0 0.934364C0 1.44719 0.417143 1.86439 0.929969 1.86439C1.44275 1.86439 1.85994 1.44719 1.85994 0.934364C1.85994 0.421579 1.44275 0.00439453 0.929969 0.00439453Z" fill="black"/>
<path d="M4.38716 1.86416H19.6497C20.1646 1.86416 20.5818 1.44674 20.5818 0.932078C20.5818 0.417313 20.1646 0 19.6497 0H4.38716C3.87255 0 3.45508 0.417313 3.45508 0.932078C3.45513 1.44674 3.87255 1.86416 4.38716 1.86416Z" fill="black"/>
<path d="M0.929969 6.0708C0.417143 6.0708 0 6.48796 0 7.00077C0 7.5136 0.417143 7.9308 0.929969 7.9308C1.44275 7.9308 1.85994 7.5136 1.85994 7.00077C1.85994 6.48799 1.44275 6.0708 0.929969 6.0708Z" fill="black"/>
<path d="M19.6497 6.06641H4.38716C3.87255 6.06641 3.45508 6.48377 3.45508 6.99848C3.45508 7.51319 3.87255 7.93061 4.38716 7.93061H19.6497C20.1646 7.93061 20.5818 7.51319 20.5818 6.99848C20.5818 6.48377 20.1646 6.06641 19.6497 6.06641Z" fill="black"/>
<path d="M0.929969 12.1377C0.417143 12.1377 0 12.5549 0 13.0677C0 13.5805 0.417143 13.9977 0.929969 13.9977C1.44275 13.9977 1.85994 13.5805 1.85994 13.0677C1.85994 12.5549 1.44275 12.1377 0.929969 12.1377Z" fill="black"/>
<path d="M19.6497 12.1338H4.38716C3.87255 12.1338 3.45508 12.5512 3.45508 13.0659C3.45508 13.5806 3.87255 13.9981 4.38716 13.9981H19.6497C20.1646 13.9981 20.5818 13.5806 20.5818 13.0659C20.5818 12.5512 20.1646 12.1338 19.6497 12.1338Z" fill="black"/>
</svg>
