<svg width="10" height="12" viewBox="0 0 10 12" fill="none" xmlns="http://www.w3.org/2000/svg">
<path d="M4.62824 0C2.06985 0 0 1.97546 0 4.41718C0 5.05521 0.141418 5.65644 0.398543 6.22086C1.5556 8.63804 3.76687 11.1902 4.42254 11.9141C4.47397 11.9632 4.53825 12 4.61538 12C4.69252 12 4.7568 11.9632 4.80823 11.9141C5.46389 11.1902 7.67516 8.63804 8.83222 6.22086C9.10221 5.65644 9.23077 5.05521 9.23077 4.41718C9.24362 1.97546 7.17377 0 4.62824 0ZM4.62824 6.71166C3.30405 6.71166 2.22413 5.68098 2.22413 4.41718C2.22413 3.15337 3.30405 2.1227 4.62824 2.1227C5.95243 2.1227 7.03235 3.15337 7.03235 4.41718C7.03235 5.68098 5.95243 6.71166 4.62824 6.71166Z" fill="#E3E3E3"/>
</svg>
