<svg width="29" height="28" viewBox="0 0 29 28" fill="none" xmlns="http://www.w3.org/2000/svg">
<path d="M0.801949 24.8987C0.490322 24.4849 0.253966 24.0217 0.103274 23.5293C-0.45211 21.7311 1.29562 17.1114 3.83093 18.9781C4.06281 19.1569 4.26559 19.3691 4.43234 19.6075C4.55825 19.7689 4.65775 19.9484 4.72729 20.1397C5.05362 21.1314 3.62698 22.119 4.56413 22.8006C5.54311 23.517 6.4792 23.7811 7.13081 24.9171C7.22285 25.0778 7.30757 25.263 7.25946 25.4421C7.19775 25.6693 6.94568 25.788 6.72918 25.8801C4.99818 26.5965 2.96387 26.834 1.42009 25.5424C1.18995 25.3512 0.98259 25.1353 0.801949 24.8987Z" fill="#E0B885"/>
<path d="M9.66517 21.9147C9.65407 21.7505 9.62675 21.5877 9.58359 21.4286C9.39955 20.6511 9.1512 19.8895 8.84099 19.1515C8.6318 18.6745 8.09629 17.3093 7.33172 17.7545C6.6592 18.1475 6.06198 19.4176 5.80677 20.1145C5.33088 21.4143 5.15412 22.5881 5.52856 23.9288C5.65603 24.4166 5.85358 24.8842 6.11532 25.3176C6.29626 25.6113 6.38098 25.5776 6.15925 25.8529C5.99504 26.0576 5.72205 26.1394 5.57144 26.382C5.38422 26.6839 5.38317 27.1373 5.66453 27.3502C5.82537 27.4506 6.01238 27.5035 6.20318 27.5026C6.85374 27.5559 7.54405 27.5405 8.16009 27.3051C8.88073 27.0298 9.26354 26.4485 9.60137 25.7966C9.71363 25.5864 9.8074 25.3673 9.88168 25.1416C10.1118 24.4098 10.0281 23.632 9.86494 22.8962C9.79068 22.5666 9.68191 22.2504 9.66517 21.9147Z" fill="#BFBAB0"/>
<path d="M19.4672 16.1055C19.2486 16.5885 18.8993 17.3602 18.5667 17.8371C16.8576 18.2322 15.3881 19.3866 14.3955 20.7549C13.2523 22.331 12.6426 24.1762 12.0485 25.9908C12.0031 26.0901 11.9935 26.2016 12.0213 26.307C12.1259 26.5588 12.5171 26.5117 12.7932 26.4237C13.8199 26.1119 14.9014 26.0116 15.9696 26.1289C16.2523 26.1746 16.5206 26.2827 16.7541 26.4452C16.7655 26.4538 16.7778 26.4613 16.7907 26.4677C17.0564 26.57 17.299 26.7583 17.5657 26.8699C17.8233 26.9854 18.0967 27.0633 18.3773 27.1012C18.9819 27.1739 19.6115 27.1923 20.1973 26.9989C20.5738 26.875 20.852 26.5895 20.7369 26.1699C20.6554 25.8731 20.2705 25.7349 20.6512 25.4944C21.1611 25.1753 21.5683 24.7215 21.8257 24.1854C21.8997 23.9604 21.9505 23.7286 21.9774 23.4936C22.4188 21.0343 20.874 18.7009 19.4672 16.1055Z" fill="#BFBAB0"/>
<path d="M21.0015 17.2494C21.218 17.6383 21.4199 18.0252 21.5966 18.4079C22.0516 19.4027 23.7596 23.5445 21.5391 23.7052C20.7024 23.7871 20.3886 22.8005 19.987 22.2366C19.7655 21.8985 19.5044 21.5869 19.2088 21.3083C18.9096 21.0285 18.5194 20.8604 18.1064 20.8335C17.8114 20.8409 17.5205 20.9038 17.2498 21.0187C16.1181 21.4373 15.1935 22.0421 14.4258 22.9632C13.6581 23.8843 13.3663 25.1012 12.9061 26.1819C12.3727 27.4356 11.3696 28.2656 9.94404 27.9217C9.44199 27.802 8.91381 27.6147 8.62199 27.1777C8.33018 26.7407 8.5038 26.1727 8.83118 25.8022C8.9024 25.7179 8.99215 25.6503 9.09373 25.6046C9.19532 25.5589 9.30614 25.5362 9.41794 25.5382C9.51626 25.5443 9.64072 25.5638 9.69197 25.4809C9.70348 25.4539 9.7094 25.4251 9.7094 25.3959C9.7094 25.3667 9.70348 25.3379 9.69197 25.311L9.34472 24.0378L9.03722 22.912C8.38248 20.5141 7.32191 18.2708 6.3764 15.9742C6.27181 15.7235 6.16722 15.4431 6.26031 15.1882C6.4423 14.6765 6.99245 15.0675 7.3125 15.1381C7.94633 15.2793 8.64187 15.1585 9.2736 15.0357C10.7138 14.7502 12.0798 14.128 13.338 13.3727C14.3013 12.7944 15.1987 12.209 15.8179 11.2613C16.0982 10.8335 16.2091 10.5142 16.6547 10.1959C17.073 9.90119 18.0687 9.82034 18.5624 9.80908C18.6011 9.80908 18.9254 12.9602 18.9965 13.2058C19.3908 14.5742 20.2694 15.9261 21.0015 17.2494Z" fill="#DBD6CC"/>
<path d="M20.7909 24.1755L20.359 24.0957C20.2847 24.0819 20.214 24.054 20.1508 24.0135C20.0875 23.9729 20.0331 23.9206 19.9906 23.8595C19.948 23.7984 19.9182 23.7297 19.9028 23.6573C19.8874 23.5849 19.8867 23.5103 19.9008 23.4376L21.044 17.5386L22.6077 17.8292L21.4645 23.7252C21.4507 23.7981 21.4223 23.8677 21.3809 23.9298C21.3395 23.992 21.286 24.0455 21.2234 24.0874C21.1608 24.1292 21.0904 24.1586 21.0161 24.1737C20.9419 24.1888 20.8654 24.1894 20.7909 24.1755Z" fill="#623A27"/>
<path d="M20.5231 23.1832C20.4061 22.9927 20.3204 22.7855 20.2689 22.5691C19.8756 21.2131 20.8672 20.3913 22.2708 20.8293C22.4934 20.8891 22.697 21.0028 22.8628 21.1599C23.1692 21.4771 23.1975 21.9786 23.0479 22.388C22.6798 23.4124 21.3922 24.4614 20.5231 23.1832Z" fill="#EEECE8"/>
<path d="M7.94397 23.6143L5.83435 23.1118C5.83435 23.1118 5.83435 24.124 6.27154 24.7073L7.94397 23.6143Z" fill="#827872"/>
<path d="M7.66556 21.5125C7.50658 21.2054 6.47217 19.8003 6.47217 19.8003C6.47217 19.8003 6.94911 18.9815 7.0286 18.7881L7.66556 21.5125Z" fill="#827872"/>
<path d="M7.8216 22.8355L5.83435 22.3688C5.83435 22.3688 6.11256 20.6955 6.27154 20.5L7.8216 22.8355Z" fill="#827872"/>
<path d="M20.0474 7.67054C20.0474 7.67054 20.0474 7.6777 20.0474 7.6818C20.039 7.77493 20.0296 7.87011 20.0171 7.96324C19.6761 10.5658 17.6114 13.2851 14.4235 14.9041C11.3244 16.4833 7.96805 16.6194 5.60218 15.5039C4.51024 14.9922 3.62957 14.2082 3.08151 13.1786C2.53345 12.1491 2.3797 10.9946 2.58051 9.82383C2.62723 9.54306 2.69221 9.26549 2.77506 8.99281C2.77506 8.98462 2.75832 8.97643 2.76041 8.9662C3.21434 7.1926 5.33756 5.05056 5.33756 5.05056C5.95552 4.47348 6.63468 3.96262 7.36351 3.52667C7.58594 3.39022 7.81465 3.26263 8.04963 3.14391L8.14063 3.09581L8.19502 3.07534L8.2379 3.05897L8.56423 2.93513C8.56423 2.93513 10.1519 2.21873 10.7199 2.11639C10.7303 2.09694 11.3422 1.92296 12.431 1.85541C13.3381 1.80408 14.2481 1.83079 15.1504 1.93524C15.2773 1.94957 15.4066 1.9656 15.5384 1.98334C15.5468 1.98334 16.3542 2.24329 16.3542 2.24329L16.4484 2.27809C16.6809 2.36547 16.9082 2.46558 17.1293 2.57796L17.3385 2.68951L17.35 2.69565L17.4849 2.77343L17.5016 2.78367L17.5947 2.84098L17.7756 2.95969L17.8677 3.02315L17.9922 3.11321L18.1731 3.2483C18.1731 3.2483 18.2976 3.35064 18.3467 3.39363C18.3959 3.43661 18.5465 3.57785 18.5705 3.59831L18.717 3.74774L18.7693 3.80505L18.9126 3.97391L18.9701 4.04351L19.0088 4.09263C19.037 4.12845 19.2483 4.42422 19.2619 4.44571L19.3372 4.56545V4.57364L19.377 4.64017C19.3947 4.66985 19.4115 4.69952 19.4282 4.7292C19.4449 4.75888 19.9219 6.10981 20.0275 7.13529C20.05 7.3128 20.0566 7.4919 20.0474 7.67054Z" fill="#EEECE8"/>
<path d="M20.0353 7.13817C18.8147 7.15147 16.8672 7.84229 14.5348 7.24051H14.5212C14.3583 7.19766 14.1977 7.14676 14.0401 7.08802C13.4015 6.83707 12.788 6.52872 12.2076 6.16693C12.0643 6.08096 11.919 5.9909 11.7746 5.89879C10.4931 5.06199 9.26376 4.15123 8.09298 3.17136L8.05115 3.13963L8.14214 3.09153L8.19653 3.07106L8.23941 3.05468L8.56574 2.93085C8.56574 2.93085 10.1534 2.21445 10.7214 2.11211C10.7318 2.09266 11.3437 1.91868 12.4325 1.85113C12.6061 1.27699 12.9889 0.146099 13.3446 0.0458031C13.4773 0.00661791 13.6164 -0.00761972 13.7546 0.00384256C14.1164 0.0376157 14.4804 0.286309 14.7367 0.97303C14.8519 1.30197 14.9917 1.62215 15.155 1.93096C15.2819 1.94529 15.4113 1.96132 15.5431 1.97906C15.5514 1.97906 16.3589 2.23901 16.3589 2.23901L16.453 2.27381C16.6856 2.36119 16.9129 2.4613 17.1339 2.57367L17.3431 2.68523L17.3546 2.69137L17.4895 2.76915L17.5063 2.77938L17.5994 2.83669L17.7803 2.95541L17.8723 3.01886L17.9968 3.10893L18.1746 3.24811C18.1746 3.24811 18.2991 3.35046 18.3482 3.39344C18.3974 3.43642 18.548 3.57766 18.5721 3.59813L18.7185 3.74755L18.7708 3.80486L18.9141 3.97372L18.9716 4.04332L19.0103 4.09244C19.0385 4.12826 19.2498 4.42403 19.2634 4.44552L19.3387 4.56527V4.57345L19.3785 4.63998C19.3962 4.66966 19.413 4.69933 19.4297 4.72901C19.4465 4.75869 19.9297 6.11269 20.0353 7.13817Z" fill="#E0B885"/>
<path d="M15.0537 5.09991C15.8706 6.63506 13.9952 8.24696 12.4807 7.46506C12.3322 7.3883 12.1889 7.27675 12.0216 7.28289C11.757 6.21238 11.4223 4.99962 12.669 4.36407C12.875 4.2591 13.1 4.19488 13.3313 4.17505C13.5627 4.15523 13.7957 4.1802 14.0172 4.24853C14.2386 4.31687 14.4441 4.42723 14.622 4.57331C14.7999 4.7194 14.9465 4.89834 15.0537 5.09991Z" fill="#623A27"/>
<path d="M14.8035 6.22872C15.0385 5.49936 14.6565 4.73146 13.9502 4.51357C13.2439 4.29567 12.4809 4.71029 12.2459 5.43964C12.0108 6.169 12.3929 6.93689 13.0991 7.15479C13.8054 7.37269 14.5685 6.95807 14.8035 6.22872Z" fill="url(#paint0_radial)"/>
<path d="M8.12595 10.1078C8.50562 9.91439 8.5362 9.23656 8.19426 8.59382C7.85231 7.95108 7.26732 7.58681 6.88765 7.7802C6.50798 7.97359 6.4774 8.65142 6.81934 9.29416C7.16129 9.9369 7.74627 10.3012 8.12595 10.1078Z" fill="#1A0E14"/>
<path d="M13.4824 4.74323C13.5531 4.70721 13.5806 4.62197 13.5439 4.55284C13.5071 4.48371 13.4199 4.45687 13.3492 4.49289C13.2785 4.52891 13.251 4.61415 13.2878 4.68327C13.3246 4.7524 13.4117 4.77924 13.4824 4.74323Z" fill="#E1E3EA"/>
<path d="M14.1633 5.39815C14.3206 5.31802 14.3818 5.1284 14.3 4.97461C14.2182 4.82082 14.0243 4.76111 13.867 4.84124C13.7097 4.92137 13.6485 5.111 13.7303 5.26478C13.8121 5.41857 14.006 5.47828 14.1633 5.39815Z" fill="#E1E3EA"/>
<path d="M5.97223 9.81853C6.78909 11.3537 9.21458 10.7754 9.42376 9.11236C9.44468 8.94963 9.43318 8.77053 9.53463 8.64056C8.78994 7.81465 7.96575 6.85058 6.72006 7.48613C6.30501 7.6986 5.99313 8.06358 5.85291 8.50091C5.71269 8.93824 5.7556 9.41214 5.97223 9.81853Z" fill="#623A27"/>
<path d="M11.3913 8.1906C11.3981 8.13692 11.3898 8.08243 11.3672 8.03303C11.3447 7.98363 11.3087 7.94121 11.2632 7.91036C11.2177 7.87951 11.1645 7.8614 11.1092 7.85801C11.0539 7.85461 10.9988 7.86605 10.9497 7.89109C10.9009 7.91627 10.86 7.95399 10.8314 8.00019C10.8029 8.0464 10.7878 8.09933 10.7878 8.15329C10.7878 8.20724 10.8029 8.26018 10.8314 8.30638C10.86 8.35259 10.9009 8.39031 10.9497 8.41548C10.993 8.43762 11.0412 8.44919 11.0901 8.44922C11.139 8.44925 11.1872 8.43773 11.2306 8.41565C11.2739 8.39356 11.3112 8.36156 11.3392 8.32238C11.3671 8.28319 11.385 8.23798 11.3913 8.1906Z" fill="#BD8376"/>
<path d="M8.11249 10.1986C8.77858 9.85935 9.05217 9.08357 8.72356 8.4659C8.39495 7.84822 7.58859 7.62255 6.9225 7.96183C6.2564 8.30112 5.98282 9.0769 6.31143 9.69457C6.64004 10.3122 7.4464 10.5379 8.11249 10.1986Z" fill="url(#paint1_radial)"/>
<path d="M8.00641 8.4797C8.16372 8.39957 8.22492 8.20994 8.1431 8.05615C8.06129 7.90237 7.86744 7.84265 7.71013 7.92278C7.55282 8.00291 7.49162 8.19254 7.57343 8.34633C7.65525 8.50012 7.8491 8.55983 8.00641 8.4797Z" fill="#E1E3EA"/>
<path d="M7.25328 7.9068C7.324 7.87078 7.35151 7.78554 7.31473 7.71641C7.27795 7.64728 7.19081 7.62044 7.1201 7.65646C7.04939 7.69248 7.02188 7.77772 7.05866 7.84685C7.09543 7.91598 7.18257 7.94282 7.25328 7.9068Z" fill="#E1E3EA"/>
<path d="M11.0445 8.21889C11.0445 8.21889 10.9462 7.89241 11.4681 8.82578C11.99 9.75915 13.0976 12.1366 9.48083 12.9195" stroke="#BD8376" stroke-width="0.506802" stroke-linecap="round" stroke-linejoin="round"/>
<path d="M11.2231 8.21569C11.2231 8.21569 10.9899 7.9629 11.5296 8.88706C12.0693 9.81122 13.5566 11.9809 16.1379 9.37933" stroke="#BD8376" stroke-width="0.506802" stroke-linecap="round" stroke-linejoin="round"/>
<path d="M3.37893 8.78367C3.37893 8.78367 3.28166 8.54931 2.54219 7.84621C1.80273 7.14311 1.91987 6.59456 2.23887 6.2251C2.55788 5.85564 4.64449 6.19337 4.64449 6.19337C4.63898 6.68925 4.52287 7.17797 4.30428 7.62538C4.08568 8.07279 3.76988 8.4681 3.37893 8.78367Z" fill="#827872"/>
<path d="M19.3584 6.21613L16.8147 6.44947L18.8438 4.62061C18.8438 4.62061 19.3981 5.63175 19.3584 6.21613Z" fill="#CCA172"/>
<path d="M16.2588 5.78707L18.2084 4.23043C18.2084 4.23043 17.8946 3.4516 17.2535 3.21826L16.2588 5.78707Z" fill="#CCA172"/>
<path d="M15.6995 4.81493C15.6995 4.69826 16.3762 2.82948 16.3762 2.82948C16.3762 2.82948 15.8993 2.36279 15.3418 2.36279L15.6995 4.81493Z" fill="#CCA172"/>
<path d="M26.2462 12.7656L20.0547 11.8774C18.5338 11.6593 17.1202 12.6888 16.8972 14.177L16.5864 16.2518C16.3634 17.74 17.4156 19.1232 18.9364 19.3414L25.128 20.2295C26.6489 20.4477 28.0625 19.4181 28.2854 17.93L28.5963 15.8551C28.8193 14.367 27.7671 12.9837 26.2462 12.7656Z" fill="#E0B885"/>
<path d="M19.7567 16.5158L19.3885 16.4646L19.5977 15.0114L18.8833 14.909L18.6741 16.3623L18.307 16.3111L18.558 14.5713L20.0077 14.776L19.7567 16.5158Z" fill="white"/>
<path d="M21.3389 16.0845C21.3228 16.2563 21.2492 16.4182 21.1297 16.5451C21.0787 16.5971 21.0153 16.6361 20.9453 16.6586C20.8753 16.6811 20.8007 16.6864 20.728 16.674C20.6668 16.6676 20.6078 16.648 20.5552 16.6167C20.5026 16.5854 20.4577 16.5431 20.4237 16.4929L20.3358 17.1069L19.9823 17.0578L20.2406 15.2627L20.5691 15.3077L20.5628 15.4367C20.6103 15.3937 20.6673 15.3621 20.7294 15.3444C20.7914 15.3266 20.8568 15.3232 20.9205 15.3343C20.9945 15.3413 21.0656 15.3659 21.1277 15.4061C21.1897 15.4462 21.2406 15.5007 21.2761 15.5646C21.3547 15.7235 21.3779 15.9033 21.342 16.0763L21.3389 16.0845ZM20.9885 16.0108C21.0087 15.9143 21 15.814 20.9634 15.7222C20.9479 15.6879 20.9234 15.6582 20.8923 15.6363C20.8613 15.6143 20.8248 15.6009 20.7866 15.5974C20.7407 15.5867 20.6925 15.59 20.6485 15.6066C20.6044 15.6232 20.5665 15.6524 20.5398 15.6905L20.4634 16.2216C20.4781 16.2656 20.5058 16.3043 20.5431 16.3327C20.5804 16.3612 20.6255 16.3781 20.6726 16.3813C20.8441 16.4052 20.9494 16.2817 20.9885 16.0108Z" fill="white"/>
<path d="M22.4504 15.565L22.8035 15.6141L22.6176 16.9092L22.2645 16.8601L22.3794 16.0608L21.8215 16.7988L21.4674 16.7497L21.6534 15.4546L22.0085 15.5037L21.8936 16.302L22.4504 15.565Z" fill="white"/>
<path d="M22.9115 16.9489L23.0975 15.6538L23.6501 15.7305C23.7958 15.7417 23.9351 15.7939 24.0512 15.8807C24.0929 15.9156 24.1245 15.9606 24.1428 16.0112C24.1611 16.0618 24.1656 16.1162 24.1557 16.169C24.1475 16.228 24.1178 16.282 24.0721 16.3213C24.0174 16.3666 23.9508 16.396 23.8799 16.4062C23.9616 16.4295 24.0343 16.4762 24.0888 16.5401C24.1122 16.5684 24.1291 16.6013 24.1385 16.6366C24.1479 16.6718 24.1495 16.7086 24.1432 16.7445C24.1383 16.7986 24.1193 16.8507 24.088 16.8956C24.0568 16.9405 24.0142 16.9768 23.9645 17.0011C23.8324 17.0549 23.6868 17.0685 23.5467 17.0399L22.9115 16.9489ZM23.3419 16.4603L23.3043 16.721L23.5895 16.7598C23.7142 16.7769 23.7838 16.7428 23.7984 16.6576C23.813 16.5724 23.7598 16.52 23.6386 16.5002L23.3419 16.4603ZM23.3753 16.2283L23.5947 16.2579C23.7187 16.2736 23.7862 16.2433 23.7974 16.167C23.801 16.1483 23.7995 16.129 23.7931 16.1111C23.7867 16.0931 23.7755 16.0771 23.7608 16.0647C23.716 16.0353 23.6642 16.0177 23.6104 16.0136L23.4109 15.986L23.3753 16.2283Z" fill="white"/>
<path d="M24.9126 17.2492C24.8251 17.2407 24.7402 17.215 24.6631 17.1737C24.5859 17.1325 24.518 17.0764 24.4634 17.009C24.4105 16.9395 24.3729 16.86 24.3529 16.7755C24.333 16.6911 24.3311 16.6035 24.3474 16.5183V16.4846C24.3627 16.3637 24.4064 16.2479 24.4749 16.1462C24.5369 16.0554 24.6248 15.9843 24.7277 15.9418C24.8333 15.8989 24.949 15.8855 25.062 15.903C25.1419 15.9098 25.2194 15.9335 25.289 15.9725C25.3586 16.0115 25.4188 16.0649 25.4652 16.1289C25.5577 16.2776 25.589 16.4552 25.553 16.6257L25.5331 16.7667L24.6901 16.6502C24.6869 16.7292 24.7133 16.8066 24.7643 16.8679C24.8178 16.9271 24.8927 16.9637 24.9732 16.9701C25.034 16.981 25.0966 16.9774 25.1557 16.9596C25.2148 16.9418 25.2686 16.9104 25.3127 16.8679L25.459 17.0816C25.3932 17.149 25.3103 17.1981 25.2187 17.2237C25.1198 17.2538 25.0153 17.2625 24.9126 17.2492ZM25.0254 16.18C24.9937 16.1744 24.9611 16.1757 24.9299 16.1836C24.8987 16.1916 24.8697 16.206 24.8447 16.226C24.7884 16.276 24.749 16.3416 24.7319 16.4141L25.2239 16.4815V16.4539C25.2361 16.3892 25.2226 16.3223 25.1863 16.2669C25.167 16.2423 25.1428 16.222 25.1151 16.207C25.0874 16.1921 25.0569 16.1829 25.0254 16.18Z" fill="white"/>
<path d="M26.8935 16.4593L26.4693 16.401L26.3231 17.4171L25.9679 17.368L26.1142 16.3519L25.6963 16.2947L25.736 16.0156L26.9321 16.1802L26.8935 16.4593Z" fill="white"/>
<path d="M15.0957 1.97887L13.6544 1.86118L13.6942 0.0517578C14.0561 0.085531 14.42 0.334224 14.6763 1.02095C14.7918 1.34991 14.932 1.67009 15.0957 1.97887Z" fill="#EEECE8"/>
<defs>
<radialGradient id="paint0_radial" cx="0" cy="0" r="1" gradientUnits="userSpaceOnUse" gradientTransform="translate(13.5249 5.83361) scale(1.37957 1.3499)">
<stop stop-color="#42210B"/>
<stop offset="0.63"/>
</radialGradient>
<radialGradient id="paint1_radial" cx="0" cy="0" r="1" gradientUnits="userSpaceOnUse" gradientTransform="translate(408.846 345.453) scale(34.4275 31.9251)">
<stop stop-color="#42210B"/>
<stop offset="0.63"/>
</radialGradient>
</defs>
</svg>
