<svg width="251" height="37" viewBox="0 0 251 37" fill="none" xmlns="http://www.w3.org/2000/svg">
<path d="M65.7083 9.68442C66.9042 10.2509 67.8483 11.0061 68.5406 12.0132C69.2329 13.0202 69.5476 14.216 69.5476 15.6007C69.5476 16.9853 69.2329 18.1812 68.5406 19.1882C67.8483 20.1952 66.9042 21.0134 65.7083 21.5169C64.5125 22.0834 63.0649 22.3351 61.3656 22.3351H58.7851V26.7409H52.7429V8.86621H61.3656C63.002 8.86621 64.4496 9.11797 65.7083 9.68442ZM62.8132 17.1112C63.1908 16.7336 63.4425 16.2301 63.4425 15.5377C63.4425 14.8454 63.2537 14.3419 62.8132 13.9643C62.4355 13.5866 61.8061 13.3978 60.9879 13.3978H58.7851V17.6147H60.9879C61.8061 17.6777 62.4355 17.4888 62.8132 17.1112Z" fill="#008D96"/>
<path d="M86.1006 21.0765H76.408C76.5968 21.58 76.9745 22.0206 77.415 22.2723C77.9185 22.5241 78.485 22.7129 79.1773 22.7129C79.8067 22.7129 80.3102 22.65 80.7508 22.4612C81.1914 22.3353 81.6319 22.0206 82.1355 21.6429L85.1565 24.664C83.7719 26.1746 81.7578 26.9298 79.0514 26.9298C77.3521 26.9298 75.9045 26.6151 74.5828 25.9857C73.324 25.3563 72.317 24.4752 71.6247 23.4052C70.9323 22.2723 70.5547 21.0765 70.5547 19.6918C70.5547 18.3072 70.8694 17.0484 71.5617 15.9784C72.254 14.9085 73.1981 14.0273 74.394 13.3979C75.5898 12.7686 76.9115 12.4539 78.4221 12.4539C79.8067 12.4539 81.1284 12.7056 82.2613 13.2721C83.4572 13.8385 84.3383 14.6567 85.0307 15.7267C85.723 16.7966 86.0377 18.1184 86.0377 19.6289C86.1635 19.8177 86.1636 20.2583 86.1006 21.0765ZM77.0374 16.9225C76.6598 17.2372 76.408 17.6778 76.2821 18.3072H80.7508C80.6249 17.7407 80.3732 17.3002 79.9955 16.9225C79.6179 16.6078 79.1144 16.419 78.485 16.419C77.9185 16.419 77.478 16.6078 77.0374 16.9225Z" fill="#008D96"/>
<path d="M98.2478 26.2374C97.3667 26.7409 96.1708 26.9927 94.7232 26.9927C92.7721 26.9927 91.2616 26.4892 90.1916 25.5451C89.1217 24.601 88.6181 23.1534 88.6181 21.2652V17.6777H86.73V13.4608H88.6181V9.55859H94.4085V13.4608H97.2408V17.6777H94.4085V21.2023C94.4085 21.6429 94.5344 21.9576 94.7232 22.2093C94.975 22.4611 95.2267 22.587 95.6044 22.587C96.1079 22.587 96.5485 22.4611 96.9261 22.2093L98.2478 26.2374Z" fill="#008D96"/>
<path d="M101.647 26.5522C100.514 26.3004 99.5697 25.9857 98.8145 25.5452L100.388 21.7688C101.017 22.1465 101.773 22.4612 102.654 22.7129C103.535 22.9647 104.416 23.0276 105.234 23.0276C105.927 23.0276 106.367 22.9647 106.619 22.8388C106.871 22.7129 106.997 22.587 106.997 22.3353C106.997 22.0835 106.808 21.9576 106.493 21.8947C106.178 21.8318 105.612 21.7059 104.857 21.6429C103.724 21.5171 102.717 21.3282 101.961 21.1394C101.143 20.9506 100.451 20.51 99.8844 19.8807C99.255 19.2513 99.0033 18.3701 99.0033 17.2372C99.0033 16.3561 99.255 15.5379 99.8215 14.7826C100.388 14.0903 101.206 13.5238 102.276 13.0832C103.346 12.6427 104.668 12.4539 106.178 12.4539C107.248 12.4539 108.255 12.5797 109.262 12.7686C110.269 12.9574 111.15 13.2721 111.843 13.6497L110.269 17.426C109.073 16.7337 107.689 16.419 106.241 16.419C104.982 16.419 104.353 16.6708 104.353 17.1113C104.353 17.3631 104.542 17.489 104.857 17.6149C105.171 17.6778 105.738 17.8037 106.493 17.8666C107.626 17.9925 108.57 18.1813 109.388 18.4331C110.206 18.6848 110.899 19.0624 111.465 19.6918C112.095 20.3212 112.346 21.2024 112.346 22.3353C112.346 23.2164 112.095 23.9717 111.528 24.727C110.962 25.4193 110.143 25.9857 109.074 26.4263C108.004 26.8669 106.682 27.0557 105.108 27.0557C103.975 26.9928 102.843 26.8039 101.647 26.5522Z" fill="#008D96"/>
<path d="M137.899 22.0834L139.599 23.531L136.515 27.0556L134.626 25.4192C132.864 26.5521 130.85 27.1186 128.647 27.1186C127.263 27.1186 125.941 26.8668 124.808 26.4262C123.675 25.9857 122.794 25.3563 122.165 24.601C121.535 23.8457 121.22 22.9646 121.22 21.9576C121.22 20.8247 121.472 19.8806 122.039 19.0624C122.605 18.2442 123.486 17.4889 124.682 16.8595C123.675 15.7895 123.172 14.6566 123.172 13.4608C123.172 12.5167 123.423 11.6985 123.99 10.9432C124.556 10.2509 125.249 9.68446 126.256 9.24389C127.2 8.86626 128.333 8.6145 129.654 8.6145C130.85 8.6145 131.857 8.80332 132.738 9.18095C133.619 9.55859 134.312 10.0621 134.815 10.7544C135.319 11.4468 135.571 12.265 135.571 13.1461C135.571 14.0273 135.319 14.8455 134.815 15.5378C134.312 16.2301 133.556 16.9224 132.487 17.4889L134.375 19.1253C134.689 18.433 134.941 17.6777 135.067 16.7966L139.662 18.1812C139.284 19.5659 138.717 20.9505 137.899 22.0834ZM131.102 22.3981L127.829 19.5659C127.137 20.0694 126.822 20.6358 126.822 21.2652C126.822 21.7058 127.011 22.0834 127.451 22.3352C127.829 22.6499 128.395 22.7758 129.088 22.7758C129.78 22.8387 130.41 22.7128 131.102 22.3981ZM128.71 12.5167C128.521 12.7055 128.395 12.9573 128.395 13.272C128.395 13.5237 128.458 13.7126 128.584 13.9014C128.71 14.0902 128.962 14.3419 129.277 14.7196C130.221 14.2161 130.661 13.7126 130.661 13.209C130.661 12.9573 130.598 12.7055 130.41 12.5167C130.221 12.3279 129.969 12.265 129.591 12.265C129.214 12.265 128.899 12.3279 128.71 12.5167Z" fill="#008D96"/>
<path d="M155.522 13.3978V16.4818H162.949V21.0134H155.522V26.7409H149.48V8.86621H164.019V13.3978H155.522Z" fill="#008D96"/>
<path d="M175.474 12.5166V17.6147C175.033 17.5517 174.593 17.4888 174.215 17.4888C172.264 17.4888 171.257 18.4958 171.257 20.5098V26.7408H165.467V12.7684H170.942V14.2789C172.012 13.0831 173.523 12.5166 175.474 12.5166Z" fill="#008D96"/>
<path d="M177.488 10.8174C176.858 10.2509 176.544 9.55861 176.544 8.74041C176.544 7.85926 176.858 7.16693 177.488 6.66342C178.117 6.09697 178.935 5.84521 180.005 5.84521C181.075 5.84521 181.894 6.09697 182.523 6.66342C183.152 7.16693 183.467 7.85926 183.467 8.67747C183.467 9.55861 183.152 10.3139 182.523 10.8803C181.894 11.4468 181.075 11.7615 180.005 11.7615C178.935 11.6356 178.117 11.3209 177.488 10.8174ZM177.11 12.7685H182.901V26.7409H177.11V12.7685Z" fill="#008D96"/>
<path d="M200.209 21.0765H190.516C190.705 21.58 191.083 22.0206 191.523 22.2723C192.027 22.5241 192.593 22.7129 193.285 22.7129C193.915 22.7129 194.418 22.65 194.859 22.4612C195.3 22.3353 195.74 22.0206 196.244 21.6429L199.265 24.664C197.88 26.1746 195.866 26.9298 193.16 26.9298C191.46 26.9298 190.013 26.6151 188.691 25.9857C187.432 25.3563 186.425 24.4752 185.733 23.4052C185.04 22.2723 184.663 21.0765 184.663 19.6918C184.663 18.3072 184.978 17.0484 185.67 15.9784C186.362 14.9085 187.306 14.0273 188.502 13.3979C189.698 12.7686 191.02 12.4539 192.53 12.4539C193.915 12.4539 195.237 12.7056 196.369 13.2721C197.565 13.8385 198.446 14.6567 199.139 15.7267C199.831 16.7966 200.146 18.1184 200.146 19.6289C200.272 19.8177 200.272 20.2583 200.209 21.0765ZM191.208 16.9225C190.831 17.2372 190.579 17.6778 190.453 18.3072H194.922C194.796 17.7407 194.544 17.3002 194.167 16.9225C193.789 16.6078 193.285 16.419 192.656 16.419C192.09 16.419 191.586 16.6078 191.208 16.9225Z" fill="#008D96"/>
<path d="M215.944 14.0271C217.014 15.0341 217.517 16.6076 217.517 18.7475V26.7407H211.727V19.7545C211.727 18.181 211.16 17.3628 210.027 17.3628C209.398 17.3628 208.832 17.6146 208.454 18.0552C208.076 18.4957 207.825 19.1881 207.825 20.1951V26.7407H202.034V12.7683H207.51V14.1529C208.076 13.5865 208.706 13.2089 209.398 12.9571C210.09 12.7054 210.909 12.5795 211.727 12.5795C213.552 12.5165 214.937 13.02 215.944 14.0271Z" fill="#008D96"/>
<path d="M235.706 7.79639V26.741H230.231V25.6081C229.413 26.5522 228.091 26.9928 226.391 26.9928C225.196 26.9928 224.063 26.6781 222.993 26.1116C221.986 25.5452 221.168 24.664 220.538 23.5941C219.909 22.4612 219.657 21.2024 219.657 19.7548C219.657 18.3072 219.972 17.0484 220.538 15.9155C221.168 14.8455 221.986 13.9644 222.993 13.398C224 12.8315 225.133 12.5168 226.391 12.5168C227.965 12.5168 229.098 12.8944 229.916 13.7126V7.79639H235.706V7.79639ZM229.413 21.7688C229.853 21.2653 230.042 20.6359 230.042 19.7548C230.042 18.8736 229.853 18.2443 229.413 17.7407C228.972 17.2372 228.468 17.0484 227.776 17.0484C227.084 17.0484 226.58 17.3002 226.14 17.7407C225.699 18.2443 225.51 18.8736 225.51 19.7548C225.51 20.6359 225.699 21.3283 226.14 21.7688C226.58 22.2723 227.084 22.5241 227.776 22.5241C228.468 22.4612 228.972 22.2094 229.413 21.7688Z" fill="#008D96"/>
<path d="M240.238 26.5522C239.105 26.3004 238.161 25.9857 237.406 25.5452L238.979 21.7688C239.609 22.1465 240.364 22.4612 241.245 22.7129C242.126 22.9647 243.007 23.0276 243.826 23.0276C244.518 23.0276 244.958 22.9647 245.21 22.8388C245.462 22.7129 245.588 22.587 245.588 22.3353C245.588 22.0835 245.399 21.9576 245.084 21.8947C244.77 21.8318 244.203 21.7059 243.448 21.6429C242.315 21.5171 241.308 21.3282 240.553 21.1394C239.735 20.9506 239.042 20.51 238.476 19.8807C237.846 19.2513 237.595 18.3701 237.595 17.2372C237.595 16.3561 237.846 15.5379 238.413 14.7826C238.979 14.0903 239.797 13.5238 240.867 13.0832C241.937 12.6427 243.259 12.4539 244.77 12.4539C245.84 12.4539 246.847 12.5797 247.854 12.7686C248.861 12.9574 249.742 13.2721 250.434 13.6497L248.861 17.426C247.665 16.7337 246.28 16.419 244.833 16.419C243.574 16.419 242.944 16.6708 242.944 17.1113C242.944 17.3631 243.133 17.489 243.448 17.6149C243.763 17.6778 244.329 17.8037 245.084 17.8666C246.217 17.9925 247.161 18.1813 247.979 18.4331C248.798 18.6848 249.49 19.0624 250.056 19.6918C250.686 20.3212 250.938 21.2024 250.938 22.3353C250.938 23.2164 250.686 23.9717 250.119 24.727C249.553 25.4193 248.735 25.9857 247.665 26.4263C246.595 26.8669 245.273 27.0557 243.7 27.0557C242.567 26.9928 241.371 26.8039 240.238 26.5522Z" fill="#008D96"/>
<path d="M36.064 26.5521C34.6164 26.5521 33.1058 26.2374 31.4065 25.5451L33.1688 21.4541C36.2528 22.7758 38.6445 21.8947 39.5256 20.4471C40.2809 19.2512 39.9033 17.8036 38.3927 16.5448C31.3436 10.4398 32.6023 6.34873 33.5464 4.8382C34.4276 3.3906 35.7493 2.50946 37.2598 2.32064C37.6374 2.2577 38.078 2.2577 38.4557 2.32064C40.3438 2.44652 41.162 4.71232 39.8403 6.09698C39.3997 6.53755 38.7704 6.85225 38.078 6.72637C37.9521 6.72637 37.8892 6.72637 37.7633 6.72637C37.6374 6.72637 37.5116 6.78931 37.2598 7.104C37.0081 7.54458 37.1339 9.62156 41.225 13.1461C44.3719 15.8525 45.1272 19.6289 43.1761 22.7129C41.9802 24.9157 39.3997 26.5521 36.064 26.5521Z" fill="#008D96"/>
<path d="M3.02121 15.0972C1.07011 12.5796 0.503656 6.41162 2.58064 4.58639C4.34293 3.01292 8.4969 4.14582 10.2592 5.0899L9.00042 7.41864C7.17519 6.41162 4.72057 6.2228 4.27999 6.5375C3.6506 7.22983 3.6506 11.6356 5.0982 13.5237L3.02121 15.0972Z" fill="#008D96"/>
<path d="M28.9518 9.3698L26.3713 9.0551C26.686 6.72636 24.4832 2.88709 23.5391 2.63533C23.0356 2.63533 21.0215 4.01999 19.8886 5.78228L17.6228 4.39762C18.6928 2.63533 21.6509 -0.448678 23.9796 0.0548332C26.749 0.558345 29.3294 6.22285 28.9518 9.3698Z" fill="#008D96"/>
<path d="M34.1129 18.3699C33.987 17.0482 33.7353 15.7894 33.2947 14.5936C32.7283 12.8942 31.91 11.3207 30.903 9.93608C30.3366 9.18081 29.7072 8.42554 29.0149 7.73321C28.2596 6.97795 27.4414 6.34856 26.5602 5.71917C26.4344 5.59329 26.2455 5.53035 26.1197 5.40447C24.1686 4.14569 21.9028 3.32749 19.5111 3.01279C18.8187 2.88691 18.1264 2.88691 17.3712 2.82397C17.2453 2.82397 17.1823 2.82397 17.0565 2.82397C16.7418 2.82397 16.4271 2.82397 16.1124 2.82397C15.483 2.88691 14.9165 2.94985 14.3501 3.01279C13.7836 3.13867 13.2172 3.26455 12.6507 3.39043C12.1472 3.5163 11.5808 3.70512 11.0773 3.89394C6.48271 5.65623 2.83225 9.30669 1.06996 13.9012C0.692328 14.8453 0.440573 15.8523 0.251756 16.9223C0.125878 17.8664 0 18.8105 0 19.8175V19.8804C0 20.1322 0 20.321 0 20.5728C0.251756 27.1184 4.21691 32.7829 9.88142 35.4264C10.4479 35.6781 11.0143 35.9299 11.6437 36.1187C12.5878 36.4334 13.5319 36.6851 14.476 36.811C14.7277 36.874 15.0424 36.874 15.2942 36.9369C15.7347 36.9998 16.2382 36.9998 16.6788 36.9998C16.8047 36.9998 16.9306 36.9998 17.0565 36.9998C18.6929 36.9998 20.3293 36.7481 21.8398 36.3075C25.3644 35.3005 28.4484 33.0976 30.6513 30.2654C31.7212 28.8807 32.5394 27.3702 33.1688 25.7338C33.8612 23.9085 34.1759 21.9574 34.1759 19.8804C34.2388 19.3769 34.1759 18.8734 34.1129 18.3699ZM4.34279 24.0344C3.96515 22.9015 3.77634 21.7057 3.7134 20.4469C4.27985 20.3839 4.8463 20.321 5.41275 20.2581C6.16802 20.1322 6.86035 20.0063 7.61561 19.8804C7.55267 20.4469 7.55267 21.0763 7.55267 21.6427C7.55267 21.8315 7.55267 22.0833 7.55267 22.2721C7.55267 23.468 7.61561 24.6009 7.74149 25.7338C7.86737 27.1814 8.11912 28.6289 8.37088 30.0136C6.54565 28.5031 5.09806 26.3631 4.34279 24.0344ZM8.11912 15.9782C6.79741 16.2929 5.47569 16.5447 4.15397 16.6705C5.03512 13.2089 7.23798 10.2508 10.259 8.42554C9.25203 10.8172 8.5597 13.3977 8.11912 15.9782ZM15.0424 6.72619C15.0424 6.72619 15.0424 6.66325 15.0424 6.72619C15.0424 6.66325 15.0424 6.66325 15.0424 6.72619C15.0424 6.72619 15.0424 6.66325 15.0424 6.72619C15.3571 6.97795 15.6089 7.29264 15.9236 7.5444C17.1194 8.74024 18.1264 9.99902 19.0076 11.4466C17.56 12.3278 16.1124 13.146 14.5389 13.8383C13.7207 14.2159 12.9025 14.5306 12.0843 14.8453C12.7137 11.9501 13.7207 9.24375 15.0424 6.72619ZM11.5808 26.7408C11.392 25.482 11.329 24.2232 11.329 22.9644C11.329 22.7756 11.329 22.5239 11.329 22.3351C11.329 21.2022 11.3919 20.0692 11.5178 18.9993C11.6437 18.9363 11.7066 18.9363 11.8325 18.9363C13.0284 18.5587 14.1613 18.1181 15.2942 17.6776C17.1823 16.8594 19.0076 15.9153 20.7699 14.8453C21.1475 15.7894 21.4622 16.7335 21.7139 17.7405C20.0775 18.8105 18.6299 20.0692 17.3082 21.5798C16.8676 22.0833 16.4271 22.5868 16.0494 23.1533C15.6718 23.6568 15.3571 24.1603 15.0424 24.6638C14.6018 25.4191 14.1613 26.1743 13.7836 26.9925C13.2172 28.2513 12.7137 29.636 12.399 31.0206C12.0213 29.573 11.7066 28.1884 11.5808 26.7408ZM22.1545 24.7267C22.1545 24.9785 22.0916 25.1673 22.0916 25.4191C21.9028 26.6778 21.651 27.9366 21.2734 29.1325C20.8328 30.5171 20.2663 31.8388 19.574 33.0976C18.7558 33.2235 18.0005 33.3494 17.1194 33.3494C16.6159 33.3494 16.1124 33.3494 15.6718 33.2864C16.0494 31.0836 16.7418 29.0066 17.8117 27.1814C17.9376 26.9296 18.1264 26.6149 18.2523 26.3631C18.7558 25.5449 19.3223 24.7897 19.8887 24.0973C20.581 23.2162 21.3992 22.4609 22.2804 21.7686C22.2804 22.0833 22.2804 22.398 22.2804 22.7127C22.2175 23.405 22.2175 24.0973 22.1545 24.7267ZM22.0286 9.24375C21.5251 8.42554 20.9587 7.60734 20.3293 6.91501C21.3992 7.16676 22.4692 7.5444 23.4133 8.11085C22.9727 8.48848 22.4692 8.86611 22.0286 9.24375ZM26.4344 10.3137C26.6861 10.5655 26.9379 10.8172 27.1896 11.069C28.1337 12.1389 28.889 13.3348 29.4554 14.6565C28.2596 14.8453 27.0638 15.0971 25.9308 15.4747C25.6162 15.6006 25.3015 15.7265 24.9238 15.8523C24.6091 14.7194 24.2315 13.5865 23.728 12.5166C24.735 11.8242 25.6162 11.1319 26.4344 10.3137ZM28.5743 26.8037C27.7561 28.1884 26.7491 29.3842 25.4903 30.3283C25.1756 30.5801 24.7979 30.8318 24.4203 31.0836C24.5462 30.7689 24.6091 30.5171 24.735 30.2024C25.1126 29.0066 25.3644 27.8107 25.5532 26.6149C25.742 25.3561 25.8679 24.0344 25.8679 22.7127C25.8679 22.4609 25.8679 22.2092 25.8679 21.8945C25.8679 21.1392 25.805 20.321 25.6791 19.5657C26.5602 19.1881 27.5043 18.8734 28.4484 18.6217C29.0778 18.4958 29.7072 18.3699 30.3995 18.307C30.4625 18.8105 30.5254 19.3769 30.5254 19.9434C30.5254 22.398 29.8331 24.7897 28.5743 26.8037Z" fill="#008D96"/>
</svg>
