<svg width="44" height="37" viewBox="0 0 44 37" fill="none" xmlns="http://www.w3.org/2000/svg">
<path d="M35.8632 26.4043C34.4237 26.4043 32.9216 26.0914 31.2317 25.4029L32.9842 21.3346C36.051 22.649 38.4294 21.7728 39.3056 20.3332C40.0567 19.144 39.6812 17.7045 38.179 16.4527C31.1691 10.3816 32.4209 6.31336 33.3597 4.81123C34.2359 3.37169 35.5503 2.49545 37.0524 2.30768C37.428 2.2451 37.8661 2.2451 38.2416 2.30768C40.1193 2.43286 40.9329 4.68605 39.6186 6.063C39.1804 6.50112 38.5546 6.81407 37.8661 6.68889C37.7409 6.68889 37.6783 6.68889 37.5531 6.68889C37.428 6.68889 37.3028 6.75148 37.0524 7.06442C36.8021 7.50254 36.9273 9.56797 40.9955 13.0729C44.125 15.7642 44.876 19.5196 42.9358 22.5864C41.7466 24.777 39.1804 26.4043 35.8632 26.4043Z" fill="#008D96"/>
<path d="M3.00437 15.0131C1.06412 12.5096 0.500825 6.37587 2.56625 4.5608C4.31873 2.99608 8.44958 4.12268 10.2021 5.06151L8.95029 7.37729C7.13522 6.37587 4.69427 6.1881 4.25614 6.50104C3.63026 7.18952 3.63026 11.5707 5.0698 13.4484L3.00437 15.0131Z" fill="#008D96"/>
<path d="M28.7906 9.31765L26.2245 9.00471C26.5374 6.68893 24.3468 2.87102 23.408 2.62066C22.9073 2.62066 20.9044 3.99761 19.7779 5.7501L17.5247 4.37315C18.5887 2.62066 21.5303 -0.446181 23.8461 0.054528C26.6 0.555237 29.1661 6.18822 28.7906 9.31765Z" fill="#008D96"/>
<path d="M33.9231 18.2675C33.7979 16.9531 33.5475 15.7014 33.1094 14.5122C32.5461 12.8223 31.7325 11.2576 30.731 9.88063C30.1677 9.12956 29.5418 8.3785 28.8534 7.69002C28.1023 6.93896 27.2887 6.31307 26.4124 5.68718C26.2872 5.56201 26.0995 5.49942 25.9743 5.37424C24.034 4.12247 21.7809 3.30881 19.4025 2.99587C18.714 2.87069 18.0255 2.87069 17.2745 2.80811C17.1493 2.80811 17.0867 2.80811 16.9615 2.80811C16.6486 2.80811 16.3356 2.80811 16.0227 2.80811C15.3968 2.87069 14.8335 2.93328 14.2702 2.99587C13.7069 3.12105 13.1436 3.24623 12.5803 3.3714C12.0796 3.49658 11.5163 3.68435 11.0156 3.87211C6.44663 5.6246 2.81649 9.25474 1.06401 13.8237C0.688475 14.7625 0.438121 15.764 0.250355 16.828C0.125177 17.7668 0 18.7056 0 19.707V19.7696C0 20.02 0 20.2078 0 20.4581C0.250355 26.9673 4.19344 32.6003 9.82642 35.229C10.3897 35.4794 10.953 35.7297 11.5789 35.9175C12.5177 36.2305 13.4566 36.4808 14.3954 36.606C14.6457 36.6686 14.9587 36.6686 15.209 36.7312C15.6472 36.7938 16.1479 36.7938 16.586 36.7938C16.7112 36.7938 16.8364 36.7938 16.9615 36.7938C18.5888 36.7938 20.2161 36.5434 21.7183 36.1053C25.2232 35.1039 28.2901 32.9133 30.4807 30.0968C31.5447 28.7198 32.3583 27.2177 32.9842 25.5904C33.6727 23.7753 33.9856 21.8351 33.9856 19.7696C34.0482 19.2689 33.9856 18.7682 33.9231 18.2675ZM4.31862 23.9005C3.94309 22.7739 3.75532 21.5847 3.69273 20.3329C4.25603 20.2703 4.81933 20.2078 5.38263 20.1452C6.13369 20.02 6.82216 19.8948 7.57323 19.7696C7.51064 20.3329 7.51064 20.9588 7.51064 21.5221C7.51064 21.7099 7.51064 21.9602 7.51064 22.148C7.51064 23.3372 7.57323 24.4638 7.69841 25.5904C7.82358 27.0299 8.07394 28.4695 8.32429 29.8464C6.50922 28.3443 5.06968 26.2163 4.31862 23.9005ZM8.07394 15.8891C6.75958 16.2021 5.44521 16.4524 4.13085 16.5776C5.00709 13.1352 7.1977 10.1936 10.202 8.3785C9.20053 10.7569 8.51206 13.323 8.07394 15.8891ZM14.9587 6.6886C14.9587 6.6886 14.9587 6.62601 14.9587 6.6886C14.9587 6.62601 14.9587 6.62601 14.9587 6.6886C14.9587 6.6886 14.9587 6.62601 14.9587 6.6886C15.2716 6.93896 15.522 7.2519 15.8349 7.50226C17.0241 8.69144 18.0255 9.94321 18.9018 11.3828C17.4622 12.259 16.0227 13.0726 14.458 13.7611C13.6443 14.1367 12.8307 14.4496 12.017 14.7625C12.6429 11.8835 13.6443 9.19215 14.9587 6.6886ZM11.5163 26.5918C11.3285 25.34 11.266 24.0883 11.266 22.8365C11.266 22.6487 11.266 22.3984 11.266 22.2106C11.266 21.084 11.3285 19.9574 11.4537 18.8934C11.5789 18.8308 11.6415 18.8308 11.7667 18.8308C12.9559 18.4553 14.0824 18.0172 15.209 17.579C17.0867 16.7654 18.9018 15.8265 20.6543 14.7625C21.0298 15.7014 21.3427 16.6402 21.5931 17.6416C19.9658 18.7056 18.5262 19.9574 17.2119 21.4595C16.7738 21.9602 16.3356 22.4609 15.9601 23.0242C15.5846 23.525 15.2716 24.0257 14.9587 24.5264C14.5206 25.2774 14.0824 26.0285 13.7069 26.8422C13.1436 28.0939 12.6429 29.4709 12.33 30.8478C11.9544 29.4083 11.6415 28.0313 11.5163 26.5918ZM22.0312 24.589C22.0312 24.8393 21.9686 25.0271 21.9686 25.2774C21.7809 26.5292 21.5305 27.781 21.155 28.9702C20.7168 30.3471 20.1535 31.6615 19.4651 32.9133C18.6514 33.0384 17.9004 33.1636 17.0241 33.1636C16.5234 33.1636 16.0227 33.1636 15.5846 33.101C15.9601 30.9104 16.6486 28.845 17.7126 27.0299C17.8378 26.7796 18.0255 26.4666 18.1507 26.2163C18.6514 25.4026 19.2147 24.6516 19.778 23.9631C20.4665 23.0868 21.2801 22.3358 22.1564 21.6473C22.1564 21.9602 22.1564 22.2732 22.1564 22.5861C22.0938 23.2746 22.0938 23.9631 22.0312 24.589ZM21.906 9.19215C21.4053 8.3785 20.842 7.56484 20.2161 6.87637C21.2801 7.12672 22.3442 7.50226 23.283 8.06555C22.8449 8.44109 22.3442 8.81662 21.906 9.19215ZM26.2872 10.2562C26.5376 10.5065 26.7879 10.7569 27.0383 11.0072C27.9771 12.0712 28.7282 13.2604 29.2915 14.5748C28.1023 14.7625 26.9131 15.0129 25.7865 15.3884C25.4736 15.5136 25.1606 15.6388 24.7851 15.764C24.4722 14.6374 24.0966 13.5108 23.5959 12.4468C24.5973 11.7583 25.4736 11.0698 26.2872 10.2562ZM28.4153 26.6544C27.6016 28.0313 26.6002 29.2205 25.3484 30.1594C25.0355 30.4097 24.6599 30.6601 24.2844 30.9104C24.4096 30.5975 24.4722 30.3471 24.5973 30.0342C24.9729 28.845 25.2232 27.6558 25.411 26.4666C25.5988 25.2148 25.7239 23.9005 25.7239 22.5861C25.7239 22.3358 25.7239 22.0854 25.7239 21.7725C25.7239 21.0214 25.6614 20.2078 25.5362 19.4567C26.4124 19.0812 27.3512 18.7682 28.2901 18.5179C28.916 18.3927 29.5418 18.2675 30.2303 18.2049C30.2929 18.7056 30.3555 19.2689 30.3555 19.8322C30.3555 22.2732 29.667 24.6515 28.4153 26.6544Z" fill="#008D96"/>
</svg>
