<svg width="60" height="75" viewBox="0 0 60 75" fill="none" xmlns="http://www.w3.org/2000/svg">
<path d="M2.74926 66.6857C1.93861 65.5898 1.32312 64.3438 0.93281 63.0378C-0.523356 58.2489 4.0403 45.9391 10.6456 50.908C11.2611 51.3734 11.7715 51.9589 12.2068 52.5894C12.5221 53.0247 12.8073 53.4901 12.9725 54.0005C13.8281 56.6426 10.1052 59.2697 12.5521 61.1012C15.1042 63.0077 17.5511 63.7133 19.2475 66.7457C19.4877 67.1811 19.7129 67.6765 19.5777 68.1418C19.4126 68.7423 18.7671 69.0576 18.1966 69.3128C13.678 71.2193 8.39378 71.8498 4.35555 68.4121C3.75507 67.9016 3.21463 67.3162 2.74926 66.6857Z" fill="#E0B885"/>
<path d="M25.8539 58.7294C25.8389 58.2791 25.7488 57.8737 25.6437 57.4384C25.1483 55.3817 24.5328 53.3251 23.7072 51.3735C23.1667 50.0975 21.7706 46.4646 19.774 47.6506C18.0176 48.7014 16.4564 52.0791 15.7958 53.9406C14.5498 57.4084 14.0995 60.5309 15.0753 64.1037C15.4356 65.4398 15.9009 66.6258 16.6065 67.8117C17.0719 68.5923 17.297 68.5023 16.7266 69.2378C16.2912 69.7783 15.5857 70.0035 15.1954 70.649C14.7 71.4596 14.7 72.6606 15.4355 73.231C15.8259 73.5313 16.3513 73.5913 16.8467 73.6364C18.543 73.7715 20.3445 73.7415 21.9508 73.111C23.8273 72.3754 24.8331 70.8291 25.7038 69.0877C25.989 68.5173 26.2442 67.9468 26.4394 67.3463C27.0398 65.3948 26.8147 63.3231 26.3943 61.3565C26.1842 60.4708 25.8989 59.6301 25.8539 58.7294Z" fill="#BFBAB0"/>
<path d="M51.4202 43.252C50.8497 44.543 49.934 46.5996 49.0783 47.8606C44.6197 48.9115 40.7916 51.989 38.1946 55.6369C35.2072 59.8402 33.6159 64.7492 32.0696 69.5981C31.9796 69.8683 31.8895 70.1685 31.9946 70.4387C32.2498 71.1143 33.2856 70.9792 34.0062 70.754C36.6633 69.9283 39.5156 69.6581 42.2928 69.9734C43.0434 70.0634 43.704 70.4087 44.3345 70.814C44.4095 70.8591 44.4246 70.8741 44.4246 70.8741C45.1151 71.1443 45.7456 71.6547 46.4512 71.9399C47.1567 72.2402 47.8173 72.4654 48.5679 72.5554C50.1441 72.7506 51.7804 72.7956 53.3117 72.2852C54.2874 71.9549 55.023 71.1893 54.7228 70.0784C54.5126 69.2828 53.5068 68.9225 54.4976 68.277C55.2782 67.7816 55.9688 67.1961 56.5242 66.4455C56.8995 65.9501 57.3199 65.3647 57.5601 64.7792C57.7853 64.2238 57.8453 63.5332 57.9504 62.9327C59.1063 56.3875 55.0831 50.1725 51.4202 43.252Z" fill="#BFBAB0"/>
<path d="M55.4265 46.2995C55.9969 47.3353 56.5224 48.3712 56.9727 49.392C58.1587 52.0491 62.6172 63.083 56.8226 63.5033C54.6308 63.7285 53.8202 61.0864 52.7693 59.5852C52.1539 58.7145 51.5384 57.8287 50.7427 57.1082C49.9471 56.4026 48.9413 55.8622 47.8604 55.8472C47.0948 55.8322 46.3442 56.0723 45.6236 56.3426C42.6663 57.4534 40.2643 59.0597 38.2677 61.5217C36.2561 63.9987 35.4905 67.2263 34.2895 70.1236C32.8934 73.4563 30.2813 75.678 26.5584 74.7773C25.2523 74.4621 23.8712 73.9517 23.1056 72.7957C22.34 71.6248 22.7903 70.1236 23.661 69.1328C24.0513 68.6975 24.6068 68.3972 25.1923 68.4272C25.4475 68.4422 25.7777 68.5023 25.9128 68.2771C25.9879 68.142 25.9579 67.9769 25.9128 67.8268C25.6126 66.7009 25.3124 65.5599 25.0121 64.434C24.7419 63.4282 24.4717 62.4374 24.2165 61.4316C22.5051 55.0365 19.7429 49.0617 17.2809 42.9368C17.0107 42.2763 16.7405 41.5257 16.9807 40.8351C17.4611 39.4841 18.8872 40.5199 19.7279 40.7C21.3792 41.0753 23.1957 40.7601 24.847 40.4148C28.6 39.6492 32.1578 37.9979 35.4455 35.9863C37.9525 34.44 40.2944 32.8788 41.9157 30.3567C42.6512 29.2158 42.9365 28.3601 44.0924 27.5195C45.1733 26.7388 47.7854 26.5137 49.0614 26.4836C49.1665 26.4836 50.0071 34.8754 50.1873 35.5359C51.2081 39.1688 53.5049 42.7717 55.4265 46.2995Z" fill="#DBD6CC"/>
<path d="M21.3645 63.2632L15.8701 61.9121C15.8701 61.9121 15.8701 64.6143 17.011 66.1605L21.3645 63.2632Z" fill="#827872"/>
<path d="M20.6436 57.6635C20.2233 56.8379 17.5361 53.0999 17.5361 53.0999C17.5361 53.0999 18.7821 50.9231 18.9923 50.3977L20.6436 57.6635Z" fill="#827872"/>
<path d="M21.0493 61.1914L15.8701 59.9454C15.8701 59.9454 16.5907 55.4868 17.011 54.9614L21.0493 61.1914Z" fill="#827872"/>
<path d="M52.9342 20.764C52.9342 20.779 52.9342 20.779 52.9342 20.7941C52.9192 21.0493 52.8892 21.2894 52.8592 21.5447C51.9735 28.4802 46.5842 35.716 38.2675 40.0395C30.191 44.2428 21.439 44.6181 15.2691 41.6307C12.4168 40.2646 10.12 38.178 8.69382 35.4308C7.26768 32.6836 6.87736 29.6061 7.38777 26.4836C7.50787 25.748 7.673 25.0124 7.89818 24.2768C7.88316 24.2468 7.85314 24.2318 7.85314 24.2018C9.03909 19.473 14.5785 13.7684 14.5785 13.7684C16.1248 12.2822 17.8962 10.9161 19.8628 9.70017C20.4482 9.33988 21.0337 9.00961 21.6492 8.67935C21.7243 8.63431 21.8143 8.58928 21.8894 8.54424L22.0245 8.48419L22.1446 8.43916L23.0003 8.10889C23.0003 8.10889 27.1436 6.21738 28.6148 5.93215C28.6448 5.8721 30.2361 5.42174 33.0733 5.2416C34.9348 5.1215 37.3368 5.13651 40.174 5.45176C40.5043 5.4968 40.8496 5.52682 41.1798 5.57186C41.1948 5.57186 43.3115 6.26241 43.3115 6.26241C43.4016 6.29244 43.4767 6.32246 43.5517 6.35249C44.1672 6.59268 44.7527 6.84788 45.3232 7.14812C45.3232 7.14812 45.3232 7.14812 45.3382 7.14812H45.3532H45.3682H45.3832C45.4282 7.17815 45.8636 7.41834 45.9236 7.44836L45.9537 7.46338C45.9987 7.4934 46.2239 7.62851 46.2989 7.67354C46.3139 7.68856 46.329 7.68856 46.344 7.70357C46.419 7.7486 46.5091 7.80865 46.5842 7.85369C46.6442 7.89872 47.0495 8.16894 47.0645 8.16894C47.1096 8.19896 47.3047 8.33407 47.3047 8.33407C47.3498 8.3641 47.575 8.52923 47.635 8.57427C47.635 8.57427 48.0403 8.88952 48.0403 8.90453C48.0403 8.90453 48.3706 9.17475 48.4907 9.29484C48.6258 9.41494 49.0161 9.79024 49.0762 9.85029C49.1362 9.91034 49.3914 10.1806 49.4515 10.2556L49.5866 10.4057C49.6016 10.4207 49.9018 10.781 49.9619 10.8411C50.0069 10.9011 50.0669 10.9612 50.112 11.0212C50.142 11.0663 50.172 11.1113 50.2171 11.1563C50.2921 11.2464 50.8476 12.042 50.8776 12.1021C50.9376 12.2072 51.0127 12.3123 51.0728 12.4173C51.0728 12.4173 51.0728 12.4324 51.0878 12.4324C51.1178 12.4924 51.1628 12.5525 51.1929 12.6125C51.2379 12.6876 51.2829 12.7626 51.328 12.8527C51.358 12.9127 52.619 16.5306 52.8892 19.2628C52.9493 19.8633 52.9643 20.3437 52.9342 20.764Z" fill="#EEECE8"/>
<path d="M52.9051 19.3529C49.7225 19.3829 44.6485 21.2294 38.5686 19.6381C38.5536 19.6381 38.5386 19.6381 38.5386 19.6231C38.1332 19.518 37.7129 19.3829 37.2775 19.2177C35.8064 18.6623 34.1701 17.8066 32.5037 16.7708C32.1284 16.5456 31.7531 16.3054 31.3778 16.0502C27.88 13.7684 24.3072 10.9311 21.7701 8.78439C21.7401 8.75436 21.6951 8.72434 21.665 8.69431C21.7401 8.64928 21.8302 8.60424 21.9052 8.55921L22.0403 8.49916L22.1604 8.45412L23.0161 8.12386C23.0161 8.12386 27.1594 6.23234 28.6306 5.94711C28.6606 5.88707 30.2519 5.43671 33.0892 5.25656C33.5396 3.72533 34.5454 0.707918 35.4611 0.452714C35.8064 0.347629 36.1667 0.302593 36.5269 0.332617C37.4727 0.42269 38.4185 1.08322 39.094 2.91469C39.5894 4.28078 39.9497 5.04639 40.1899 5.46673C40.5201 5.51177 40.8654 5.54179 41.1957 5.58683C41.2107 5.58683 43.3274 6.27738 43.3274 6.27738C43.4175 6.3074 43.4925 6.33743 43.5676 6.36745C44.1831 6.60764 44.7685 6.86285 45.339 7.16309C45.339 7.16309 45.339 7.16309 45.354 7.16309H45.369H45.384H45.3991C45.4441 7.19311 45.8794 7.4333 45.9395 7.46333L45.9695 7.47834C46.0145 7.50836 46.2397 7.64347 46.3148 7.68851C46.3298 7.70352 46.3448 7.70352 46.3598 7.71853C46.4349 7.76357 46.525 7.82362 46.6 7.86865C46.6601 7.91369 47.0654 8.18391 47.0804 8.18391C47.1254 8.21393 47.3206 8.34904 47.3206 8.34904C47.3656 8.37906 47.5908 8.5442 47.6509 8.58923C47.6509 8.58923 48.0562 8.90448 48.0562 8.91949C48.0562 8.91949 48.3864 9.18971 48.5065 9.30981C48.6416 9.4299 49.032 9.8052 49.092 9.86525C49.1521 9.9253 49.4073 10.1955 49.4673 10.2706L49.6024 10.4207C49.6174 10.4357 49.9177 10.796 49.9777 10.856C50.0228 10.9161 50.0828 10.9761 50.1278 11.0362C50.1579 11.0812 50.1879 11.1263 50.2329 11.1713C50.308 11.2614 50.8634 12.057 50.8934 12.1171C50.9535 12.2221 51.0286 12.3272 51.0886 12.4323C51.0886 12.4323 51.0886 12.4473 51.1036 12.4473C51.1336 12.5074 51.1787 12.5674 51.2087 12.6275C51.2537 12.7025 51.2988 12.7776 51.3438 12.8677C51.3738 13.0028 52.6198 16.6207 52.9051 19.3529Z" fill="#E0B885"/>
<path d="M39.9193 13.9337C42.051 18.0319 37.1571 22.3254 33.2089 20.2387C32.8186 20.0285 32.4433 19.7433 32.008 19.7583C31.3174 16.906 30.4467 13.6785 33.6893 11.9821C35.9562 10.7961 38.7334 11.6668 39.9193 13.9337Z" fill="#623A27"/>
<path d="M37.0372 12.3573C38.8837 12.9427 39.8745 14.9844 39.259 16.9359C38.6435 18.8725 36.6619 19.9834 34.8155 19.3979C32.969 18.8124 31.9782 16.7708 32.5937 14.8192C33.1942 12.8827 35.1908 11.7718 37.0372 12.3573Z" fill="url(#paint0_radial)"/>
<path d="M21.8563 27.268C22.8491 26.7511 22.9307 24.943 22.0386 23.2295C21.1465 21.516 19.6185 20.546 18.6257 21.0629C17.6329 21.5798 17.5513 23.3878 18.4434 25.1013C19.3355 26.8148 20.8635 27.7849 21.8563 27.268Z" fill="#1A0E14"/>
<path d="M35.7977 12.9602C35.9815 12.8645 36.053 12.6379 35.9573 12.454C35.8615 12.2702 35.6349 12.1987 35.4511 12.2945C35.2672 12.3902 35.1958 12.6168 35.2915 12.8007C35.3872 12.9845 35.6138 13.056 35.7977 12.9602Z" fill="#E1E3EA"/>
<path d="M37.5954 14.7237C38.0072 14.5093 38.1672 14.0017 37.9528 13.5898C37.7384 13.178 37.2307 13.018 36.8189 13.2324C36.4071 13.4468 36.2471 13.9545 36.4615 14.3663C36.6759 14.7781 37.1835 14.9381 37.5954 14.7237Z" fill="#E1E3EA"/>
<path d="M16.2302 26.4986C18.3619 30.5969 24.682 29.0507 25.2374 24.6221C25.2975 24.1868 25.2674 23.7064 25.5226 23.3611C23.5861 21.1543 21.4394 18.5873 18.1818 20.2836C15.93 21.4546 15.0442 24.2318 16.2302 26.4986Z" fill="#623A27"/>
<path d="M30.2967 22.6706L30.4468 21.4847C30.4919 21.1394 30.1316 20.8842 29.8163 21.0493L28.6153 21.6798C28.3001 21.8449 28.3001 22.2803 28.6153 22.4454L29.6662 23.0009C29.9214 23.136 30.2517 22.9708 30.2967 22.6706Z" fill="#BD8376"/>
<path d="M23.3907 22.8958C24.2464 24.5471 23.5408 26.6037 21.7994 27.5195C20.058 28.4202 17.9564 27.8197 17.1007 26.1834C16.245 24.5471 16.9506 22.4754 18.692 21.5597C20.4333 20.644 22.535 21.2444 23.3907 22.8958Z" fill="url(#paint1_radial)"/>
<path d="M21.5329 22.9359C21.9447 22.7215 22.1047 22.2138 21.8903 21.802C21.6759 21.3902 21.1682 21.2301 20.7564 21.4445C20.3446 21.659 20.1846 22.1666 20.399 22.5784C20.6134 22.9903 21.121 23.1503 21.5329 22.9359Z" fill="#E1E3EA"/>
<path d="M19.5711 21.3941C19.755 21.2984 19.8264 21.0717 19.7307 20.8879C19.635 20.704 19.4083 20.6326 19.2245 20.7283C19.0406 20.824 18.9692 21.0507 19.0649 21.2345C19.1606 21.4184 19.3873 21.4898 19.5711 21.3941Z" fill="#E1E3EA"/>
<path d="M25.3719 35.3256C25.1167 35.3256 24.8915 35.1455 24.8465 34.9053C24.7864 34.605 24.9666 34.3198 25.2668 34.2598C28.3893 33.5692 30.3559 32.3382 31.1365 30.6269C31.9021 28.9455 31.5568 26.8138 30.0857 24.1266C29.6503 23.331 29.4101 22.9257 29.275 22.7305C29.1099 22.6855 28.9898 22.5804 28.9297 22.4003C28.7646 21.8148 29.1849 21.6196 29.245 21.5896C29.8004 21.3644 30.0556 21.7848 31.0464 23.6012C32.6978 26.6036 33.043 29.0506 32.1273 31.0772C31.1966 33.1189 28.9748 34.545 25.507 35.3256C25.447 35.3106 25.4169 35.3256 25.3719 35.3256ZM29.9656 22.07C29.9656 22.1 29.9656 22.13 29.9656 22.1601C29.9806 22.13 29.9806 22.1 29.9656 22.07Z" fill="#BD8376"/>
<path d="M36.7068 29.1706C36.4816 29.1706 36.2564 29.1556 36.0462 29.1256C33.8545 28.8404 31.948 27.2641 30.2516 24.2917C29.2308 22.4903 29.0056 22.0549 29.486 21.7097C29.531 21.6796 29.9213 21.4094 30.3267 21.8748C30.4618 22.0249 30.4918 22.2051 30.4468 22.3852C30.5669 22.6254 30.777 23.0307 31.1974 23.7663C32.7136 26.4234 34.3499 27.8346 36.1814 28.0598C38.0429 28.2999 40.1295 27.2491 42.3513 24.9673C42.5615 24.7571 42.9067 24.7421 43.1169 24.9523C43.3271 25.1624 43.3421 25.5077 43.1319 25.7179C40.8951 27.9997 38.7334 29.1706 36.7068 29.1706Z" fill="#BD8376"/>
<path d="M9.45889 23.7365C9.45889 23.7365 9.20369 23.106 7.26714 21.2445C5.33059 19.368 5.66085 17.9118 6.48651 16.921C7.32718 15.9302 12.7465 16.831 12.7465 16.831C12.7165 19.5331 11.5456 22.0101 9.45889 23.7365Z" fill="#827872"/>
<path d="M51.1324 16.8909L44.4971 17.5063L49.7813 12.6274C49.7963 12.6425 51.2375 15.3446 51.1324 16.8909Z" fill="#CCA172"/>
<path d="M43.042 15.75L48.1311 11.6067C48.1311 11.6067 47.3054 9.53505 45.6391 8.90454L43.042 15.75Z" fill="#CCA172"/>
<path d="M41.601 13.1528C41.601 12.8375 43.3574 7.86856 43.3574 7.86856C43.3574 7.86856 42.1114 6.62256 40.6553 6.62256L41.601 13.1528Z" fill="#CCA172"/>
<path d="M40.0089 5.60189L36.2559 5.28663L36.3609 0.467773C37.3067 0.557846 38.2525 1.21837 38.928 3.04984C39.4084 4.41594 39.7837 5.18155 40.0089 5.60189Z" fill="#EEECE8"/>
<path d="M36.8262 45.8642L38.7327 45.4739L44.6624 64.7793L42.6508 68.3972L39.108 65.8302L36.8262 45.8642Z" fill="#027F82"/>
<path d="M36.5865 45.2637L35.3555 43.6274L36.9618 41.8259L39.1535 42.8467L38.7031 44.8283L36.5865 45.2637Z" fill="#027F82"/>
<defs>
<radialGradient id="paint0_radial" cx="0" cy="0" r="1" gradientUnits="userSpaceOnUse" gradientTransform="translate(35.9232 15.8754) scale(3.59636)">
<stop stop-color="#42210B"/>
<stop offset="0.627"/>
</radialGradient>
<radialGradient id="paint1_radial" cx="0" cy="0" r="1" gradientUnits="userSpaceOnUse" gradientTransform="translate(20.2503 24.5257) scale(3.45432)">
<stop stop-color="#42210B"/>
<stop offset="0.627"/>
</radialGradient>
</defs>
</svg>
