<svg width="50" height="50" viewBox="0 0 50 50" fill="none" xmlns="http://www.w3.org/2000/svg">
<circle cx="25" cy="25" r="24.5" fill="white" stroke="#F2F2F2"/>
<path d="M33.6219 22.2881C33.3714 22.0376 33.0642 21.91 32.705 21.91H27.09V16.295C27.09 15.9358 26.9624 15.6286 26.7119 15.3781C26.4614 15.1276 26.1542 15 25.795 15H23.205C22.8458 15 22.5386 15.1276 22.2881 15.3781C22.0376 15.6286 21.91 15.9358 21.91 16.295V21.91H16.295C15.9358 21.91 15.6286 22.0376 15.3781 22.2881C15.1276 22.5386 15 22.8458 15 23.205V25.795C15 26.1542 15.1276 26.4614 15.3781 26.7119C15.6286 26.9624 15.9358 27.09 16.295 27.09H21.91V32.705C21.91 33.0642 22.0376 33.3714 22.2881 33.6219C22.5386 33.8724 22.8458 34 23.205 34H25.795C26.1542 34 26.4614 33.8724 26.7119 33.6219C26.9624 33.3714 27.09 33.0642 27.09 32.705V27.09H32.705C33.0642 27.09 33.3714 26.9624 33.6219 26.7119C33.8724 26.4614 34 26.1542 34 25.795V23.205C34 22.8458 33.8724 22.5386 33.6219 22.2881Z" fill="#FFC107"/>
</svg>
