<svg width="50" height="50" viewBox="0 0 50 50" fill="none" xmlns="http://www.w3.org/2000/svg">
<circle cx="25" cy="25" r="24.5" fill="white" stroke="#F2F2F2"/>
<path d="M22.1162 29.7573L21.5293 34.4222C22.8289 34.8074 24.1705 35 25.5959 35C27.189 35 28.7192 34.7432 30.1446 34.2724C29.4948 31.8329 29.0336 30.0782 28.9498 29.7573H22.0743C22.0953 29.7359 22.0953 29.7359 22.1162 29.7573Z" fill="#E0B885"/>
<path d="M33.3727 20.8125L32.5972 16.5756C32.0522 14.3073 30.8154 14.8423 30.0398 15.9764L28.3629 18.5015H25.7846H25.4911H25.1977H22.6194L20.9424 15.9764C20.3136 14.9279 18.7624 14.2645 18.3851 16.5756L17.6305 20.8125C17.6305 20.8125 16.226 24.7499 17.6095 26.0766C19.1607 27.5745 21.8438 27.9383 21.8438 27.9383V27.9597C21.9067 27.9383 21.9695 27.9383 22.0324 27.9383H29.1594C29.39 27.8955 31.9054 27.5103 33.3727 26.0766C34.7772 24.7499 33.3727 20.8125 33.3727 20.8125Z" fill="#E0B885"/>
</svg>
