<svg width="18" height="18" viewBox="0 0 18 18" fill="none" xmlns="http://www.w3.org/2000/svg">
<path d="M17.6418 6.90448C17.4045 6.66716 17.1134 6.54627 16.7731 6.54627H11.4537V1.22687C11.4537 0.886567 11.3328 0.595522 11.0955 0.358209C10.8582 0.120896 10.5672 0 10.2269 0H7.77313C7.43284 0 7.14179 0.120896 6.90448 0.358209C6.66716 0.595522 6.54627 0.886567 6.54627 1.22687V6.54627H1.22687C0.886567 6.54627 0.595522 6.66716 0.358209 6.90448C0.120896 7.14179 0 7.43284 0 7.77313V10.2269C0 10.5672 0.120896 10.8582 0.358209 11.0955C0.595522 11.3328 0.886567 11.4537 1.22687 11.4537H6.54627V16.7731C6.54627 17.1134 6.66716 17.4045 6.90448 17.6418C7.14179 17.8791 7.43284 18 7.77313 18H10.2269C10.5672 18 10.8582 17.8791 11.0955 17.6418C11.3328 17.4045 11.4537 17.1134 11.4537 16.7731V11.4537H16.7731C17.1134 11.4537 17.4045 11.3328 17.6418 11.0955C17.8791 10.8582 18 10.5672 18 10.2269V7.77313C18 7.43284 17.8791 7.14179 17.6418 6.90448Z" fill="#FFC107"/>
</svg>
