<svg width="16" height="18" viewBox="0 0 16 18" fill="none" xmlns="http://www.w3.org/2000/svg">
<path d="M4.69567 13.2815L4.15698 17.48C5.3498 17.8266 6.58109 18 7.88934 18C9.35151 18 10.756 17.7689 12.0642 17.3452C11.4678 15.1496 11.0445 13.5704 10.9676 13.2815H4.6572C4.67643 13.2623 4.67643 13.2623 4.69567 13.2815Z" fill="#E2BC8C"/>
<path d="M15.0271 5.2313L14.3153 1.41804C13.8151 -0.623404 12.68 -0.141932 11.9681 0.878789L10.429 3.15134H8.0626H7.79325H7.52391H5.15751L3.6184 0.878789C3.04123 -0.0648964 1.61754 -0.661922 1.27124 1.41804L0.578637 5.2313C0.578637 5.2313 -0.710374 8.77493 0.559398 9.96899C1.98308 11.3171 4.44567 11.6445 4.44567 11.6445V11.6638C4.50339 11.6445 4.56111 11.6445 4.61882 11.6445H11.1601C11.3717 11.606 13.6804 11.2593 15.0271 9.96899C16.3161 8.77493 15.0271 5.2313 15.0271 5.2313Z" fill="#E2BC8C"/>
</svg>
