<svg width="22" height="18" viewBox="0 0 22 18" fill="none" xmlns="http://www.w3.org/2000/svg">
<path d="M15.5267 0C13.4548 0 11.6461 1.07519 10.636 2.68166C9.62164 1.07519 7.81299 0 5.74104 0C2.57268 0 0 2.513 0 5.61209C0 7.29867 0.764033 8.80815 1.97267 9.83696L10.1094 17.7892C10.2475 17.9241 10.4375 18 10.6317 18C10.826 18 11.0159 17.9241 11.154 17.7892L19.2951 9.83275C20.4994 8.80394 21.2677 7.29445 21.2677 5.60787C21.2677 2.513 18.6951 0 15.5267 0ZM6.24608 3.41532C4.57556 3.57976 3.35398 5.04287 3.52232 6.67463C3.56117 7.04146 3.28491 7.37034 2.90937 7.40829C2.88779 7.41251 2.86189 7.41251 2.8403 7.41251C2.49498 7.41251 2.19282 7.15531 2.15829 6.80956C1.91224 4.44413 3.68203 2.31904 6.10363 2.07871C6.47917 2.04076 6.81587 2.31061 6.85471 2.67744C6.89788 3.04849 6.62594 3.37737 6.24608 3.41532Z" fill="#AEAEAE"/>
</svg>
