<svg width="50" height="50" viewBox="0 0 50 50" fill="none" xmlns="http://www.w3.org/2000/svg">
<circle cx="25" cy="25" r="24.5" fill="white" stroke="#F2F2F2"/>
<g clip-path="url(#clip0)">
<path d="M25 13.9977C19.0531 13.8817 14.1375 18.5954 14 24.5422C14.0172 27.5672 15.3535 30.4332 17.6652 32.3883V35.5422C17.6652 35.7957 17.8715 36.002 18.125 36.002C18.2109 36.002 18.2969 35.9762 18.3699 35.9332L20.9266 34.3391C22.2285 34.8375 23.6121 35.0911 25.0043 35.0868C30.9512 35.2028 35.8668 30.4891 36.0043 24.5465C35.8625 18.5954 30.9469 13.8817 25 13.9977ZM32.2016 22.1145L26.7016 27.6145C26.534 27.7821 26.259 27.795 26.0785 27.6403L23.1094 25.0965L18.3441 27.6961C18.168 27.7907 17.9445 27.7606 17.8027 27.6188C17.6223 27.4383 17.6223 27.1504 17.8027 26.97L23.3027 21.47C23.4703 21.3024 23.7453 21.2895 23.9258 21.4442L26.8906 23.9879L31.6559 21.3883C31.8578 21.2809 32.107 21.3325 32.2445 21.5172C32.3777 21.6977 32.3605 21.9512 32.2016 22.1145Z" fill="#4286F8"/>
</g>
<defs>
<clipPath id="clip0">
<rect width="22" height="22" fill="white" transform="translate(14 14)"/>
</clipPath>
</defs>
</svg>
