<svg width="23" height="22" viewBox="0 0 23 22" fill="none" xmlns="http://www.w3.org/2000/svg">
<path d="M11.993 0.0020958C6.04787 -0.113886 1.13368 4.59842 0.996216 10.5436C1.0134 13.5677 2.34934 16.4329 4.66039 18.3874V21.5404C4.66039 21.7938 4.86658 22 5.12002 22C5.20593 22 5.29184 21.9742 5.36487 21.9313L7.92077 20.3376C9.22234 20.8359 10.6055 21.0893 11.9973 21.085C17.9425 21.201 22.8567 16.4887 22.9941 10.5479C22.8524 4.59842 17.9382 -0.113886 11.993 0.0020958ZM19.1925 8.11653L13.6941 13.6149C13.5266 13.7825 13.2516 13.7954 13.0712 13.6407L10.1029 11.0977L5.3391 13.6966C5.16297 13.7911 4.9396 13.761 4.79785 13.6192C4.61743 13.4388 4.61743 13.151 4.79785 12.9706L10.2963 7.47219C10.4638 7.30466 10.7387 7.29177 10.9191 7.44642L13.8831 9.98943L18.6469 7.39057C18.8488 7.28318 19.098 7.33473 19.2355 7.51944C19.3686 7.69986 19.3514 7.9533 19.1925 8.11653Z" fill="#4286F8"/>
</svg>
