<svg width="50" height="50" viewBox="0 0 50 50" fill="none" xmlns="http://www.w3.org/2000/svg">
<circle cx="25" cy="25" r="24.5" fill="white" stroke="#F2F2F2"/>
<g clip-path="url(#clip0)">
<path d="M16.4984 22.0039C17.8782 22.0039 18.9967 23.1396 18.9967 24.5405C18.9967 25.9415 17.8782 27.0771 16.4984 27.0771C15.1186 27.0771 14 25.9415 14 24.5405C14 23.1396 15.1186 22.0039 16.4984 22.0039Z" fill="#AEAEAE"/>
<path d="M25.0001 22.0039C26.3799 22.0039 27.4984 23.1396 27.4984 24.5405C27.4984 25.9415 26.3799 27.0771 25.0001 27.0771C23.6203 27.0771 22.5017 25.9415 22.5017 24.5405C22.5017 23.1396 23.6203 22.0039 25.0001 22.0039Z" fill="#AEAEAE"/>
<path d="M33.5015 22.0039C34.8814 22.0039 35.9999 23.1396 35.9999 24.5405C35.9999 25.9415 34.8814 27.0771 33.5015 27.0771C32.1217 27.0771 31.0032 25.9415 31.0032 24.5405C31.0032 23.1396 32.1217 22.0039 33.5015 22.0039Z" fill="#AEAEAE"/>
</g>
<defs>
<clipPath id="clip0">
<rect width="22" height="5.07692" fill="white" transform="matrix(1 0 0 -1 14 27.0771)"/>
</clipPath>
</defs>
</svg>
