<svg width="20" height="14" viewBox="0 0 20 14" fill="none" xmlns="http://www.w3.org/2000/svg">
<path d="M10.0001 5.7207C7.24621 5.7207 5.01965 7.88959 5.01965 10.5599V10.9435C5.01965 12.6034 6.41027 13.9557 8.1173 13.9557H11.8829C13.5899 13.9557 14.9805 12.6034 14.9805 10.9435V10.5599C14.9805 7.88959 12.754 5.7207 10.0001 5.7207Z" fill="#623A27"/>
<path d="M17.5312 4.04492C16.168 4.04492 15.0625 5.12367 15.0625 6.44552C15.0625 7.76736 16.1719 8.84611 17.5312 8.84611C18.8906 8.84611 20 7.76736 20 6.44552C20 5.12367 18.8906 4.04492 17.5312 4.04492Z" fill="#623A27"/>
<path d="M13.0544 4.80119C14.4177 4.80119 15.5232 3.72244 15.5232 2.40059C15.5232 1.07875 14.4138 0 13.0544 0C11.6951 0 10.5857 1.07875 10.5857 2.40059C10.5857 3.72624 11.6951 4.80119 13.0544 4.80119Z" fill="#623A27"/>
<path d="M6.94555 4.80119C8.30492 4.80119 9.41429 3.72244 9.41429 2.40059C9.41429 1.07875 8.30492 0 6.94555 0C5.58618 0 4.47681 1.07875 4.47681 2.40059C4.47681 3.72244 5.58227 4.80119 6.94555 4.80119Z" fill="#623A27"/>
<path d="M2.46874 4.04492C1.10937 4.04492 0 5.11987 0 6.44552C0 7.77116 1.10937 8.84611 2.46874 8.84611C3.82811 8.84611 4.93748 7.76736 4.93748 6.44552C4.93748 5.12367 3.83201 4.04492 2.46874 4.04492Z" fill="#623A27"/>
</svg>
