<svg width="19" height="18" viewBox="0 0 19 18" fill="none" xmlns="http://www.w3.org/2000/svg">
<path d="M6.50162 9.92928C6.50162 9.70437 6.31306 9.52002 6.08302 9.52002H4.62356C4.39352 9.52002 4.20496 9.70437 4.20496 9.92928V11.3562C4.20496 11.5811 4.39352 11.7654 4.62356 11.7654H6.08302C6.31306 11.7654 6.50162 11.5811 6.50162 11.3562V9.92928Z" fill="#BD7CDC"/>
<path d="M10.1484 9.92928C10.1484 9.70437 9.95981 9.52002 9.72976 9.52002H8.27029C8.04025 9.52002 7.85168 9.70437 7.85168 9.92928V11.3562C7.85168 11.5811 8.04025 11.7654 8.27029 11.7654H9.72976C9.95981 11.7654 10.1484 11.5811 10.1484 11.3562V9.92928Z" fill="#BD7CDC"/>
<path d="M13.7913 9.92928C13.7913 9.70437 13.6027 9.52002 13.3727 9.52002H11.917C11.687 9.52002 11.4984 9.70437 11.4984 9.92928V11.3562C11.4984 11.5811 11.687 11.7654 11.917 11.7654H13.3765C13.6065 11.7654 13.7951 11.5811 13.7951 11.3562V9.92928H13.7913Z" fill="#BD7CDC"/>
<path d="M6.50162 13.4942C6.50162 13.2693 6.31306 13.085 6.08302 13.085H4.62356C4.39352 13.085 4.20496 13.2693 4.20496 13.4942V14.9211C4.20496 15.146 4.39352 15.3303 4.62356 15.3303H6.08302C6.31306 15.3303 6.50162 15.146 6.50162 14.9211V13.4942Z" fill="#BD7CDC"/>
<path d="M10.1484 13.4942C10.1484 13.2693 9.95981 13.085 9.72976 13.085H8.27029C8.04025 13.085 7.85168 13.2693 7.85168 13.4942V14.9211C7.85168 15.146 8.04025 15.3303 8.27029 15.3303H9.72976C9.95981 15.3303 10.1484 15.146 10.1484 14.9211V13.4942Z" fill="#BD7CDC"/>
<path d="M13.7913 13.4942C13.7913 13.2693 13.6027 13.085 13.3727 13.085H11.917C11.687 13.085 11.4984 13.2693 11.4984 13.4942V14.9211C11.4984 15.146 11.687 15.3303 11.917 15.3303H13.3765C13.6065 15.3303 13.7951 15.146 13.7951 14.9211L13.7913 13.4942Z" fill="#BD7CDC"/>
<path d="M16.3972 2.00569V4.18103C16.3972 5.16546 15.5789 5.95817 14.5757 5.95817H13.4255C12.4186 5.95817 11.5927 5.16546 11.5927 4.18103V1.99463H6.40728V4.18103C6.40728 5.16546 5.58139 5.95817 4.57447 5.95817H3.42426C2.41734 5.95817 1.60276 5.16546 1.60276 4.18103V2.00569C0.724072 2.0315 0 2.74309 0 3.61691V16.3777C0 17.2699 0.739156 18 1.65179 18H16.3519C17.2608 18 18.0037 17.2662 18.0037 16.3777V3.61691C18 2.74309 17.2797 2.0315 16.3972 2.00569ZM15.8655 15.5813C15.8655 15.9647 15.5449 16.2781 15.1527 16.2781H2.82086C2.42866 16.2781 2.1081 15.9647 2.1081 15.5813V8.98889C2.1081 8.60544 2.42866 8.29205 2.82086 8.29205H15.1527C15.5449 8.29205 15.8655 8.60544 15.8655 8.98889V15.5813Z" fill="#BD7CDC"/>
<path d="M3.42058 4.78943H4.55949C4.90644 4.78943 5.18551 4.51659 5.18551 4.17739V0.612044C5.18551 0.272839 4.90267 0 4.55949 0H3.42058C3.07363 0 2.79456 0.272839 2.79456 0.612044V4.18107C2.79456 4.51659 3.0774 4.78943 3.42058 4.78943Z" fill="#BD7CDC"/>
<path d="M13.4104 4.78943H14.5494C14.8925 4.78943 15.1754 4.51659 15.1754 4.17739V0.612044C15.1754 0.272839 14.8963 0 14.5494 0H13.4104C13.0673 0 12.7844 0.272839 12.7844 0.612044V4.18107C12.7844 4.51659 13.0673 4.78943 13.4104 4.78943Z" fill="#BD7CDC"/>
</svg>
