<svg width="18" height="18" viewBox="0 0 18 18" fill="none" xmlns="http://www.w3.org/2000/svg">
<path d="M9 0C4.03734 0 0 4.03734 0 9C0 10.6159 0.432737 12.1903 1.24757 13.576L0.0322251 17.9678L4.42404 16.7524C5.80511 17.5719 7.37954 18 9 18C13.9627 18 18 13.9627 18 9C18 4.03734 13.9627 0 9 0ZM3.6 5.80051C3.6 5.37238 3.94987 5.02711 4.3734 5.02711H13.622C14.0501 5.02711 14.3954 5.37698 14.3954 5.80051C14.3954 6.22864 14.0455 6.57391 13.622 6.57391H4.3734C3.94527 6.57852 3.6 6.22864 3.6 5.80051ZM13.622 13.3043H4.3734C3.94527 13.3043 3.6 12.9545 3.6 12.5309C3.6 12.1074 3.94987 11.7575 4.3734 11.7575H13.622C14.0501 11.7575 14.3954 12.1074 14.3954 12.5309C14.3954 12.9545 14.0501 13.3043 13.622 13.3043ZM14.4184 9.16573C14.4184 9.59386 14.0685 9.93913 13.645 9.93913H4.39182C3.96368 9.93913 3.61841 9.58926 3.61841 9.16573C3.61841 8.7376 3.96829 8.39233 4.39182 8.39233H13.6404C14.0685 8.38772 14.4184 8.7376 14.4184 9.16573Z" fill="#4B8DBC"/>
</svg>
