<svg width="22" height="24" viewBox="0 0 22 24" fill="none" xmlns="http://www.w3.org/2000/svg">
<path d="M12.4753 19.4683C13.2559 20.0025 14.3004 20.0831 15.1688 19.5756C16.0373 19.0681 16.4838 18.116 16.4075 17.1702L12.4753 19.4683Z" fill="#008D96"/>
<path d="M19.9495 13.4415L17.8213 12.2594C16.8387 11.714 16.0211 10.909 15.4571 9.93251L14.5391 8.34283C13.3801 6.33593 11.0711 5.4167 8.9383 5.93364L8.28099 4.79545C7.87707 4.09604 6.9843 3.85779 6.29041 4.26422C5.59651 4.67066 5.3607 5.56996 5.76462 6.26938L6.42193 7.40756C4.92118 9.01894 4.57285 11.4946 5.73186 13.5015L6.64991 15.0912C7.21385 16.0677 7.50393 17.1808 7.48945 18.3103L7.45737 20.7578C7.45563 20.8903 7.52467 21.0128 7.63816 21.0796C7.75164 21.1463 7.89097 21.147 8.00421 21.0807L19.9568 14.0796C20.0701 14.0133 20.139 13.8907 20.1379 13.7589C20.1367 13.6272 20.0638 13.5053 19.9495 13.4415Z" fill="#008D96"/>
</svg>
