<svg width="50" height="50" viewBox="0 0 50 50" fill="none" xmlns="http://www.w3.org/2000/svg">
<circle cx="25" cy="25" r="24.5" fill="white" stroke="#F2F2F2"/>
<g clip-path="url(#clip0)">
<path d="M33.5966 30.2254L30.8168 27.4453C30.2631 26.8938 29.3462 26.9106 28.7732 27.4838L27.3727 28.884C27.2842 28.8352 27.1926 28.7843 27.0963 28.7302C26.212 28.2402 25.0015 27.5685 23.7278 26.2939C22.4503 25.0165 21.778 23.8042 21.2865 22.9193C21.2346 22.8255 21.1849 22.7351 21.1358 22.6493L22.0758 21.7107L22.5379 21.2481C23.1117 20.674 23.1275 19.7574 22.5752 19.2043L19.7953 16.4239C19.2429 15.8716 18.3256 15.8884 17.7518 16.4624L16.9683 17.2503L16.9897 17.2716C16.727 17.6068 16.5075 17.9934 16.3441 18.4103C16.1935 18.8071 16.0998 19.1858 16.0569 19.5653C15.6899 22.6083 17.0804 25.3893 20.8542 29.1632C26.0707 34.3793 30.2746 33.9853 30.4559 33.966C30.8509 33.9188 31.2294 33.8244 31.6141 33.675C32.0274 33.5136 32.4137 33.2944 32.7487 33.0322L32.7659 33.0474L33.5595 32.2703C34.1322 31.6963 34.1487 30.7794 33.5966 30.2254Z" fill="#008D96"/>
</g>
<defs>
<clipPath id="clip0">
<rect width="18" height="18" fill="white" transform="translate(16.0001 16)"/>
</clipPath>
</defs>
</svg>
