<svg width="34" height="24" viewBox="0 0 34 24" fill="none" xmlns="http://www.w3.org/2000/svg">
<path d="M11.3863 0H15.086L22.3629 7.35484H15.852L11.3863 0Z" fill="#AEAEAE"/>
<path d="M4.5293 13.2871C3.8947 12.8639 3.39712 12.2615 3.0984 11.5548L0 4.25806H1.10302L5.02868 8.34194C5.08256 8.3975 5.14694 8.44155 5.218 8.47147C5.28905 8.5014 5.36533 8.51658 5.44231 8.51613H26.8209C30.8117 8.51613 33.5998 10.6723 33.5998 13.7574C33.6009 13.7801 33.5974 13.8028 33.5896 13.8241C33.5818 13.8454 33.5699 13.8649 33.5546 13.8815C33.5392 13.8981 33.5208 13.9114 33.5003 13.9207C33.4797 13.93 33.4576 13.935 33.4351 13.9355H24.7068C24.5545 13.9356 24.4084 13.9969 24.3008 14.1058L14.5115 24H10.8004L16.3882 14.8219C16.4422 14.7339 16.4719 14.6328 16.4742 14.5292C16.4765 14.4256 16.4513 14.3233 16.4013 14.2328C16.3513 14.1424 16.2782 14.0671 16.1897 14.0148C16.1012 13.9625 16.0005 13.9351 15.898 13.9355H6.66788C5.90756 13.9358 5.1639 13.7104 4.5293 13.2871Z" fill="#AEAEAE"/>
<path d="M11.3824 0H15.0821L23.7223 8.69144H16.658L11.3824 0Z" fill="#AEAEAE"/>
</svg>
