<svg width="30" height="30" viewBox="0 0 30 30" fill="none" xmlns="http://www.w3.org/2000/svg">
<circle cx="15" cy="15" r="15" fill="#FFC107"/>
<path d="M21.4851 12.83C21.4851 12.865 21.4851 12.905 21.4753 12.94L20.6738 16.24C20.6349 16.405 20.4892 16.525 20.324 16.525L15.5146 16.55H10.7003C10.5351 16.55 10.3894 16.435 10.3457 16.265L9.5441 12.955C9.53438 12.915 9.53438 12.875 9.53438 12.84C9.22347 12.74 9 12.44 9 12.09C9 11.655 9.34492 11.3 9.76756 11.3C10.1902 11.3 10.5351 11.655 10.5351 12.09C10.5351 12.335 10.4283 12.555 10.2534 12.7L11.259 13.74C11.5067 14 11.8614 14.15 12.2209 14.15C12.6484 14.15 13.0516 13.94 13.309 13.595L14.9559 11.345C14.815 11.205 14.7324 11.005 14.7324 10.79C14.7324 10.355 15.0774 10 15.5 10C15.9226 10 16.2676 10.355 16.2676 10.79C16.2676 11 16.185 11.19 16.0538 11.335L17.691 13.59C17.9484 13.94 18.3516 14.15 18.7791 14.15C19.1435 14.15 19.4836 14.005 19.741 13.74L20.7515 12.7C20.5766 12.555 20.4649 12.335 20.4649 12.085C20.4649 11.65 20.8098 11.295 21.2324 11.295C21.6551 11.295 22 11.65 22 12.085C21.9951 12.43 21.7814 12.72 21.4851 12.83ZM20.596 17.725C20.596 17.52 20.4309 17.35 20.2317 17.35H10.8072C10.608 17.35 10.4428 17.52 10.4428 17.725V18.625C10.4428 18.83 10.608 19 10.8072 19H20.2317C20.4309 19 20.596 18.83 20.596 18.625V17.725Z" fill="white"/>
</svg>
