<svg width="17" height="11" viewBox="0 0 17 11" fill="none" xmlns="http://www.w3.org/2000/svg">
<path d="M4.4556 10.0428L7.18376 7.31468C7.35021 7.14823 7.35021 6.87828 7.18376 6.71183C7.01727 6.54534 6.74739 6.54534 6.5809 6.71183L4.58045 8.71228L4.58045 1.42627C4.58045 1.19087 4.38958 1 4.15418 1C3.91881 1 3.7279 1.19087 3.7279 1.42627L3.7279 8.71228L1.72745 6.71189C1.56097 6.54541 1.29109 6.54541 1.1246 6.71189C1.04143 6.7951 0.999753 6.90423 0.999753 7.01332C0.999753 7.12241 1.04143 7.23151 1.1246 7.31475L3.85275 10.0428C4.01924 10.2093 4.28912 10.2093 4.4556 10.0428Z" fill="#2B2323" stroke="#2B2323" stroke-width="0.8"/>
<path d="M12.853 1.12489L10.1248 3.85304C9.95839 4.0195 9.95839 4.28945 10.1248 4.4559C10.2913 4.62238 10.5612 4.62238 10.7277 4.4559L12.7281 2.45545L12.7281 9.74145C12.7281 9.97686 12.919 10.1677 13.1544 10.1677C13.3898 10.1677 13.5807 9.97686 13.5807 9.74145L13.5807 2.45545L15.5811 4.45583C15.7476 4.62232 16.0175 4.62232 16.184 4.45583C16.2672 4.37262 16.3088 4.2635 16.3088 4.1544C16.3088 4.04531 16.2672 3.93622 16.184 3.85298L13.4558 1.12489C13.2894 0.958408 13.0195 0.958408 12.853 1.12489Z" fill="#2B2323" stroke="#2B2323" stroke-width="0.8"/>
</svg>
