<svg width="25" height="16" viewBox="0 0 25 16" fill="none" xmlns="http://www.w3.org/2000/svg">
<path d="M6.26734 14.8089L10.4254 10.6429C10.6791 10.3887 10.6791 9.97646 10.4254 9.72228C10.1717 9.46805 9.76036 9.46805 9.50661 9.72228L6.45763 12.7771L6.45763 1.65094C6.45763 1.29147 6.16672 1 5.80792 1C5.44918 1 5.15822 1.29147 5.15822 1.65094L5.15822 12.7771L2.10923 9.72238C1.85548 9.46815 1.44414 9.46815 1.19039 9.72238C1.06362 9.84945 1.00011 10.0161 1.00011 10.1827C1.00011 10.3493 1.06362 10.5159 1.19039 10.643L5.3485 14.8089C5.60225 15.0631 6.01359 15.0631 6.26734 14.8089Z" fill="#2B2323" stroke="#2B2323" stroke-width="0.8"/>
<path d="M19.066 1.19109L14.9079 5.35713C14.6542 5.61131 14.6542 6.02354 14.9079 6.27772C15.1617 6.53195 15.573 6.53195 15.8268 6.27772L18.8757 3.22292L18.8757 14.3491C18.8757 14.7085 19.1667 15 19.5255 15C19.8842 15 20.1752 14.7085 20.1752 14.3491L20.1752 3.22292L23.2241 6.27762C23.4779 6.53185 23.8892 6.53185 24.143 6.27762C24.2698 6.15055 24.3333 5.98391 24.3333 5.81732C24.3333 5.65073 24.2698 5.48414 24.143 5.35703L19.9849 1.19109C19.7311 0.936861 19.3198 0.936861 19.066 1.19109Z" fill="#2B2323" stroke="#2B2323" stroke-width="0.8"/>
</svg>
