<svg width="35" height="33" viewBox="0 0 35 33" fill="none" xmlns="http://www.w3.org/2000/svg">
<path d="M22.4086 11.1946L22.5278 11.4721L22.829 11.4957L34.1615 12.3825L34.181 12.3841H34.2005C34.2805 12.3841 34.4016 12.4437 34.4689 12.6428C34.5333 12.8335 34.4942 13.0124 34.398 13.1153L25.7792 20.5516L25.5513 20.7483L25.6185 21.0418L28.1368 32.0389L28.1367 32.039L28.1395 32.0502C28.1681 32.1631 28.1147 32.3253 27.9671 32.4344C27.9 32.484 27.8412 32.4994 27.8059 32.5C27.7813 32.5004 27.7541 32.4956 27.7161 32.4582L27.6724 32.4151L27.6196 32.3839L17.7261 26.5305L17.4715 26.3799L17.2169 26.5305L7.34201 32.3729C7.14406 32.4649 6.98826 32.425 6.90256 32.3635C6.81927 32.3038 6.76506 32.202 6.80354 32.0502L6.80446 32.0465L9.50269 21.0493L9.5757 20.7517L9.34372 20.5516L0.709398 13.1019L0.695175 13.0896L0.680072 13.0784C0.570587 12.9975 0.527924 12.9231 0.511559 12.8738C0.495423 12.8252 0.49566 12.7746 0.515605 12.7195C0.555742 12.6087 0.697496 12.4458 0.993246 12.3801L12.294 11.4957L12.5951 11.4721L12.7143 11.1946L17.2043 0.746077C17.3032 0.560283 17.447 0.5 17.5615 0.5C17.676 0.5 17.8197 0.560285 17.9187 0.746083L22.4086 11.1946Z" stroke="#AEAEAE"/>
</svg>
