<svg width="36" height="38" viewBox="0 0 36 38" fill="none" xmlns="http://www.w3.org/2000/svg">
<path d="M35.7493 16.8802C35.6282 16.1213 34.9148 15.6043 34.1559 15.7254C33.397 15.8464 32.88 16.5598 33.0011 17.3187C33.0024 17.3271 33.0037 17.3353 33.0052 17.3435C34.4222 25.6852 28.8087 33.5962 20.467 35.0132C12.1254 36.4302 4.21442 30.8167 2.79738 22.475C1.38034 14.1334 6.99394 6.2224 15.3355 4.80537C20.4655 3.93395 25.6871 5.72587 29.2009 9.56369L23.0366 11.6175C22.3074 11.8601 21.913 12.6479 22.1556 13.3771C22.1557 13.3773 22.1557 13.3775 22.1558 13.3777C22.3985 14.1069 23.1862 14.5013 23.9155 14.2587C23.9157 14.2587 23.9159 14.2586 23.916 14.2586L32.265 11.4756C32.8334 11.2863 33.2169 10.7543 33.2168 10.1551V1.80619C33.2168 1.03766 32.5938 0.414673 31.8253 0.414673C31.0567 0.414673 30.4338 1.03766 30.4338 1.80619V6.88926C23.2677 0.073459 11.9331 0.357437 5.11731 7.5235C-1.69849 14.6896 -1.4146 26.0242 5.75155 32.84C12.9177 39.6559 24.2522 39.3719 31.0681 32.2058C34.9547 28.1194 36.6892 22.4409 35.7493 16.8802Z" fill="black"/>
</svg>
