<svg width="50" height="50" viewBox="0 0 50 50" fill="none" xmlns="http://www.w3.org/2000/svg">
<circle cx="25" cy="25" r="24.5" fill="white" stroke="#F2F2F2"/>
<path d="M24.5 15C19.2616 15 15 19.2616 15 24.5C15 26.2056 15.4568 27.8675 16.3169 29.3302L15.034 33.966L19.6698 32.6831C21.1276 33.5481 22.7895 34 24.5 34C29.7384 34 34 29.7384 34 24.5C34 19.2616 29.7384 15 24.5 15ZM18.8 21.1228C18.8 20.6708 19.1693 20.3064 19.6164 20.3064H29.3788C29.8307 20.3064 30.1951 20.6757 30.1951 21.1228C30.1951 21.5747 29.8258 21.9391 29.3788 21.9391H19.6164C19.1645 21.944 18.8 21.5747 18.8 21.1228ZM29.3788 29.0435H19.6164C19.1645 29.0435 18.8 28.6742 18.8 28.2271C18.8 27.7801 19.1693 27.4107 19.6164 27.4107H29.3788C29.8307 27.4107 30.1951 27.7801 30.1951 28.2271C30.1951 28.6742 29.8307 29.0435 29.3788 29.0435ZM30.2194 24.6749C30.2194 25.1269 29.8501 25.4913 29.4031 25.4913H19.6358C19.1839 25.4913 18.8194 25.122 18.8194 24.6749C18.8194 24.223 19.1887 23.8586 19.6358 23.8586H29.3982C29.8501 23.8537 30.2194 24.223 30.2194 24.6749Z" fill="#4B8DBC"/>
</svg>
