<svg width="51" height="51" viewBox="0 0 51 51" fill="none" xmlns="http://www.w3.org/2000/svg">
<circle cx="25.0728" cy="25.0728" r="24.5" transform="rotate(0.167159 25.0728 25.0728)" fill="white" stroke="#F2F2F2"/>
<g clip-path="url(#clip0)">
<path d="M32.2166 27.3204C31.1855 27.3174 30.3442 28.154 30.3412 29.1849C30.3382 30.2159 31.1746 31.0572 32.2057 31.0602C33.2365 31.0632 34.078 30.2268 34.081 29.1958C34.0841 28.1649 33.2475 27.3234 32.2166 27.3204ZM32.2095 29.7403C31.9062 29.7394 31.6603 29.4921 31.6612 29.1887C31.662 28.8854 31.9094 28.6395 32.2127 28.6403C32.5161 28.6412 32.762 28.8886 32.7611 29.1919C32.7602 29.4953 32.5129 29.7412 32.2095 29.7403Z" fill="#BD7CDC"/>
<path d="M32.0593 19.5468L28.8285 19.5374C28.5854 19.5367 28.388 19.7333 28.3873 19.9761L28.3622 28.5557C28.3615 28.7986 28.5578 28.9963 28.8009 28.997L29.2675 28.9983C29.4853 28.999 29.6787 28.8427 29.7075 28.6267C29.884 27.3042 30.9417 26.4868 32.2183 26.4905C33.4949 26.4942 34.5478 27.3179 34.7166 28.6414C34.7442 28.8575 34.9364 29.0149 35.1544 29.0155L35.6206 29.0169C35.8634 29.0176 36.0611 28.821 36.0618 28.5782L36.0744 24.2884C36.0747 24.185 36.0386 24.085 35.9727 24.0058L32.3963 19.7056C32.313 19.6055 32.1895 19.5472 32.0593 19.5468ZM29.2582 23.0585L29.2647 20.8586C29.2654 20.6158 29.4628 20.4192 29.7059 20.4199L31.644 20.4256C31.7745 20.426 31.8982 20.4844 31.9815 20.585L33.8082 22.7902C34.0461 23.0775 33.8411 23.5119 33.468 23.5108L29.6969 23.4998C29.4538 23.4991 29.2575 23.3016 29.2582 23.0585Z" fill="#BD7CDC"/>
<path d="M14.5024 28.9554L15.629 28.9587C15.8467 28.9594 16.0401 28.803 16.0689 28.5871C16.2454 27.2646 17.3031 26.4471 18.5797 26.4509C19.8563 26.4546 20.9092 27.2782 21.0781 28.6017C21.1056 28.8179 21.2978 28.9753 21.5158 28.9759L27.0418 28.992C27.2847 28.9927 27.4823 28.7962 27.483 28.5533L27.5151 17.5538C27.5158 17.311 27.3193 17.1133 27.0764 17.1126L14.537 17.076C14.2939 17.0753 14.0965 17.2718 14.0958 17.5147L14.0637 28.5142C14.063 28.7571 14.2593 28.9547 14.5024 28.9554Z" fill="#BD7CDC"/>
<path d="M18.5778 27.2804C17.5467 27.2773 16.7054 28.114 16.7024 29.1448C16.6994 30.1759 17.5358 31.0172 18.5669 31.0202C19.5978 31.0232 20.4393 30.1868 20.4423 29.1557C20.4453 28.1249 19.6087 27.2834 18.5778 27.2804ZM18.5707 29.7002C18.2674 29.6994 18.0215 29.452 18.0224 29.1487C18.0233 28.8453 18.2706 28.5994 18.5739 28.6003C18.8773 28.6012 19.1232 28.8485 19.1223 29.1519C19.1214 29.4552 18.8741 29.7011 18.5707 29.7002Z" fill="#BD7CDC"/>
</g>
<defs>
<clipPath id="clip0">
<rect width="21.999" height="13.9324" fill="white" transform="translate(14.097 17.0747) rotate(0.167159)"/>
</clipPath>
</defs>
</svg>
