<svg width="44" height="44" viewBox="0 0 44 44" fill="none" xmlns="http://www.w3.org/2000/svg">
<circle cx="22" cy="22" r="21.5" fill="white" stroke="#F2F2F2"/>
<path d="M30.8419 29.3349L30.8419 29.3349L30.8398 29.3326L26.7117 24.9512C27.7675 23.6156 28.3398 21.9766 28.3398 20.2759C28.3398 16.1921 25.1037 12.875 21.1074 12.875C17.1111 12.875 13.875 16.1921 13.875 20.2759C13.875 24.3598 17.1111 27.6768 21.1074 27.6768C22.5799 27.6768 23.9643 27.2475 25.1705 26.389L29.2978 30.8007L29.2978 30.8007L29.2997 30.8026C29.5084 31.0162 29.7568 31.125 30.069 31.125C30.3509 31.125 30.5951 31.016 30.799 30.842L30.7991 30.8421L30.8034 30.8381C31.2284 30.4393 31.2228 29.7603 30.8419 29.3349ZM21.1074 15.0231C23.9404 15.0231 26.2357 17.3685 26.2357 20.2759C26.2357 23.1833 23.9404 25.5288 21.1074 25.5288C18.2744 25.5288 15.9791 23.1833 15.9791 20.2759C15.9791 17.3685 18.2744 15.0231 21.1074 15.0231Z" fill="#AEAEAE" stroke="#AEAEAE" stroke-width="0.25"/>
</svg>
