<svg width="38" height="39" viewBox="0 0 38 39" fill="none" xmlns="http://www.w3.org/2000/svg">
<path d="M36.5637 17.4655C36.4426 16.7066 35.7292 16.1896 34.9703 16.3107C34.2114 16.4318 33.6944 17.1452 33.8155 17.9041C33.8168 17.9124 33.8182 17.9206 33.8197 17.9289C35.2367 26.2705 29.6232 34.1815 21.2815 35.5985C12.9398 37.0156 5.02887 31.402 3.61183 23.0604C2.19479 14.7187 7.8084 6.80773 16.15 5.39069C21.2799 4.51927 26.5015 6.3112 30.0154 10.149L23.8511 12.2028C23.1219 12.4455 22.7275 13.2332 22.97 13.9625C22.9701 13.9626 22.9702 13.9629 22.9703 13.963C23.2129 14.6923 24.0007 15.0866 24.7299 14.8441C24.7302 14.844 24.7303 14.8439 24.7305 14.8439L33.0794 12.061C33.6479 11.8716 34.0313 11.3396 34.0312 10.7405V2.39152C34.0312 1.62299 33.4083 1 32.6397 1C31.8712 1 31.2482 1.62299 31.2482 2.39152V7.47459C24.0821 0.658786 12.7476 0.942764 5.93176 8.10883C-0.88404 15.2749 -0.600143 26.6095 6.566 33.4254C13.7321 40.2412 25.0666 39.9573 31.8825 32.7911C35.7691 28.7047 37.5036 23.0262 36.5637 17.4655Z" fill="black" stroke="black"/>
</svg>
