<svg width="17" height="19" viewBox="0 0 17 19" fill="none" xmlns="http://www.w3.org/2000/svg">
<path d="M16.7995 5.47733C16.7785 5.00232 16.7785 4.55254 16.7785 4.09854C16.7785 3.73283 16.4969 3.45118 16.1311 3.45118C13.4408 3.45118 10.5571 1.83699 8.85464 0.176553C8.59822 -0.0588509 8.20728 -0.0588509 7.95086 0.176553C6.25259 1.83699 3.36468 3.45539 0.674351 3.45539C0.308634 3.45539 0.0269904 3.73703 0.0269904 4.10275C0.0269904 4.55674 0.0269904 5.00653 0.00597217 5.48154C-0.0781007 10.0004 0.632315 15.3601 8.18626 17.9621L8.40065 18.0042L8.61503 17.9621C16.1522 15.3559 16.8836 10.0173 16.7995 5.47733ZM7.67342 12.3671C7.49266 12.5184 7.27827 12.6109 7.03867 12.6109H7.00924C6.76543 12.6109 6.52582 12.489 6.37449 12.3082L4.17178 9.86593C3.83549 9.49181 3.86492 8.9117 4.24324 8.57962L4.24745 8.57541C4.62157 8.24333 5.19327 8.27695 5.52535 8.64687L7.13115 10.4292L11.3726 6.39793C11.7383 6.04903 12.3184 6.06584 12.6631 6.43576C13.0036 6.80148 12.9868 7.37317 12.6211 7.71787L7.67342 12.3671Z" fill="#8DE5F1"/>
</svg>
