<svg width="23" height="20" viewBox="0 0 23 20" fill="none" xmlns="http://www.w3.org/2000/svg">
<path d="M0.406222 9.58993L5.69918 11.5654L7.74788 18.154C7.87896 18.576 8.39497 18.732 8.73746 18.4519L11.6878 16.0467C11.9971 15.7948 12.4376 15.7822 12.7608 16.0168L18.0823 19.8803C18.4486 20.1466 18.9677 19.9458 19.0596 19.5031L22.9578 0.751873C23.0581 0.268259 22.5829 -0.135187 22.1225 0.0429145L0.40002 8.42278C-0.136044 8.62951 -0.131374 9.38847 0.406222 9.58993ZM7.41771 10.5138L17.7621 4.14268C17.948 4.02852 18.1393 4.2799 17.9797 4.42798L9.44252 12.3637C9.14244 12.643 8.94887 13.0168 8.89405 13.4225L8.60324 15.5777C8.56472 15.8654 8.16051 15.894 8.08111 15.6155L6.96265 11.6856C6.83455 11.2373 7.02123 10.7585 7.41771 10.5138Z" fill="#2DA4D7"/>
</svg>
