<svg width="10" height="10" viewBox="0 0 10 10" fill="none" xmlns="http://www.w3.org/2000/svg">
<path d="M5 0C2.2428 0 0 2.2428 0 5C0 7.7572 2.2428 10 5 10C7.7572 10 10 7.7572 10 5C10 2.2428 7.7572 0 5 0ZM5 8.93004C2.82922 8.93004 1.06996 7.16049 1.06996 5C1.06996 2.83951 2.83951 1.06996 5 1.06996C7.16049 1.06996 8.93004 2.83951 8.93004 5C8.93004 7.16049 7.17078 8.93004 5 8.93004Z" fill="#AEAEAE"/>
<path d="M7.60295 4.84568H5.36015V2.13992C5.36015 1.91358 5.17497 1.72839 4.94863 1.72839C4.72229 1.72839 4.53711 1.91358 4.53711 2.13992V5.2572C4.53711 5.48354 4.72229 5.66872 4.94863 5.66872H7.60295C7.82929 5.66872 8.01448 5.48354 8.01448 5.2572C8.01448 5.03086 7.82929 4.84568 7.60295 4.84568Z" fill="#AEAEAE"/>
</svg>
