<svg width="26" height="24" viewBox="0 0 26 24" fill="none" xmlns="http://www.w3.org/2000/svg">
<path d="M19.8101 19.5128H21.2548C21.6973 19.5128 22.0559 19.1517 22.0559 18.7063V3.16732C22.0559 2.05376 21.1592 1.15106 20.0532 1.15106H15.6557V0H10.5443V1.15106H6.14679C5.0407 1.15106 4.14405 2.05376 4.14405 3.16732V18.7062C4.14405 19.1517 4.50271 19.5127 4.94516 19.5127H6.38993L0.599976 24H4.32183L8.85802 19.5128H17.3419L21.8781 24H25.6L19.8101 19.5128ZM17.3419 16.9699C17.3419 16.2875 17.8914 15.7343 18.5693 15.7343C19.2471 15.7343 19.7965 16.2875 19.7965 16.9699C19.7965 17.6523 19.2471 18.2055 18.5693 18.2055C17.8914 18.2055 17.3419 17.6523 17.3419 16.9699ZM7.71636 18.2055C7.03854 18.2055 6.48907 17.6523 6.48907 16.9699C6.48907 16.2875 7.03854 15.7343 7.71636 15.7343C8.39418 15.7343 8.94368 16.2875 8.94368 16.9699C8.94368 17.6523 8.39418 18.2055 7.71636 18.2055ZM6.53772 11.8167C6.31652 11.8167 6.13719 11.6362 6.13719 11.4135V3.60481C6.13719 3.38212 6.31652 3.20158 6.53772 3.20158H19.6623C19.8835 3.20158 20.0628 3.38212 20.0628 3.60481V11.4135C20.0628 11.6362 19.8835 11.8167 19.6623 11.8167H6.53772Z" fill="#AEAEAE"/>
</svg>
