<svg width="11" height="17" viewBox="0 0 11 17" fill="none" xmlns="http://www.w3.org/2000/svg">
<path d="M5.36842 17C2.40793 17 0 14.6172 0 11.6875V4.25C0 3.85831 0.320716 3.54171 0.715746 3.54171C1.11091 3.54171 1.43162 3.85831 1.43162 4.25V11.6875C1.43162 13.8352 3.19746 15.5833 5.36842 15.5833C7.53938 15.5833 9.30522 13.8352 9.30522 11.6875V3.89579C9.30522 2.52876 8.18147 1.41671 6.80004 1.41671C5.41849 1.41671 4.29474 2.52876 4.29474 3.89579V10.9792C4.29474 11.5649 4.7764 12.0417 5.36842 12.0417C5.96044 12.0417 6.44211 11.5649 6.44211 10.9792V4.25C6.44211 3.85831 6.76282 3.54171 7.15785 3.54171C7.55301 3.54171 7.87373 3.85831 7.87373 4.25V10.9792C7.87373 12.3462 6.74985 13.4583 5.36842 13.4583C3.987 13.4583 2.86311 12.3462 2.86311 10.9792V3.89579C2.86311 1.74822 4.62895 0 6.80004 0C8.971 0 10.7368 1.74822 10.7368 3.89579V11.6875C10.7368 14.6172 8.32892 17 5.36842 17Z" fill="#AEAEAE"/>
</svg>
