<svg width="44" height="44" viewBox="0 0 44 44" fill="none" xmlns="http://www.w3.org/2000/svg">
<path d="M44 22C44 26.29 42.79 30.2867 40.6633 33.66C36.7767 39.8567 29.8833 44 22 44C21.34 44 20.7167 43.9633 20.0567 43.9267C18.4067 43.78 16.7933 43.45 15.29 42.9733C14.3367 42.68 13.42 42.3133 12.54 41.8733C12.1 41.69 11.6967 41.47 11.2567 41.2133C10.56 40.81 9.86333 40.37 9.20333 39.93C8.25 39.27 7.37 38.5 6.56333 37.6933C5.09667 36.2267 3.81333 34.5767 2.78667 32.78C1.02667 29.59 0 25.9233 0 22C0 9.86333 9.86333 0 22 0C34.1367 0 44 9.86333 44 22Z" fill="#C6C9CB"/>
<path d="M40.6635 33.6599C36.7769 39.8565 29.8835 43.9999 22.0002 43.9999C21.3402 43.9999 20.7169 43.9632 20.0569 43.9265C18.6635 42.2032 17.8202 39.0132 18.3335 37.8399C18.8102 36.7399 19.5069 35.8232 20.3135 35.0532C21.5969 33.8799 23.2469 33.1099 24.8235 32.8165C27.7202 32.2299 30.6535 31.5699 33.5869 31.3499C36.1169 31.1299 39.7469 30.7265 40.6635 33.6599Z" fill="#DCD7CC"/>
<path d="M20.3508 35.0166L20.0942 43.8899C18.4442 43.7433 16.8308 43.4133 15.3275 42.9366C15.3642 42.8999 15.8408 42.4599 16.7942 39.3066C17.7108 36.0433 20.1675 35.0899 20.3508 35.0166C20.3142 35.0166 20.3508 35.0166 20.3508 35.0166Z" fill="#DCD7CC"/>
<path d="M38.3524 25.1532C38.3524 25.1899 38.3524 25.1899 38.3524 25.1532C38.3158 25.3366 38.2424 25.4832 38.2058 25.6299C36.8491 29.9199 32.6324 33.8432 26.8758 35.6032C21.3024 37.3266 15.7291 36.5199 12.2091 33.9166C10.5591 32.7066 9.38576 31.1299 8.7991 29.2599C8.21243 27.3532 8.32243 25.3732 9.0191 23.4666C9.16576 23.0266 9.38577 22.5866 9.60577 22.1466C9.60577 22.1466 9.5691 22.1099 9.60577 22.1099C10.8891 19.2499 15.0324 16.3166 15.0324 16.3166C16.1691 15.5466 17.4524 14.8866 18.8458 14.3732C19.2491 14.2266 19.6524 14.0799 20.0924 13.9332C20.1291 13.8966 20.2024 13.8966 20.2758 13.8966H20.3858H20.4591L21.0458 13.7866C21.0458 13.7866 23.8691 13.0899 24.8224 13.0532C24.8591 13.0166 25.8858 12.9066 27.7191 13.1266C28.8924 13.2732 30.4324 13.5666 32.1558 14.0799C32.3758 14.1532 32.5591 14.2266 32.7791 14.2632L34.0258 14.9599C34.0624 14.9966 34.1358 15.0332 34.1724 15.0332C34.5391 15.2532 34.8691 15.4732 35.1991 15.7299C35.2358 15.7666 35.4924 15.9499 35.4924 15.9866C35.5291 16.0232 35.6391 16.1332 35.6758 16.1699C35.6758 16.1699 35.6758 16.1699 35.7124 16.2066C35.7491 16.2432 35.7858 16.2799 35.8591 16.3166C35.8958 16.3532 36.1158 16.5732 36.1158 16.5732C36.1524 16.6099 36.2624 16.7199 36.2624 16.7199C36.2991 16.7566 36.4091 16.8666 36.4458 16.9032L36.6658 17.1599C36.6658 17.1599 36.8491 17.3799 36.9224 17.4532C36.9958 17.5266 37.1791 17.8199 37.2158 17.8566C37.2524 17.8932 37.3624 18.1132 37.3991 18.1499L37.4724 18.2599C37.4724 18.2599 37.6191 18.5166 37.6558 18.5899C37.6924 18.6266 37.6924 18.6632 37.7291 18.7366C37.7291 18.7732 37.7658 18.8099 37.7658 18.8466C37.8024 18.9199 38.0591 19.4699 38.0591 19.5066C38.0958 19.5799 38.1324 19.6532 38.1324 19.7266C38.1324 19.7632 38.1691 19.7999 38.1691 19.8366C38.2058 19.8732 38.2058 19.9466 38.2424 19.9832C38.2424 20.0199 38.6091 22.4399 38.4991 24.1999C38.4624 24.6032 38.4258 24.8966 38.3524 25.1532Z" fill="#EEECE8"/>
<path d="M11.1828 22.9533C11.1828 22.9533 11.1095 22.5133 10.0828 21.12C9.05615 19.7267 9.45948 18.8467 10.0828 18.2967C10.7061 17.7467 14.0428 18.9567 14.0428 18.9567C13.7128 20.68 12.6861 22.11 11.1828 22.9533Z" fill="#837973"/>
<path d="M38.4995 24.2732C36.4828 23.9065 33.0728 24.4932 29.4428 22.7698C29.4428 22.7698 29.4428 22.7698 29.4062 22.7698C29.1495 22.6598 28.9295 22.5132 28.6728 22.3665C27.7928 21.8532 26.8762 21.1198 25.9595 20.2765C25.7395 20.0932 25.5562 19.9098 25.3362 19.6898C23.3928 17.8565 21.4862 15.6565 20.1295 14.0065C20.0928 13.9698 20.0928 13.9698 20.0562 13.9332C20.0928 13.8965 20.1662 13.8965 20.2395 13.8965H20.3495H20.4228L21.0095 13.7865C21.0095 13.7865 23.8328 13.0898 24.7862 13.0532C24.8228 13.0165 25.8495 12.9065 27.6828 13.1265C28.1595 12.2098 29.1128 10.4498 29.7362 10.3765C29.9562 10.3398 30.2128 10.3765 30.4328 10.4132C31.0195 10.5965 31.5328 11.1098 31.7528 12.3198C31.8995 13.2365 32.0462 13.7498 32.1562 14.0432C32.3762 14.1165 32.5595 14.1898 32.7795 14.2265L34.0262 14.9232C34.0628 14.9598 34.1362 14.9965 34.1728 14.9965C34.5395 15.2165 34.8695 15.4365 35.1995 15.6932C35.2362 15.7298 35.4928 15.9132 35.4928 15.9498C35.5295 15.9865 35.6395 16.0965 35.6762 16.1332C35.6762 16.1332 35.6762 16.1332 35.7128 16.1698C35.7495 16.2065 35.7862 16.2432 35.8595 16.2799C35.8962 16.3165 36.1162 16.5365 36.1162 16.5365C36.1528 16.5732 36.2628 16.6832 36.2628 16.6832C36.2995 16.7198 36.4095 16.8298 36.4462 16.8665L36.6662 17.1232C36.6662 17.1232 36.8495 17.3432 36.9228 17.4165C36.9962 17.4898 37.1795 17.7832 37.2162 17.8198C37.2528 17.8565 37.3628 18.0765 37.3995 18.1132L37.4728 18.2232C37.4728 18.2232 37.6195 18.4798 37.6562 18.5532C37.6928 18.5898 37.6928 18.6265 37.7295 18.6998C37.7295 18.7365 37.7662 18.7732 37.7662 18.8098C37.8028 18.8832 38.0595 19.4332 38.0595 19.4698C38.0962 19.5432 38.1328 19.6165 38.1328 19.6898C38.1328 19.7265 38.1695 19.7632 38.1695 19.7998C38.2062 19.8365 38.2062 19.9099 38.2428 19.9465C38.2795 20.0932 38.6462 22.5132 38.4995 24.2732Z" fill="#E1B885"/>
<path d="M31.9711 14.2951L30.0309 13.7768L30.562 11.0092C31.04 11.153 31.4811 11.6195 31.6429 12.7373C31.7804 13.5631 31.9038 14.0367 31.9711 14.2951Z" fill="#EEECE8"/>
<path d="M37.6922 22.5133L33.4388 22.1466L37.3255 19.6899C37.3255 19.6899 37.9122 21.5599 37.6922 22.5133Z" fill="#CDA273"/>
<path d="M32.7063 20.8634L36.373 18.8467C36.373 18.8467 36.0796 17.4534 35.1263 16.8667L32.7063 20.8634Z" fill="#CDA273"/>
<path d="M32.1182 19.0668C32.1548 18.8834 33.8415 15.9501 33.8415 15.9501C33.8415 15.9501 33.2182 15.0334 32.3015 14.8501L32.1182 19.0668Z" fill="#CDA273"/>
<path d="M31.8613 20.7163C32.7413 23.5397 29.1479 25.6663 26.9113 23.9063C26.6913 23.723 26.5079 23.503 26.2146 23.4663C26.1046 21.5963 25.9213 19.4697 28.1946 18.773C29.7346 18.2597 31.3846 19.1397 31.8613 20.7163Z" fill="#623B28"/>
<path d="M15.5081 25.8497C16.3881 28.6731 20.5314 28.4531 21.4114 25.7031C21.4848 25.4464 21.5214 25.1164 21.7414 24.9331C20.7881 23.3197 19.7248 21.4497 17.4881 22.1464C15.9114 22.6597 15.0314 24.3097 15.5081 25.8497Z" fill="#623B28"/>
<path d="M24.4572 24.7499L24.4939 24.6033C24.6039 24.2366 24.2739 23.9066 23.9072 24.0166L23.7605 24.0533C23.3939 24.1633 23.3205 24.6399 23.6139 24.8599L23.7239 24.9333C23.9805 25.1899 24.3472 25.0433 24.4572 24.7499Z" fill="#BD8376"/>
<path d="M22.1104 31.8998C21.4504 32.0832 20.7171 32.1932 19.8738 32.2298C19.7638 32.2298 19.6904 32.1565 19.6904 32.0465C19.6904 31.9365 19.7638 31.8632 19.8738 31.8632C21.9638 31.7898 23.3938 31.2398 24.1271 30.1765C24.8238 29.1498 24.8604 27.7198 24.2371 25.8132C24.0538 25.2265 23.9438 24.9332 23.8704 24.7865C23.7971 24.7865 23.7238 24.7132 23.7238 24.6398C23.6871 24.4198 23.8338 24.3832 23.8704 24.3465C24.0538 24.3098 24.1271 24.4932 24.2004 24.6765C24.2738 24.8965 24.4204 25.2265 24.5671 25.7032C24.8238 26.5098 24.9704 27.2065 25.0071 27.8665C25.0804 28.8565 24.8604 29.7365 24.3838 30.3965C23.9071 31.0932 23.1371 31.6065 22.1104 31.8998Z" fill="#BD8376"/>
<path d="M29.5171 29.5531C28.7104 29.8098 27.9404 29.8098 27.2804 29.5898C26.5104 29.3331 25.8137 28.7831 25.2637 27.9398C24.8971 27.3898 24.6037 26.7664 24.3104 25.9598C24.1637 25.4831 24.0171 25.1531 23.9804 24.9331C23.9437 24.7498 23.8704 24.5664 24.0537 24.4564C24.0904 24.4198 24.2371 24.3831 24.3471 24.6031C24.3837 24.6764 24.3837 24.7498 24.3104 24.8231C24.3471 24.9698 24.4204 25.2631 24.6404 25.8498C25.3004 27.7564 26.2171 28.8564 27.3904 29.2598C28.6004 29.6264 30.0671 29.2231 31.7904 28.0131C31.8637 27.9398 31.9737 27.9764 32.0471 28.0498C32.1204 28.1231 32.0837 28.2331 32.0104 28.3064C31.1304 28.8931 30.2871 29.3331 29.5171 29.5531Z" fill="#BD8376"/>
<path d="M31.0211 22.5093C31.6255 21.2272 31.1207 19.7188 29.8935 19.1403C28.6662 18.5617 27.1814 19.1321 26.577 20.4143C25.9725 21.6964 26.4774 23.2048 27.7046 23.7834C28.9318 24.3619 30.4166 23.7915 31.0211 22.5093Z" fill="#1C0F08"/>
<path d="M18.9233 26.9933C20.2382 26.5209 20.9435 25.1337 20.4984 23.895C20.0534 22.6562 18.6266 22.035 17.3116 22.5074C15.9967 22.9798 15.2914 24.367 15.7365 25.6057C16.1815 26.8445 17.6083 27.4657 18.9233 26.9933Z" fill="#1C0F08"/>
<path d="M12.5403 41.8732C12.1003 41.6898 11.697 41.4698 11.257 41.2132C10.5603 40.8098 9.86363 40.3698 9.20363 39.9298C8.25029 39.2698 7.37029 38.4998 6.56363 37.6932C6.38029 37.3998 6.19696 37.1065 6.05029 36.8132C6.34363 36.4832 6.74696 36.2265 7.29696 36.0432C9.35029 35.4198 11.0736 36.6298 11.697 37.5098C12.2836 38.3898 12.5036 40.1498 12.5403 41.8732Z" fill="#DCD7CC"/>
<path d="M20.2204 24.842C20.6335 24.6269 20.7941 24.1176 20.579 23.7045C20.3639 23.2914 19.8546 23.1308 19.4415 23.3459C19.0284 23.561 18.8678 24.0703 19.0829 24.4834C19.298 24.8965 19.8073 25.0571 20.2204 24.842Z" fill="#F3F3F3"/>
<path d="M18.2381 23.2751C18.4177 23.1816 18.4875 22.9601 18.394 22.7805C18.3005 22.6009 18.0791 22.5311 17.8995 22.6246C17.7198 22.7181 17.65 22.9396 17.7435 23.1192C17.8371 23.2988 18.0585 23.3686 18.2381 23.2751Z" fill="#F3F3F3"/>
<path d="M31.0792 21.3249C31.4923 21.1098 31.6529 20.6005 31.4378 20.1874C31.2227 19.7743 30.7134 19.6137 30.3003 19.8288C29.8872 20.0439 29.7266 20.5532 29.9417 20.9663C30.1568 21.3794 30.6661 21.54 31.0792 21.3249Z" fill="#F3F3F3"/>
<path d="M29.0969 19.758C29.2765 19.6645 29.3463 19.4431 29.2528 19.2634C29.1593 19.0838 28.9378 19.014 28.7582 19.1075C28.5786 19.201 28.5088 19.4225 28.6023 19.6021C28.6958 19.7817 28.9172 19.8515 29.0969 19.758Z" fill="#F3F3F3"/>
</svg>
