<svg width="44" height="44" viewBox="0 0 44 44" fill="none" xmlns="http://www.w3.org/2000/svg">
<path d="M44 22C44 26.29 42.79 30.2867 40.6633 33.66C36.7767 39.8567 29.8833 44 22 44C21.34 44 20.7167 43.9633 20.0567 43.9267C18.4067 43.78 16.7933 43.45 15.29 42.9733C14.3367 42.68 13.42 42.3133 12.54 41.8733C12.1 41.69 11.6967 41.47 11.2567 41.2133C10.56 40.81 9.86333 40.37 9.20333 39.93C8.25 39.27 7.37 38.5 6.56333 37.6933C5.09667 36.2267 3.81333 34.5767 2.78667 32.78C1.02667 29.59 0 25.9233 0 22C0 9.86333 9.86333 0 22 0C34.1367 0 44 9.86333 44 22Z" fill="#C6C9CB"/>
<path d="M40.6635 33.6599C36.7769 39.8565 29.8835 43.9999 22.0002 43.9999C21.3402 43.9999 20.7169 43.9632 20.0569 43.9265C18.6635 42.2032 17.8202 39.0132 18.3335 37.8399C18.8102 36.7399 19.5069 35.8232 20.3135 35.0532C21.5969 33.8799 23.2469 33.1099 24.8235 32.8165C27.7202 32.2299 30.6535 31.5699 33.5869 31.3499C36.1169 31.1299 39.7469 30.7265 40.6635 33.6599Z" fill="#E5E5E5"/>
<path d="M20.3508 35.0166L20.0942 43.8899C18.4442 43.7433 16.8308 43.4133 15.3275 42.9366C15.3642 42.8999 15.8408 42.4599 16.7942 39.3066C17.7108 36.0433 20.1675 35.0899 20.3508 35.0166C20.3142 35.0166 20.3508 35.0166 20.3508 35.0166Z" fill="#E5E5E5"/>
<path d="M38.3522 25.1532C38.3522 25.1899 38.3522 25.1899 38.3522 25.1532C38.3155 25.3366 38.2422 25.4832 38.2055 25.6299C36.8489 29.9199 32.6322 33.8432 26.8755 35.6032C21.3022 37.3266 15.7289 36.5199 12.2089 33.9166C10.5589 32.7066 9.38552 31.1299 8.79885 29.2599C8.21219 27.3532 8.32219 25.3732 9.01885 23.4666C9.16552 23.0266 9.38552 22.5866 9.60552 22.1466C9.60552 22.1466 9.56885 22.1099 9.60552 22.1099C10.8889 19.2499 15.0322 16.3166 15.0322 16.3166C16.1689 15.5466 17.4522 14.8866 18.8455 14.3732C19.2489 14.2266 19.6522 14.0799 20.0922 13.9332C20.1289 13.8966 20.2022 13.8966 20.2755 13.8966H20.3855H20.4589L21.0455 13.7866C21.0455 13.7866 23.8689 13.0899 24.8222 13.0532C24.8589 13.0166 25.8855 12.9066 27.7189 13.1266C28.8922 13.2732 30.4322 13.5666 32.1555 14.0799C32.3755 14.1532 32.5589 14.2266 32.7789 14.2632L34.0255 14.9599C34.0622 14.9966 34.1355 15.0332 34.1722 15.0332C34.5389 15.2532 34.8689 15.4732 35.1989 15.7299C35.2355 15.7666 35.4922 15.9499 35.4922 15.9866C35.5289 16.0232 35.6389 16.1332 35.6755 16.1699C35.6755 16.1699 35.6755 16.1699 35.7122 16.2066C35.7489 16.2432 35.7855 16.2799 35.8589 16.3166C35.8955 16.3532 36.1155 16.5732 36.1155 16.5732C36.1522 16.6099 36.2622 16.7199 36.2622 16.7199C36.2989 16.7566 36.4089 16.8666 36.4455 16.9032L36.6655 17.1599C36.6655 17.1599 36.8489 17.3799 36.9222 17.4532C36.9955 17.5266 37.1789 17.8199 37.2155 17.8566C37.2522 17.8932 37.3622 18.1132 37.3989 18.1499L37.4722 18.2599C37.4722 18.2599 37.6189 18.5166 37.6555 18.5899C37.6922 18.6266 37.6922 18.6632 37.7289 18.7366C37.7289 18.7732 37.7655 18.8099 37.7655 18.8466C37.8022 18.9199 38.0589 19.4699 38.0589 19.5066C38.0955 19.5799 38.1322 19.6532 38.1322 19.7266C38.1322 19.7632 38.1689 19.7999 38.1689 19.8366C38.2055 19.8732 38.2055 19.9466 38.2422 19.9832C38.2422 20.0199 38.6089 22.4399 38.4989 24.1999C38.4622 24.6032 38.4255 24.8966 38.3522 25.1532Z" fill="#F3F3F3"/>
<path d="M11.1828 22.9533C11.1828 22.9533 11.1095 22.5133 10.0828 21.12C9.05615 19.7267 9.45948 18.8467 10.0828 18.2967C10.7061 17.7467 14.0428 18.9567 14.0428 18.9567C13.7128 20.68 12.6861 22.11 11.1828 22.9533Z" fill="#E5E5E5"/>
<path d="M38.4994 24.2732C36.4827 23.9065 33.0727 24.4932 29.4427 22.7698C29.4427 22.7698 29.4427 22.7698 29.406 22.7698C29.1494 22.6598 28.9294 22.5132 28.6727 22.3665C27.7927 21.8532 26.876 21.1198 25.9594 20.2765C25.7394 20.0932 25.556 19.9098 25.336 19.6898C23.3927 17.8565 21.486 15.6565 20.1294 14.0065C20.0927 13.9698 20.0927 13.9698 20.056 13.9332C20.0927 13.8965 20.166 13.8965 20.2394 13.8965H20.3494H20.4227L21.0094 13.7865C21.0094 13.7865 23.8327 13.0898 24.786 13.0532C24.8227 13.0165 25.8494 12.9065 27.6827 13.1265C28.1594 12.2098 29.1127 10.4498 29.736 10.3765C29.956 10.3398 30.2127 10.3765 30.4327 10.4132C31.0194 10.5965 31.5327 11.1098 31.7527 12.3198C31.8994 13.2365 32.046 13.7498 32.156 14.0432C32.376 14.1165 32.5594 14.1898 32.7794 14.2265L34.026 14.9232C34.0627 14.9598 34.136 14.9965 34.1727 14.9965C34.5394 15.2165 34.8694 15.4365 35.1994 15.6932C35.236 15.7298 35.4927 15.9132 35.4927 15.9498C35.5294 15.9865 35.6394 16.0965 35.676 16.1332C35.676 16.1332 35.676 16.1332 35.7127 16.1698C35.7494 16.2065 35.786 16.2432 35.8594 16.2799C35.896 16.3165 36.116 16.5365 36.116 16.5365C36.1527 16.5732 36.2627 16.6832 36.2627 16.6832C36.2994 16.7198 36.4094 16.8298 36.446 16.8665L36.666 17.1232C36.666 17.1232 36.8494 17.3432 36.9227 17.4165C36.996 17.4898 37.1794 17.7832 37.216 17.8198C37.2527 17.8565 37.3627 18.0765 37.3994 18.1132L37.4727 18.2232C37.4727 18.2232 37.6194 18.4798 37.656 18.5532C37.6927 18.5898 37.6927 18.6265 37.7294 18.6998C37.7294 18.7365 37.766 18.7732 37.766 18.8098C37.8027 18.8832 38.0594 19.4332 38.0594 19.4698C38.096 19.5432 38.1327 19.6165 38.1327 19.6898C38.1327 19.7265 38.1694 19.7632 38.1694 19.7998C38.206 19.8365 38.206 19.9099 38.2427 19.9465C38.2794 20.0932 38.646 22.5132 38.4994 24.2732Z" fill="#E5E5E5"/>
<path d="M37.6919 22.5128L33.4386 22.1461L37.3253 19.6895C37.3253 19.6895 37.9119 21.5595 37.6919 22.5128Z" fill="#D3D3D3"/>
<path d="M32.7061 20.8629L36.3727 18.8462C36.3727 18.8462 36.0794 17.4529 35.1261 16.8662L32.7061 20.8629Z" fill="#D3D3D3"/>
<path d="M32.1179 19.0663C32.1546 18.8829 33.8413 15.9496 33.8413 15.9496C33.8413 15.9496 33.2179 15.0329 32.3013 14.8496L32.1179 19.0663Z" fill="#D3D3D3"/>
<path d="M31.8612 20.7163C32.7412 23.5397 29.1478 25.6663 26.9112 23.9063C26.6912 23.723 26.5078 23.503 26.2145 23.4663C26.1045 21.5963 25.9212 19.4697 28.1945 18.773C29.7345 18.2597 31.3845 19.1397 31.8612 20.7163Z" fill="#C6C9CB"/>
<path d="M15.508 25.8497C16.388 28.6731 20.5313 28.4531 21.4113 25.7031C21.4846 25.4464 21.5213 25.1164 21.7413 24.9331C20.788 23.3197 19.7246 21.4497 17.488 22.1464C15.9113 22.6597 15.0313 24.3097 15.508 25.8497Z" fill="#C6C9CB"/>
<path d="M24.4569 24.7499L24.4936 24.6033C24.6036 24.2366 24.2736 23.9066 23.9069 24.0166L23.7603 24.0533C23.3936 24.1633 23.3203 24.6399 23.6136 24.8599L23.7236 24.9333C23.9803 25.1899 24.3469 25.0433 24.4569 24.7499Z" fill="#C6CACB"/>
<path d="M22.1102 31.8998C21.4502 32.0832 20.7169 32.1932 19.8735 32.2298C19.7635 32.2298 19.6902 32.1565 19.6902 32.0465C19.6902 31.9365 19.7635 31.8632 19.8735 31.8632C21.9635 31.7898 23.3935 31.2398 24.1269 30.1765C24.8235 29.1498 24.8602 27.7198 24.2369 25.8132C24.0535 25.2265 23.9435 24.9332 23.8702 24.7865C23.7969 24.7865 23.7235 24.7132 23.7235 24.6398C23.6869 24.4198 23.8335 24.3832 23.8702 24.3465C24.0535 24.3098 24.1269 24.4932 24.2002 24.6765C24.2735 24.8965 24.4202 25.2265 24.5669 25.7032C24.8235 26.5098 24.9702 27.2065 25.0069 27.8665C25.0802 28.8565 24.8602 29.7365 24.3835 30.3965C23.9069 31.0932 23.1369 31.6065 22.1102 31.8998Z" fill="#C6CACB"/>
<path d="M29.5168 29.5531C28.7102 29.8098 27.9402 29.8098 27.2802 29.5898C26.5102 29.3331 25.8135 28.7831 25.2635 27.9398C24.8968 27.3898 24.6035 26.7664 24.3102 25.9598C24.1635 25.4831 24.0168 25.1531 23.9802 24.9331C23.9435 24.7498 23.8702 24.5664 24.0535 24.4564C24.0902 24.4198 24.2368 24.3831 24.3468 24.6031C24.3835 24.6764 24.3835 24.7498 24.3102 24.8231C24.3468 24.9698 24.4202 25.2631 24.6402 25.8498C25.3002 27.7564 26.2168 28.8564 27.3902 29.2598C28.6002 29.6264 30.0668 29.2231 31.7902 28.0131C31.8635 27.9398 31.9735 27.9764 32.0468 28.0498C32.1202 28.1231 32.0835 28.2331 32.0102 28.3064C31.1302 28.8931 30.2868 29.3331 29.5168 29.5531Z" fill="#C6CACB"/>
<path d="M31.0211 22.5093C31.6255 21.2272 31.1207 19.7188 29.8935 19.1403C28.6662 18.5617 27.1814 19.1321 26.577 20.4143C25.9725 21.6964 26.4774 23.2048 27.7046 23.7834C28.9318 24.3619 30.4166 23.7915 31.0211 22.5093Z" fill="#A7A9AC"/>
<path d="M18.9233 26.9933C20.2382 26.5209 20.9435 25.1337 20.4984 23.895C20.0534 22.6562 18.6266 22.035 17.3116 22.5074C15.9967 22.9798 15.2914 24.367 15.7365 25.6057C16.1815 26.8445 17.6083 27.4657 18.9233 26.9933Z" fill="#A7A9AC"/>
<path d="M12.5403 41.8732C12.1003 41.6898 11.697 41.4698 11.257 41.2132C10.5603 40.8098 9.86363 40.3698 9.20363 39.9298C8.25029 39.2698 7.37029 38.4998 6.56363 37.6932C6.38029 37.3998 6.19696 37.1065 6.05029 36.8132C6.34363 36.4832 6.74696 36.2265 7.29696 36.0432C9.35029 35.4198 11.0736 36.6298 11.697 37.5098C12.2836 38.3898 12.5036 40.1498 12.5403 41.8732Z" fill="#E5E5E5"/>
<path d="M20.2204 24.842C20.6335 24.6269 20.7941 24.1176 20.579 23.7045C20.3639 23.2914 19.8546 23.1308 19.4415 23.3459C19.0284 23.561 18.8678 24.0703 19.0829 24.4834C19.298 24.8965 19.8073 25.0571 20.2204 24.842Z" fill="#F3F3F3"/>
<path d="M18.2381 23.2751C18.4177 23.1816 18.4875 22.9601 18.394 22.7805C18.3005 22.6009 18.0791 22.5311 17.8995 22.6246C17.7198 22.7181 17.65 22.9396 17.7435 23.1192C17.8371 23.2988 18.0585 23.3686 18.2381 23.2751Z" fill="#F3F3F3"/>
<path d="M31.0792 21.3249C31.4923 21.1098 31.6529 20.6005 31.4378 20.1874C31.2227 19.7743 30.7134 19.6137 30.3003 19.8288C29.8872 20.0439 29.7266 20.5532 29.9417 20.9663C30.1568 21.3794 30.6661 21.54 31.0792 21.3249Z" fill="#F3F3F3"/>
<path d="M29.0969 19.758C29.2765 19.6645 29.3463 19.4431 29.2528 19.2634C29.1593 19.0838 28.9378 19.014 28.7582 19.1075C28.5786 19.201 28.5088 19.4225 28.6023 19.6021C28.6958 19.7817 28.9172 19.8515 29.0969 19.758Z" fill="#F3F3F3"/>
</svg>
