<svg width="23" height="13" viewBox="0 0 23 13" fill="none" xmlns="http://www.w3.org/2000/svg">
<path d="M22.8789 11.7404C22.8523 11.681 22.8275 11.6316 22.8044 11.5921C22.4227 10.8801 21.6933 10.0062 20.6166 8.97013L20.5938 8.94641L20.5824 8.93477L20.5709 8.92285H20.5594C20.0707 8.44039 19.7613 8.11599 19.6317 7.94991C19.3946 7.63354 19.3415 7.3133 19.471 6.98882C19.5626 6.74366 19.9065 6.22593 20.502 5.43491C20.8152 5.01569 21.0632 4.67971 21.2464 4.42657C22.5676 2.60744 23.1404 1.44499 22.9647 0.938763L22.8964 0.820465C22.8506 0.749245 22.7322 0.684092 22.5415 0.624673C22.3504 0.565379 22.1061 0.555573 21.8082 0.595089L18.5094 0.61869C18.456 0.599077 18.3797 0.600905 18.2803 0.624673C18.181 0.648441 18.1313 0.660366 18.1313 0.660366L18.0739 0.690076L18.0283 0.725768C17.9901 0.74937 17.9481 0.79088 17.9022 0.850216C17.8566 0.909344 17.8185 0.978735 17.788 1.05781C17.4288 2.01479 17.0205 2.90453 16.5622 3.72701C16.2796 4.21744 16.0201 4.64248 15.7832 5.00236C15.5465 5.36211 15.3479 5.62717 15.1877 5.79707C15.0272 5.96715 14.8824 6.10339 14.7523 6.20632C14.6225 6.30928 14.5233 6.35279 14.4547 6.33687C14.3859 6.32096 14.3211 6.30517 14.2597 6.28938C14.1529 6.21816 14.067 6.1213 14.0022 5.99872C13.9371 5.87615 13.8933 5.72187 13.8704 5.536C13.8476 5.35002 13.8341 5.19005 13.8303 5.05554C13.8267 4.92121 13.8283 4.73119 13.8361 4.48603C13.844 4.24075 13.8476 4.0748 13.8476 3.98779C13.8476 3.6872 13.8532 3.36098 13.8646 3.00904C13.8762 2.65709 13.8855 2.37824 13.8933 2.17281C13.9011 1.96717 13.9047 1.7496 13.9047 1.52024C13.9047 1.29087 13.8912 1.11099 13.8646 0.980439C13.8383 0.850049 13.7979 0.723483 13.7446 0.600781C13.6911 0.478203 13.6127 0.383382 13.5098 0.316069C13.4068 0.248838 13.2786 0.195485 13.1261 0.155845C12.7213 0.0609823 12.2059 0.00966592 11.5796 0.00168799C10.1593 -0.0141017 9.24674 0.0808854 8.84201 0.286525C8.68165 0.37341 8.53654 0.492123 8.4068 0.642291C8.26931 0.816351 8.25013 0.911339 8.34938 0.926962C8.80763 0.998057 9.13204 1.16813 9.32297 1.43701L9.39177 1.57949C9.44529 1.68229 9.49873 1.86429 9.55221 2.12523C9.60561 2.38618 9.64007 2.67484 9.65524 2.99104C9.69335 3.56849 9.69335 4.06279 9.65524 4.47398C9.61701 4.88535 9.5809 5.20559 9.54644 5.43495C9.51197 5.66432 9.46046 5.85018 9.39177 5.99249C9.32297 6.13485 9.27719 6.22186 9.25424 6.25344C9.23134 6.28502 9.21224 6.30492 9.19707 6.31273C9.09782 6.35212 8.99459 6.37219 8.88775 6.37219C8.78075 6.37219 8.651 6.31676 8.49831 6.20599C8.34565 6.09521 8.18722 5.94305 8.02301 5.74925C7.8588 5.55541 7.67361 5.28453 7.46735 4.93658C7.26126 4.58863 7.04742 4.17739 6.82596 3.70287L6.64273 3.35874C6.52819 3.13735 6.37172 2.81499 6.17317 2.39195C5.9745 1.96875 5.79889 1.55938 5.64624 1.16393C5.58522 0.997849 5.49354 0.871408 5.37138 0.784398L5.31405 0.748705C5.27594 0.717126 5.21475 0.683593 5.13082 0.647859C5.04677 0.612166 4.95907 0.58657 4.86736 0.570822L1.72883 0.594423C1.40812 0.594423 1.19051 0.669673 1.07593 0.819966L1.03007 0.891061C1.00716 0.93066 0.995605 0.993902 0.995605 1.08095C0.995605 1.16796 1.01851 1.27475 1.06437 1.40119C1.52254 2.51644 2.02078 3.59201 2.55911 4.62806C3.09744 5.66411 3.56523 6.49868 3.96222 7.13101C4.35928 7.7638 4.76401 8.36102 5.1764 8.92239C5.58879 9.48396 5.86176 9.84384 5.99532 10.0019C6.12904 10.1603 6.23407 10.2788 6.31042 10.3578L6.59684 10.6425C6.7801 10.8324 7.04923 11.0597 7.40433 11.3246C7.7595 11.5897 8.15272 11.8506 8.58416 12.1079C9.01569 12.3647 9.51771 12.5743 10.0905 12.7364C10.6632 12.8986 11.2206 12.9638 11.7628 12.9323H13.0801C13.3473 12.9084 13.5497 12.8214 13.6873 12.6713L13.7328 12.6118C13.7635 12.5646 13.7922 12.4913 13.8187 12.3926C13.8455 12.2937 13.8588 12.1848 13.8588 12.0664C13.851 11.7263 13.876 11.4199 13.9331 11.1471C13.9902 10.8743 14.0552 10.6687 14.128 10.5302C14.2008 10.3918 14.2828 10.2751 14.3742 10.1804C14.4658 10.0855 14.531 10.0281 14.5693 10.0083C14.6073 9.9884 14.6377 9.97489 14.6606 9.96679C14.8438 9.90355 15.0595 9.9648 15.3079 10.1508C15.5562 10.3367 15.789 10.5662 16.0067 10.8389C16.2244 11.1119 16.4859 11.4182 16.7913 11.7582C17.0969 12.0984 17.3641 12.3512 17.5931 12.5175L17.8221 12.6599C17.975 12.7549 18.1736 12.8419 18.418 12.921C18.6619 13 18.8757 13.0198 19.0593 12.9802L21.9915 12.9329C22.2815 12.9329 22.5072 12.8831 22.6673 12.7845C22.8277 12.6856 22.9229 12.5767 22.9537 12.4582C22.9843 12.3396 22.986 12.2051 22.9595 12.0547C22.9323 11.9046 22.9056 11.7997 22.8789 11.7404Z" fill="#5181B8"/>
</svg>
