<svg width="50" height="50" viewBox="0 0 50 50" fill="none" xmlns="http://www.w3.org/2000/svg">
<circle cx="25" cy="25" r="24.5" fill="white" stroke="#F2F2F2"/>
<g clip-path="url(#clip0)">
<path d="M30.8168 15.6629C29.069 14.5758 27.0507 14 24.9937 14C18.9215 14 14.0001 18.9285 14.0044 25.0043C14.0044 27.1098 14.6099 29.168 15.7436 30.9383L14.0302 35.377C13.94 35.6133 14.056 35.8797 14.2921 35.9699C14.3437 35.9914 14.3995 36 14.4596 36C14.5112 36 14.5627 35.9914 14.6142 35.9742L19.1963 34.3371C24.3495 37.5469 31.1303 35.9699 34.3382 30.8137C37.5461 25.6574 35.9701 18.8727 30.8168 15.6629ZM30.4905 28.2098C30.2586 29.5461 29.0948 30.5172 27.7421 30.5C26.3035 30.5 23.5379 28.777 22.3784 27.6168C21.2189 26.4566 19.4969 23.6895 19.4969 22.25C19.484 20.8965 20.4546 19.732 21.7858 19.5H22.7005C22.8723 19.5 23.0312 19.5988 23.1085 19.7535C23.1085 19.7535 23.6624 20.875 24.0232 21.5797C24.4311 22.3746 23.6667 23.3113 23.2287 23.7496C23.4907 24.4328 23.89 25.0602 24.3968 25.5887C24.925 26.0957 25.552 26.4953 26.2348 26.7574C26.6728 26.3191 27.609 25.5543 28.4034 25.9625C29.1077 26.3277 30.2285 26.8777 30.2285 26.8777C30.3831 26.9551 30.4862 27.1141 30.4862 27.2902V28.2098H30.4905Z" fill="#00E073"/>
</g>
<defs>
<clipPath id="clip0">
<rect width="22" height="22" fill="white" transform="translate(14 14)"/>
</clipPath>
</defs>
</svg>
