<svg width="23" height="22" viewBox="0 0 23 22" fill="none" xmlns="http://www.w3.org/2000/svg">
<path d="M17.8128 1.66289C16.065 0.575781 14.0467 0 11.9897 0C5.91744 0 0.996103 4.92852 1.0004 11.0043C1.0004 13.1098 1.6059 15.168 2.73961 16.9383L1.02616 21.377C0.935982 21.6133 1.05193 21.8797 1.28812 21.9699C1.33965 21.9914 1.39548 22 1.4556 22C1.50713 22 1.55866 21.9914 1.6102 21.9742L6.19228 20.3371C11.3455 23.5469 18.1263 21.9699 21.3342 16.8137C24.5421 11.6574 22.966 4.87266 17.8128 1.66289ZM17.4864 14.2098C17.2545 15.5461 16.0908 16.5172 14.7381 16.5C13.2994 16.5 10.5339 14.777 9.3744 13.6168C8.21492 12.4566 6.49288 9.68945 6.49288 8.25C6.48 6.89648 7.45052 5.73203 8.78178 5.5H9.69647C9.86825 5.5 10.0271 5.59883 10.1044 5.75352C10.1044 5.75352 10.6584 6.875 11.0191 7.57969C11.4271 8.37461 10.6627 9.31133 10.2247 9.74961C10.4866 10.4328 10.886 11.0602 11.3927 11.5887C11.921 12.0957 12.5479 12.4953 13.2307 12.7574C13.6688 12.3191 14.6049 11.5543 15.3994 11.9625C16.1037 12.3277 17.2245 12.8777 17.2245 12.8777C17.3791 12.9551 17.4821 13.1141 17.4821 13.2902V14.2098H17.4864Z" fill="#00E073"/>
</svg>
