<svg width="36" height="44" viewBox="0 0 36 44" fill="none" xmlns="http://www.w3.org/2000/svg">
<path d="M35.9416 11.161C35.9416 11.1161 35.9271 11.0711 35.9271 11.0262V11.0112C35.9125 10.9363 35.8979 10.8465 35.8979 10.7716C35.8979 10.7267 35.7666 10.1275 35.752 10.0527C35.7374 10.0227 35.7374 9.97777 35.7228 9.94781C35.7082 9.90288 35.6936 9.84297 35.679 9.79804C35.6644 9.7531 35.5769 9.45355 35.5769 9.43857L35.5331 9.31875C35.5186 9.25884 35.431 9.03418 35.4164 8.98924C35.4018 8.92933 35.2559 8.6148 35.2122 8.50996C35.1684 8.40512 35.0517 8.16547 35.0517 8.16547L34.8912 7.86592C34.862 7.82099 34.7745 7.67121 34.7599 7.64126C34.7599 7.64126 34.6869 7.50646 34.6578 7.4765C34.6578 7.4765 34.4973 7.2069 34.4681 7.17695C34.4389 7.13202 34.3951 7.0721 34.366 7.02717C34.366 7.01219 34.3514 7.01219 34.3514 6.99722C34.3222 6.95228 34.2201 6.80251 34.2055 6.78753L34.1909 6.77255C34.1617 6.7426 33.972 6.48798 33.9575 6.45802C33.6948 6.14349 33.4176 5.82896 33.1259 5.54438C33.0821 5.49945 33.0529 5.4695 33.0091 5.42456L31.9587 4.48097C31.769 4.36115 31.5939 4.25631 31.4043 4.15146C31.3751 3.85191 31.3459 3.29774 31.4043 2.36912C31.4626 1.111 31.0833 0.48194 30.5581 0.197365C30.3538 0.0925211 30.135 0.0176328 29.9161 0.00265518C29.318 -0.0722331 28.0049 1.45549 27.363 2.2493C25.6852 1.63522 24.6493 1.5154 24.6201 1.54535C23.701 1.33567 20.8414 1.42553 20.8414 1.42553L20.2724 1.41055H20.1995H20.0973C20.039 1.41055 19.9806 1.42553 19.9223 1.42553C19.4846 1.47046 19.0615 1.5154 18.6384 1.57531C17.2086 1.79997 15.8518 2.15944 14.5971 2.6537C14.5971 2.6537 13.211 3.2528 11.65 4.21137C10.8038 3.76204 9.84084 3.34267 9.46151 3.53738C8.73203 3.91182 8.19221 4.69066 8.84874 6.29327C8.84874 6.30825 8.86333 6.32322 8.86333 6.32322C8.60072 6.59282 8.36728 6.86242 8.16303 7.13202C8.14844 7.14699 8.16303 7.16197 8.16303 7.17695C7.85665 7.56637 7.57944 7.95579 7.33142 8.36018C6.28097 10.0826 5.74116 11.9998 5.90164 13.9768C6.04754 15.9539 6.86456 17.7661 8.17763 19.2939C8.87793 20.1027 9.70953 20.8515 10.6724 21.4806C9.73871 22.6189 8.95087 24.4162 8.57154 25.5096C7.87124 27.5316 7.49191 29.4188 7.68157 31.4108C7.33142 31.0663 6.98127 30.7068 6.63112 30.2875C5.52231 28.9395 7.88583 27.936 7.75452 26.3334C7.72534 26.0188 7.62321 25.7193 7.5065 25.4347C7.33142 25.0303 7.12717 24.6259 6.84997 24.2814C3.84451 20.6269 -0.196809 26.9924 0.00744523 29.8831C0.0658037 30.6769 0.240872 31.4557 0.547254 32.1746C0.722329 32.594 0.955768 32.9834 1.21838 33.3579C3.0129 35.8142 5.98918 36.1287 8.70285 35.6345C8.76121 35.6195 8.80497 35.6195 8.86333 35.6045C8.96546 35.7992 9.053 35.979 9.16972 36.1737C9.51987 36.7728 9.69494 36.7129 9.25725 37.267C8.93628 37.6864 8.39647 37.8512 8.10468 38.3454C7.73994 38.9595 7.73993 39.8881 8.27975 40.3225C8.57154 40.5621 8.96546 40.6071 9.3302 40.637C9.37397 40.637 9.41774 40.637 9.4761 40.652C8.67367 43.6026 14.3928 42.2396 15.7934 39.6934C16.0998 39.1243 16.3916 38.5102 16.7271 37.8512C17.9818 38.2106 19.5138 38.4203 21.1624 38.4203C22.6651 38.4203 24.0657 38.2406 25.2475 37.941C25.7581 38.7648 26.3271 39.4987 27.1295 39.993C27.4067 40.6969 27.7423 41.3859 28.1362 42.0449C28.8949 43.3629 31.7544 45.0854 32.8486 43.0933C33.228 42.3894 33.0967 41.5057 32.7757 40.7718C32.7173 40.622 32.6444 40.4872 32.5569 40.3375C32.6736 40.2925 32.7757 40.2176 32.8778 40.1428C33.4031 39.6635 33.3301 38.7498 32.9216 38.1507C32.6006 37.6714 32.0462 37.5366 31.7107 37.1472C31.2438 36.608 31.4043 36.6679 31.7252 36.0539C32.1921 35.1103 32.4693 34.1816 32.6736 33.1332C33.228 30.3474 32.7173 27.9659 31.6085 25.3748C31.4335 24.9704 31.2 24.4761 30.9228 23.9519C30.8207 23.0383 30.6456 22.1396 30.4122 21.2709C32.2797 20.0577 33.7824 18.53 34.7599 16.8076C34.8328 16.6728 34.9204 16.523 34.9933 16.3882C34.9933 16.3882 34.9933 16.3732 35.0079 16.3732C35.1246 16.1336 35.2413 15.834 35.3289 15.5195C35.8395 13.827 36 11.3857 36 11.3258C35.9562 11.2808 35.9562 11.2209 35.9416 11.161Z" fill="#DBD6CC"/>
</svg>
