<svg width="21" height="25" viewBox="0 0 21 25" fill="none" xmlns="http://www.w3.org/2000/svg">
<path d="M21 8.03127C21 8.00616 21 7.96849 21 7.94338V7.93082C21 7.88059 21 7.81781 21 7.76759C21 7.74247 20.9627 7.32811 20.9627 7.26532C20.9627 7.24021 20.9627 7.2151 20.9503 7.18998C20.9503 7.15231 20.9378 7.1272 20.9378 7.08953C20.9378 7.05186 20.9006 6.85096 20.8881 6.8384L20.8757 6.7505C20.8633 6.71283 20.826 6.5496 20.8135 6.51193C20.8011 6.47426 20.7389 6.24824 20.7141 6.1729C20.6892 6.09756 20.6271 5.93433 20.6271 5.93433L20.54 5.72087C20.5276 5.69575 20.4779 5.58274 20.4655 5.55763C20.4655 5.55763 20.4282 5.45718 20.4157 5.44462C20.4157 5.44462 20.3287 5.25627 20.3038 5.2186C20.2914 5.18093 20.2666 5.14326 20.2417 5.10559C20.2417 5.09304 20.2293 5.09304 20.2293 5.08048C20.2168 5.04281 20.1547 4.94236 20.1422 4.9298C20.1422 4.9298 20.1422 4.91725 20.1298 4.91725C20.1174 4.89213 20.0055 4.70378 19.9931 4.69123C19.8439 4.45265 19.6823 4.22663 19.5082 4.00062C19.4834 3.9755 19.4585 3.93783 19.4337 3.91272C19.4337 3.91272 18.7997 3.197 18.7997 3.18444C18.6878 3.09654 18.5635 3.00865 18.4516 2.92075C18.4516 2.70729 18.4889 2.34315 18.6008 1.72788C18.7499 0.899144 18.5386 0.447108 18.203 0.195977C18.0786 0.108081 17.9295 0.0452978 17.7803 0.00762806C17.3825 -0.0928245 16.3631 0.823805 15.8659 1.2884C14.7719 0.735909 14.0758 0.560117 14.0633 0.572674C13.4542 0.359212 11.5025 0.170863 11.5025 0.170863L11.1171 0.10808L11.0674 0.120636L11.0052 0.10808C10.9679 0.10808 10.9307 0.10808 10.8934 0.10808C10.595 0.0955235 10.2967 0.0955236 10.0107 0.0955236C9.02866 0.120637 8.07146 0.246202 7.1764 0.472221C7.1764 0.472221 6.43052 0.685683 5.48575 1.07494C4.91391 0.635457 3.96913 -0.0174857 3.60862 0.10808C3.08651 0.296429 2.65141 0.773579 2.96219 1.90367C3.01192 2.07946 3.04921 2.21758 3.08651 2.35571C2.83788 2.5315 2.61412 2.71985 2.42765 2.92075C2.41522 2.93331 2.42765 2.94586 2.42765 2.95842C2.19145 3.18444 1.96769 3.42301 1.75636 3.67415C0.898598 4.74145 0.376484 5.972 0.314327 7.31555C0.252171 8.6591 0.662404 9.93987 1.42071 11.07C2.26604 12.3382 3.57133 13.418 5.1501 14.1966C4.7523 14.749 4.44152 15.4899 4.26748 15.9545C3.9194 16.9464 3.73293 17.8756 3.81995 18.8425C3.64591 18.6667 3.47188 18.4909 3.29784 18.29C2.73843 17.637 3.9194 17.1348 3.85725 16.3563C3.84481 16.2056 3.79509 16.0549 3.73293 15.9168C3.64591 15.7159 3.54646 15.515 3.40972 15.3518C1.91796 13.5687 -0.0959052 16.6827 0.00354512 18.1016C0.0284077 18.4909 0.115427 18.8676 0.277034 19.2192C0.364053 19.4201 0.475934 19.621 0.612679 19.7968C1.50773 21.0022 2.98706 21.1529 4.34207 20.9143C4.36693 20.9143 4.39179 20.9018 4.41665 20.9018C4.46638 20.9897 4.51611 21.0901 4.56583 21.178C4.73987 21.4794 4.82689 21.4417 4.60312 21.7179C4.44152 21.9188 4.18046 22.0067 4.03128 22.2453C3.84482 22.5467 3.84481 22.9987 4.1183 23.2122C4.26748 23.3252 4.45395 23.3503 4.64042 23.3628C4.66528 23.3628 4.69014 23.3628 4.71501 23.3628C4.3172 24.8068 7.16397 24.1414 7.86012 22.8983C8.02173 22.622 8.15847 22.3206 8.33251 21.9942C8.95408 22.17 9.72482 22.2704 10.5453 22.2704C11.2912 22.2704 11.9873 22.1825 12.584 22.0318C12.8451 22.4337 13.131 22.7978 13.5164 23.0364C13.6531 23.388 13.8271 23.7144 14.0136 24.0409C14.399 24.6813 15.8162 25.5351 16.3631 24.5557C16.5496 24.2167 16.4874 23.7772 16.3258 23.4256C16.2885 23.3503 16.2512 23.2875 16.214 23.2122C16.2761 23.1871 16.3258 23.1619 16.3756 23.1117C16.6366 22.8857 16.5993 22.4211 16.4004 22.1323C16.2388 21.8937 15.9653 21.8309 15.7913 21.6426C15.5551 21.3789 15.6421 21.404 15.7913 21.1027C16.0275 20.6381 16.1642 20.186 16.2637 19.6712C16.5372 18.3025 16.2885 17.1348 15.7416 15.8666C15.6545 15.6657 15.5427 15.4271 15.3935 15.1634C15.3811 15.0127 15.3562 14.862 15.3313 14.7114C17.1587 14.0584 18.6753 12.9911 19.6823 11.6727C19.7444 11.5848 19.8066 11.4969 19.8688 11.409C19.8688 11.409 19.8688 11.3964 19.8812 11.3964C19.9806 11.2458 20.0801 11.0574 20.1671 10.8565C20.6519 9.77664 20.9627 8.14428 20.9627 8.10662C21 8.10662 21 8.06894 21 8.03127Z" fill="#DBD6CC"/>
</svg>
