<svg width="18" height="17" viewBox="0 0 18 17" fill="none" xmlns="http://www.w3.org/2000/svg">
<path d="M17.5965 13.4462L14.8166 10.8146C14.2629 10.2925 13.346 10.3084 12.7731 10.851L11.3726 12.1764C11.2841 12.1302 11.1925 12.082 11.0962 12.0308C10.2118 11.567 9.00139 10.9312 7.72765 9.72462C6.45014 8.5155 5.77788 7.36795 5.28635 6.53026C5.23448 6.44151 5.18478 6.35595 5.13571 6.27469L6.07564 5.38629L6.53774 4.94833C7.1116 4.40498 7.12742 3.53728 6.57503 3.01375L3.79521 0.381834C3.24282 -0.140957 2.32549 -0.125097 1.75163 0.418253L0.968183 1.16411L0.989592 1.18423C0.726892 1.50153 0.507371 1.86748 0.344011 2.26212C0.193423 2.63777 0.0996683 2.99623 0.0567985 3.35543C-0.310258 6.23587 1.0803 8.86838 4.85408 12.4406C10.0706 17.3782 14.2744 17.0052 14.4558 16.987C14.8508 16.9423 15.2293 16.8529 15.614 16.7115C16.0273 16.5587 16.4136 16.3512 16.7486 16.1031L16.7657 16.1175L17.5594 15.3818C18.1321 14.8385 18.1486 13.9705 17.5965 13.4462Z" fill="#008D96"/>
</svg>
