<svg width="21" height="18" viewBox="0 0 21 18" fill="none" xmlns="http://www.w3.org/2000/svg">
<path d="M10.0778 2.9462L10.503 3.62815L10.9269 2.94539C11.8367 1.48002 13.465 0.5 15.3312 0.5C18.1887 0.5 20.5 2.79422 20.5 5.60787C20.5 7.14047 19.8113 8.51485 18.725 9.45462L18.7123 9.46559L18.7004 9.47738L10.662 17.4337C10.6206 17.4746 10.5601 17.5 10.4979 17.5C10.4357 17.5 10.3751 17.4746 10.3338 17.4337L2.29957 9.4816L2.28734 9.46949L2.27431 9.45826C1.18505 8.51924 0.5 7.14544 0.5 5.61209C0.5 2.79398 2.81157 0.5 5.66876 0.5C7.5348 0.5 9.16363 1.47993 10.0778 2.9462Z" stroke="black"/>
</svg>
